<?xml version="1.0" encoding="UTF-8" standalone="no"?>
<!-- Created with Inkscape (http://www.inkscape.org/) -->

<svg
   xmlns:dc="http://purl.org/dc/elements/1.1/"
   xmlns:cc="http://creativecommons.org/ns#"
   xmlns:rdf="http://www.w3.org/1999/02/22-rdf-syntax-ns#"
   xmlns:svg="http://www.w3.org/2000/svg"
   xmlns="http://www.w3.org/2000/svg"
   xmlns:sodipodi="http://sodipodi.sourceforge.net/DTD/sodipodi-0.dtd"
   xmlns:inkscape="http://www.inkscape.org/namespaces/inkscape"
   viewBox="0 0 16.797041 32.975792"
   version="1.1"
   id="numero1"
   inkscape:version="0.92.5 (2060ec1f9f, 2020-04-08)"
   sodipodi:docname="1.svg">
  <defs
     id="defs2" />
  <sodipodi:namedview
     id="base"
     pagecolor="#ffffff"
     bordercolor="#666666"
     borderopacity="1.0"
     inkscape:pageopacity="0.0"
     inkscape:pageshadow="2"
     inkscape:zoom="2.8028133"
     inkscape:cx="-19.58949"
     inkscape:cy="-6.9229754"
     inkscape:document-units="mm"
     inkscape:current-layer="layer1"
     showgrid="false"
     fit-margin-top="0"
     fit-margin-left="0"
     fit-margin-right="0"
     fit-margin-bottom="0"
     inkscape:window-width="1440"
     inkscape:window-height="828"
     inkscape:window-x="0"
     inkscape:window-y="0"
     inkscape:window-maximized="1"
     showguides="true"
     inkscape:guide-bbox="true"
     inkscape:snap-grids="true"
     inkscape:snap-bbox="true"
     inkscape:bbox-paths="true"
     inkscape:snap-bbox-edge-midpoints="true">
    <inkscape:grid
       type="xygrid"
       id="grid150"
       originx="-47.825436"
       originy="-19.940865" />
  </sodipodi:namedview>
  <metadata
     id="metadata5">
    <rdf:RDF>
      <cc:Work
         rdf:about="">
        <dc:format>image/svg+xml</dc:format>
        <dc:type
           rdf:resource="http://purl.org/dc/dcmitype/StillImage" />
        <dc:title />
      </cc:Work>
    </rdf:RDF>
  </metadata>
  <g
     inkscape:label="Capa 1"
     inkscape:groupmode="layer"
     id="layer1"
     transform="translate(-95.053991,-119.56892)">
    <path
       style="font-style:normal;font-variant:normal;font-weight:normal;font-stretch:normal;font-size:51.52467346px;line-height:1.25;font-family:'EB Garamond';-inkscape-font-specification:'EB Garamond';letter-spacing:0px;word-spacing:0px;fill:#000000;fill-opacity:1;stroke:none;stroke-width:1.00000012"
       d="M 37.390625 0 C 37.260799 0 37.129826 0.065486551 37 0.1953125 C 32.585918 4.6093948 28.042875 7.5289458 23.369141 8.9570312 C 18.825232 10.255291 13.63123 11.358796 7.7890625 12.267578 C 6.490803 12.397404 5.3237638 12.78837 4.2851562 13.4375 C 3.3763746 14.08663 2.921875 14.864656 2.921875 15.773438 C 2.921875 16.812045 3.439908 17.592024 4.4785156 18.111328 C 5.5171232 18.630632 6.6861155 18.954158 7.984375 19.083984 C 10.840546 19.21381 13.502057 19.53929 15.96875 20.058594 C 18.435443 20.577898 20.447948 21.486897 22.005859 22.785156 C 23.563771 24.083416 24.341797 25.964948 24.341797 28.431641 L 24.341797 102.82227 C 24.341797 106.58722 23.563771 109.50872 22.005859 111.58594 C 20.577774 113.53333 18.239789 115.09133 14.994141 116.25977 C 11.878318 117.29837 7.8552611 118.46541 2.921875 119.76367 C 0.97448577 120.28298 0 121.12844 0 122.29688 C 0 122.81618 0.25999308 123.33421 0.77929688 123.85352 C 1.2986007 124.37282 2.0130934 124.63281 2.921875 124.63281 C 6.4271756 124.63281 9.7376929 124.50379 12.853516 124.24414 L 22.201172 123.85352 C 25.316995 123.72369 28.627512 123.66016 32.132812 123.66016 C 35.638113 123.66016 38.817657 123.72369 41.673828 123.85352 L 50.632812 124.24414 C 53.748635 124.50379 57.122686 124.63281 60.757812 124.63281 C 62.575376 124.63281 63.484375 123.91832 63.484375 122.49023 C 63.484375 121.8411 63.095362 121.32307 62.316406 120.93359 C 61.667277 120.41429 60.952784 120.08881 60.173828 119.95898 C 54.850964 118.66072 50.696934 117.55722 47.710938 116.64844 C 44.724941 115.60983 42.583416 114.24633 41.285156 112.55859 C 40.116723 110.87086 39.53125 108.40385 39.53125 105.1582 L 39.53125 15.580078 C 39.53125 12.853733 39.596737 10.386729 39.726562 8.1796875 C 39.856388 5.8428204 40.050895 3.6993424 40.310547 1.7519531 C 40.440373 1.2326493 40.245866 0.84363627 39.726562 0.58398438 C 39.207259 0.19450653 38.623739 0 37.974609 0 L 37.390625 0 z "
       transform="matrix(0.26458333,0,0,0.26458333,95.053991,119.56892)"
       id="text12" />
  </g>
</svg>
