<?xml version="1.0" encoding="UTF-8" standalone="no"?>
<!-- Created with Inkscape (http://www.inkscape.org/) -->

<svg
   xmlns:dc="http://purl.org/dc/elements/1.1/"
   xmlns:cc="http://creativecommons.org/ns#"
   xmlns:rdf="http://www.w3.org/1999/02/22-rdf-syntax-ns#"
   xmlns:svg="http://www.w3.org/2000/svg"
   xmlns="http://www.w3.org/2000/svg"
   xmlns:sodipodi="http://sodipodi.sourceforge.net/DTD/sodipodi-0.dtd"
   xmlns:inkscape="http://www.inkscape.org/namespaces/inkscape"
   viewBox="0 0 68.167084 33.542561"
   version="1.1"
   id="numero100"
   inkscape:version="0.92.5 (2060ec1f9f, 2020-04-08)"
   sodipodi:docname="100.svg">
  <defs
     id="defs2" />
  <sodipodi:namedview
     id="base"
     pagecolor="#ffffff"
     bordercolor="#666666"
     borderopacity="1.0"
     inkscape:pageopacity="0.0"
     inkscape:pageshadow="2"
     inkscape:zoom="4.157056"
     inkscape:cx="168.40398"
     inkscape:cy="25.859942"
     inkscape:document-units="mm"
     inkscape:current-layer="layer1"
     showgrid="false"
     fit-margin-top="0"
     fit-margin-left="0"
     fit-margin-right="0"
     fit-margin-bottom="0"
     inkscape:window-width="1440"
     inkscape:window-height="828"
     inkscape:window-x="0"
     inkscape:window-y="0"
     inkscape:window-maximized="1"
     showguides="true"
     inkscape:guide-bbox="true"
     inkscape:snap-grids="true"
     inkscape:snap-bbox="true"
     inkscape:bbox-paths="true"
     inkscape:snap-bbox-edge-midpoints="true">
    <inkscape:grid
       type="xygrid"
       id="grid150"
       originx="-22.14041"
       originy="-19.374093" />
  </sodipodi:namedview>
  <metadata
     id="metadata5">
    <rdf:RDF>
      <cc:Work
         rdf:about="">
        <dc:format>image/svg+xml</dc:format>
        <dc:type
           rdf:resource="http://purl.org/dc/dcmitype/StillImage" />
        <dc:title />
      </cc:Work>
    </rdf:RDF>
  </metadata>
  <g
     inkscape:label="Capa 1"
     inkscape:groupmode="layer"
     id="layer1"
     transform="translate(-69.368963,-119.56892)">
    <path
       style="font-style:normal;font-variant:normal;font-weight:normal;font-stretch:normal;font-size:51.52467346px;line-height:1.25;font-family:'EB Garamond';-inkscape-font-specification:'EB Garamond';letter-spacing:0px;word-spacing:0px;fill-opacity:1;stroke:none;stroke-width:1.00000012"
       d="M 37.390625 0 C 37.260799 0 37.129826 0.065486551 37 0.1953125 C 32.585918 4.6093948 28.042875 7.5289458 23.369141 8.9570312 C 18.825232 10.255291 13.63123 11.358796 7.7890625 12.267578 C 6.490803 12.397404 5.3237638 12.78837 4.2851562 13.4375 C 3.3763746 14.08663 2.921875 14.864656 2.921875 15.773438 C 2.921875 16.812045 3.439908 17.592024 4.4785156 18.111328 C 5.5171232 18.630632 6.6861155 18.954158 7.984375 19.083984 C 10.840546 19.21381 13.502057 19.53929 15.96875 20.058594 C 18.435443 20.577898 20.447948 21.486897 22.005859 22.785156 C 23.563771 24.083416 24.341797 25.964948 24.341797 28.431641 L 24.341797 102.82227 C 24.341797 106.58722 23.563771 109.50872 22.005859 111.58594 C 20.577774 113.53333 18.239789 115.09133 14.994141 116.25977 C 11.878318 117.29837 7.8552611 118.46541 2.921875 119.76367 C 0.97448577 120.28298 0 121.12844 0 122.29688 C 0 122.81618 0.25999308 123.33421 0.77929688 123.85352 C 1.2986007 124.37282 2.0130934 124.63281 2.921875 124.63281 C 6.4271756 124.63281 9.7376929 124.50379 12.853516 124.24414 L 22.201172 123.85352 C 25.316995 123.72369 28.627512 123.66016 32.132812 123.66016 C 35.638113 123.66016 38.817657 123.72369 41.673828 123.85352 L 50.632812 124.24414 C 53.748635 124.50379 57.122686 124.63281 60.757812 124.63281 C 62.575376 124.63281 63.484375 123.91832 63.484375 122.49023 C 63.484375 121.8411 63.095362 121.32307 62.316406 120.93359 C 61.667277 120.41429 60.952784 120.08881 60.173828 119.95898 C 54.850964 118.66072 50.696934 117.55722 47.710938 116.64844 C 44.724941 115.60983 42.583416 114.24633 41.285156 112.55859 C 40.116723 110.87086 39.53125 108.40385 39.53125 105.1582 L 39.53125 15.580078 C 39.53125 12.853733 39.596737 10.386729 39.726562 8.1796875 C 39.856388 5.8428204 40.050895 3.6993424 40.310547 1.7519531 C 40.440373 1.2326493 40.245866 0.84363627 39.726562 0.58398438 C 39.207259 0.19450653 38.623739 0 37.974609 0 L 37.390625 0 z M 125.2168 1.3632812 C 118.07637 1.3632812 111.90983 3.3102997 106.7168 7.2050781 C 101.52376 10.970031 97.238756 15.969526 93.863281 22.201172 C 90.617633 28.432817 88.216115 35.311892 86.658203 42.841797 C 85.100292 50.371702 84.322266 57.838202 84.322266 65.238281 C 84.322266 72.378708 85.100292 79.583262 86.658203 86.853516 C 88.216115 94.123769 90.617633 100.81029 93.863281 106.91211 C 97.10893 112.8841 101.13394 117.68714 105.9375 121.32227 C 110.87089 124.95739 116.64841 126.77539 123.26953 126.77539 C 130.53978 126.77539 136.70632 124.82837 141.76953 120.93359 C 146.96257 117.03882 151.18209 111.9103 154.42773 105.54883 C 157.80321 99.187357 160.27021 92.240843 161.82812 84.710938 C 163.38604 77.181032 164.16406 69.781972 164.16406 62.511719 C 164.16406 55.501118 163.38604 48.425583 161.82812 41.285156 C 160.27021 34.014903 157.8687 27.393869 154.62305 21.421875 C 151.3774 15.320055 147.2869 10.451533 142.35352 6.8164062 C 137.54996 3.1812797 131.83792 1.3632812 125.2168 1.3632812 z M 218.69141 1.3632812 C 211.55098 1.3632812 205.38444 3.3102997 200.19141 7.2050781 C 194.99837 10.970031 190.71337 15.969526 187.33789 22.201172 C 184.09224 28.432817 181.69072 35.311892 180.13281 42.841797 C 178.5749 50.371702 177.79687 57.838202 177.79688 65.238281 C 177.79688 72.378708 178.5749 79.583262 180.13281 86.853516 C 181.69072 94.123769 184.09224 100.81029 187.33789 106.91211 C 190.58354 112.8841 194.60855 117.68714 199.41211 121.32227 C 204.3455 124.95739 210.12302 126.77539 216.74414 126.77539 C 224.01439 126.77539 230.18093 124.82837 235.24414 120.93359 C 240.43718 117.03882 244.6567 111.9103 247.90234 105.54883 C 251.27782 99.187357 253.74482 92.240843 255.30273 84.710938 C 256.86065 77.181032 257.63867 69.781972 257.63867 62.511719 C 257.63867 55.501118 256.86065 48.425583 255.30273 41.285156 C 253.74482 34.014903 251.3433 27.393869 248.09766 21.421875 C 244.85201 15.320055 240.76151 10.451533 235.82812 6.8164062 C 231.02456 3.1812797 225.31253 1.3632812 218.69141 1.3632812 z M 121.51758 6.8164062 C 125.93166 6.8164063 129.76021 8.5034316 133.00586 11.878906 C 136.38133 15.254381 139.17382 19.799377 141.38086 25.511719 C 143.71773 31.224061 145.40475 37.585102 146.44336 44.595703 C 147.61179 51.606304 148.19531 58.745372 148.19531 66.015625 C 148.19531 75.752571 147.48277 84.84061 146.05469 93.279297 C 144.6266 101.71798 142.28862 108.59901 139.04297 113.92188 C 135.92715 119.11491 131.77312 121.71094 126.58008 121.71094 C 122.166 121.71094 118.33549 120.02391 115.08984 116.64844 C 111.8442 113.14314 109.11915 108.53461 106.91211 102.82227 C 104.83489 96.980098 103.2114 90.488083 102.04297 83.347656 C 101.00436 76.207229 100.48438 69.002675 100.48438 61.732422 C 100.48437 51.995476 101.13338 42.972923 102.43164 34.664062 C 103.85973 26.225376 106.06674 19.473368 109.05273 14.410156 C 112.16856 9.3469442 116.32454 6.8164062 121.51758 6.8164062 z M 214.99219 6.8164062 C 219.40627 6.8164063 223.23482 8.5034316 226.48047 11.878906 C 229.85594 15.254381 232.64843 19.799377 234.85547 25.511719 C 237.19234 31.224061 238.87936 37.585102 239.91797 44.595703 C 241.0864 51.606304 241.66992 58.745372 241.66992 66.015625 C 241.66992 75.752571 240.95738 84.84061 239.5293 93.279297 C 238.10121 101.71798 235.76323 108.59901 232.51758 113.92188 C 229.40176 119.11491 225.24773 121.71094 220.05469 121.71094 C 215.64061 121.71094 211.8101 120.02391 208.56445 116.64844 C 205.3188 113.14314 202.59376 108.53461 200.38672 102.82227 C 198.3095 96.980098 196.68601 90.488083 195.51758 83.347656 C 194.47897 76.207229 193.95898 69.002675 193.95898 61.732422 C 193.95898 51.995476 194.60799 42.972923 195.90625 34.664062 C 197.33434 26.225376 199.54135 19.473368 202.52734 14.410156 C 205.64317 9.3469442 209.79915 6.8164062 214.99219 6.8164062 z "
       transform="matrix(0.26458333,0,0,0.26458333,69.368963,119.56892)"
       id="text12" />
  </g>
</svg>
