<?xml version="1.0" encoding="UTF-8" standalone="no"?>
<!-- Created with Inkscape (http://www.inkscape.org/) -->

<svg
   xmlns:dc="http://purl.org/dc/elements/1.1/"
   xmlns:cc="http://creativecommons.org/ns#"
   xmlns:rdf="http://www.w3.org/1999/02/22-rdf-syntax-ns#"
   xmlns:svg="http://www.w3.org/2000/svg"
   xmlns="http://www.w3.org/2000/svg"
   xmlns:sodipodi="http://sodipodi.sourceforge.net/DTD/sodipodi-0.dtd"
   xmlns:inkscape="http://www.inkscape.org/namespaces/inkscape"
   viewBox="0 0 22.619329 32.61512"
   version="1.1"
   id="numero2"
   inkscape:version="0.92.5 (2060ec1f9f, 2020-04-08)"
   sodipodi:docname="2.svg">
  <defs
     id="defs2" />
  <sodipodi:namedview
     id="base"
     pagecolor="#ffffff"
     bordercolor="#666666"
     borderopacity="1.0"
     inkscape:pageopacity="0.0"
     inkscape:pageshadow="2"
     inkscape:zoom="2.8028133"
     inkscape:cx="20.239108"
     inkscape:cy="8.9132781"
     inkscape:document-units="mm"
     inkscape:current-layer="layer1"
     showgrid="false"
     fit-margin-top="0"
     fit-margin-left="0"
     fit-margin-right="0"
     fit-margin-bottom="0"
     inkscape:window-width="1440"
     inkscape:window-height="828"
     inkscape:window-x="0"
     inkscape:window-y="0"
     inkscape:window-maximized="1"
     showguides="true"
     inkscape:guide-bbox="true"
     inkscape:snap-grids="true"
     inkscape:snap-bbox="true"
     inkscape:bbox-paths="true"
     inkscape:snap-bbox-edge-midpoints="true">
    <inkscape:grid
       type="xygrid"
       id="grid150"
       originx="-44.914291"
       originy="-19.940865" />
  </sodipodi:namedview>
  <metadata
     id="metadata5">
    <rdf:RDF>
      <cc:Work
         rdf:about="">
        <dc:format>image/svg+xml</dc:format>
        <dc:type
           rdf:resource="http://purl.org/dc/dcmitype/StillImage" />
        <dc:title />
      </cc:Work>
    </rdf:RDF>
  </metadata>
  <g
     inkscape:label="Capa 1"
     inkscape:groupmode="layer"
     id="layer1"
     transform="translate(-92.142846,-119.92959)">
    <path
       style="font-style:normal;font-variant:normal;font-weight:normal;font-stretch:normal;font-size:51.52467346px;line-height:1.25;font-family:'EB Garamond';-inkscape-font-specification:'EB Garamond';letter-spacing:0px;word-spacing:0px;fill:#000000;fill-opacity:1;stroke:none;stroke-width:1.00000012"
       d="M 42.648438 0 C 37.195748 0 32.132719 1.0380192 27.458984 3.1152344 C 22.78525 5.0626236 18.76024 7.4641416 15.384766 10.320312 C 12.009291 13.176483 9.3477799 15.968968 7.4003906 18.695312 C 5.5828273 21.421657 4.6738281 23.563182 4.6738281 25.121094 C 4.6738281 26.808831 4.9973546 28.237816 5.6464844 29.40625 C 6.4254401 30.444858 7.0763993 30.962891 7.5957031 30.962891 C 8.2448329 30.962891 8.8283525 30.702898 9.3476562 30.183594 C 9.996786 29.66429 10.516772 29.015284 10.90625 28.236328 C 13.632595 23.562594 17.266639 19.797577 21.810547 16.941406 C 26.354455 13.955409 31.288464 12.462891 36.611328 12.462891 C 42.193844 12.462891 47.062367 14.475396 51.216797 18.5 C 55.371227 22.394778 57.447266 27.783287 57.447266 34.664062 C 57.447266 43.232575 55.305741 51.735141 51.021484 60.173828 C 46.737228 68.482689 41.348719 76.012723 34.857422 82.763672 L 1.5585938 117.23242 L 0.38867188 118.40039 C 0.12901998 118.66004 0 119.11454 0 119.76367 C 0 120.28298 0.51998616 120.99747 1.5585938 121.90625 C 2.5972013 122.68521 3.3752275 123.07422 3.8945312 123.07422 C 4.9331388 123.07422 7.3346569 123.01069 11.099609 122.88086 C 14.864562 122.75103 19.215051 122.68555 24.148438 122.68555 C 29.21165 122.55572 34.014686 122.4267 38.558594 122.29688 C 43.102502 122.16705 46.607526 122.10156 49.074219 122.10156 C 51.540912 122.10156 54.073403 122.16705 56.669922 122.29688 C 59.396267 122.4267 61.992291 122.55572 64.458984 122.68555 C 66.925677 122.81537 69.132689 122.94439 71.080078 123.07422 C 73.027467 123.20404 74.4545 123.26953 75.363281 123.26953 C 76.012411 123.26953 76.79239 123.00954 77.701172 122.49023 C 78.609954 121.97093 79.25896 120.67292 79.648438 118.5957 C 80.297567 115.35005 81.075593 112.36502 81.984375 109.63867 C 82.893157 106.91233 83.673136 104.63983 84.322266 102.82227 C 85.101221 100.87488 85.490234 99.576864 85.490234 98.927734 C 85.490234 98.408431 85.424748 97.888444 85.294922 97.369141 C 85.165096 96.849837 84.776083 96.589844 84.126953 96.589844 C 83.088346 96.589844 82.115813 97.175316 81.207031 98.34375 C 80.428076 99.382358 79.777116 100.29136 79.257812 101.07031 C 77.699901 103.66683 76.207382 105.61385 74.779297 106.91211 C 73.351211 108.08054 71.5987 108.85857 69.521484 109.24805 C 67.444269 109.63752 64.522765 109.963 60.757812 110.22266 C 57.252512 110.35248 53.618468 110.4815 49.853516 110.61133 C 46.088563 110.74115 42.323546 110.80664 38.558594 110.80664 C 34.923467 110.80664 31.678437 110.74115 28.822266 110.61133 C 26.095921 110.4815 23.628916 110.35248 21.421875 110.22266 C 19.604312 109.963 18.695312 109.5085 18.695312 108.85938 C 18.695313 108.59972 19.798818 107.36524 22.005859 105.1582 C 24.212901 102.82134 27.003432 99.965318 30.378906 96.589844 C 33.884207 93.084543 37.520204 89.385013 41.285156 85.490234 C 45.179935 81.595456 48.750445 77.961412 51.996094 74.585938 C 55.371568 71.080637 57.902106 68.288153 59.589844 66.210938 C 62.316189 62.835463 64.717707 59.201419 66.794922 55.306641 C 69.001963 51.411862 70.690941 47.452339 71.859375 43.427734 C 73.157634 39.40313 73.806641 35.638113 73.806641 32.132812 C 73.806641 25.771341 72.572162 20.188326 70.105469 15.384766 C 67.638776 10.581206 64.068265 6.8161887 59.394531 4.0898438 C 54.720797 1.3634988 49.139735 0 42.648438 0 z "
       transform="matrix(0.26458333,0,0,0.26458333,92.142846,119.92959)"
       id="text12" />
  </g>
</svg>
