<?xml version="1.0" encoding="UTF-8" standalone="no"?>
<!-- Created with Inkscape (http://www.inkscape.org/) -->

<svg
   xmlns:dc="http://purl.org/dc/elements/1.1/"
   xmlns:cc="http://creativecommons.org/ns#"
   xmlns:rdf="http://www.w3.org/1999/02/22-rdf-syntax-ns#"
   xmlns:svg="http://www.w3.org/2000/svg"
   xmlns="http://www.w3.org/2000/svg"
   xmlns:sodipodi="http://sodipodi.sourceforge.net/DTD/sodipodi-0.dtd"
   xmlns:inkscape="http://www.inkscape.org/namespaces/inkscape"
   viewBox="0 0 45.599307 34.418484"
   version="1.1"
   id="numero30"
   inkscape:version="0.92.5 (2060ec1f9f, 2020-04-08)"
   sodipodi:docname="30.svg">
  <defs
     id="defs2" />
  <sodipodi:namedview
     id="base"
     pagecolor="#ffffff"
     bordercolor="#666666"
     borderopacity="1.0"
     inkscape:pageopacity="0.0"
     inkscape:pageshadow="2"
     inkscape:zoom="1.1541526"
     inkscape:cx="204.66134"
     inkscape:cy="-9.3402059"
     inkscape:document-units="mm"
     inkscape:current-layer="layer1"
     showgrid="false"
     fit-margin-top="0"
     fit-margin-left="0"
     fit-margin-right="0"
     fit-margin-bottom="0"
     inkscape:window-width="1440"
     inkscape:window-height="828"
     inkscape:window-x="0"
     inkscape:window-y="0"
     inkscape:window-maximized="1"
     showguides="true"
     inkscape:guide-bbox="true"
     inkscape:snap-grids="true"
     inkscape:snap-bbox="true"
     inkscape:bbox-paths="true"
     inkscape:snap-bbox-edge-midpoints="true">
    <inkscape:grid
       type="xygrid"
       id="grid150"
       originx="-33.424302"
       originy="-18.137502" />
  </sodipodi:namedview>
  <metadata
     id="metadata5">
    <rdf:RDF>
      <cc:Work
         rdf:about="">
        <dc:format>image/svg+xml</dc:format>
        <dc:type
           rdf:resource="http://purl.org/dc/dcmitype/StillImage" />
        <dc:title></dc:title>
      </cc:Work>
    </rdf:RDF>
  </metadata>
  <g
     inkscape:label="Capa 1"
     inkscape:groupmode="layer"
     id="layer1"
     transform="translate(-80.652856,-119.92959)">
    <path
       style="font-style:normal;font-variant:normal;font-weight:normal;font-stretch:normal;font-size:51.52467346px;line-height:1.25;font-family:'EB Garamond';-inkscape-font-specification:'EB Garamond';letter-spacing:0px;word-spacing:0px;fill:#000000;fill-opacity:1;stroke:none;stroke-width:1.00000012"
       d="M 41.089844 0 C 34.46872 0 28.756685 0.97448577 23.953125 2.921875 C 19.279391 4.8692642 15.383401 7.2707822 12.267578 10.126953 C 9.2815813 12.983124 7.0745698 15.839142 5.6464844 18.695312 C 4.2183989 21.421657 3.5058594 23.628669 3.5058594 25.316406 C 3.5058594 26.225188 3.8948724 27.068701 4.6738281 27.847656 C 5.4527838 28.626612 6.10179 29.015625 6.6210938 29.015625 C 7.4000494 29.015625 8.2435621 28.172112 9.1523438 26.484375 C 10.061125 24.666812 11.424624 22.654307 13.242188 20.447266 C 15.059751 18.110399 17.461269 16.097894 20.447266 14.410156 C 23.563088 12.592593 27.653585 11.683594 32.716797 11.683594 C 38.039661 11.683594 42.388197 13.761585 45.763672 17.916016 C 49.268972 21.94062 51.021484 26.614636 51.021484 31.9375 C 51.021484 35.442801 49.983465 38.687831 47.90625 41.673828 C 45.829035 44.529999 43.296544 47.126024 40.310547 49.462891 C 37.454376 51.669932 34.729331 53.553417 32.132812 55.111328 C 29.536294 56.539414 27.652809 57.511946 26.484375 58.03125 C 25.186116 58.550554 24.017123 59.39602 22.978516 60.564453 C 21.939908 61.603061 21.161882 62.96656 20.642578 64.654297 C 20.512752 65.303427 20.836279 65.886946 21.615234 66.40625 C 22.524016 66.795728 23.303995 66.795728 23.953125 66.40625 C 26.160166 65.107991 28.432664 64.328011 30.769531 64.068359 C 33.236224 63.678882 35.183243 63.484375 36.611328 63.484375 C 41.67454 63.484375 45.82857 65.04238 49.074219 68.158203 C 52.449693 71.1442 54.982185 74.974703 56.669922 79.648438 C 58.357659 84.322172 59.201172 89.190694 59.201172 94.253906 C 59.201172 99.57677 57.772187 104.44529 54.916016 108.85938 C 52.189671 113.14363 48.684647 116.51964 44.400391 118.98633 C 40.116134 121.45302 35.573091 122.68555 30.769531 122.68555 C 27.134405 122.68555 24.212901 122.03654 22.005859 120.73828 C 19.798818 119.44002 17.8518 118.07652 16.164062 116.64844 C 14.865803 115.60983 13.631324 114.70083 12.462891 113.92188 C 11.294457 113.14292 9.9964448 112.75391 8.5683594 112.75391 C 7.6595777 112.75391 6.4905854 113.33743 5.0625 114.50586 C 3.7642405 115.54447 2.5972013 116.77895 1.5585938 118.20703 C 0.51998616 119.63512 0 120.80216 0 121.71094 C 0 122.74955 1.1689923 123.91854 3.5058594 125.2168 C 5.8427265 126.51506 8.6987441 127.61856 12.074219 128.52734 C 15.449693 129.56595 18.629238 130.08594 21.615234 130.08594 C 28.236358 130.08594 34.728372 128.98243 41.089844 126.77539 C 47.581141 124.69818 53.42415 121.64765 58.617188 117.62305 C 63.810225 113.46862 67.964255 108.53461 71.080078 102.82227 C 74.195901 96.980098 75.753906 90.42455 75.753906 83.154297 C 75.753906 77.571781 74.390407 72.508752 71.664062 67.964844 C 69.067544 63.29111 65.56252 59.589626 61.148438 56.863281 C 56.734355 54.00711 51.73486 52.580078 46.152344 52.580078 C 45.63304 52.580078 45.375 52.449105 45.375 52.189453 C 45.375 51.799975 45.569507 51.539982 45.958984 51.410156 C 51.022196 48.424159 55.045253 45.310102 58.03125 42.064453 C 61.017247 38.688978 63.160725 35.312975 64.458984 31.9375 C 65.757244 28.562025 66.40625 25.316995 66.40625 22.201172 C 66.40625 17.78709 65.171771 13.956586 62.705078 10.710938 C 60.238385 7.3354628 57.058841 4.7394383 53.164062 2.921875 C 49.39911 0.97448577 45.3741 0 41.089844 0 z M 133.39648 0 C 126.25606 0 120.08952 1.9470184 114.89648 5.8417969 C 109.70345 9.6067494 105.41844 14.606245 102.04297 20.837891 C 98.79732 27.069536 96.395802 33.948611 94.837891 41.478516 C 93.279979 49.008421 92.5 56.474921 92.5 63.875 C 92.5 71.015427 93.279979 78.219981 94.837891 85.490234 C 96.395802 92.760488 98.79732 99.447009 102.04297 105.54883 C 105.28862 111.52082 109.31363 116.32386 114.11719 119.95898 C 119.05057 123.59411 124.8281 125.41211 131.44922 125.41211 C 138.71947 125.41211 144.88601 123.46509 149.94922 119.57031 C 155.14226 115.67553 159.36177 110.54702 162.60742 104.18555 C 165.9829 97.824075 168.4499 90.877561 170.00781 83.347656 C 171.56572 75.817751 172.34375 68.418691 172.34375 61.148438 C 172.34375 54.137836 171.56572 47.062302 170.00781 39.921875 C 168.4499 32.651622 166.04643 26.030587 162.80078 20.058594 C 159.55513 13.956774 155.46659 9.0882516 150.5332 5.453125 C 145.72964 1.8179984 140.01761 0 133.39648 0 z M 129.69531 5.453125 C 134.10939 5.453125 137.9399 7.1401503 141.18555 10.515625 C 144.56102 13.8911 147.35155 18.436096 149.55859 24.148438 C 151.89546 29.860779 153.58444 36.221821 154.62305 43.232422 C 155.79148 50.243023 156.375 57.384044 156.375 64.654297 C 156.375 74.391243 155.66051 83.477329 154.23242 91.916016 C 152.80434 100.3547 150.4683 107.23573 147.22266 112.55859 C 144.10683 117.75163 139.9528 120.34961 134.75977 120.34961 C 130.34568 120.34961 126.51518 118.66063 123.26953 115.28516 C 120.02388 111.77986 117.29688 107.17133 115.08984 101.45898 C 113.01263 95.616817 111.39109 89.124802 110.22266 81.984375 C 109.18405 74.843948 108.66406 67.639394 108.66406 60.369141 C 108.66406 50.632194 109.31307 41.609642 110.61133 33.300781 C 112.03941 24.862095 114.24643 18.110087 117.23242 13.046875 C 120.34824 7.983663 124.50227 5.453125 129.69531 5.453125 z "
       transform="matrix(0.26458333,0,0,0.26458333,80.652856,119.92959)"
       id="text12" />
  </g>
</svg>
