<?xml version="1.0" encoding="UTF-8" standalone="no"?>
<!-- Created with Inkscape (http://www.inkscape.org/) -->

<svg
   xmlns:dc="http://purl.org/dc/elements/1.1/"
   xmlns:cc="http://creativecommons.org/ns#"
   xmlns:rdf="http://www.w3.org/1999/02/22-rdf-syntax-ns#"
   xmlns:svg="http://www.w3.org/2000/svg"
   xmlns="http://www.w3.org/2000/svg"
   xmlns:sodipodi="http://sodipodi.sourceforge.net/DTD/sodipodi-0.dtd"
   xmlns:inkscape="http://www.inkscape.org/namespaces/inkscape"
   viewBox="0 0 19.270225 33.181889"
   version="1.1"
   id="numero8"
   inkscape:version="0.92.5 (2060ec1f9f, 2020-04-08)"
   sodipodi:docname="8.svg">
  <defs
     id="defs2" />
  <sodipodi:namedview
     id="base"
     pagecolor="#ffffff"
     bordercolor="#666666"
     borderopacity="1.0"
     inkscape:pageopacity="0.0"
     inkscape:pageshadow="2"
     inkscape:zoom="1.1541526"
     inkscape:cx="162.77257"
     inkscape:cy="3.7849853"
     inkscape:document-units="mm"
     inkscape:current-layer="layer1"
     showgrid="false"
     fit-margin-top="0"
     fit-margin-left="0"
     fit-margin-right="0"
     fit-margin-bottom="0"
     inkscape:window-width="1440"
     inkscape:window-height="828"
     inkscape:window-x="0"
     inkscape:window-y="0"
     inkscape:window-maximized="1"
     showguides="true"
     inkscape:guide-bbox="true"
     inkscape:snap-grids="true"
     inkscape:snap-bbox="true"
     inkscape:bbox-paths="true"
     inkscape:snap-bbox-edge-midpoints="true">
    <inkscape:grid
       type="xygrid"
       id="grid150"
       originx="-46.588838"
       originy="-19.374093" />
  </sodipodi:namedview>
  <metadata
     id="metadata5">
    <rdf:RDF>
      <cc:Work
         rdf:about="">
        <dc:format>image/svg+xml</dc:format>
        <dc:type
           rdf:resource="http://purl.org/dc/dcmitype/StillImage" />
        <dc:title></dc:title>
      </cc:Work>
    </rdf:RDF>
  </metadata>
  <g
     inkscape:label="Capa 1"
     inkscape:groupmode="layer"
     id="layer1"
     transform="translate(-93.817396,-119.92959)">
    <path
       style="font-style:normal;font-variant:normal;font-weight:normal;font-stretch:normal;font-size:51.52467346px;line-height:1.25;font-family:'EB Garamond';-inkscape-font-specification:'EB Garamond';letter-spacing:0px;word-spacing:0px;fill:#000000;fill-opacity:1;stroke:none;stroke-width:1.00000012"
       d="M 38.363281 0 C 32.650939 0 27.067924 1.2325257 21.615234 3.6992188 C 16.162545 6.1659118 11.684988 9.476429 8.1796875 13.630859 C 4.6743869 17.78529 2.921875 22.395772 2.921875 27.458984 C 2.921875 32.911674 3.9598942 37.583737 6.0371094 41.478516 C 8.2441505 45.243468 11.034682 48.684958 14.410156 51.800781 C 17.915457 54.786778 21.61694 57.966322 25.511719 61.341797 C 26.290674 61.990927 26.808707 62.445426 27.068359 62.705078 C 27.328011 62.96473 27.004485 63.355696 26.095703 63.875 C 22.850054 65.692563 19.148571 67.963108 14.994141 70.689453 C 10.969536 73.285972 7.4645124 76.596489 4.4785156 80.621094 C 1.4925188 84.645698 0 89.514221 0 95.226562 C 0 101.19856 1.6234919 106.45804 4.8691406 111.00195 C 8.1147893 115.54586 12.334306 119.11442 17.527344 121.71094 C 22.850208 124.17763 28.496756 125.41211 34.46875 125.41211 C 40.830221 125.41211 46.93127 123.91959 52.773438 120.93359 C 58.615605 117.9476 63.420594 113.8571 67.185547 108.66406 C 70.950499 103.47102 72.832031 97.498996 72.832031 90.748047 C 72.832031 85.684835 71.728526 81.270812 69.521484 77.505859 C 67.444269 73.740907 64.522765 70.235883 60.757812 66.990234 C 56.99286 63.744586 52.644324 60.434068 47.710938 57.058594 C 46.67233 56.409464 46.152344 55.889478 46.152344 55.5 C 46.152344 54.980696 46.99781 54.137184 48.685547 52.96875 C 50.892588 51.281013 52.708633 49.917514 54.136719 48.878906 C 55.564804 47.710473 57.188296 46.346974 59.005859 44.789062 C 61.212901 42.841673 63.485399 40.440155 65.822266 37.583984 C 68.159133 34.597988 69.326172 30.769437 69.326172 26.095703 C 69.326172 20.772839 67.833653 16.16431 64.847656 12.269531 C 61.861659 8.3747528 57.967623 5.3877621 53.164062 3.3105469 C 48.490328 1.1035057 43.556319 0 38.363281 0 z M 37.390625 4.6738281 C 43.102967 4.6738281 47.322483 6.6863331 50.048828 10.710938 C 52.904999 14.605716 54.332031 19.279732 54.332031 24.732422 C 54.332031 30.704416 53.617539 35.961951 52.189453 40.505859 C 50.891194 45.049768 47.971643 49.203797 43.427734 52.96875 C 43.038257 53.228402 42.583757 53.293888 42.064453 53.164062 C 41.545149 52.904411 41.09065 52.644418 40.701172 52.384766 C 36.157264 48.619813 32.132254 45.569289 28.626953 43.232422 C 25.251478 40.765729 22.589967 38.104218 20.642578 35.248047 C 18.825015 32.391876 17.916016 28.495886 17.916016 23.5625 C 17.916016 20.057199 18.890501 16.877655 20.837891 14.021484 C 22.915106 11.165313 25.445644 8.8928155 28.431641 7.2050781 C 31.417637 5.5173408 34.404628 4.6738281 37.390625 4.6738281 z M 30.378906 66.210938 C 31.028036 66.210938 31.613509 66.405444 32.132812 66.794922 C 32.781942 67.054574 33.494482 67.509073 34.273438 68.158203 C 38.03839 70.754722 41.674387 73.676226 45.179688 76.921875 C 48.684988 80.037698 51.541006 83.413702 53.748047 87.048828 C 56.084914 90.683955 57.253906 94.512505 57.253906 98.537109 C 57.253906 104.24945 55.304935 109.24895 51.410156 113.5332 C 47.645204 117.68763 42.907654 119.76367 37.195312 119.76367 C 32.651404 119.76367 28.757367 118.40213 25.511719 115.67578 C 22.26607 112.94944 19.799065 109.50795 18.111328 105.35352 C 16.423591 101.06926 15.580078 96.655236 15.580078 92.111328 C 15.580078 85.879683 16.618097 81.076647 18.695312 77.701172 C 20.772528 74.195871 23.888538 70.754381 28.042969 67.378906 C 29.081576 66.599951 29.859602 66.210938 30.378906 66.210938 z "
       transform="matrix(0.26458333,0,0,0.26458333,93.817396,119.92959)"
       id="text12" />
  </g>
</svg>
