<?xml version="1.0" encoding="UTF-8" standalone="no"?>
<!-- Created with Inkscape (http://www.inkscape.org/) -->

<svg
   xmlns:dc="http://purl.org/dc/elements/1.1/"
   xmlns:cc="http://creativecommons.org/ns#"
   xmlns:rdf="http://www.w3.org/1999/02/22-rdf-syntax-ns#"
   xmlns:svg="http://www.w3.org/2000/svg"
   xmlns="http://www.w3.org/2000/svg"
   xmlns:sodipodi="http://sodipodi.sourceforge.net/DTD/sodipodi-0.dtd"
   xmlns:inkscape="http://www.inkscape.org/namespaces/inkscape"
   viewBox="0 0 21.125326 34.006195"
   version="1.1"
   id="numero9"
   inkscape:version="0.92.5 (2060ec1f9f, 2020-04-08)"
   sodipodi:docname="9.svg">
  <defs
     id="defs2" />
  <sodipodi:namedview
     id="base"
     pagecolor="#ffffff"
     bordercolor="#666666"
     borderopacity="1.0"
     inkscape:pageopacity="0.0"
     inkscape:pageshadow="2"
     inkscape:zoom="1.1541526"
     inkscape:cx="87.100991"
     inkscape:cy="74.057244"
     inkscape:document-units="mm"
     inkscape:current-layer="layer1"
     showgrid="false"
     fit-margin-top="0"
     fit-margin-left="0"
     fit-margin-right="0"
     fit-margin-bottom="0"
     inkscape:window-width="1440"
     inkscape:window-height="828"
     inkscape:window-x="0"
     inkscape:window-y="0"
     inkscape:window-maximized="1"
     showguides="true"
     inkscape:guide-bbox="true"
     inkscape:snap-grids="true"
     inkscape:snap-bbox="true"
     inkscape:bbox-paths="true"
     inkscape:snap-bbox-edge-midpoints="true">
    <inkscape:grid
       type="xygrid"
       id="grid150"
       originx="-45.661288"
       originy="-18.49809" />
  </sodipodi:namedview>
  <metadata
     id="metadata5">
    <rdf:RDF>
      <cc:Work
         rdf:about="">
        <dc:format>image/svg+xml</dc:format>
        <dc:type
           rdf:resource="http://purl.org/dc/dcmitype/StillImage" />
        <dc:title></dc:title>
      </cc:Work>
    </rdf:RDF>
  </metadata>
  <g
     inkscape:label="Capa 1"
     inkscape:groupmode="layer"
     id="layer1"
     transform="translate(-92.889842,-119.98129)">
    <path
       style="font-style:normal;font-variant:normal;font-weight:normal;font-stretch:normal;font-size:51.52467346px;line-height:1.25;font-family:'EB Garamond';-inkscape-font-specification:'EB Garamond';letter-spacing:0px;word-spacing:0px;fill:#000000;fill-opacity:1;stroke:none;stroke-width:1.00000012"
       d="m 215.03125,71.558594 c -5.84217,0 -11.22872,1.167039 -16.16211,3.503906 -4.93339,2.336867 -9.21839,5.452878 -12.85352,9.347656 -3.5053,3.764953 -6.23229,7.918983 -8.17968,12.462891 -1.94739,4.543913 -2.91992,9.023413 -2.91992,13.437503 0,4.67373 1.29801,8.89325 3.89453,12.6582 2.72634,3.63513 6.16588,6.55663 10.32031,8.76367 4.28426,2.07722 8.63475,3.11524 13.04883,3.11524 2.46669,0 4.86821,-0.38902 7.20508,-1.16797 2.33686,-0.77896 4.47839,-1.68796 6.42578,-2.72657 1.94739,-1.0386 3.37637,-1.88212 4.28515,-2.53124 1.03861,-0.77896 2.20565,-1.75345 3.50391,-2.92188 1.29826,-1.29826 2.27274,-2.59627 2.92187,-3.89453 0.25966,-0.38948 0.19417,-0.90751 -0.19531,-1.55664 -0.25965,-0.64913 -0.64866,-0.84559 -1.16797,-0.58594 -2.46669,1.16843 -4.6737,2.33743 -6.62109,3.50586 -1.94739,1.03861 -4.93438,1.55859 -8.95899,1.55859 -3.37547,0 -6.6205,-1.16899 -9.73632,-3.50586 -3.11583,-2.46669 -5.64636,-5.5827 -7.59375,-9.34765 -1.81757,-3.76495 -2.72657,-7.59546 -2.72657,-11.49024 0,-3.245645 0.71254,-6.490676 2.14063,-9.736324 1.42808,-3.375475 3.57156,-6.166006 6.42773,-8.373047 2.85617,-2.336867 6.3612,-3.50586 10.51563,-3.50586 3.5053,0 6.8813,1.168993 10.12695,3.50586 3.37548,2.336867 6.29503,5.452878 8.76172,9.347656 2.59652,3.894778 4.60902,8.177828 6.03711,12.851565 1.55791,4.67373 2.33789,9.34775 2.33789,14.02148 0,6.23165 -0.58547,12.13819 -1.75391,17.7207 -1.16843,5.45269 -3.04996,10.77572 -5.64648,15.96876 -2.46669,5.19303 -5.77721,10.51606 -9.93164,15.96874 -4.15443,5.32287 -8.89393,10.19139 -14.2168,14.60547 -5.19304,4.28426 -10.38508,7.72575 -15.57812,10.32227 -5.06321,2.46669 -9.54272,3.69922 -13.4375,3.69922 -0.64913,0 -1.29814,0.13097 -1.94727,0.39062 -0.5193,0.38948 -0.77929,0.90751 -0.7793,1.55664 0,0.38948 0.19451,0.71496 0.58399,0.97461 0.38948,0.38948 1.10397,0.58399 2.14258,0.58399 3.37547,0 7.14049,-0.4545 11.29492,-1.36328 4.28426,-0.90879 8.63279,-2.33777 13.04687,-4.28516 4.41409,-1.94739 8.76458,-4.34891 13.04883,-7.20508 4.28426,-2.85617 8.1783,-6.23217 11.6836,-10.12695 5.97199,-6.4913 11.03502,-12.85234 15.18945,-19.08399 4.15443,-6.23164 7.33593,-12.7217 9.54297,-19.47265 2.20704,-6.88078 3.31055,-14.34728 3.31055,-22.39649 0,-5.58251 -1.03998,-11.03455 -3.11719,-16.357418 -2.07722,-5.322864 -4.93324,-10.060414 -8.56836,-14.214844 -3.5053,-4.284256 -7.52836,-7.66026 -12.07227,-10.126953 -4.41408,-2.596519 -8.95908,-3.894531 -13.63281,-3.894531 z"
       transform="matrix(0.26458333,0,0,0.26458333,47.228548,101.04808)"
       id="text12"
       inkscape:connector-curvature="0" />
  </g>
</svg>
