<?xml version="1.0" encoding="UTF-8" standalone="no"?>
<!-- Created with Inkscape (http://www.inkscape.org/) -->

<svg
   xmlns:dc="http://purl.org/dc/elements/1.1/"
   xmlns:cc="http://creativecommons.org/ns#"
   xmlns:rdf="http://www.w3.org/1999/02/22-rdf-syntax-ns#"
   xmlns:svg="http://www.w3.org/2000/svg"
   xmlns="http://www.w3.org/2000/svg"
   xmlns:sodipodi="http://sodipodi.sourceforge.net/DTD/sodipodi-0.dtd"
   xmlns:inkscape="http://www.inkscape.org/namespaces/inkscape"
   viewBox="0 0 45.444732 34.057808"
   version="1.1"
   id="numero90"
   inkscape:version="0.92.5 (2060ec1f9f, 2020-04-08)"
   sodipodi:docname="90.svg">
  <defs
     id="defs2" />
  <sodipodi:namedview
     id="base"
     pagecolor="#ffffff"
     bordercolor="#666666"
     borderopacity="1.0"
     inkscape:pageopacity="0.0"
     inkscape:pageshadow="2"
     inkscape:zoom="3.9993663"
     inkscape:cx="74.056556"
     inkscape:cy="77.13869"
     inkscape:document-units="mm"
     inkscape:current-layer="layer1"
     showgrid="false"
     fit-margin-top="0"
     fit-margin-left="0"
     fit-margin-right="0"
     fit-margin-bottom="0"
     inkscape:window-width="1440"
     inkscape:window-height="828"
     inkscape:window-x="0"
     inkscape:window-y="0"
     inkscape:window-maximized="1"
     showguides="true"
     inkscape:guide-bbox="true"
     inkscape:snap-grids="true"
     inkscape:snap-bbox="true"
     inkscape:bbox-paths="true"
     inkscape:snap-bbox-edge-midpoints="true">
    <inkscape:grid
       type="xygrid"
       id="grid150"
       originx="-33.501584"
       originy="-18.498173" />
  </sodipodi:namedview>
  <metadata
     id="metadata5">
    <rdf:RDF>
      <cc:Work
         rdf:about="">
        <dc:format>image/svg+xml</dc:format>
        <dc:type
           rdf:resource="http://purl.org/dc/dcmitype/StillImage" />
        <dc:title />
      </cc:Work>
    </rdf:RDF>
  </metadata>
  <g
     inkscape:label="Capa 1"
     inkscape:groupmode="layer"
     id="layer1"
     transform="translate(-80.730136,-119.92959)">
    <path
       style="font-style:normal;font-variant:normal;font-weight:normal;font-stretch:normal;font-size:51.52467346px;line-height:1.25;font-family:'EB Garamond';-inkscape-font-specification:'EB Garamond';letter-spacing:0px;word-spacing:0px;fill-opacity:1;stroke:none;stroke-width:1.00000012"
       d="M 132.8125 0 C 125.67207 0 119.50554 1.9470184 114.3125 5.8417969 C 109.11946 9.6067494 104.83446 14.606245 101.45898 20.837891 C 98.213336 27.069536 95.811818 33.948611 94.253906 41.478516 C 92.695995 49.008421 91.916016 56.474921 91.916016 63.875 C 91.916016 71.015427 92.695995 78.219981 94.253906 85.490234 C 95.811818 92.760488 98.213336 99.447009 101.45898 105.54883 C 104.70463 111.52082 108.72964 116.32386 113.5332 119.95898 C 118.46659 123.59411 124.24411 125.41211 130.86523 125.41211 C 138.13549 125.41211 144.30202 123.46509 149.36523 119.57031 C 154.55827 115.67553 158.77779 110.54702 162.02344 104.18555 C 165.39891 97.824075 167.86396 90.877561 169.42188 83.347656 C 170.97979 75.817751 171.75977 68.418691 171.75977 61.148438 C 171.75977 54.137836 170.97979 47.062302 169.42188 39.921875 C 167.86396 32.651622 165.46245 26.030587 162.2168 20.058594 C 158.97115 13.956774 154.8826 9.0882516 149.94922 5.453125 C 145.14566 1.8179984 139.43362 0 132.8125 0 z M 42.453125 0.1953125 C 36.610957 0.1953125 31.222449 1.3623517 26.289062 3.6992188 C 21.355676 6.0360858 17.072627 9.1520965 13.4375 13.046875 C 9.9321994 16.811828 7.2052017 20.967811 5.2578125 25.511719 C 3.3104233 30.055627 2.3359375 34.533183 2.3359375 38.947266 C 2.3359375 43.621 3.6359029 47.840516 6.2324219 51.605469 C 8.9587668 55.240595 12.398304 58.162099 16.552734 60.369141 C 20.836991 62.446356 25.185527 63.484375 29.599609 63.484375 C 32.066302 63.484375 34.46782 63.095362 36.804688 62.316406 C 39.141555 61.537451 41.285033 60.628451 43.232422 59.589844 C 45.179811 58.551236 46.606843 57.707723 47.515625 57.058594 C 48.554233 56.279638 49.723225 55.305152 51.021484 54.136719 C 52.319744 52.838459 53.29423 51.540447 53.943359 50.242188 C 54.203011 49.85271 54.137525 49.334677 53.748047 48.685547 C 53.488395 48.036417 53.099382 47.839957 52.580078 48.099609 C 50.113385 49.268043 47.906374 50.437035 45.958984 51.605469 C 44.011595 52.644076 41.024604 53.164062 37 53.164062 C 33.624525 53.164062 30.379495 51.99507 27.263672 49.658203 C 24.147849 47.19151 21.615358 44.075499 19.667969 40.310547 C 17.850405 36.545594 16.941406 32.717044 16.941406 28.822266 C 16.941406 25.576617 17.655899 22.329633 19.083984 19.083984 C 20.51207 15.70851 22.655548 12.917979 25.511719 10.710938 C 28.36789 8.3740704 31.872913 7.2050781 36.027344 7.2050781 C 39.532644 7.2050781 42.906695 8.3740704 46.152344 10.710938 C 49.527818 13.047805 52.449323 16.163815 54.916016 20.058594 C 57.512535 23.953372 59.52504 28.236422 60.953125 32.910156 C 62.511036 37.58389 63.291016 42.257906 63.291016 46.931641 C 63.291016 53.163286 62.705543 59.071781 61.537109 64.654297 C 60.368676 70.106987 58.487144 75.428056 55.890625 80.621094 C 53.423932 85.814132 50.113415 91.137154 45.958984 96.589844 C 41.804554 101.91271 37.065051 106.78123 31.742188 111.19531 C 26.54915 115.47957 21.3571 118.92106 16.164062 121.51758 C 11.10085 123.98427 6.621341 125.2168 2.7265625 125.2168 C 2.0774328 125.2168 1.4284266 125.34777 0.77929688 125.60742 C 0.25999308 125.9969 0 126.51493 0 127.16406 C 0 127.55354 0.19450653 127.87902 0.58398438 128.13867 C 0.97346222 128.52815 1.6879549 128.72266 2.7265625 128.72266 C 6.1020372 128.72266 9.867054 128.26816 14.021484 127.35938 C 18.305741 126.45059 22.654277 125.02161 27.068359 123.07422 C 31.482442 121.12683 35.832931 118.72531 40.117188 115.86914 C 44.401444 113.01297 48.295481 109.63892 51.800781 105.74414 C 57.772775 99.252843 62.835804 92.889849 66.990234 86.658203 C 71.144665 80.426558 74.326162 73.936496 76.533203 67.185547 C 78.740244 60.304772 79.84375 52.838271 79.84375 44.789062 C 79.84375 39.206547 78.803778 33.754505 76.726562 28.431641 C 74.649347 23.108777 71.79333 18.371227 68.158203 14.216797 C 64.652903 9.9325406 60.627893 6.5565368 56.083984 4.0898438 C 51.669902 1.4933248 47.126859 0.1953125 42.453125 0.1953125 z M 129.11133 5.453125 C 133.52541 5.453125 137.35591 7.1401503 140.60156 10.515625 C 143.97704 13.8911 146.76757 18.436096 148.97461 24.148438 C 151.31148 29.860779 153.00045 36.221821 154.03906 43.232422 C 155.2075 50.243023 155.79102 57.384044 155.79102 64.654297 C 155.79102 74.391243 155.07652 83.477329 153.64844 91.916016 C 152.22035 100.3547 149.88432 107.23573 146.63867 112.55859 C 143.52285 117.75163 139.36882 120.34961 134.17578 120.34961 C 129.7617 120.34961 125.9312 118.66063 122.68555 115.28516 C 119.4399 111.77986 116.7129 107.17133 114.50586 101.45898 C 112.42864 95.616817 110.80711 89.124802 109.63867 81.984375 C 108.60006 74.843948 108.08008 67.639394 108.08008 60.369141 C 108.08008 50.632194 108.72908 41.609642 110.02734 33.300781 C 111.45543 24.862095 113.66244 18.110087 116.64844 13.046875 C 119.76426 7.983663 123.91829 5.453125 129.11133 5.453125 z "
       transform="matrix(0.26458333,0,0,0.26458333,80.730136,119.92959)"
       id="text12" />
  </g>
</svg>
