<?xml version="1.0" encoding="UTF-8" standalone="no"?>
<!-- Created with Inkscape (http://www.inkscape.org/) -->

<svg
   xmlns:dc="http://purl.org/dc/elements/1.1/"
   xmlns:cc="http://creativecommons.org/ns#"
   xmlns:rdf="http://www.w3.org/1999/02/22-rdf-syntax-ns#"
   xmlns:svg="http://www.w3.org/2000/svg"
   xmlns="http://www.w3.org/2000/svg"
   xmlns:sodipodi="http://sodipodi.sourceforge.net/DTD/sodipodi-0.dtd"
   xmlns:inkscape="http://www.inkscape.org/namespaces/inkscape"
   viewBox="0 0 96.818376 55.779022"
   version="1.1"
   id="letraB"
   inkscape:version="0.92.5 (2060ec1f9f, 2020-04-08)"
   sodipodi:docname="B.svg">
  <defs
     id="defs2" />
  <sodipodi:namedview
     id="base"
     pagecolor="#ffffff"
     bordercolor="#666666"
     borderopacity="1.0"
     inkscape:pageopacity="0.0"
     inkscape:pageshadow="2"
     inkscape:zoom="1.1176863"
     inkscape:cx="172.67836"
     inkscape:cy="44.275031"
     inkscape:document-units="mm"
     inkscape:current-layer="layer1"
     showgrid="false"
     fit-margin-top="0"
     fit-margin-left="0"
     fit-margin-right="0"
     fit-margin-bottom="0"
     inkscape:window-width="1440"
     inkscape:window-height="828"
     inkscape:window-x="0"
     inkscape:window-y="0"
     inkscape:window-maximized="1" />
  <metadata
     id="metadata5">
    <rdf:RDF>
      <cc:Work
         rdf:about="">
        <dc:format>image/svg+xml</dc:format>
        <dc:type
           rdf:resource="http://purl.org/dc/dcmitype/StillImage" />
        <dc:title></dc:title>
      </cc:Work>
    </rdf:RDF>
  </metadata>
  <g
     inkscape:label="Capa 1"
     inkscape:groupmode="layer"
     id="layer1"
     transform="translate(-55.214109,-109.27504)">
    <path
       style="font-style:normal;font-variant:normal;font-weight:normal;font-stretch:normal;font-size:77.57886505px;line-height:1.25;font-family:'EB Garamond';-inkscape-font-specification:'EB Garamond';letter-spacing:0px;word-spacing:0px;fill-opacity:1;stroke:none;stroke-width:0.99999994"
       d="m 297.00391,28.087891 c -0.58643,0 -1.46583,0.292483 -2.63868,0.878906 -1.36832,0.586423 -4.00653,1.662768 -7.91601,3.226562 -3.90949,1.563795 -8.11151,3.125659 -12.60742,4.689453 -4.30044,1.563795 -7.72251,2.64014 -10.26368,3.226563 -0.78189,0.195474 -1.5638,0.487958 -2.3457,0.878906 -0.7819,0.390949 -1.17187,1.075363 -1.17187,2.052735 0,1.172845 0.38997,2.149743 1.17187,2.93164 0.97737,0.586423 1.85678,1.075849 2.63867,1.466797 3.90949,1.759269 7.13462,4.494973 9.67579,8.208985 2.54116,3.714011 3.8125,8.11298 3.8125,13.195312 v 142.20703 c 0,3.71401 -0.38998,7.72105 -1.17188,12.02149 -0.58642,4.30043 -0.88086,7.33057 -0.88086,9.08984 0,0.97737 0.48943,1.85677 1.4668,2.63867 0.97737,0.58642 1.85677,0.88086 2.63867,0.88086 0.7819,0 1.6613,-0.48942 2.63867,-1.4668 0.97737,-0.97737 1.95427,-1.85677 2.93164,-2.63867 1.17285,-0.7819 2.34669,-1.17187 3.51953,-1.17187 0.97737,0 3.02866,0.48747 6.15625,1.46484 3.32307,0.97737 7.13512,2.05372 11.43555,3.22656 3.90949,0.97737 8.01402,1.85678 12.31445,2.63868 4.30044,0.78189 8.60191,1.17187 12.90235,1.17187 12.9013,0 24.14051,-2.8332 33.71875,-8.50195 9.77371,-5.66876 17.39781,-13.58729 22.87109,-23.75196 5.47328,-10.36013 8.20899,-22.18626 8.20899,-35.47851 0,-10.94656 -2.34573,-20.71944 -7.03711,-29.32031 -4.69139,-8.79635 -11.04415,-15.73603 -19.0586,-20.81836 -7.81897,-5.08234 -16.71245,-7.62305 -26.68164,-7.62305 -6.45065,0 -13.68282,1.66131 -21.69726,4.98437 -8.01445,3.12759 -15.05163,7.23213 -21.11133,12.31446 -0.97737,-0.19548 -1.66179,-0.87989 -2.05274,-2.05274 -0.39095,-1.36832 -0.58593,-3.90903 -0.58593,-7.62304 V 60.927734 c 0,-8.20992 0.0975,-15.149604 0.29296,-20.818359 0.39095,-5.864229 0.58594,-9.186853 0.58594,-9.96875 0,-0.586423 -0.19499,-1.075848 -0.58594,-1.466797 -0.39094,-0.390948 -0.78288,-0.585937 -1.17382,-0.585937 z M 104.95117,42.162109 c -5.668753,0 -10.262711,0.0975 -13.781248,0.292969 -3.323063,0.195474 -6.353204,0.487958 -9.089844,0.878906 -2.73664,0.195475 -5.961769,0.292969 -9.675781,0.292969 h -9.96875 c -2.541166,-0.195474 -5.27687,-0.292969 -8.208985,-0.292969 H 41.910156 c -2.541166,0 -4.592455,0.294437 -6.15625,0.88086 -1.563794,0.390948 -2.345703,1.172857 -2.345703,2.345703 0,1.36832 0.781909,2.637701 2.345703,3.810547 1.563795,0.977371 4.007015,1.661786 7.330078,2.052734 7.23255,0.586423 12.31398,2.542171 15.246094,5.865234 2.932115,3.323064 4.398438,8.501988 4.398438,15.539063 V 205.77344 c 0,7.03707 -1.953796,12.12046 -5.863282,15.24804 -3.909486,3.12759 -9.577835,5.37387 -17.005859,6.74219 -6.450652,1.17285 -9.677734,2.93361 -9.677734,5.2793 0,1.17284 0.781908,1.95475 2.345703,2.3457 1.563794,0.58642 3.617037,0.87891 6.158203,0.87891 5.668755,0 10.360207,-0.19499 14.074219,-0.58594 3.909486,-0.19547 7.62404,-0.39046 11.142578,-0.58594 3.518537,-0.19547 7.818058,-0.29492 12.90039,-0.29492 5.86423,0 11.33759,0.19694 16.419922,0.58789 5.082332,0.39095 8.894384,0.58594 11.435544,0.58594 11.14204,0 20.71993,-0.8794 28.73438,-2.63867 8.01444,-1.75927 15.05162,-4.20249 21.11133,-7.33008 4.10496,-2.15022 8.50393,-4.88787 13.19531,-8.21094 4.69138,-3.32306 8.69842,-8.11201 12.02148,-14.36719 3.51854,-6.25517 5.27735,-14.75867 5.27735,-25.50976 0,-8.60087 -1.36883,-15.63805 -4.10547,-21.11133 -2.54117,-5.66875 -5.96129,-10.16326 -10.26172,-13.48633 -4.10496,-3.51854 -8.60142,-6.35369 -13.48828,-8.5039 -4.69139,-2.15022 -9.28534,-3.90903 -13.78125,-5.27735 -0.7819,-0.39095 -1.17188,-0.88037 -1.17188,-1.46679 0,-0.7819 0.38998,-1.26937 1.17188,-1.46485 4.88686,-1.95474 8.60141,-3.7155 11.14258,-5.2793 2.54116,-1.75926 5.37631,-4.20248 8.5039,-7.33007 2.15022,-2.15022 4.30096,-5.66783 6.45117,-10.55469 2.3457,-5.082333 3.51758,-10.947624 3.51758,-17.593751 0,-16.028893 -5.66835,-27.268098 -17.00586,-33.71875 -11.14203,-6.646126 -28.14903,-9.96875 -51.01953,-9.96875 z m 0,8.794922 c 12.11941,0 21.20983,2.053243 27.26953,6.158203 6.05971,4.104961 10.16424,9.188344 12.31446,15.248047 2.15021,5.864229 3.22461,11.630074 3.22461,17.298828 0,8.405396 -1.66132,14.855651 -4.98438,19.351561 -3.32306,4.49591 -6.05877,7.33106 -8.20898,8.50391 -6.05971,3.32306 -12.21748,5.57129 -18.47266,6.74414 -6.0597,1.17284 -11.72805,1.75781 -17.005859,1.75781 -2.345692,0 -5.180843,-0.48747 -8.503907,-1.46484 -3.323063,-1.17285 -4.984375,-4.30048 -4.984375,-9.38281 V 64.152344 c 0,-4.495909 1.171887,-7.818533 3.517579,-9.96875 2.541165,-2.150218 7.819537,-3.226563 15.833982,-3.226563 z m 228.70508,74.769529 c 9.38277,0 17.00686,2.73766 22.87109,8.21094 6.05971,5.47328 10.45672,12.21602 13.19336,20.23047 2.93212,8.01445 4.39844,15.83353 4.39844,23.45703 0,9.77372 -1.46632,18.66719 -4.39844,26.68164 -2.93211,7.81897 -7.13414,14.07424 -12.60742,18.76563 -5.27781,4.4959 -11.63057,6.74414 -19.05859,6.74414 -6.8416,0 -13.39131,-1.36688 -19.64649,-4.10352 -6.0597,-2.73664 -11.04364,-6.64618 -14.95312,-11.72851 -3.71401,-5.08234 -5.57031,-11.04512 -5.57031,-17.88672 v -56.88282 c 4.30043,-3.90948 9.38186,-7.13461 15.24609,-9.67578 5.86423,-2.54116 12.70642,-3.8125 20.52539,-3.8125 z m -231.34375,8.50391 c 8.79634,0 15.93102,0.8794 21.4043,2.63867 5.47328,1.5638 9.48032,3.12761 12.02148,4.69141 2.73664,1.36832 5.76678,3.61655 9.08984,6.74414 3.32307,3.12759 6.25571,7.23212 8.79688,12.31445 2.54117,4.88686 3.81055,11.14213 3.81055,18.76563 0,8.40539 -2.24628,16.02949 -6.74219,22.87109 -4.49591,6.64613 -10.4587,11.92254 -17.88672,15.83203 -7.42802,3.90949 -15.4421,5.86523 -24.04297,5.86523 -7.42802,0 -13.195819,-1.36882 -17.300779,-4.10546 -3.909486,-2.93212 -5.863282,-8.50297 -5.863282,-16.71289 v -58.34961 c 0,-1.95475 1.171887,-4.20298 3.517579,-6.74414 2.541165,-2.54117 6.940134,-3.81055 13.195312,-3.81055 z"
       transform="matrix(0.26458333,0,0,0.26458333,47.22855,101.84345)"
       id="text12"
       inkscape:connector-curvature="0" />
  </g>
</svg>
