<?xml version="1.0" encoding="UTF-8" standalone="no"?>
<!-- Created with Inkscape (http://www.inkscape.org/) -->

<svg
   xmlns:dc="http://purl.org/dc/elements/1.1/"
   xmlns:cc="http://creativecommons.org/ns#"
   xmlns:rdf="http://www.w3.org/1999/02/22-rdf-syntax-ns#"
   xmlns:svg="http://www.w3.org/2000/svg"
   xmlns="http://www.w3.org/2000/svg"
   xmlns:sodipodi="http://sodipodi.sourceforge.net/DTD/sodipodi-0.dtd"
   xmlns:inkscape="http://www.inkscape.org/namespaces/inkscape"
   viewBox="0 0 110.86041 56.089085"
   version="1.1"
   id="letraD"
   inkscape:version="0.92.5 (2060ec1f9f, 2020-04-08)"
   sodipodi:docname="D.svg">
  <defs
     id="defs2" />
  <sodipodi:namedview
     id="base"
     pagecolor="#ffffff"
     bordercolor="#666666"
     borderopacity="1.0"
     inkscape:pageopacity="0.0"
     inkscape:pageshadow="2"
     inkscape:zoom="1.1176863"
     inkscape:cx="124.79042"
     inkscape:cy="37.785536"
     inkscape:document-units="mm"
     inkscape:current-layer="layer1"
     showgrid="false"
     fit-margin-top="0"
     fit-margin-left="0"
     fit-margin-right="0"
     fit-margin-bottom="0"
     inkscape:window-width="1440"
     inkscape:window-height="828"
     inkscape:window-x="0"
     inkscape:window-y="0"
     inkscape:window-maximized="1" />
  <metadata
     id="metadata5">
    <rdf:RDF>
      <cc:Work
         rdf:about="">
        <dc:format>image/svg+xml</dc:format>
        <dc:type
           rdf:resource="http://purl.org/dc/dcmitype/StillImage" />
        <dc:title></dc:title>
      </cc:Work>
    </rdf:RDF>
  </metadata>
  <g
     inkscape:label="Capa 1"
     inkscape:groupmode="layer"
     id="layer1"
     transform="translate(-48.193349,-109.12001)">
    <path
       style="font-style:normal;font-variant:normal;font-weight:normal;font-stretch:normal;font-size:77.57886505px;line-height:1.25;font-family:'EB Garamond';-inkscape-font-specification:'EB Garamond';letter-spacing:0px;word-spacing:0px;fill-opacity:1;stroke:none;stroke-width:0.99999994"
       d="m 398.60156,27.501953 c -0.39095,0 -0.97591,0.09749 -1.75781,0.292969 -0.58642,0 -1.27084,0.194989 -2.05273,0.585937 -2.73664,1.172846 -6.54869,2.736664 -11.43555,4.691407 -4.88686,1.954743 -11.63155,4.006032 -20.23242,6.15625 -1.5638,0.586423 -2.34571,1.760262 -2.34571,3.519531 0,2.150217 0.88136,3.421551 2.64063,3.8125 4.69138,0.781897 8.30649,2.540703 10.84765,5.277344 2.54117,2.73664 3.8125,8.112506 3.8125,16.126953 v 41.634766 c 0,4.69138 -0.68441,7.03711 -2.05273,7.03711 -0.7819,0 -2.05323,-0.29248 -3.8125,-0.87891 -2.15022,-0.78189 -5.27785,-1.46631 -9.38281,-2.05273 -3.90949,-0.7819 -7.81903,-1.17188 -11.72852,-1.17188 -13.6832,0 -25.50932,3.12764 -35.47851,9.38282 -9.77372,6.25517 -17.29837,14.36674 -22.57617,24.33593 -5.27781,9.96919 -7.91797,20.62148 -7.91797,31.95899 0,9.77371 2.15073,19.25411 6.45117,28.4414 4.49591,9.1873 10.75118,16.7139 18.76562,22.57813 8.20992,5.86423 17.88531,8.79687 29.02735,8.79687 9.77371,0 17.88724,-2.34572 24.33789,-7.03711 6.45065,-4.69138 11.1421,-9.28534 14.07422,-13.78125 v 1.75977 c 0,2.54117 -0.29444,5.6688 -0.88086,9.38281 -0.39095,3.51854 -0.58594,6.25424 -0.58594,8.20899 0,0.39095 0.38998,0.97787 1.17187,1.75976 0.97738,0.7819 1.66179,1.17188 2.05274,1.17188 0.58642,0 1.07585,-0.0975 1.4668,-0.29297 0.58642,-0.19548 1.66081,-0.68295 3.22461,-1.46484 6.8416,-2.93212 12.90188,-5.08286 18.17968,-6.45118 5.27781,-1.56379 10.65368,-2.73763 16.12696,-3.51953 0.97737,0 1.85677,-0.48747 2.63867,-1.46484 0.97737,-1.17285 1.46679,-2.44418 1.46679,-3.8125 0,-1.95474 -1.76075,-2.83415 -5.27929,-2.63867 l -7.62305,0.58593 c -2.34569,0.19548 -4.007,0.29297 -4.98437,0.29297 -2.15022,0 -3.71404,-1.46437 -4.69141,-4.39648 -0.97737,-3.12759 -1.4668,-8.01598 -1.4668,-14.66211 V 69.136719 c 0,-8.796344 0.19694,-15.931017 0.58789,-21.404297 l 0.87891,-12.314453 c 0.39095,-2.932115 0.58594,-4.985358 0.58594,-6.158203 -0.19548,-1.172846 -0.87989,-1.757813 -2.05274,-1.757813 z M 94.835938,40.695312 c -1.954744,0 -5.082378,0.0975 -9.382813,0.292969 -4.10496,0.195475 -8.796412,0.489911 -14.074219,0.88086 -5.082332,0.390948 -10.066267,0.683432 -14.953125,0.878906 -4.691383,0.195474 -8.600926,0.292969 -11.728515,0.292969 H 33.261719 c -2.932115,-0.195475 -5.962255,-0.292969 -9.089844,-0.292969 -2.932115,-0.195474 -6.939152,-0.292969 -12.021484,-0.292969 -2.5411663,0 -4.5944091,0.292483 -6.1582035,0.878906 -1.5637944,0.586423 -2.3457031,1.563321 -2.3457031,2.931641 0,1.563794 0.7819087,2.737634 2.3457031,3.519531 1.5637944,0.586423 4.0070149,1.173343 7.3300785,1.759766 7.428023,1.36832 12.511406,3.517104 15.248046,6.449219 2.932115,2.932114 4.398438,7.918003 4.398438,14.955078 V 204.89453 c 0,7.03708 -1.466323,12.11851 -4.398438,15.24609 -2.73664,3.12759 -7.820023,5.37583 -15.248046,6.74415 -3.3230636,0.58642 -5.7662841,1.17334 -7.3300785,1.75976 -1.5637944,0.39095 -2.3457031,1.36785 -2.3457031,2.93164 0,1.36832 0.7819087,2.34522 2.3457031,2.93164 1.5637944,0.58643 3.6170372,0.88086 6.1582035,0.88086 5.277806,0 9.382338,-0.19694 12.314453,-0.58789 3.127589,-0.19547 5.96274,-0.39046 8.503906,-0.58594 2.73664,-0.19547 6.059264,-0.29296 9.96875,-0.29296 7.818972,0 16.028037,0.0975 24.628906,0.29296 8.796344,0.39095 16.517936,0.78288 23.164063,1.17383 6.8416,0.39095 11.240571,0.58594 13.195311,0.58594 14.07415,0 27.2691,-2.63821 39.58399,-7.91602 12.31488,-5.2778 23.16215,-12.60942 32.54492,-21.99218 9.38276,-9.57824 16.71438,-20.52497 21.99219,-32.83985 5.2778,-12.31488 7.91601,-25.50983 7.91601,-39.58398 0,-12.90131 -2.15074,-24.92242 -6.45117,-36.064455 -4.10496,-11.33751 -10.55522,-21.207886 -19.35156,-29.613281 -8.79635,-8.60087 -20.23054,-15.24807 -34.30469,-19.939453 -14.07415,-4.886858 -31.08115,-7.330079 -51.019532,-7.330079 z m 1.466796,9.089844 c 9.969186,0 19.839566,2.053243 29.613286,6.158203 9.77371,3.909486 18.5697,9.675331 26.38867,17.298829 7.81897,7.428023 14.07424,16.713433 18.76562,27.855472 4.69139,10.94656 7.03711,23.4571 7.03711,37.53125 0,17.00626 -3.32262,32.05751 -9.96875,45.15429 -6.45065,13.09678 -15.54107,23.35909 -27.26953,30.78711 -11.72846,7.42803 -25.21589,11.14258 -40.46289,11.14258 -7.232549,0 -14.269727,-0.58692 -21.111328,-1.75977 -6.646127,-1.36832 -12.119487,-4.00848 -16.419922,-7.91796 -4.300435,-3.90949 -6.449219,-9.77283 -6.449219,-17.5918 V 67.671875 c 0,-5.864229 1.563818,-10.068209 4.691407,-12.609375 3.127588,-2.541166 7.622098,-4.007489 13.486328,-4.398438 6.059703,-0.586422 13.293823,-0.878906 21.699218,-0.878906 z M 342.01172,122.79492 c 7.23255,0 13.48782,1.66131 18.76562,4.98438 5.47328,3.12759 9.67726,7.23212 12.60938,12.31445 3.12759,5.08233 4.6914,10.26321 4.6914,15.54102 l -0.29296,52.77734 c -3.71402,4.30043 -8.01549,7.82 -12.90235,10.55664 -4.88686,2.54117 -9.87079,3.81055 -14.95312,3.81055 -3.12759,0 -7.23212,-0.58497 -12.31446,-1.75782 -4.88685,-1.36832 -9.77525,-3.81349 -14.66211,-7.33203 -4.69138,-3.51853 -8.69842,-8.59996 -12.02148,-15.24609 -3.32306,-6.8416 -4.98437,-15.83257 -4.98437,-26.97461 0,-13.09678 2.05324,-23.0666 6.1582,-29.9082 4.10496,-7.03708 8.9914,-11.92352 14.66015,-14.66016 5.66876,-2.73664 10.75019,-4.10547 15.2461,-4.10547 z"
       transform="matrix(0.26458333,0,0,0.26458333,47.22855,101.84345)"
       id="text12"
       inkscape:connector-curvature="0" />
  </g>
</svg>
