<?xml version="1.0" encoding="UTF-8" standalone="no"?>
<!-- Created with Inkscape (http://www.inkscape.org/) -->

<svg
   xmlns:dc="http://purl.org/dc/elements/1.1/"
   xmlns:cc="http://creativecommons.org/ns#"
   xmlns:rdf="http://www.w3.org/1999/02/22-rdf-syntax-ns#"
   xmlns:svg="http://www.w3.org/2000/svg"
   xmlns="http://www.w3.org/2000/svg"
   xmlns:sodipodi="http://sodipodi.sourceforge.net/DTD/sodipodi-0.dtd"
   xmlns:inkscape="http://www.inkscape.org/namespaces/inkscape"
   viewBox="0 0 85.491419 55.158909"
   version="1.1"
   id="letraF"
   inkscape:version="0.92.5 (2060ec1f9f, 2020-04-08)"
   sodipodi:docname="F.svg">
  <defs
     id="defs2" />
  <sodipodi:namedview
     id="base"
     pagecolor="#ffffff"
     bordercolor="#666666"
     borderopacity="1.0"
     inkscape:pageopacity="0.0"
     inkscape:pageshadow="2"
     inkscape:zoom="1.1176863"
     inkscape:cx="232.77064"
     inkscape:cy="58.076114"
     inkscape:document-units="mm"
     inkscape:current-layer="layer1"
     showgrid="false"
     fit-margin-top="0"
     fit-margin-left="0"
     fit-margin-right="0"
     fit-margin-bottom="0"
     inkscape:window-width="1440"
     inkscape:window-height="828"
     inkscape:window-x="0"
     inkscape:window-y="0"
     inkscape:window-maximized="1" />
  <metadata
     id="metadata5">
    <rdf:RDF>
      <cc:Work
         rdf:about="">
        <dc:format>image/svg+xml</dc:format>
        <dc:type
           rdf:resource="http://purl.org/dc/dcmitype/StillImage" />
        <dc:title></dc:title>
      </cc:Work>
    </rdf:RDF>
  </metadata>
  <g
     inkscape:label="Capa 1"
     inkscape:groupmode="layer"
     id="layer1"
     transform="translate(-60.877846,-109.5851)">
    <path
       style="font-style:normal;font-variant:normal;font-weight:normal;font-stretch:normal;font-size:77.57886505px;line-height:1.25;font-family:'EB Garamond';-inkscape-font-specification:'EB Garamond';letter-spacing:0px;word-spacing:0px;fill-opacity:1;stroke:none;stroke-width:0.99999994"
       d="m 342.45312,29.259766 c -6.45064,0 -13.39033,1.466323 -20.81835,4.398437 -7.42803,2.73664 -14.46521,7.428092 -21.11133,14.074219 -6.64613,6.646126 -12.11949,15.639054 -16.41992,26.976562 -4.10496,11.33751 -6.15821,25.509356 -6.15821,42.515626 -2.93211,1.36832 -5.66782,2.7352 -8.20898,4.10351 -2.54117,1.36833 -5.57131,2.93214 -9.08985,4.69141 -0.19547,0.19548 -0.5874,0.48991 -1.17382,0.88086 -0.58643,0.19547 -0.87891,0.48796 -0.87891,0.87891 0,0.97737 0.48943,2.05176 1.4668,3.22461 1.17284,1.17284 2.05225,1.85726 2.63867,2.05273 3.12759,0.19547 5.96079,0.39242 8.50195,0.58789 h 6.74414 v 82.68555 c 0,3.90948 -0.9769,6.84018 -2.93164,8.79492 -1.95474,1.75927 -5.17987,3.1281 -9.67578,4.10547 -1.95474,0.39095 -3.61605,0.88037 -4.98437,1.4668 -1.17285,0.58642 -1.75977,1.66081 -1.75977,3.22461 0,1.17283 0.48943,1.95475 1.4668,2.3457 0.97737,0.58642 2.44369,0.8789 4.39843,0.8789 3.90949,0 7.03713,-0.19498 9.38282,-0.58593 2.34569,-0.19548 4.59197,-0.39047 6.74218,-0.58594 2.15022,-0.19547 4.88788,-0.29297 8.21094,-0.29297 5.08233,0 9.87128,0.19499 14.36719,0.58594 4.49591,0.58642 9.6768,0.8789 15.54101,0.8789 1.95475,0 3.41912,-0.29248 4.39649,-0.8789 0.97737,-0.39095 1.4668,-1.17287 1.4668,-2.3457 0,-2.54117 -2.24824,-4.10499 -6.74414,-4.69141 -7.81898,-0.97737 -12.9979,-2.3462 -15.53907,-4.10547 -2.54116,-1.95474 -3.8125,-4.88544 -3.8125,-8.79492 v -79.46094 c 0,-1.17285 0.29249,-2.05225 0.87891,-2.63867 0.7819,-0.7819 2.34571,-1.17383 4.69141,-1.17383 h 33.7207 c 1.17284,0 2.05225,-0.78191 2.63867,-2.3457 0.58642,-1.17285 0.9764,-2.53972 1.17188,-4.10352 0.39094,-1.56379 0.58593,-3.03012 0.58593,-4.39844 0,-0.97737 -0.38997,-1.75928 -1.17187,-2.3457 -0.7819,-0.58642 -1.6613,-0.88086 -2.63867,-0.88086 h -36.65235 c -0.78189,0 -1.5638,-0.19499 -2.3457,-0.58594 -0.58642,-0.39094 -0.87891,-1.17285 -0.87891,-2.3457 V 90.248047 c 0,-16.615316 2.93265,-28.930866 8.79688,-36.945313 6.0597,-8.014446 13.68185,-12.021484 22.86914,-12.021484 6.45065,0 11.53403,1.17384 15.24805,3.519531 3.71401,2.150218 6.84164,4.495944 9.38281,7.03711 1.95474,1.759268 3.61605,3.323086 4.98437,4.691406 1.5638,1.36832 3.22511,2.052734 4.98438,2.052734 2.73664,0 5.08236,-0.978851 7.03711,-2.933593 1.95474,-1.954744 2.93164,-4.885436 2.93164,-8.794922 0,-5.082332 -2.63821,-9.286312 -7.91602,-12.609375 -5.2778,-3.323064 -13.38937,-4.984375 -24.33594,-4.984375 z M 178.25391,42.748047 c -3.51854,0 -7.72057,0.489425 -12.60743,1.466797 -4.69138,0.977371 -10.16474,1.464844 -16.41992,1.464844 H 130.46094 112.28125 94.982422 C 90.095564,45.484213 85.111629,45.289224 80.029297,45.09375 75.142439,44.898276 69.082159,44.800781 61.849609,44.800781 c -2.541166,0 -4.594408,0.292484 -6.158203,0.878907 -1.563794,0.390947 -2.345703,1.172857 -2.345703,2.345703 0,1.36832 0.781909,2.542159 2.345703,3.519531 1.563795,0.977371 4.007015,1.75928 7.330078,2.345703 7.428024,1.36832 12.218924,4.39846 14.369141,9.089844 2.345692,4.691383 3.517578,11.434125 3.517578,20.230469 V 206.94727 c 0,7.23254 -1.466323,12.41147 -4.398437,15.53906 -2.736641,3.12759 -7.818071,5.37582 -15.246094,6.74414 -6.450652,1.17284 -9.675781,2.93165 -9.675781,5.27734 0,1.17285 0.781908,1.95476 2.345703,2.34571 1.563794,0.58642 3.615084,0.88086 6.15625,0.88086 5.277806,0 9.774269,-0.19695 13.488281,-0.5879 3.714012,-0.39094 7.331072,-0.68343 10.849609,-0.8789 3.714012,-0.39095 7.916039,-0.58594 12.607422,-0.58594 3.714014,0 6.646654,0.19499 8.796874,0.58594 2.34569,0.19547 4.88641,0.48796 7.62305,0.8789 2.93211,0.39095 7.03664,0.58789 12.31445,0.5879 2.54117,0 4.59441,-0.29444 6.1582,-0.88086 1.5638,-0.39095 2.34571,-1.17286 2.34571,-2.34571 0,-1.36832 -0.78191,-2.44271 -2.34571,-3.22461 -1.56379,-0.78189 -4.00701,-1.46631 -7.33007,-2.05273 -7.23255,-1.36832 -12.21844,-3.90904 -14.95508,-7.62305 -2.54117,-3.71401 -4.00749,-8.6999 -4.39844,-14.95508 -0.39095,-9.77371 -0.68343,-19.25411 -0.87891,-28.4414 v -27.56055 c 0,-2.54117 0.68442,-4.30192 2.05274,-5.2793 1.36832,-1.17284 3.02963,-1.8553 4.98437,-2.05078 3.12759,-0.39095 6.25523,-0.58789 9.38282,-0.58789 h 9.67578 c 2.34569,0 4.69142,0.0975 7.03711,0.29297 h 7.62304 c 2.3457,0 4.88641,0.88136 7.62305,2.64063 2.73664,1.56379 4.78988,4.59198 6.1582,9.08789 0.39095,0.97737 1.07537,2.3462 2.05274,4.10547 1.17284,1.75925 2.73666,2.63867 4.6914,2.63867 1.17285,0 1.85726,-0.48748 2.05274,-1.46485 0.39095,-0.97737 0.58594,-2.15121 0.58594,-3.51953 -0.19548,-4.30043 -0.39047,-7.91554 -0.58594,-10.84765 -0.19548,-3.12759 -0.29297,-6.15773 -0.29297,-9.08985 0,-2.34569 0.0975,-4.78891 0.29297,-7.33008 0.19547,-2.54116 0.39046,-5.47381 0.58594,-8.79687 0.19547,-1.36832 -0.19451,-2.44271 -1.17188,-3.22461 -0.97737,-0.97737 -1.85873,-1.4668 -2.64062,-1.4668 -0.7819,0 -1.7588,0.68442 -2.93164,2.05274 -1.17285,1.17284 -1.95476,2.14974 -2.34571,2.93164 -1.36832,3.32306 -3.61655,6.15821 -6.74414,8.5039 -3.12759,2.3457 -6.84019,3.51758 -11.14062,3.51758 -3.51854,0 -8.50443,0.19499 -14.95508,0.58594 -6.45065,0.19547 -12.80343,0.29492 -19.05859,0.29492 -1.36833,0 -2.24773,-0.68441 -2.63868,-2.05273 -0.19547,-1.36832 -0.29297,-2.83465 -0.29297,-4.39844 -0.19547,-3.51854 -0.29296,-7.82001 -0.29296,-12.90234 V 99.337891 83.796875 c 0,-5.473281 0.0975,-10.065285 0.29296,-13.779297 0.19548,-3.909486 0.7824,-7.331557 1.75977,-10.263672 0.97737,-2.932114 3.71308,-4.398437 8.20898,-4.398437 h 37.23829 c 3.71401,0 7.23162,0.58692 10.55468,1.759765 3.32307,0.977372 6.35321,3.030615 9.08985,6.158204 1.36832,1.368319 2.63965,3.322115 3.8125,5.863281 1.17284,2.345691 2.14974,5.180843 2.93164,8.503906 0.39095,0.977372 0.97787,1.856775 1.75976,2.638672 0.7819,0.586423 1.6613,0.878906 2.63868,0.878906 1.75925,0 2.63867,-2.051289 2.63867,-6.15625 0,-1.36832 -0.0975,-4.008483 -0.29297,-7.917969 0,-3.909486 -0.0975,-7.916524 -0.29297,-12.021484 -0.19547,-4.300435 -0.48796,-7.525564 -0.87891,-9.675781 -0.19547,-0.977372 -0.87989,-1.661786 -2.05273,-2.052735 -1.17285,-0.390948 -2.24919,-0.585937 -3.22656,-0.585937 z"
       transform="matrix(0.26458333,0,0,0.26458333,47.22855,101.84345)"
       id="text12"
       inkscape:connector-curvature="0" />
  </g>
</svg>
