<?xml version="1.0" encoding="UTF-8" standalone="no"?>
<!-- Created with Inkscape (http://www.inkscape.org/) -->

<svg
   xmlns:dc="http://purl.org/dc/elements/1.1/"
   xmlns:cc="http://creativecommons.org/ns#"
   xmlns:rdf="http://www.w3.org/1999/02/22-rdf-syntax-ns#"
   xmlns:svg="http://www.w3.org/2000/svg"
   xmlns="http://www.w3.org/2000/svg"
   xmlns:sodipodi="http://sodipodi.sourceforge.net/DTD/sodipodi-0.dtd"
   xmlns:inkscape="http://www.inkscape.org/namespaces/inkscape"
   viewBox="0 0 37.579994 33.102723"
   version="1.1"
   id="letraI"
   inkscape:version="0.92.5 (2060ec1f9f, 2020-04-08)"
   sodipodi:docname="I.svg">
  <defs
     id="defs2" />
  <sodipodi:namedview
     id="base"
     pagecolor="#ffffff"
     bordercolor="#666666"
     borderopacity="1.0"
     inkscape:pageopacity="0.0"
     inkscape:pageshadow="2"
     inkscape:zoom="1.5806471"
     inkscape:cx="29.006489"
     inkscape:cy="32.243911"
     inkscape:document-units="mm"
     inkscape:current-layer="layer1"
     showgrid="false"
     fit-margin-top="0"
     fit-margin-left="0"
     fit-margin-right="0"
     fit-margin-bottom="0"
     inkscape:window-width="1440"
     inkscape:window-height="828"
     inkscape:window-x="0"
     inkscape:window-y="0"
     inkscape:window-maximized="1"
     showguides="true"
     inkscape:guide-bbox="true"
     inkscape:snap-grids="true"
     inkscape:snap-bbox="true"
     inkscape:bbox-paths="true"
     inkscape:snap-bbox-edge-midpoints="true">
    <inkscape:grid
       type="xygrid"
       id="grid150"
       originx="-37.433957"
       originy="-19.843741" />
  </sodipodi:namedview>
  <metadata
     id="metadata5">
    <rdf:RDF>
      <cc:Work
         rdf:about="">
        <dc:format>image/svg+xml</dc:format>
        <dc:type
           rdf:resource="http://purl.org/dc/dcmitype/StillImage" />
        <dc:title></dc:title>
      </cc:Work>
    </rdf:RDF>
  </metadata>
  <g
     inkscape:label="Capa 1"
     inkscape:groupmode="layer"
     id="layer1"
     transform="translate(-84.662511,-119.53911)">
    <path
       style="font-style:normal;font-variant:normal;font-weight:normal;font-stretch:normal;font-size:50.30809021px;line-height:1.25;font-family:'EB Garamond';-inkscape-font-specification:'EB Garamond';letter-spacing:0px;word-spacing:0px;fill-opacity:1;stroke:none;stroke-width:0.99999994"
       d="M 7.6054688 0 C 5.9575817 0 4.6273656 0.19003087 3.6132812 0.5703125 C 2.5991969 0.82383358 2.0917969 1.3312336 2.0917969 2.0917969 C 2.0917969 3.8664445 4.1821365 5.133968 8.3652344 5.8945312 C 13.182135 6.781855 16.479259 8.1767169 18.253906 10.078125 C 20.155314 11.979533 21.105469 15.147365 21.105469 19.583984 L 21.105469 105.52734 C 21.105469 109.96396 19.837945 113.19644 17.302734 115.22461 C 14.767524 117.25278 11.092291 118.71033 6.2753906 119.59766 C 2.0922927 120.35822 0 121.50036 0 123.02148 C 0 123.78205 0.50740004 124.28945 1.5214844 124.54297 C 2.5355687 124.92325 3.8657848 125.11328 5.5136719 125.11328 C 8.9362065 125.11328 11.851315 124.98594 14.259766 124.73242 C 16.794976 124.60566 19.204638 124.47832 21.486328 124.35156 C 23.894778 124.2248 26.682549 124.16211 29.851562 124.16211 C 32.767055 124.16211 35.239409 124.2248 37.267578 124.35156 C 39.295747 124.47832 41.38804 124.60566 43.542969 124.73242 C 45.824659 124.98594 48.675122 125.11328 52.097656 125.11328 C 53.745543 125.11328 55.077713 124.92325 56.091797 124.54297 C 57.105881 124.28945 57.613281 123.78205 57.613281 123.02148 C 57.613281 122.13416 57.105881 121.43673 56.091797 120.92969 C 55.077713 120.42265 53.49282 119.97794 51.337891 119.59766 C 46.647751 118.71033 42.972518 117.25278 40.310547 115.22461 C 37.648575 113.19644 36.316406 109.96396 36.316406 105.52734 L 36.316406 19.583984 C 36.316406 15.147365 37.393899 11.979533 39.548828 10.078125 C 41.703757 8.1767169 45.126266 6.781855 49.816406 5.8945312 C 51.971335 5.5142496 53.556228 5.0068496 54.570312 4.3730469 C 55.584397 3.7392442 56.091797 2.9791207 56.091797 2.0917969 C 56.091797 1.3312336 55.584397 0.82383358 54.570312 0.5703125 C 53.556228 0.19003087 52.226012 0 50.578125 0 C 47.15559 0 44.430512 0.062692583 42.402344 0.18945312 C 40.374175 0.31621367 38.471913 0.44355196 36.697266 0.5703125 L 29.851562 0.5703125 L 22.4375 0.5703125 C 20.409331 0.44355196 18.254346 0.31621367 15.972656 0.18945312 C 13.817727 0.062692583 11.028003 0 7.6054688 0 z M 122.64062 6.8457031 C 119.97865 6.8457031 117.69633 7.7958575 115.79492 9.6972656 C 114.02027 11.471913 113.13281 13.754237 113.13281 16.542969 C 113.13281 19.20494 114.02027 21.485311 115.79492 23.386719 C 117.69633 25.161366 119.97865 26.048828 122.64062 26.048828 C 125.42936 26.048828 127.70973 25.161366 129.48438 23.386719 C 131.38578 21.485311 132.33789 19.20494 132.33789 16.542969 C 132.33789 13.754237 131.38578 11.471913 129.48438 9.6972656 C 127.70973 7.7958575 125.42936 6.8457031 122.64062 6.8457031 z M 130.05664 41.640625 C 129.42284 41.640625 128.53538 42.085332 127.39453 42.972656 C 125.74664 44.240262 123.27429 45.887847 119.97852 47.916016 C 116.68274 49.817424 112.50011 51.337671 107.42969 52.478516 C 106.28884 52.605276 105.7168 53.3654 105.7168 54.759766 C 105.7168 55.520329 105.84414 56.092375 106.09766 56.472656 C 106.47794 56.852938 106.98534 57.105661 107.61914 57.232422 C 110.91491 57.739464 113.13259 59.324357 114.27344 61.986328 C 115.54104 64.6483 116.17578 67.690747 116.17578 71.113281 L 116.17578 112.37305 C 116.17578 114.65474 115.47835 116.30232 114.08398 117.31641 C 112.68962 118.20373 110.66197 118.96385 108 119.59766 C 106.98592 119.85118 105.97112 120.16855 104.95703 120.54883 C 104.06971 120.92911 103.62695 121.62654 103.62695 122.64062 C 103.62695 123.40119 103.94237 123.90859 104.57617 124.16211 C 105.33674 124.54239 106.28884 124.73242 107.42969 124.73242 C 109.9649 124.73242 111.92985 124.60508 113.32422 124.35156 L 117.50586 123.97266 C 118.90023 123.8459 120.67515 123.78125 122.83008 123.78125 C 125.11177 123.78125 126.88669 123.8459 128.1543 123.97266 L 132.33789 124.35156 C 133.85902 124.60508 135.82397 124.73242 138.23242 124.73242 C 140.76763 124.73242 142.03516 124.03499 142.03516 122.64062 C 142.03516 121.62654 141.52776 120.92911 140.51367 120.54883 C 139.62635 120.16855 138.67619 119.85118 137.66211 119.59766 C 135.1269 118.96385 133.0973 118.14104 131.57617 117.12695 C 130.18181 116.11287 129.48438 114.52798 129.48438 112.37305 L 129.48438 68.259766 C 129.48438 65.344273 129.61171 62.111795 129.86523 58.5625 C 130.11876 54.886444 130.37343 51.591274 130.62695 48.675781 C 131.00723 45.633528 131.19727 43.605881 131.19727 42.591797 C 131.19727 41.957994 130.8172 41.640625 130.05664 41.640625 z "
       transform="matrix(0.26458333,0,0,0.26458333,84.662511,119.53911)"
       id="text12" />
  </g>
</svg>
