<?xml version="1.0" encoding="UTF-8" standalone="no"?>
<!-- Created with Inkscape (http://www.inkscape.org/) -->

<svg
   xmlns:dc="http://purl.org/dc/elements/1.1/"
   xmlns:cc="http://creativecommons.org/ns#"
   xmlns:rdf="http://www.w3.org/1999/02/22-rdf-syntax-ns#"
   xmlns:svg="http://www.w3.org/2000/svg"
   xmlns="http://www.w3.org/2000/svg"
   xmlns:sodipodi="http://sodipodi.sourceforge.net/DTD/sodipodi-0.dtd"
   xmlns:inkscape="http://www.inkscape.org/namespaces/inkscape"
   viewBox="0 0 39.03844 47.28962"
   version="1.1"
   id="letraJ"
   inkscape:version="0.92.5 (2060ec1f9f, 2020-04-08)"
   sodipodi:docname="J.svg">
  <defs
     id="defs2" />
  <sodipodi:namedview
     id="base"
     pagecolor="#ffffff"
     bordercolor="#666666"
     borderopacity="1.0"
     inkscape:pageopacity="0.0"
     inkscape:pageshadow="2"
     inkscape:zoom="1.1176863"
     inkscape:cx="-6.8946071"
     inkscape:cy="62.247733"
     inkscape:document-units="mm"
     inkscape:current-layer="layer1"
     showgrid="false"
     fit-margin-top="0"
     fit-margin-left="0"
     fit-margin-right="0"
     fit-margin-bottom="0"
     inkscape:window-width="1440"
     inkscape:window-height="828"
     inkscape:window-x="0"
     inkscape:window-y="0"
     inkscape:window-maximized="1"
     showguides="true"
     inkscape:guide-bbox="true"
     inkscape:snap-grids="true"
     inkscape:snap-bbox="true"
     inkscape:bbox-paths="true"
     inkscape:snap-bbox-edge-midpoints="true">
    <inkscape:grid
       type="xygrid"
       id="grid150"
       originx="-36.704729"
       originy="-8.2728767" />
  </sodipodi:namedview>
  <metadata
     id="metadata5">
    <rdf:RDF>
      <cc:Work
         rdf:about="">
        <dc:format>image/svg+xml</dc:format>
        <dc:type
           rdf:resource="http://purl.org/dc/dcmitype/StillImage" />
        <dc:title></dc:title>
      </cc:Work>
    </rdf:RDF>
  </metadata>
  <g
     inkscape:label="Capa 1"
     inkscape:groupmode="layer"
     id="layer1"
     transform="translate(-83.933283,-116.92308)">
    <path
       style="font-style:normal;font-variant:normal;font-weight:normal;font-stretch:normal;font-size:50.30809021px;line-height:1.25;font-family:'EB Garamond';-inkscape-font-specification:'EB Garamond';letter-spacing:0px;word-spacing:0px;fill-opacity:1;stroke:none;stroke-width:0.99999994"
       d="m 163.25391,60 c -1.64789,0 -2.97811,0.190031 -3.99219,0.570312 -1.01409,0.253522 -1.52149,0.760922 -1.52149,1.521485 0,1.774647 2.09034,3.042171 6.27344,3.802734 4.56338,0.887324 7.79586,2.282186 9.69727,4.183594 1.90141,1.774648 2.85351,4.879787 2.85351,9.316406 V 184.35156 c 0,9.25352 -1.0148,16.54325 -3.04297,21.86719 -1.9014,5.4507 -5.07119,8.17578 -9.50781,8.17578 -1.64789,0 -3.16813,-0.44471 -4.5625,-1.33203 -1.2676,-0.88732 -2.72516,-2.34488 -4.37305,-4.37305 -1.2676,-1.77464 -2.66246,-3.04217 -4.18359,-3.80273 -1.52113,-0.6338 -3.10602,-0.94922 -4.75391,-0.94922 -1.39436,0 -2.97925,0.95015 -4.7539,2.85156 -1.77465,1.90141 -2.66016,3.92906 -2.66016,6.08399 0,6.21126 6.52765,9.3164 19.58399,9.3164 3.67605,0 7.03392,-0.95015 10.07617,-2.85156 3.04225,-1.90141 5.83198,-4.37376 8.36719,-7.41601 2.02816,-2.40846 4.18315,-5.4509 6.46484,-9.12696 2.40845,-3.67605 4.4361,-7.85869 6.08398,-12.54883 1.64789,-4.69014 2.47266,-9.69754 2.47266,-15.02148 V 79.394531 c 0,-4.436619 0.63279,-7.541758 1.90039,-9.316406 1.26761,-1.901408 4.24736,-3.29627 8.9375,-4.183594 2.15493,-0.380281 3.73982,-0.887681 4.75391,-1.521484 1.01408,-0.633803 1.51953,-1.393926 1.51953,-2.28125 0,-0.760563 -0.50545,-1.267963 -1.51953,-1.521485 C 206.3531,60.190031 205.02093,60 203.37305,60 c -3.42254,0 -6.02028,0.06269 -7.79493,0.189453 -1.64788,0.126761 -3.17008,0.254099 -4.56445,0.380859 H 185.5 178.08398 c -2.02816,-0.12676 -4.18315,-0.254098 -6.46484,-0.380859 C 169.46421,60.062693 166.67644,60 163.25391,60 Z m 113.32421,6.845703 c -2.66197,0 -4.94429,0.950154 -6.8457,2.851563 -1.77465,1.774647 -2.66211,4.056971 -2.66211,6.845703 0,2.661971 0.88746,4.942342 2.66211,6.84375 1.90141,1.774647 4.18373,2.662109 6.8457,2.662109 2.78874,0 5.06911,-0.887462 6.84376,-2.662109 1.9014,-1.901408 2.85156,-4.181779 2.85156,-6.84375 0,-2.788732 -0.95016,-5.071056 -2.85156,-6.845703 -1.77465,-1.901409 -4.05502,-2.851563 -6.84376,-2.851563 z m 8.17579,34.794917 c -0.12676,0 -0.44413,0.12734 -0.95118,0.38086 -0.38028,0.25353 -0.88768,0.57089 -1.52148,0.95118 -1.77465,1.14084 -4.30969,2.72378 -7.60547,4.75195 -3.29577,2.02817 -7.35302,3.61306 -12.16992,4.75391 -0.88732,0.25352 -1.33008,1.01364 -1.33008,2.28125 0,0.50704 0.12734,1.01444 0.38086,1.52148 0.25352,0.50704 0.63358,0.82441 1.14063,0.95117 3.29577,0.6338 5.57614,2.28139 6.84375,4.94336 1.2676,2.53521 1.90234,5.51497 1.90234,8.9375 v 39.92969 c 0,3.29577 -0.0627,7.22373 -0.18945,11.78711 -0.12676,4.56338 -0.38144,9.25536 -0.76172,14.07226 -0.38028,4.8169 -1.01307,9.3796 -1.90039,13.68946 -0.76057,4.43662 -1.83806,8.11185 -3.23242,11.02734 -1.77465,3.80282 -3.73961,6.59254 -5.89454,8.36719 -2.15493,1.77465 -4.3726,2.97752 -6.65429,3.61133 l -1.14258,1.14257 c -0.6338,0.63381 -0.94922,1.32928 -0.94922,2.08985 0,0.6338 0.50545,1.07851 1.51953,1.33203 1.01409,0.38028 1.83885,0.57031 2.47266,0.57031 2.53521,0 5.38762,-1.26752 8.55664,-3.80273 3.16901,-2.40845 6.21146,-5.57824 9.12695,-9.50781 2.91549,-3.92958 5.13317,-8.04952 6.6543,-12.35938 1.90141,-5.07042 3.23162,-10.45593 3.99219,-16.16016 0.76056,-5.57746 1.20527,-10.96492 1.33203,-16.16211 0.25352,-5.32394 0.38086,-9.95128 0.38086,-13.88085 v -34.98633 c 0,-4.30986 0.12538,-9.25262 0.3789,-14.83008 0.25352,-5.70423 0.57089,-10.5216 0.95117,-14.45117 0,-0.63381 -0.44275,-0.95118 -1.33007,-0.95118 z"
       transform="matrix(0.26458333,0,0,0.26458333,47.228548,101.04808)"
       id="text12"
       inkscape:connector-curvature="0" />
  </g>
</svg>
