<?xml version="1.0" encoding="UTF-8" standalone="no"?>
<!-- Created with Inkscape (http://www.inkscape.org/) -->

<svg
   xmlns:dc="http://purl.org/dc/elements/1.1/"
   xmlns:cc="http://creativecommons.org/ns#"
   xmlns:rdf="http://www.w3.org/1999/02/22-rdf-syntax-ns#"
   xmlns:svg="http://www.w3.org/2000/svg"
   xmlns="http://www.w3.org/2000/svg"
   xmlns:sodipodi="http://sodipodi.sourceforge.net/DTD/sodipodi-0.dtd"
   xmlns:inkscape="http://www.inkscape.org/namespaces/inkscape"
   viewBox="0 0 66.858964 35.71875"
   version="1.1"
   id="letraK"
   inkscape:version="0.92.5 (2060ec1f9f, 2020-04-08)"
   sodipodi:docname="K.svg">
  <defs
     id="defs2" />
  <sodipodi:namedview
     id="base"
     pagecolor="#ffffff"
     bordercolor="#666666"
     borderopacity="1.0"
     inkscape:pageopacity="0.0"
     inkscape:pageshadow="2"
     inkscape:zoom="1.1176863"
     inkscape:cx="212.82954"
     inkscape:cy="-15.635337"
     inkscape:document-units="mm"
     inkscape:current-layer="layer1"
     showgrid="false"
     fit-margin-top="0"
     fit-margin-left="0"
     fit-margin-right="0"
     fit-margin-bottom="0"
     inkscape:window-width="1440"
     inkscape:window-height="828"
     inkscape:window-x="0"
     inkscape:window-y="0"
     inkscape:window-maximized="1"
     showguides="true"
     inkscape:guide-bbox="true"
     inkscape:snap-grids="true"
     inkscape:snap-bbox="true"
     inkscape:bbox-paths="true"
     inkscape:snap-bbox-edge-midpoints="true">
    <inkscape:grid
       type="xygrid"
       id="grid150"
       originx="-22.794469"
       originy="-19.843746" />
  </sodipodi:namedview>
  <metadata
     id="metadata5">
    <rdf:RDF>
      <cc:Work
         rdf:about="">
        <dc:format>image/svg+xml</dc:format>
        <dc:type
           rdf:resource="http://purl.org/dc/dcmitype/StillImage" />
        <dc:title></dc:title>
      </cc:Work>
    </rdf:RDF>
  </metadata>
  <g
     inkscape:label="Capa 1"
     inkscape:groupmode="layer"
     id="layer1"
     transform="translate(-70.023022,-116.92308)">
    <path
       style="font-style:normal;font-variant:normal;font-weight:normal;font-stretch:normal;font-size:50.30810928px;line-height:1.25;font-family:'EB Garamond';-inkscape-font-specification:'EB Garamond';letter-spacing:0px;word-spacing:0px;fill-opacity:1;stroke:none;stroke-width:0.99999994"
       d="m 277.8125,60 c -0.38028,0 -0.95037,0.190031 -1.71094,0.570312 -1.90141,0.760564 -3.86636,1.585333 -5.89453,2.472657 -1.90141,0.760563 -4.05639,1.583379 -6.46484,2.470703 -2.40845,0.760563 -5.26087,1.520686 -8.55664,2.28125 -1.01409,0.253521 -1.51953,1.015597 -1.51953,2.283203 0,1.394366 0.57009,2.217182 1.71093,2.470703 3.16902,0.760564 5.38669,2.155424 6.6543,4.183594 1.26761,2.028169 1.90234,5.260645 1.90234,9.697266 v 95.259762 c 0,2.53521 -0.88746,4.31014 -2.66211,5.32422 -1.77464,1.01409 -3.61226,1.83886 -5.51367,2.47266 l -3.04297,1.14062 c -0.88732,0.25352 -1.33203,0.88631 -1.33203,1.90039 0,1.39437 1.45951,2.0918 4.375,2.0918 2.53521,0 4.43552,-0.12538 5.70313,-0.37891 1.39436,-0.12676 2.72653,-0.25409 3.99414,-0.38085 1.2676,-0.12677 2.97788,-0.18946 5.13281,-0.18946 2.28169,0 3.86658,0.0627 4.75391,0.18946 1.01408,0.12676 2.09157,0.25409 3.23242,0.38085 1.14084,0.25353 2.91577,0.37891 5.32422,0.37891 0.50704,0 1.32986,-0.12538 2.4707,-0.37891 1.26761,-0.25352 1.90234,-0.82556 1.90234,-1.71289 0,-1.01408 -0.5074,-1.64687 -1.52148,-1.90039 -0.88732,-0.38028 -1.83748,-0.76034 -2.85156,-1.14062 -1.90141,-0.6338 -3.4863,-1.45857 -4.75391,-2.47266 -1.2676,-1.01408 -1.90234,-2.78901 -1.90234,-5.32422 -0.12676,-2.15493 -0.18946,-4.3726 -0.18946,-6.65429 v -6.6543 -6.27539 c 0,-2.15493 0.0627,-4.11988 0.18946,-5.89453 0,-0.88733 0.31737,-1.33008 0.95117,-1.33008 0.50704,0 1.14178,0.44275 1.90234,1.33008 l 23.00586,26.04883 c 0.38028,0.50704 0.69765,1.01444 0.95117,1.52148 0.25353,0.38028 0.38086,0.76034 0.38086,1.14063 0,1.14084 -0.5074,2.0283 -1.52148,2.6621 -1.01409,0.63381 -2.21892,1.2039 -3.61328,1.71094 -0.88733,0.25352 -1.64745,0.63554 -2.28125,1.14258 -0.6338,0.50704 -0.95117,1.13983 -0.95117,1.90039 0,1.14085 1.14213,1.71094 3.42382,1.71094 6.46479,0 12.73776,0.0646 18.82227,0.1914 6.21127,0.25353 11.78876,0.37891 16.73242,0.37891 2.53521,0 3.80274,-0.69743 3.80274,-2.0918 0,-1.01408 -0.63279,-1.70956 -1.90039,-2.08984 -1.14085,-0.38028 -2.40837,-0.82499 -3.80274,-1.33203 -1.90141,-0.6338 -4.24642,-1.7113 -7.03515,-3.23242 -2.66198,-1.64789 -5.07164,-3.48551 -7.22657,-5.51367 -1.2676,-1.26761 -3.54797,-3.48529 -6.84375,-6.6543 -3.16901,-3.16902 -6.65616,-6.8462 -10.45898,-11.0293 -3.80282,-4.1831 -7.35071,-8.30303 -10.64649,-12.35937 l -0.38086,-0.75977 c -0.12676,-0.25352 -0.18945,-0.44355 -0.18945,-0.57031 0,-0.50704 0.38006,-1.14178 1.14063,-1.90235 3.04225,-2.66197 6.27473,-5.44974 9.69726,-8.36523 3.5493,-2.91549 6.65444,-5.45054 9.31641,-7.60547 2.78873,-2.28169 4.56365,-3.67655 5.32422,-4.18359 1.77465,-1.01409 3.67495,-2.09158 5.70312,-3.23242 2.15493,-1.14085 4.43725,-2.02831 6.8457,-2.66211 1.39437,-0.38029 2.53456,-0.82304 3.42188,-1.33008 0.88732,-0.6338 1.33203,-1.33124 1.33203,-2.0918 0,-1.2676 -0.88746,-1.90234 -2.66211,-1.90234 -1.14084,0 -2.72573,0.19003 -4.7539,0.57031 -1.90141,0.38028 -3.99175,0.76034 -6.27344,1.14063 -2.15493,0.38028 -4.24722,0.57031 -6.27539,0.57031 h -9.31641 c -1.2676,0 -2.2824,0.25467 -3.04297,0.76172 -0.76056,0.38028 -1.14062,0.88768 -1.14062,1.52148 0,0.88732 0.76012,1.52011 2.28125,1.90039 1.14084,0.25352 2.21833,0.63358 3.23242,1.14063 1.14084,0.50704 1.71094,1.07713 1.71094,1.71093 0,0.25352 -0.12539,0.63554 -0.37891,1.14258 -0.25352,0.38028 -0.69823,0.95038 -1.33203,1.71094 -1.26761,1.39437 -3.67531,3.92941 -7.22461,7.60547 -3.42254,3.54929 -7.7325,7.54189 -12.92969,11.97851 -1.39436,1.26761 -2.72653,2.21776 -3.99414,2.85157 -1.14084,0.6338 -2.091,0.95117 -2.85156,0.95117 -0.6338,0 -0.95117,-0.57009 -0.95117,-1.71094 V 87.189453 c 0,-8.112678 0.25467,-14.070229 0.76172,-17.873047 0.6338,-3.802817 0.95117,-6.337863 0.95117,-7.605468 0,-0.633803 -0.12734,-1.076557 -0.38086,-1.330079 C 278.44746,60.127338 278.19278,60 277.8125,60 Z m -73.39258,9.507812 c -0.76056,0 -2.98019,0.06269 -6.65625,0.189454 -3.54929,0.12676 -7.54189,0.254098 -11.97851,0.380859 -4.43662,0.126761 -8.49192,0.189453 -12.16797,0.189453 h -10.26758 c -1.64789,0 -2.98006,0.190031 -3.99414,0.570313 -1.01409,0.253521 -1.52149,0.76092 -1.52149,1.521484 0,0.887324 0.44471,1.584755 1.33204,2.091797 0.88732,0.507042 2.40757,1.077134 4.5625,1.710937 2.40845,0.633803 3.61328,2.091357 3.61328,4.373047 0,0.887324 -0.25273,1.837478 -0.75977,2.851563 -0.38028,0.887324 -1.07771,1.839431 -2.0918,2.853515 l -38.02929,38.787106 c -0.63381,0.76057 -1.52127,1.52264 -2.66211,2.28321 -1.01409,0.76056 -1.8369,1.14062 -2.47071,1.14062 -0.50704,0 -0.82441,-0.44471 -0.95117,-1.33203 v -2.28125 -35.55664 c 0,-3.676057 0.5074,-6.591164 1.52149,-8.746094 1.14084,-2.28169 4.05595,-3.866582 8.74609,-4.753906 2.15493,-0.380282 3.73982,-0.887681 4.75391,-1.521484 1.01408,-0.633803 1.52148,-1.393926 1.52148,-2.28125 0,-0.760564 -0.5074,-1.267964 -1.52148,-1.521485 -1.01409,-0.380282 -2.34626,-0.570312 -3.99414,-0.570312 -3.42254,0 -6.02028,0.06464 -7.79492,0.191406 -1.77465,0 -3.42224,0.06269 -4.94336,0.189453 h -5.70508 -7.03516 c -1.90141,-0.12676 -3.92905,-0.189453 -6.083983,-0.189453 -2.02817,-0.126761 -4.753245,-0.191406 -8.175781,-0.191406 -1.647888,0 -2.980056,0.19003 -3.994141,0.570312 -1.014085,0.253521 -1.519531,0.760921 -1.519531,1.521485 0,1.774648 2.090338,3.04217 6.273437,3.802734 4.816903,0.887324 8.114019,2.282185 9.888669,4.183594 1.90141,1.774648 2.85157,4.879785 2.85157,9.316406 v 85.56445 c 0,4.69014 -0.95016,8.11265 -2.85157,10.26758 -1.77465,2.02817 -5.071766,3.48572 -9.888669,4.37305 -4.183099,0.76056 -6.273437,1.90075 -6.273437,3.42187 0,0.76057 0.505446,1.26797 1.519531,1.52149 1.014085,0.38028 2.346253,0.57031 3.994141,0.57031 3.422536,0 6.337642,-0.12734 8.746094,-0.38086 2.40845,-0.25352 4.75346,-0.44355 7.03516,-0.57031 2.40845,-0.25352 5.13352,-0.37891 8.17578,-0.37891 2.40845,0 4.31071,0.12539 5.70507,0.37891 1.52113,0.12676 3.16872,0.31679 4.94336,0.57031 1.90141,0.25352 4.5638,0.38086 7.98633,0.38086 1.64789,0 2.97811,-0.19003 3.99219,-0.57031 1.01408,-0.25352 1.52148,-0.76092 1.52148,-1.52149 0,-0.88732 -0.5074,-1.58475 -1.52148,-2.09179 -1.01408,-0.50705 -2.59898,-0.9498 -4.75391,-1.33008 -3.16901,-0.6338 -5.63941,-1.7113 -7.41406,-3.23242 -1.64789,-1.52113 -2.85272,-3.42339 -3.61328,-5.70508 -0.6338,-2.28169 -1.01386,-4.75209 -1.14063,-7.41406 -0.25352,-7.60564 -0.50819,-14.07059 -0.76171,-19.39454 -0.12676,-5.4507 -0.18946,-11.15553 -0.18946,-17.11328 v -2.47265 c 0,-1.01409 0.25273,-1.52149 0.75977,-1.52149 0.50704,0 1.14178,0.38202 1.90234,1.14258 0.88733,0.6338 1.71014,1.32928 2.47071,2.08984 l 40.31054,44.49415 c 0.76057,0.88732 1.3953,1.71013 1.90235,2.4707 0.6338,0.76056 0.94922,1.52264 0.94922,2.2832 0,1.64789 -1.77297,2.91541 -5.32227,3.80274 -3.42254,0.76056 -5.13477,1.83805 -5.13477,3.23242 0,0.76056 0.5074,1.33065 1.52149,1.71094 1.01408,0.25352 2.3443,0.38085 3.99219,0.38085 4.30986,0 7.3523,-0.0646 9.12695,-0.1914 h 6.27539 c 3.5493,0 6.59174,0.0646 9.12695,0.1914 2.53521,0.12676 5.13295,0.25215 7.79492,0.37891 2.66198,0.25352 5.83176,0.38086 9.50782,0.38086 1.64788,0 2.9781,-0.19003 3.99218,-0.57031 1.01409,-0.25352 1.52149,-0.76092 1.52149,-1.52149 0,-0.88732 -0.5074,-1.52011 -1.52149,-1.90039 -1.01408,-0.50704 -2.59897,-1.01444 -4.7539,-1.52148 -3.5493,-0.76057 -6.40171,-1.58533 -8.55664,-2.47266 -2.02817,-1.01408 -3.92848,-2.3443 -5.70313,-3.99219 -1.64789,-1.64788 -3.86556,-3.9929 -6.65429,-7.03515 l -46.01563,-49.05664 c -1.39437,-1.52113 -1.70978,-2.66131 -0.94922,-3.42188 4.43662,-4.94366 8.55461,-9.31827 12.35742,-13.12109 3.80282,-3.92958 7.60734,-7.6675 11.41016,-11.216798 3.92958,-3.676057 8.1749,-7.415932 12.73828,-11.21875 4.43662,-3.676057 9.1913,-6.465779 14.26172,-8.367188 5.07042,-1.901408 9.95048,-3.294316 14.64062,-4.18164 2.15494,-0.380282 3.73983,-0.887682 4.75391,-1.521485 1.01409,-0.633803 1.51953,-1.395879 1.51953,-2.283203 0,-0.633803 -0.38006,-1.139249 -1.14062,-1.519531 -0.76057,-0.380282 -1.77341,-0.570313 -3.04102,-0.570313 z"
       transform="matrix(0.26458333,0,0,0.26458333,47.228548,101.04808)"
       id="text12"
       inkscape:connector-curvature="0" />
  </g>
</svg>
