<?xml version="1.0" encoding="UTF-8" standalone="no"?>
<!-- Created with Inkscape (http://www.inkscape.org/) -->

<svg
   xmlns:dc="http://purl.org/dc/elements/1.1/"
   xmlns:cc="http://creativecommons.org/ns#"
   xmlns:rdf="http://www.w3.org/1999/02/22-rdf-syntax-ns#"
   xmlns:svg="http://www.w3.org/2000/svg"
   xmlns="http://www.w3.org/2000/svg"
   xmlns:sodipodi="http://sodipodi.sourceforge.net/DTD/sodipodi-0.dtd"
   xmlns:inkscape="http://www.inkscape.org/namespaces/inkscape"
   viewBox="0 0 69.32444 34.108899"
   version="1.1"
   id="letraO"
   inkscape:version="0.92.5 (2060ec1f9f, 2020-04-08)"
   sodipodi:docname="O.svg">
  <defs
     id="defs2" />
  <sodipodi:namedview
     id="base"
     pagecolor="#ffffff"
     bordercolor="#666666"
     borderopacity="1.0"
     inkscape:pageopacity="0.0"
     inkscape:pageshadow="2"
     inkscape:zoom="2.2494117"
     inkscape:cx="131.00683"
     inkscape:cy="64.211277"
     inkscape:document-units="mm"
     inkscape:current-layer="layer1"
     showgrid="false"
     fit-margin-top="0"
     fit-margin-left="0"
     fit-margin-right="0"
     fit-margin-bottom="0"
     inkscape:window-width="1440"
     inkscape:window-height="828"
     inkscape:window-x="0"
     inkscape:window-y="0"
     inkscape:window-maximized="1"
     showguides="true"
     inkscape:guide-bbox="true"
     inkscape:snap-grids="true"
     inkscape:snap-bbox="true"
     inkscape:bbox-paths="true"
     inkscape:snap-bbox-edge-midpoints="true">
    <inkscape:grid
       type="xygrid"
       id="grid150"
       originx="-21.561732"
       originy="-19.390972" />
    <sodipodi:guide
       position="-8.3325682,-15.422221"
       orientation="0,1"
       id="guide3863"
       inkscape:locked="false" />
  </sodipodi:namedview>
  <metadata
     id="metadata5">
    <rdf:RDF>
      <cc:Work
         rdf:about="">
        <dc:format>image/svg+xml</dc:format>
        <dc:type
           rdf:resource="http://purl.org/dc/dcmitype/StillImage" />
        <dc:title></dc:title>
      </cc:Work>
    </rdf:RDF>
  </metadata>
  <g
     inkscape:label="Capa 1"
     inkscape:groupmode="layer"
     id="layer1"
     transform="translate(-68.790286,-118.9857)">
    <path
       style="font-style:normal;font-variant:normal;font-weight:normal;font-stretch:normal;font-size:50.30810928px;line-height:1.25;font-family:'EB Garamond';-inkscape-font-specification:'EB Garamond';letter-spacing:0px;word-spacing:0px;fill-opacity:1;stroke:none;stroke-width:0.99999994"
       d="M 64.837891 0 C 54.316762 0 44.999397 1.8376148 36.886719 5.5136719 C 28.774041 9.189729 21.993674 14.134434 16.542969 20.345703 C 11.092263 26.556972 6.9723267 33.654708 4.1835938 41.640625 C 1.3948608 49.499782 0 57.739655 0 66.359375 C 0 75.739659 1.7122297 84.294948 5.1347656 92.027344 C 8.5573016 99.632979 13.182685 106.22527 19.013672 111.80273 C 24.844659 117.25344 31.564286 121.50071 39.169922 124.54297 C 46.775557 127.45846 54.760754 128.91602 63.126953 128.91602 C 73.648082 128.91602 82.965447 127.0784 91.078125 123.40234 C 99.190803 119.72629 105.97117 114.78158 111.42188 108.57031 C 116.87258 102.35904 120.99252 95.261308 123.78125 87.275391 C 126.56998 79.289473 127.96484 71.0496 127.96484 62.556641 C 127.96484 53.176357 126.25261 44.68376 122.83008 37.078125 C 119.40754 29.345729 114.78216 22.75344 108.95117 17.302734 C 103.12018 11.725268 96.400557 7.4779936 88.794922 4.5625 C 81.189286 1.5202458 73.20409 0 64.837891 0 z M 61.794922 7.9863281 C 69.780839 7.9863281 76.75319 9.6339122 82.710938 12.929688 C 88.668685 16.225463 93.61339 20.852799 97.542969 26.810547 C 101.59931 32.641534 104.64175 39.421901 106.66992 47.154297 C 108.69809 54.886693 109.71094 63.126566 109.71094 71.873047 C 109.71094 81.760373 108.06335 90.443 104.76758 97.921875 C 101.59856 105.27399 96.781196 111.04151 90.316406 115.22461 C 83.851616 119.28095 75.739081 121.31055 65.978516 121.31055 C 57.992598 121.31055 51.020248 119.66296 45.0625 116.36719 C 39.104752 112.94465 34.099308 108.25267 30.042969 102.29492 C 26.11339 96.337174 23.133638 89.492162 21.105469 81.759766 C 19.20406 74.02737 18.253906 65.724804 18.253906 56.851562 C 18.253906 46.964236 19.90149 38.408947 23.197266 31.183594 C 26.493041 23.83148 31.373101 18.126651 37.837891 14.070312 C 44.302681 10.013974 52.287878 7.9863281 61.794922 7.9863281 z M 222.84375 47.535156 C 217.01276 47.535156 211.56261 48.802679 206.49219 51.337891 C 201.42176 53.746342 196.98641 57.04151 193.18359 61.224609 C 189.38078 65.407709 186.40102 70.035045 184.24609 75.105469 C 182.21792 80.175892 181.20312 85.373321 181.20312 90.697266 C 181.20312 98.04938 182.85071 104.64167 186.14648 110.47266 C 189.56902 116.17688 194.13366 120.67688 199.83789 123.97266 C 205.54212 127.26843 211.94242 128.91602 219.04102 128.91602 C 228.54806 128.91602 236.47056 126.88642 242.80859 122.83008 C 249.14662 118.64698 253.9013 113.26147 257.07031 106.66992 C 260.36609 100.07837 262.01367 93.10602 262.01367 85.753906 C 262.01367 78.908834 260.23875 72.633914 256.68945 66.929688 C 253.26692 61.0987 248.57689 56.408672 242.61914 52.859375 C 236.78815 49.310078 230.19586 47.535156 222.84375 47.535156 z M 219.61133 53.429688 C 225.06203 53.429688 229.75402 55.267302 233.68359 58.943359 C 237.73993 62.492656 240.84507 67.119992 243 72.824219 C 245.28169 78.401685 246.42188 84.231898 246.42188 90.316406 C 246.42188 93.992463 246.16915 97.922369 245.66211 102.10547 C 245.15507 106.28857 244.14027 109.83841 242.61914 112.75391 C 240.71773 116.42996 238.05535 119.09235 234.63281 120.74023 C 231.21028 122.38812 227.34502 123.21094 223.03516 123.21094 C 217.96473 123.21094 213.46473 121.43602 209.53516 117.88672 C 205.60558 114.33742 202.50044 109.77473 200.21875 104.19727 C 197.93706 98.493039 196.79492 92.535488 196.79492 86.324219 C 196.79492 81.760837 197.17498 77.198147 197.93555 72.634766 C 198.69611 68.071384 200.34369 64.204171 202.87891 61.035156 C 205.1606 58.119663 207.63295 56.15471 210.29492 55.140625 C 213.08365 53.99978 216.18879 53.429688 219.61133 53.429688 z "
       transform="matrix(0.26458333,0,0,0.26458333,68.790286,118.9857)"
       id="text12" />
  </g>
</svg>
