<?xml version="1.0" encoding="UTF-8" standalone="no"?>
<!-- Created with Inkscape (http://www.inkscape.org/) -->

<svg
   xmlns:dc="http://purl.org/dc/elements/1.1/"
   xmlns:cc="http://creativecommons.org/ns#"
   xmlns:rdf="http://www.w3.org/1999/02/22-rdf-syntax-ns#"
   xmlns:svg="http://www.w3.org/2000/svg"
   xmlns="http://www.w3.org/2000/svg"
   xmlns:sodipodi="http://sodipodi.sourceforge.net/DTD/sodipodi-0.dtd"
   xmlns:inkscape="http://www.inkscape.org/namespaces/inkscape"
   viewBox="0 0 72.443543 47.742398"
   version="1.1"
   id="letraQ"
   inkscape:version="0.92.5 (2060ec1f9f, 2020-04-08)"
   sodipodi:docname="Q.svg">
  <defs
     id="defs2" />
  <sodipodi:namedview
     id="base"
     pagecolor="#ffffff"
     bordercolor="#666666"
     borderopacity="1.0"
     inkscape:pageopacity="0.0"
     inkscape:pageshadow="2"
     inkscape:zoom="2.2494117"
     inkscape:cx="136.90121"
     inkscape:cy="115.73947"
     inkscape:document-units="mm"
     inkscape:current-layer="layer1"
     showgrid="false"
     fit-margin-top="0"
     fit-margin-left="0"
     fit-margin-right="0"
     fit-margin-bottom="0"
     inkscape:window-width="1440"
     inkscape:window-height="828"
     inkscape:window-x="0"
     inkscape:window-y="0"
     inkscape:window-maximized="1"
     showguides="true"
     inkscape:guide-bbox="true"
     inkscape:snap-grids="true"
     inkscape:snap-bbox="true"
     inkscape:bbox-paths="true"
     inkscape:snap-bbox-edge-midpoints="true">
    <inkscape:grid
       type="xygrid"
       id="grid150"
       originx="-20.002176"
       originy="-5.7574722" />
  </sodipodi:namedview>
  <metadata
     id="metadata5">
    <rdf:RDF>
      <cc:Work
         rdf:about="">
        <dc:format>image/svg+xml</dc:format>
        <dc:type
           rdf:resource="http://purl.org/dc/dcmitype/StillImage" />
        <dc:title></dc:title>
      </cc:Work>
    </rdf:RDF>
  </metadata>
  <g
     inkscape:label="Capa 1"
     inkscape:groupmode="layer"
     id="layer1"
     transform="translate(-67.23073,-118.9857)">
    <path
       style="font-style:normal;font-variant:normal;font-weight:normal;font-stretch:normal;font-size:50.30810928px;line-height:1.25;font-family:'EB Garamond';-inkscape-font-specification:'EB Garamond';letter-spacing:0px;word-spacing:0px;fill-opacity:1;stroke:none;stroke-width:0.99999994"
       d="M 64.837891 0 C 54.316762 0 44.999397 1.8376148 36.886719 5.5136719 C 28.774041 9.189729 21.993674 14.134434 16.542969 20.345703 C 11.092263 26.556972 6.9723267 33.654708 4.1835938 41.640625 C 1.3948608 49.499782 0 57.739655 0 66.359375 C 0 74.091771 1.0147993 81.064122 3.0429688 87.275391 C 5.1978988 93.359899 8.0483597 98.747358 11.597656 103.4375 C 15.273713 108.12764 19.458296 112.18293 24.148438 115.60547 C 28.838579 119.028 33.781331 121.94311 38.978516 124.35156 C 41.640488 125.61917 44.810271 127.01403 48.486328 128.53516 C 52.289146 130.18304 56.409082 132.84543 60.845703 136.52148 C 67.056972 141.59191 72.379786 145.71184 76.816406 148.88086 C 81.253027 152.17663 85.943056 155.59914 90.886719 159.14844 C 96.971227 163.4583 103.18345 166.8808 109.52148 169.41602 C 115.98627 172.07799 123.78144 173.4082 132.9082 173.4082 C 136.4575 173.4082 140.13468 172.9008 143.9375 171.88672 C 147.86708 170.87263 151.605 169.2897 155.1543 167.13477 C 156.54866 166.24744 157.43612 165.48537 157.81641 164.85156 C 158.32345 164.21776 158.57812 163.3303 158.57812 162.18945 C 158.57812 161.17537 157.88069 160.66992 156.48633 160.66992 C 155.97929 160.66992 155.40919 160.73261 154.77539 160.85938 C 154.14159 160.98614 153.50685 161.17617 152.87305 161.42969 C 151.98572 161.80997 150.52817 162.12734 148.5 162.38086 C 146.59859 162.63438 144.5063 162.75977 142.22461 162.75977 C 134.8725 162.75977 128.40754 161.8723 122.83008 160.09766 C 117.37937 158.44977 111.48647 155.34463 105.14844 150.78125 C 100.4583 147.35871 96.148328 143.93621 92.21875 140.51367 C 88.415932 137.2179 84.676057 133.60536 81 129.67578 C 80.492958 129.16874 80.240234 128.59865 80.240234 127.96484 C 80.240234 127.33104 80.745681 126.88829 81.759766 126.63477 C 91.900613 123.97279 100.39516 119.40815 107.24023 112.94336 C 114.08531 106.47857 119.21809 98.873434 122.64062 90.126953 C 126.18992 81.380472 127.96484 72.190445 127.96484 62.556641 C 127.96484 53.176357 126.25261 44.68376 122.83008 37.078125 C 119.40754 29.345729 114.78216 22.75344 108.95117 17.302734 C 103.12018 11.725268 96.400557 7.4779936 88.794922 4.5625 C 81.189286 1.5202458 73.20409 0 64.837891 0 z M 61.794922 7.9863281 C 69.780839 7.9863281 76.75319 9.6339122 82.710938 12.929688 C 88.668685 16.225463 93.61339 20.852799 97.542969 26.810547 C 101.59931 32.641534 104.64175 39.421901 106.66992 47.154297 C 108.69809 54.886693 109.71094 63.126566 109.71094 71.873047 C 109.71094 86.830797 106.03571 98.810545 98.683594 107.81055 C 91.45824 116.81055 80.555984 121.31055 65.978516 121.31055 C 57.992598 121.31055 51.020248 119.66296 45.0625 116.36719 C 39.104752 112.94465 34.099308 108.25267 30.042969 102.29492 C 26.11339 96.337174 23.133638 89.492162 21.105469 81.759766 C 19.20406 74.02737 18.253906 65.724804 18.253906 56.851562 C 18.253906 42.020573 21.929136 30.168163 29.28125 21.294922 C 36.633364 12.421681 47.470975 7.9863281 61.794922 7.9863281 z M 258.78125 46.205078 C 258.52773 46.205078 258.27501 46.330463 258.02148 46.583984 C 257.76796 46.710745 257.57793 46.838083 257.45117 46.964844 C 256.81737 48.35921 256.18263 49.499395 255.54883 50.386719 C 254.91503 51.274043 253.90023 51.71875 252.50586 51.71875 C 252.25234 51.71875 250.98482 51.401381 248.70312 50.767578 C 246.42143 50.007015 243.50633 49.309584 239.95703 48.675781 C 236.40773 47.915218 232.47783 47.535156 228.16797 47.535156 C 218.91445 47.535156 210.73922 49.437417 203.64062 53.240234 C 196.54203 56.916291 191.02723 62.111767 187.09766 68.830078 C 183.16808 75.548389 181.20313 83.408201 181.20312 92.408203 C 181.20312 100.26736 182.97805 106.92234 186.52734 112.37305 C 190.2034 117.82375 194.89343 121.94369 200.59766 124.73242 C 206.42864 127.52115 212.64087 128.91602 219.23242 128.91602 C 222.65496 128.91602 226.01282 128.21859 229.30859 126.82422 C 232.60437 125.55661 235.52143 124.09906 238.05664 122.45117 C 240.59185 120.67652 242.36482 119.34436 243.37891 118.45703 C 243.63243 118.20351 243.8871 118.07812 244.14062 118.07812 L 245.0918 118.07812 C 245.47208 118.07812 245.7248 118.52088 245.85156 119.4082 C 246.10508 120.16877 246.23242 121.62632 246.23242 123.78125 L 246.23242 168.08398 C 246.23242 170.6192 245.34496 172.26678 243.57031 173.02734 C 241.79566 173.91467 239.95805 174.67674 238.05664 175.31055 L 235.01367 176.45117 C 234.12635 176.95821 233.68359 177.71834 233.68359 178.73242 C 233.68359 179.49299 234.12635 179.93574 235.01367 180.0625 C 236.02776 180.31602 236.85253 180.44336 237.48633 180.44336 C 240.02154 180.44336 241.98454 180.31602 243.37891 180.0625 C 244.90003 179.93574 246.29489 179.81035 247.5625 179.68359 C 248.95687 179.55683 250.73179 179.49219 252.88672 179.49219 C 256.30925 179.49219 259.03433 179.61953 261.0625 179.87305 C 263.21743 180.25333 266.19718 180.44336 270 180.44336 C 270.76056 180.44336 271.58338 180.31602 272.4707 180.0625 C 273.35803 179.93574 273.80273 179.49299 273.80273 178.73242 C 273.80273 177.71834 273.29533 176.95821 272.28125 176.45117 C 271.39393 176.07089 270.44377 175.69083 269.42969 175.31055 C 267.52828 174.67674 265.37329 173.91467 262.96484 173.02734 C 260.68315 172.26678 259.54102 170.6192 259.54102 168.08398 L 259.54102 70.162109 C 259.54102 64.711404 259.92303 60.021375 260.68359 56.091797 C 261.44416 52.035458 261.82422 49.373075 261.82422 48.105469 C 261.82422 47.598426 261.44416 47.155672 260.68359 46.775391 C 260.04979 46.395109 259.41505 46.205078 258.78125 46.205078 z M 223.41602 53.619141 C 229.75405 53.619141 235.07686 55.584094 239.38672 59.513672 C 243.82334 63.44325 246.10566 68.260617 246.23242 73.964844 L 246.23242 80.619141 C 246.35918 83.914916 246.42188 87.592099 246.42188 91.648438 L 246.42188 103.05664 L 246.42188 111.04297 C 244.77399 112.81762 242.04891 114.59254 238.24609 116.36719 C 234.44328 118.01508 230.45068 118.83789 226.26758 118.83789 C 223.47885 118.83789 220.37371 118.39514 216.95117 117.50781 C 213.52864 116.49373 210.29616 114.84419 207.25391 112.5625 C 204.21165 110.28081 201.67465 107.11298 199.64648 103.05664 C 197.74508 98.873541 196.79492 93.61342 196.79492 87.275391 C 196.79492 79.923276 198.06244 73.773741 200.59766 68.830078 C 203.13287 63.886415 206.42999 60.148493 210.48633 57.613281 C 214.54267 54.951309 218.85263 53.619141 223.41602 53.619141 z "
       transform="matrix(0.26458333,0,0,0.26458333,67.23073,118.9857)"
       id="text12" />
  </g>
</svg>
