<?xml version="1.0" encoding="UTF-8" standalone="no"?>
<!-- Created with Inkscape (http://www.inkscape.org/) -->

<svg
   xmlns:dc="http://purl.org/dc/elements/1.1/"
   xmlns:cc="http://creativecommons.org/ns#"
   xmlns:rdf="http://www.w3.org/1999/02/22-rdf-syntax-ns#"
   xmlns:svg="http://www.w3.org/2000/svg"
   xmlns="http://www.w3.org/2000/svg"
   xmlns:sodipodi="http://sodipodi.sourceforge.net/DTD/sodipodi-0.dtd"
   xmlns:inkscape="http://www.inkscape.org/namespaces/inkscape"
   viewBox="0 0 61.275182 34.108899"
   version="1.1"
   id="letraR"
   inkscape:version="0.92.5 (2060ec1f9f, 2020-04-08)"
   sodipodi:docname="R.svg">
  <defs
     id="defs2" />
  <sodipodi:namedview
     id="base"
     pagecolor="#ffffff"
     bordercolor="#666666"
     borderopacity="1.0"
     inkscape:pageopacity="0.0"
     inkscape:pageshadow="2"
     inkscape:zoom="2.2494117"
     inkscape:cx="115.79563"
     inkscape:cy="65.54226"
     inkscape:document-units="mm"
     inkscape:current-layer="layer1"
     showgrid="false"
     fit-margin-top="0"
     fit-margin-left="0"
     fit-margin-right="0"
     fit-margin-bottom="0"
     inkscape:window-width="1440"
     inkscape:window-height="828"
     inkscape:window-x="0"
     inkscape:window-y="0"
     inkscape:window-maximized="1"
     showguides="true"
     inkscape:guide-bbox="true"
     inkscape:snap-grids="true"
     inkscape:snap-bbox="true"
     inkscape:bbox-paths="true"
     inkscape:snap-bbox-edge-midpoints="true">
    <inkscape:grid
       type="xygrid"
       id="grid150"
       originx="-25.586363"
       originy="-19.038815" />
  </sodipodi:namedview>
  <metadata
     id="metadata5">
    <rdf:RDF>
      <cc:Work
         rdf:about="">
        <dc:format>image/svg+xml</dc:format>
        <dc:type
           rdf:resource="http://purl.org/dc/dcmitype/StillImage" />
        <dc:title></dc:title>
      </cc:Work>
    </rdf:RDF>
  </metadata>
  <g
     inkscape:label="Capa 1"
     inkscape:groupmode="layer"
     id="layer1"
     transform="translate(-72.814916,-119.33786)">
    <path
       style="font-style:normal;font-variant:normal;font-weight:normal;font-stretch:normal;font-size:50.30810928px;line-height:1.25;font-family:'EB Garamond';-inkscape-font-specification:'EB Garamond';letter-spacing:0px;word-spacing:0px;fill-opacity:1;stroke:none;stroke-width:0.99999994"
       d="M 48.294922 0 C 44.618865 0 41.578373 0.062692535 39.169922 0.18945312 C 36.888231 0.31621372 34.79594 0.50624444 32.894531 0.75976562 C 30.993122 0.88652622 28.838139 0.95117188 26.429688 0.95117188 L 20.345703 0.95117188 C 18.824576 0.82441128 17.176992 0.75976562 15.402344 0.75976562 L 7.7949219 0.75976562 C 6.1470342 0.75976562 4.8168191 0.94979635 3.8027344 1.3300781 C 2.7886497 1.5835993 2.28125 2.090999 2.28125 2.8515625 C 2.28125 3.7388866 2.7886497 4.5636552 3.8027344 5.3242188 C 4.8168191 5.9580217 6.4017106 6.4007757 8.5566406 6.6542969 C 12.232698 7.0345786 14.830435 7.732009 16.351562 8.7460938 C 17.99945 9.7601785 19.014249 11.535101 19.394531 14.070312 C 19.901574 16.478764 20.154297 20.091301 20.154297 24.908203 L 20.154297 105.9082 C 20.154297 110.59834 19.014113 113.95816 16.732422 115.98633 C 14.577492 118.0145 11.092293 119.47205 6.2753906 120.35938 C 2.0922911 121.11994 0 122.26012 0 123.78125 C 0 124.54181 0.50739965 125.04921 1.5214844 125.30273 C 2.5355691 125.68302 3.8657842 125.87305 5.5136719 125.87305 C 8.9362078 125.87305 11.851314 125.74571 14.259766 125.49219 C 16.794977 125.23867 19.26733 125.04864 21.675781 124.92188 C 24.210993 124.66835 27.063407 124.54297 30.232422 124.54297 C 32.640873 124.54297 34.543134 124.66835 35.9375 124.92188 C 37.458627 125.04864 39.106211 125.23867 40.880859 125.49219 C 42.782268 125.74571 45.442698 125.87305 48.865234 125.87305 C 50.513122 125.87305 51.84529 125.68302 52.859375 125.30273 C 53.87346 125.04921 54.380859 124.54181 54.380859 123.78125 C 54.380859 122.89393 53.87346 122.1965 52.859375 121.68945 C 51.84529 121.18241 50.260399 120.73966 48.105469 120.35938 C 43.415327 119.47205 40.120159 117.56979 38.21875 114.6543 C 36.317341 111.61204 35.365234 108.06415 35.365234 104.00781 L 35.365234 70.542969 C 35.365234 69.402123 35.557218 68.450017 35.9375 67.689453 C 36.444542 66.92889 37.204665 66.613474 38.21875 66.740234 C 39.993398 66.866995 42.211074 67.247056 44.873047 67.880859 C 47.66178 68.387902 50.451501 69.338055 53.240234 70.732422 C 56.789531 72.50707 59.514607 74.979423 61.416016 78.148438 C 65.852636 85.247031 69.592511 91.077244 72.634766 95.640625 C 75.80378 100.20401 78.78158 104.26125 81.570312 107.81055 C 84.359045 111.23308 87.274152 114.84562 90.316406 118.64844 C 92.598097 121.31041 95.070449 123.40075 97.732422 124.92188 C 100.39439 126.443 103.3095 127.4578 106.47852 127.96484 C 109.64753 128.59865 113.00734 128.91602 116.55664 128.91602 C 118.20453 128.91602 120.23217 128.72598 122.64062 128.3457 C 125.04908 128.09218 127.20406 127.45744 129.10547 126.44336 C 131.00688 125.55604 131.95703 124.16117 131.95703 122.25977 C 131.95703 120.8654 131.00688 120.16992 129.10547 120.16992 C 124.66885 120.16992 120.73894 119.85255 117.31641 119.21875 C 113.89387 118.58495 110.53601 116.81002 107.24023 113.89453 C 101.28249 108.44383 96.147751 103.1837 91.837891 98.113281 C 87.528031 93.042858 83.535432 87.845429 79.859375 82.521484 C 76.310078 77.19754 72.570203 71.555404 68.640625 65.597656 C 68.260343 64.963853 68.00762 64.458407 67.880859 64.078125 C 67.880859 63.571083 68.133583 63.253714 68.640625 63.126953 C 72.189922 61.352305 75.67512 59.069983 79.097656 56.28125 C 82.520192 53.492517 85.372606 50.070011 87.654297 46.013672 C 89.935988 41.830572 91.078125 36.88782 91.078125 31.183594 C 91.078125 20.789225 87.400942 12.992106 80.048828 7.7949219 C 72.823474 2.5977377 62.238587 0 48.294922 0 z M 46.013672 5.7050781 C 53.999589 5.7050781 59.95714 7.0352932 63.886719 9.6972656 C 67.943058 12.232477 70.605441 15.654984 71.873047 19.964844 C 73.267413 24.274704 73.964844 29.027425 73.964844 34.224609 C 73.964844 39.041512 72.760014 43.606156 70.351562 47.916016 C 68.069872 52.225876 64.774704 55.711074 60.464844 58.373047 C 56.281744 61.035019 51.274347 62.367188 45.443359 62.367188 C 42.274345 62.367188 39.801992 62.049819 38.027344 61.416016 C 36.252695 60.782213 35.365234 58.879952 35.365234 55.710938 L 35.365234 36.316406 C 35.491995 30.865701 35.619333 26.555734 35.746094 23.386719 C 35.999615 16.795168 36.759738 12.232477 38.027344 9.6972656 C 39.29495 7.0352932 41.957333 5.7050781 46.013672 5.7050781 z M 199.83789 43.162109 C 199.58437 43.162109 199.20431 43.289448 198.69727 43.542969 C 198.31698 43.669729 197.74689 43.985145 196.98633 44.492188 C 194.95816 45.759793 192.10574 47.409331 188.42969 49.4375 C 184.88039 51.338909 181.45788 52.796462 178.16211 53.810547 C 177.02126 54.064068 176.45117 54.824191 176.45117 56.091797 C 176.45117 56.598839 176.6412 57.106239 177.02148 57.613281 C 177.40177 58.120324 177.84452 58.435739 178.35156 58.5625 C 181.52058 59.196303 183.61287 60.781194 184.62695 63.316406 C 185.64104 65.851618 186.14844 68.83137 186.14844 72.253906 L 186.14844 113.13477 C 186.14844 114.90941 185.5137 116.42966 184.24609 117.69727 C 183.10525 118.83811 181.33033 119.72557 178.92188 120.35938 C 177.52751 120.73966 176.45002 121.11972 175.68945 121.5 C 174.92889 121.75352 174.54883 122.38826 174.54883 123.40234 C 174.54883 124.16291 174.8662 124.66835 175.5 124.92188 C 176.1338 125.30216 177.08396 125.49219 178.35156 125.49219 C 180.88677 125.49219 182.85173 125.3668 184.24609 125.11328 C 185.76722 124.98652 187.16208 124.85918 188.42969 124.73242 C 189.82405 124.60566 191.59898 124.54297 193.75391 124.54297 C 197.04968 124.54297 199.64742 124.66835 201.54883 124.92188 C 203.577 125.30216 206.4921 125.49219 210.29492 125.49219 C 212.83013 125.49219 214.09766 124.79671 214.09766 123.40234 C 214.09766 122.51502 213.71759 121.88028 212.95703 121.5 C 212.19647 121.11972 211.11898 120.73966 209.72461 120.35938 C 206.55559 119.34529 204.08324 118.33049 202.30859 117.31641 C 200.53395 116.17556 199.64844 114.78265 199.64844 113.13477 L 199.64844 74.724609 C 199.64844 68.38658 201.04135 64.141258 203.83008 61.986328 C 206.74557 59.831398 209.72532 58.753906 212.76758 58.753906 C 213.78166 58.753906 214.79451 58.943937 215.80859 59.324219 L 218.85156 60.464844 C 219.86565 60.971886 220.8158 61.41464 221.70312 61.794922 C 222.59045 62.048443 223.41522 62.175781 224.17578 62.175781 C 225.44339 62.175781 226.64822 61.605689 227.78906 60.464844 C 228.92991 59.323998 229.81737 57.993783 230.45117 56.472656 C 231.21174 54.951529 231.5918 53.556668 231.5918 52.289062 C 231.5918 50.514414 230.70434 49.056861 228.92969 47.916016 C 227.2818 46.77517 225.12682 46.205078 222.46484 46.205078 C 220.05639 46.205078 217.52135 46.77517 214.85938 47.916016 C 212.32416 49.056861 209.78912 50.577107 207.25391 52.478516 C 204.84546 54.379924 202.62583 56.599554 200.59766 59.134766 C 200.34414 59.134766 200.21875 59.007427 200.21875 58.753906 C 200.34551 56.725737 200.4082 54.698091 200.4082 52.669922 C 200.53496 50.641752 200.59766 48.86683 200.59766 47.345703 C 200.72442 45.824576 200.78906 44.872469 200.78906 44.492188 C 200.78906 43.604863 200.47169 43.162109 199.83789 43.162109 z "
       transform="matrix(0.26458333,0,0,0.26458333,72.814916,119.33786)"
       id="text12" />
  </g>
</svg>
