<?xml version="1.0" encoding="UTF-8" standalone="no"?>
<!-- Created with Inkscape (http://www.inkscape.org/) -->

<svg
   xmlns:dc="http://purl.org/dc/elements/1.1/"
   xmlns:cc="http://creativecommons.org/ns#"
   xmlns:rdf="http://www.w3.org/1999/02/22-rdf-syntax-ns#"
   xmlns:svg="http://www.w3.org/2000/svg"
   xmlns="http://www.w3.org/2000/svg"
   xmlns:sodipodi="http://sodipodi.sourceforge.net/DTD/sodipodi-0.dtd"
   xmlns:inkscape="http://www.inkscape.org/namespaces/inkscape"
   viewBox="0 0 46.082076 34.209515"
   version="1.1"
   id="letraS"
   inkscape:version="0.92.5 (2060ec1f9f, 2020-04-08)"
   sodipodi:docname="S.svg">
  <defs
     id="defs2" />
  <sodipodi:namedview
     id="base"
     pagecolor="#ffffff"
     bordercolor="#666666"
     borderopacity="1.0"
     inkscape:pageopacity="0.0"
     inkscape:pageshadow="2"
     inkscape:zoom="2.2494117"
     inkscape:cx="87.084236"
     inkscape:cy="64.591559"
     inkscape:document-units="mm"
     inkscape:current-layer="layer1"
     showgrid="false"
     fit-margin-top="0"
     fit-margin-left="0"
     fit-margin-right="0"
     fit-margin-bottom="0"
     inkscape:window-width="1440"
     inkscape:window-height="828"
     inkscape:window-x="0"
     inkscape:window-y="0"
     inkscape:window-maximized="1"
     showguides="true"
     inkscape:guide-bbox="true"
     inkscape:snap-grids="true"
     inkscape:snap-bbox="true"
     inkscape:bbox-paths="true"
     inkscape:snap-bbox-edge-midpoints="true">
    <inkscape:grid
       type="xygrid"
       id="grid150"
       originx="-33.182919"
       originy="-19.290356" />
  </sodipodi:namedview>
  <metadata
     id="metadata5">
    <rdf:RDF>
      <cc:Work
         rdf:about="">
        <dc:format>image/svg+xml</dc:format>
        <dc:type
           rdf:resource="http://purl.org/dc/dcmitype/StillImage" />
        <dc:title></dc:title>
      </cc:Work>
    </rdf:RDF>
  </metadata>
  <g
     inkscape:label="Capa 1"
     inkscape:groupmode="layer"
     id="layer1"
     transform="translate(-80.411471,-118.9857)">
    <path
       style="font-style:normal;font-variant:normal;font-weight:normal;font-stretch:normal;font-size:50.30810928px;line-height:1.25;font-family:'EB Garamond';-inkscape-font-specification:'EB Garamond';letter-spacing:0px;word-spacing:0px;fill-opacity:1;stroke:none;stroke-width:0.99999994"
       d="M 43.542969 0 C 34.669727 0 27.25267 1.5848915 21.294922 4.7539062 C 15.463935 7.7961604 11.091275 11.916097 8.1757812 17.113281 C 5.2602877 22.310465 3.8027344 28.140679 3.8027344 34.605469 C 3.8027344 40.689977 5.3876259 45.887406 8.5566406 50.197266 C 11.725655 54.380365 15.718254 58.12024 20.535156 61.416016 C 25.352059 64.58503 30.232118 67.75286 35.175781 70.921875 C 39.739163 73.710608 43.606376 76.310299 46.775391 78.71875 C 49.944405 81.127201 52.352112 83.979615 54 87.275391 C 55.774648 90.444405 56.662109 94.627035 56.662109 99.824219 C 56.662109 104.51436 55.64731 108.6343 53.619141 112.18359 C 51.717732 115.60613 49.057302 118.26851 45.634766 120.16992 C 42.21223 122.07133 38.282324 123.02148 33.845703 123.02148 C 28.394998 123.02148 23.132924 120.92919 18.0625 116.74609 C 13.118837 112.56299 9.3809149 105.59064 6.8457031 95.830078 C 6.7189425 95.069515 6.3388811 94.564068 5.7050781 94.310547 C 5.0712752 93.930265 4.4365373 93.740234 3.8027344 93.740234 C 2.7886497 93.740234 1.9011885 93.992958 1.140625 94.5 C 0.38006146 94.880282 0 95.51502 0 96.402344 C 0.25352118 99.064316 0.44355191 102.42218 0.5703125 106.47852 C 0.82383368 110.53485 1.2685408 113.83198 1.9023438 116.36719 C 2.1558649 117.12775 2.4712807 117.82323 2.8515625 118.45703 C 3.3586049 119.09083 3.8660045 119.66288 4.3730469 120.16992 C 7.9223434 123.08542 11.914942 125.30309 16.351562 126.82422 C 20.914944 128.47211 25.859649 129.29492 31.183594 129.29492 C 39.549793 129.29492 46.837559 127.77468 53.048828 124.73242 C 59.260097 121.69017 64.077464 117.3802 67.5 111.80273 C 70.922536 106.09851 72.634766 99.506219 72.634766 92.027344 C 72.634766 85.689314 71.239905 80.366501 68.451172 76.056641 C 65.789199 71.62002 62.302048 67.817452 57.992188 64.648438 C 53.809088 61.479423 49.499121 58.564316 45.0625 55.902344 C 40.372358 52.98685 35.999698 50.134436 31.943359 47.345703 C 27.88702 44.55697 24.591852 41.63991 22.056641 38.597656 C 19.648189 35.428641 18.443359 31.943443 18.443359 28.140625 C 18.443359 22.81668 19.458159 18.571359 21.486328 15.402344 C 23.641258 12.233329 26.366334 9.9510071 29.662109 8.5566406 C 32.957885 7.1622741 36.507729 6.4648438 40.310547 6.4648438 C 45.761252 6.4648437 50.26125 8.239766 53.810547 11.789062 C 57.359843 15.338359 60.464981 20.471142 63.126953 27.189453 C 63.380474 27.950017 64.013259 28.584755 65.027344 29.091797 C 66.168189 29.598839 67.310327 29.851562 68.451172 29.851562 C 70.352581 29.851562 71.302734 29.154132 71.302734 27.759766 C 71.302734 24.717511 70.85998 21.485036 69.972656 18.0625 C 69.085332 14.639964 68.260564 11.599472 67.5 8.9375 C 67.246479 7.9234153 66.739079 6.9713085 65.978516 6.0839844 C 65.344713 5.1966602 64.521897 4.5638755 63.507812 4.1835938 C 61.479643 3.2962696 58.752614 2.4088085 55.330078 1.5214844 C 52.034303 0.50739965 48.10635 0 43.542969 0 z M 153.44336 47.535156 C 147.73913 47.535156 142.98446 48.549956 139.18164 50.578125 C 135.37882 52.479534 132.52836 55.077272 130.62695 58.373047 C 128.72554 61.668822 127.77344 65.346005 127.77344 69.402344 C 127.77344 72.571359 128.34548 75.421819 129.48633 77.957031 C 130.75393 80.492243 132.71693 82.964596 135.37891 85.373047 C 138.04088 87.781498 141.52803 90.316543 145.83789 92.978516 C 151.54212 96.527812 155.53472 99.570257 157.81641 102.10547 C 160.0981 104.51392 161.23828 107.42903 161.23828 110.85156 C 161.23828 114.52762 159.90807 117.63471 157.24609 120.16992 C 154.71088 122.57837 151.60574 123.78125 147.92969 123.78125 C 144.25363 123.78125 140.57645 122.45103 136.90039 119.78906 C 133.35109 117.12709 130.75336 112.68978 129.10547 106.47852 C 128.97871 105.97147 128.66134 105.6541 128.1543 105.52734 C 127.77402 105.27382 127.33126 105.14844 126.82422 105.14844 C 125.17633 105.14844 124.35156 105.71853 124.35156 106.85938 C 124.47832 109.01431 124.66835 111.73938 124.92188 115.03516 C 125.30216 118.33093 125.80956 120.67595 126.44336 122.07031 C 128.85181 124.22524 131.76692 125.87283 135.18945 127.01367 C 138.61199 128.28128 142.28917 128.91602 146.21875 128.91602 C 154.45819 128.91602 161.17586 126.76103 166.37305 122.45117 C 171.57023 118.14131 174.16797 112.56382 174.16797 105.71875 C 174.16797 99.761002 172.33035 95.006328 168.6543 91.457031 C 165.105 87.780974 159.65485 83.853021 152.30273 79.669922 C 147.23231 76.754428 143.74516 74.154738 141.84375 71.873047 C 140.0691 69.591356 139.18164 66.993619 139.18164 64.078125 C 139.18164 60.402068 140.38647 57.612346 142.79492 55.710938 C 145.33013 53.809529 148.18255 52.859375 151.35156 52.859375 C 155.02762 52.859375 158.07006 53.999559 160.47852 56.28125 C 163.01373 58.43618 165.10602 61.605963 166.75391 65.789062 C 167.00743 66.296105 167.45018 66.738859 168.08398 67.119141 C 168.84455 67.372662 169.60467 67.5 170.36523 67.5 C 171.63284 67.5 172.26758 67.057246 172.26758 66.169922 C 172.26758 63.507949 171.88752 60.718228 171.12695 57.802734 C 170.49315 54.76048 169.66838 52.542804 168.6543 51.148438 C 167.38669 50.261113 165.48443 49.436345 162.94922 48.675781 C 160.41401 47.915218 157.24618 47.535156 153.44336 47.535156 z "
       transform="matrix(0.26458333,0,0,0.26458333,80.411471,118.9857)"
       id="text12" />
  </g>
</svg>
