<?xml version="1.0" encoding="UTF-8" standalone="no"?>
<!-- Created with Inkscape (http://www.inkscape.org/) -->

<svg
   xmlns:dc="http://purl.org/dc/elements/1.1/"
   xmlns:cc="http://creativecommons.org/ns#"
   xmlns:rdf="http://www.w3.org/1999/02/22-rdf-syntax-ns#"
   xmlns:svg="http://www.w3.org/2000/svg"
   xmlns="http://www.w3.org/2000/svg"
   xmlns:sodipodi="http://sodipodi.sourceforge.net/DTD/sodipodi-0.dtd"
   xmlns:inkscape="http://www.inkscape.org/namespaces/inkscape"
   viewBox="0 0 64.718446 33.171337"
   version="1.1"
   id="letraV"
   inkscape:version="0.92.5 (2060ec1f9f, 2020-04-08)"
   sodipodi:docname="V.svg">
  <defs
     id="defs2" />
  <sodipodi:namedview
     id="base"
     pagecolor="#ffffff"
     bordercolor="#666666"
     borderopacity="1.0"
     inkscape:pageopacity="0.0"
     inkscape:pageshadow="2"
     inkscape:zoom="3.9083392"
     inkscape:cx="122.30259"
     inkscape:cy="62.686001"
     inkscape:document-units="mm"
     inkscape:current-layer="layer1"
     showgrid="false"
     fit-margin-top="0"
     fit-margin-left="0"
     fit-margin-right="0"
     fit-margin-bottom="0"
     inkscape:window-width="1440"
     inkscape:window-height="828"
     inkscape:window-x="0"
     inkscape:window-y="0"
     inkscape:window-maximized="1"
     showguides="true"
     inkscape:guide-bbox="true"
     inkscape:snap-grids="true"
     inkscape:snap-bbox="true"
     inkscape:bbox-paths="true"
     inkscape:snap-bbox-edge-midpoints="true">
    <inkscape:grid
       type="xygrid"
       id="grid150"
       originx="-23.864732"
       originy="-19.74532" />
  </sodipodi:namedview>
  <metadata
     id="metadata5">
    <rdf:RDF>
      <cc:Work
         rdf:about="">
        <dc:format>image/svg+xml</dc:format>
        <dc:type
           rdf:resource="http://purl.org/dc/dcmitype/StillImage" />
        <dc:title></dc:title>
      </cc:Work>
    </rdf:RDF>
  </metadata>
  <g
     inkscape:label="Capa 1"
     inkscape:groupmode="layer"
     id="layer1"
     transform="translate(-71.093285,-119.56892)">
    <path
       style="font-style:normal;font-variant:normal;font-weight:normal;font-stretch:normal;font-size:49.21563339px;line-height:1.25;font-family:'EB Garamond';-inkscape-font-specification:'EB Garamond';letter-spacing:0px;word-spacing:0px;fill-opacity:1;stroke:none;stroke-width:1.00000012"
       d="M 5.3945312 0 C 3.7824286 0 2.4803444 0.18657006 1.4882812 0.55859375 C 0.49621809 0.80660954 0 1.3028276 0 2.046875 C 0 2.9149303 0.49621809 3.6573043 1.4882812 4.2773438 C 2.6043523 4.8973832 4.1545456 5.5186324 6.1386719 6.1386719 C 9.3628771 7.0067271 12.028585 8.6184594 14.136719 10.974609 C 16.244853 13.330759 17.920077 16.244576 19.160156 19.716797 L 53.199219 111.04883 C 53.819258 112.66093 54.502046 114.6458 55.246094 117.00195 C 55.990141 119.2341 56.609437 121.0324 57.105469 122.39648 C 57.477492 123.26454 58.160281 123.69727 59.152344 123.69727 C 59.524367 123.69727 59.895554 123.57419 60.267578 123.32617 C 60.639602 123.07816 60.887711 122.76851 61.011719 122.39648 C 61.755766 120.90839 62.500093 119.0466 63.244141 116.81445 L 65.291016 110.67773 C 66.035063 108.69361 66.529328 107.39152 66.777344 106.77148 L 101.74805 21.949219 C 103.11213 18.601006 105.34512 15.314049 108.44531 12.089844 C 111.54551 8.8656385 115.39022 6.7576882 119.97852 5.765625 C 122.08665 5.2695934 123.63684 4.7733753 124.62891 4.2773438 C 125.62097 3.6573043 126.11523 2.9149303 126.11523 2.046875 C 126.11523 1.3028276 125.62097 0.80660954 124.62891 0.55859375 C 123.63684 0.18657006 122.33476 0 120.72266 0 C 118.36651 0 115.14109 0.12307796 111.04883 0.37109375 C 106.95657 0.49510165 103.11185 0.55859375 99.515625 0.55859375 L 92.634766 0.55859375 C 90.526631 0.43458585 88.48022 0.37109375 86.496094 0.37109375 L 81.101562 0.37109375 C 79.48946 0.37109375 78.187376 0.55766381 77.195312 0.9296875 C 76.203249 1.1777033 75.707031 1.6739214 75.707031 2.4179688 C 75.707031 3.286024 76.264788 4.0918901 77.380859 4.8359375 C 78.49693 5.455977 79.985585 5.8906561 81.845703 6.1386719 C 85.813956 6.6347035 88.85085 8.4330057 90.958984 11.533203 C 93.191126 14.509393 93.068049 19.28305 90.587891 25.855469 L 65.103516 92.820312 C 64.731492 93.688368 64.360305 94.059555 63.988281 93.935547 C 63.616258 93.811539 63.30661 93.501891 63.058594 93.005859 L 36.271484 22.322266 C 36.023469 21.45421 35.590743 20.275204 34.970703 18.787109 C 34.474672 17.175007 34.226562 15.315165 34.226562 13.207031 C 34.226562 11.098897 35.342077 9.4871648 37.574219 8.3710938 C 39.930369 7.1310148 42.844185 6.3251487 46.316406 5.953125 C 48.42454 5.7051092 49.974734 5.2704301 50.966797 4.6503906 C 51.95886 3.9063433 52.455078 3.1004771 52.455078 2.2324219 C 52.455078 1.4883745 51.95886 0.99215642 50.966797 0.74414062 C 49.974734 0.37211694 48.67265 0.18554688 47.060547 0.18554688 C 45.820468 0.18554688 44.147197 0.24708585 42.039062 0.37109375 C 40.054936 0.37109375 37.821955 0.43458585 35.341797 0.55859375 L 28.087891 0.55859375 L 19.716797 0.55859375 C 16.988623 0.43458585 14.384455 0.30955477 11.904297 0.18554688 C 9.5481469 0.06153898 7.3786576 0 5.3945312 0 z M 166.85156 46.130859 C 166.23152 46.130859 165.42566 46.25589 164.43359 46.503906 C 163.56554 46.627914 163.13281 47.06064 163.13281 47.804688 C 163.13281 48.672743 163.44246 49.293992 164.0625 49.666016 C 164.68254 50.038039 165.48841 50.409226 166.48047 50.78125 C 168.34059 51.277282 170.13889 52.456288 171.875 54.316406 C 173.73512 56.052517 175.09874 58.035436 175.9668 60.267578 C 178.94299 67.83206 181.98183 75.334917 185.08203 82.775391 C 188.30624 90.091856 191.28159 97.594714 194.00977 105.2832 C 194.75381 107.26733 195.49814 109.43682 196.24219 111.79297 C 196.98623 114.02511 197.7921 116.1946 198.66016 118.30273 C 198.90817 119.17079 199.40439 120.53637 200.14844 122.39648 C 200.89248 124.38061 201.51178 125.37109 202.00781 125.37109 L 203.125 125.37109 C 203.62103 124.75105 204.17879 123.76057 204.79883 122.39648 C 205.41887 121.15641 205.97662 119.9774 206.47266 118.86133 L 207.2168 117.00195 L 208.14648 114.58398 C 208.76652 112.84787 209.51085 110.863 210.37891 108.63086 C 211.24696 106.27471 212.05283 104.16676 212.79688 102.30664 C 213.54092 100.32251 214.03714 99.081969 214.28516 98.585938 L 228.79492 63.615234 C 230.15901 60.515037 231.95731 57.787791 234.18945 55.431641 C 236.4216 53.075491 238.46605 51.648375 240.32617 51.152344 C 243.17835 50.284288 244.60547 49.168774 244.60547 47.804688 C 244.60547 47.06064 244.23233 46.627914 243.48828 46.503906 C 242.74423 46.25589 241.87683 46.130859 240.88477 46.130859 C 239.14866 46.130859 237.66 46.317429 236.41992 46.689453 C 235.30385 46.937469 233.13436 47.060547 229.91016 47.060547 C 226.68595 47.060547 223.9587 46.937469 221.72656 46.689453 C 219.49442 46.317429 217.69612 46.130859 216.33203 46.130859 C 215.46398 46.130859 214.59462 46.25589 213.72656 46.503906 C 212.98252 46.627914 212.61133 47.06064 212.61133 47.804688 C 212.61133 48.672743 212.92098 49.293992 213.54102 49.666016 C 214.16106 50.038039 215.27657 50.532304 216.88867 51.152344 C 218.62478 51.772383 219.86533 52.641741 220.60938 53.757812 C 221.35342 54.749876 221.72656 56.484686 221.72656 58.964844 C 221.72656 59.956907 221.60153 61.197452 221.35352 62.685547 C 221.1055 64.049634 220.73431 65.351718 220.23828 66.591797 L 206.10156 102.86523 C 205.97755 102.98924 205.85252 103.05078 205.72852 103.05078 L 205.54297 102.86523 L 190.84766 63.802734 C 190.59964 63.058687 190.41307 62.252821 190.28906 61.384766 C 190.16505 60.51671 190.10352 59.647352 190.10352 58.779297 C 190.10352 57.043186 190.41316 55.492993 191.0332 54.128906 C 191.65324 52.640812 192.58414 51.648375 193.82422 51.152344 C 194.94029 50.78032 195.93273 50.347594 196.80078 49.851562 C 197.66884 49.355531 198.10156 48.672743 198.10156 47.804688 C 198.10156 47.06064 197.60534 46.627914 196.61328 46.503906 C 195.74523 46.25589 195.00285 46.130859 194.38281 46.130859 C 192.02666 46.130859 190.22836 46.192398 188.98828 46.316406 C 187.7482 46.440414 186.5692 46.626984 185.45312 46.875 C 184.33705 46.999008 182.66378 47.060547 180.43164 47.060547 C 178.32351 47.060547 176.71177 46.999008 175.5957 46.875 C 174.47963 46.626984 173.36216 46.440414 172.24609 46.316406 C 171.13002 46.192398 169.33172 46.130859 166.85156 46.130859 z "
       transform="matrix(0.26458333,0,0,0.26458333,71.093285,119.56892)"
       id="text12" />
  </g>
</svg>
