<?xml version="1.0" encoding="UTF-8" standalone="no"?>
<!-- Created with Inkscape (http://www.inkscape.org/) -->

<svg
   xmlns:dc="http://purl.org/dc/elements/1.1/"
   xmlns:cc="http://creativecommons.org/ns#"
   xmlns:rdf="http://www.w3.org/1999/02/22-rdf-syntax-ns#"
   xmlns:svg="http://www.w3.org/2000/svg"
   xmlns="http://www.w3.org/2000/svg"
   xmlns:sodipodi="http://sodipodi.sourceforge.net/DTD/sodipodi-0.dtd"
   xmlns:inkscape="http://www.inkscape.org/namespaces/inkscape"
   viewBox="0 0 61.364721 47.141827"
   version="1.1"
   id="letraY"
   inkscape:version="0.92.5 (2060ec1f9f, 2020-04-08)"
   sodipodi:docname="Y.svg">
  <defs
     id="defs2" />
  <sodipodi:namedview
     id="base"
     pagecolor="#ffffff"
     bordercolor="#666666"
     borderopacity="1.0"
     inkscape:pageopacity="0.0"
     inkscape:pageshadow="2"
     inkscape:zoom="3.5470977"
     inkscape:cx="115.96484"
     inkscape:cy="89.086916"
     inkscape:document-units="mm"
     inkscape:current-layer="layer1"
     showgrid="false"
     fit-margin-top="0"
     fit-margin-left="0"
     fit-margin-right="0"
     fit-margin-bottom="0"
     inkscape:window-width="1440"
     inkscape:window-height="828"
     inkscape:window-x="0"
     inkscape:window-y="0"
     inkscape:window-maximized="1"
     showguides="true"
     inkscape:guide-bbox="true"
     inkscape:snap-grids="true"
     inkscape:snap-bbox="true"
     inkscape:bbox-paths="true"
     inkscape:snap-bbox-edge-midpoints="true">
    <inkscape:grid
       type="xygrid"
       id="grid150"
       originx="-25.541589"
       originy="-5.7717291" />
    <sodipodi:guide
       position="-12.312424,63.019938"
       orientation="0,1"
       id="guide3857"
       inkscape:locked="false" />
  </sodipodi:namedview>
  <metadata
     id="metadata5">
    <rdf:RDF>
      <cc:Work
         rdf:about="">
        <dc:format>image/svg+xml</dc:format>
        <dc:type
           rdf:resource="http://purl.org/dc/dcmitype/StillImage" />
        <dc:title></dc:title>
      </cc:Work>
    </rdf:RDF>
  </metadata>
  <g
     inkscape:label="Capa 1"
     inkscape:groupmode="layer"
     id="layer1"
     transform="translate(-72.770141,-119.57201)">
    <path
       style="font-style:normal;font-variant:normal;font-weight:normal;font-stretch:normal;font-size:50.25802612px;line-height:1.25;font-family:'EB Garamond';-inkscape-font-specification:'EB Garamond';letter-spacing:0px;word-spacing:0px;fill-opacity:1;stroke:none;stroke-width:1.00000012"
       d="M 5.5078125 0 C 3.8615625 0 2.5326062 0.1904095 1.5195312 0.5703125 C 0.50645526 0.8235815 0 1.3300378 0 2.0898438 C 0 2.9762847 0.50645526 3.7359686 1.5195312 4.3691406 C 2.6592402 5.0023126 4.2414282 5.6344061 6.2675781 6.2675781 C 8.4203681 6.9007501 10.573773 8.422071 12.726562 10.828125 C 15.005982 13.234178 17.094621 15.829277 18.994141 18.615234 C 20.893651 21.274556 22.287388 23.3632 23.173828 24.882812 L 45.398438 61.353516 C 45.904977 62.239966 46.790291 64.202958 48.056641 67.242188 C 49.449621 70.154777 50.146484 72.877466 50.146484 75.410156 L 50.146484 103.52344 C 50.146484 108.08227 48.880346 111.69224 46.347656 114.35156 C 43.814966 116.88425 40.142188 118.59403 35.330078 119.48047 C 33.177298 119.86037 31.595101 120.30205 30.582031 120.80859 C 29.568951 121.31513 29.0625 122.012 29.0625 122.89844 C 29.0625 123.65824 29.568951 124.1647 30.582031 124.41797 C 31.595101 124.79787 32.924063 124.98828 34.570312 124.98828 C 37.989442 124.98828 40.902544 124.86069 43.308594 124.60742 C 45.841284 124.48079 48.247924 124.35516 50.527344 124.22852 C 52.933394 124.10189 55.718906 124.03906 58.884766 124.03906 C 61.797356 124.03906 64.266819 124.10187 66.292969 124.22852 C 68.319129 124.35516 70.407767 124.48079 72.560547 124.60742 C 74.839967 124.86069 77.690245 124.98828 81.109375 124.98828 C 82.755625 124.98828 84.084586 124.79787 85.097656 124.41797 C 86.110736 124.1647 86.617188 123.65824 86.617188 122.89844 C 86.617188 122.012 86.110736 121.31513 85.097656 120.80859 C 84.084586 120.30205 82.502389 119.86037 80.349609 119.48047 C 75.664129 118.59403 71.991351 116.81948 69.332031 114.16016 C 66.672711 111.3742 65.34375 107.82901 65.34375 103.52344 L 65.34375 74.650391 C 65.34375 72.117701 65.406553 70.154699 65.533203 68.761719 C 65.659833 67.242099 66.038705 65.659922 66.671875 64.013672 C 67.305045 62.367422 68.445557 60.214007 70.091797 57.554688 C 72.244587 54.008918 74.079989 51.033013 75.599609 48.626953 C 77.119219 46.094263 78.57577 43.689566 79.96875 41.410156 C 81.48836 39.130736 83.0725 36.661273 84.71875 34.001953 C 86.49163 31.342633 88.643091 28.048713 91.175781 24.123047 C 94.594911 18.931036 97.382376 15.006978 99.535156 12.347656 C 101.81458 9.5616993 104.60009 7.7243316 107.89258 6.8378906 C 110.55191 6.0780846 112.89377 5.3184007 114.91992 4.5585938 C 116.94607 3.7987878 117.95898 2.9762847 117.95898 2.0898438 C 117.95898 1.3300378 117.45252 0.8235815 116.43945 0.5703125 C 115.42637 0.1904095 114.09742 0 112.45117 0 C 110.29838 0 107.4481 0.12759038 103.90234 0.38085938 C 100.35658 0.50749437 96.620982 0.5703125 92.695312 0.5703125 L 85.667969 0.5703125 C 83.768459 0.4436785 81.361809 0.38085938 78.449219 0.38085938 C 76.802969 0.38085938 75.474017 0.56931475 74.460938 0.94921875 C 73.447868 1.2024867 72.941406 1.708943 72.941406 2.46875 C 72.941406 3.355191 73.63827 4.1796461 75.03125 4.9394531 C 76.55086 5.5726251 77.942644 6.0143091 79.208984 6.2675781 C 80.981864 6.5208471 82.691641 7.0920756 84.337891 7.9785156 C 86.110771 8.8649566 86.998047 10.509963 86.998047 12.916016 C 86.998047 14.055726 86.744821 15.449456 86.238281 17.095703 C 85.731741 18.615316 84.844475 20.450732 83.578125 22.603516 C 80.412265 28.302064 77.689576 33.178169 75.410156 37.230469 C 73.130736 41.282769 70.535637 45.524831 67.623047 49.957031 C 65.976807 52.616351 64.710659 54.51654 63.824219 55.65625 C 62.937769 56.66932 62.113326 57.175781 61.353516 57.175781 C 60.340446 57.175781 58.567846 54.769141 56.035156 49.957031 L 38.560547 17.666016 C 36.914307 14.753425 36.089844 12.474372 36.089844 10.828125 C 36.089844 9.435146 36.661071 8.4222345 37.800781 7.7890625 C 38.940491 7.1558905 40.395089 6.584662 42.167969 6.078125 C 44.320759 5.571587 45.904899 5.0651317 46.917969 4.5585938 C 47.931049 3.9254228 48.4375 3.1657369 48.4375 2.2792969 C 48.4375 1.5194899 47.931049 1.0130346 46.917969 0.75976562 C 45.904899 0.37986263 44.573984 0.18945312 42.927734 0.18945312 C 40.901584 0.18945312 38.559711 0.25422338 35.900391 0.38085938 C 33.367701 0.50749437 30.645012 0.5703125 27.732422 0.5703125 C 23.426852 0.5703125 19.375202 0.50749237 15.576172 0.38085938 C 11.777142 0.12759038 8.4204025 0 5.5078125 0 z M 152.53125 47.107422 C 151.89807 47.107422 151.07363 47.235011 150.06055 47.488281 C 149.17411 47.614911 148.73047 48.058549 148.73047 48.818359 C 148.73047 49.704799 149.17411 50.39971 150.06055 50.90625 C 151.07363 51.41279 152.08653 51.856418 153.09961 52.236328 C 154.99912 52.742858 156.64608 53.88337 158.03906 55.65625 C 159.55867 57.3025 160.762 59.265502 161.64844 61.544922 L 183.68164 117.20117 C 183.93491 117.96098 184.12531 118.84631 184.25195 119.85938 C 184.37858 120.74581 184.44141 121.69591 184.44141 122.70898 C 184.44141 124.48186 184.25296 125.93842 183.87305 127.07812 C 182.10017 131.89023 180.19998 136.44835 178.17383 140.75391 C 176.27432 145.05948 174.37412 148.92267 172.47461 152.3418 C 170.70172 155.76092 169.11954 158.60925 167.72656 160.88867 C 167.22002 161.64848 166.65076 162.15493 166.01758 162.4082 C 165.51105 162.78811 164.877 162.97852 164.11719 162.97852 C 163.10412 162.97852 161.90079 162.78811 160.50781 162.4082 C 159.24146 162.0283 157.91251 161.83789 156.51953 161.83789 C 154.49338 161.83789 152.91119 162.66235 151.77148 164.30859 C 150.75841 166.08147 150.25 168.1073 150.25 170.38672 C 150.25 173.17267 151.26487 175.13568 153.29102 176.27539 C 155.31717 177.54173 157.53144 178.17383 159.9375 178.17383 C 162.72345 178.17383 165.19291 177.47891 167.3457 176.08594 C 169.49848 174.81959 171.14545 172.91941 172.28516 170.38672 C 174.18468 165.82788 176.14768 161.07937 178.17383 156.14062 C 180.32662 151.20189 182.28961 146.57901 184.0625 142.27344 C 185.83538 137.96787 187.29193 134.35987 188.43164 131.44727 C 189.69798 128.53468 190.39485 126.88771 190.52148 126.50781 L 216.35352 64.962891 C 217.61987 61.923661 219.32963 59.200972 221.48242 56.794922 C 223.6352 54.262232 225.66104 52.742858 227.56055 52.236328 C 228.57363 51.856418 229.52372 51.41279 230.41016 50.90625 C 231.42324 50.39971 231.92969 49.704799 231.92969 48.818359 C 231.92969 48.058549 231.42324 47.614911 230.41016 47.488281 C 229.52372 47.235011 228.76403 47.107422 228.13086 47.107422 C 226.73788 47.107422 225.66215 47.172218 224.90234 47.298828 C 224.14253 47.425458 223.19244 47.613918 222.05273 47.867188 C 221.03966 47.993817 219.32989 48.058594 216.92383 48.058594 C 213.37807 48.058594 210.65537 47.931004 208.75586 47.677734 C 206.98297 47.297834 205.21038 47.107422 203.4375 47.107422 C 202.80432 47.107422 201.98182 47.297834 200.96875 47.677734 C 200.08231 47.931004 199.63867 48.437466 199.63867 49.197266 C 199.63867 50.083716 200.27076 50.970982 201.53711 51.857422 C 202.93008 52.617232 204.13341 53.249319 205.14648 53.755859 C 206.28619 54.262399 207.17346 55.022076 207.80664 56.035156 C 208.56644 56.921596 208.94531 58.568549 208.94531 60.974609 C 208.94531 61.861049 208.75685 63.064374 208.37695 64.583984 C 208.12368 65.976964 207.80568 67.115513 207.42578 68.001953 L 194.32031 102.76367 C 194.06704 103.52348 193.74904 103.9043 193.36914 103.9043 C 192.8626 103.9043 192.48374 103.52348 192.23047 102.76367 L 176.84375 64.773438 C 176.59048 64.140258 176.27443 63.317757 175.89453 62.304688 C 175.51462 61.164978 175.32422 60.214878 175.32422 59.455078 C 175.32421 57.682198 175.64027 56.353237 176.27344 55.466797 C 176.90662 54.453717 177.85671 53.756863 179.12305 53.376953 C 180.13613 53.123683 181.27663 52.617232 182.54297 51.857422 C 183.93595 50.970982 184.63281 50.083716 184.63281 49.197266 C 184.63281 48.437466 184.18917 47.931004 183.30273 47.677734 C 182.41629 47.297834 181.59379 47.107422 180.83398 47.107422 C 178.30129 47.107422 176.40112 47.172218 175.13477 47.298828 C 173.86843 47.425458 172.6651 47.613918 171.52539 47.867188 C 170.38568 47.993817 168.6759 48.058594 166.39648 48.058594 C 164.2437 48.058594 162.59869 47.993787 161.45898 47.867188 C 160.44591 47.613918 159.3054 47.425458 158.03906 47.298828 C 156.89935 47.172188 155.06393 47.107422 152.53125 47.107422 z "
       transform="matrix(0.26458333,0,0,0.26458333,72.770141,119.57201)"
       id="text12" />
  </g>
</svg>
