<?xml version="1.0" encoding="UTF-8" standalone="no"?>
<!-- Created with Inkscape (http://www.inkscape.org/) -->

<svg
   xmlns:dc="http://purl.org/dc/elements/1.1/"
   xmlns:cc="http://creativecommons.org/ns#"
   xmlns:rdf="http://www.w3.org/1999/02/22-rdf-syntax-ns#"
   xmlns:svg="http://www.w3.org/2000/svg"
   xmlns="http://www.w3.org/2000/svg"
   xmlns:sodipodi="http://sodipodi.sourceforge.net/DTD/sodipodi-0.dtd"
   xmlns:inkscape="http://www.inkscape.org/namespaces/inkscape"
   viewBox="0 0 55.801313 33.072914"
   version="1.1"
   id="letraZ"
   inkscape:version="0.92.5 (2060ec1f9f, 2020-04-08)"
   sodipodi:docname="Z.svg">
  <defs
     id="defs2" />
  <sodipodi:namedview
     id="base"
     pagecolor="#ffffff"
     bordercolor="#666666"
     borderopacity="1.0"
     inkscape:pageopacity="0.0"
     inkscape:pageshadow="2"
     inkscape:zoom="4.5328976"
     inkscape:cx="105.45131"
     inkscape:cy="62.500003"
     inkscape:document-units="mm"
     inkscape:current-layer="layer1"
     showgrid="false"
     fit-margin-top="0"
     fit-margin-left="0"
     fit-margin-right="0"
     fit-margin-bottom="0"
     inkscape:window-width="1440"
     inkscape:window-height="828"
     inkscape:window-x="0"
     inkscape:window-y="0"
     inkscape:window-maximized="1"
     showguides="true"
     inkscape:guide-bbox="true"
     inkscape:snap-grids="true"
     inkscape:snap-bbox="true"
     inkscape:bbox-paths="true"
     inkscape:snap-bbox-edge-midpoints="true">
    <inkscape:grid
       type="xygrid"
       id="grid150"
       originx="-28.323298"
       originy="-19.843747" />
  </sodipodi:namedview>
  <metadata
     id="metadata5">
    <rdf:RDF>
      <cc:Work
         rdf:about="">
        <dc:format>image/svg+xml</dc:format>
        <dc:type
           rdf:resource="http://purl.org/dc/dcmitype/StillImage" />
        <dc:title></dc:title>
      </cc:Work>
    </rdf:RDF>
  </metadata>
  <g
     inkscape:label="Capa 1"
     inkscape:groupmode="layer"
     id="layer1"
     transform="translate(-75.55185,-119.56891)">
    <path
       style="font-style:normal;font-variant:normal;font-weight:normal;font-stretch:normal;font-size:48.56521988px;line-height:1.25;font-family:'EB Garamond';-inkscape-font-specification:'EB Garamond';letter-spacing:0px;word-spacing:0px;fill-opacity:1;stroke:none;stroke-width:1.00000012"
       d="M 10.462891 0 C 9.9734144 0 9.4223922 0.18367408 8.8105469 0.55078125 C 8.1987016 0.91788842 7.8313534 1.7750341 7.7089844 3.1210938 C 7.5866153 5.690844 7.1580425 8.444002 6.4238281 11.380859 C 5.8119828 14.195348 5.1404643 16.826056 4.40625 19.273438 C 3.7944047 21.59845 3.2433825 23.433237 2.7539062 24.779297 C 2.5091681 25.513511 2.2030447 26.370657 1.8359375 27.349609 C 1.5911994 28.206193 1.46875 29.002114 1.46875 29.736328 C 1.46875 30.225804 1.5911994 30.715602 1.8359375 31.205078 C 2.2030447 31.572185 2.6316175 31.753906 3.1210938 31.753906 C 4.4671534 31.753906 5.50602 31.082388 6.2402344 29.736328 C 7.0968178 28.267899 7.7702894 26.982181 8.2597656 25.880859 C 9.9729324 21.353204 12.664866 18.049024 16.335938 15.96875 C 20.007009 13.766107 23.311189 12.543566 26.248047 12.298828 C 28.573059 12.05409 31.387442 11.931641 34.691406 11.931641 L 44.970703 11.931641 C 49.865465 11.931641 54.69831 11.992865 59.470703 12.115234 C 64.365465 12.115234 68.465567 12.176459 71.769531 12.298828 C 73.115591 12.421197 74.033961 12.604871 74.523438 12.849609 C 75.012914 13.094347 75.257812 13.398518 75.257812 13.765625 C 75.257812 14.010363 75.196588 14.255262 75.074219 14.5 C 74.95185 14.744738 74.768176 14.989637 74.523438 15.234375 C 68.649723 24.044947 63.143407 32.1227 58.003906 39.464844 C 52.986775 46.684618 48.029528 53.719598 43.134766 60.572266 C 38.240003 67.302564 33.16226 74.278272 27.900391 81.498047 C 22.638521 88.595452 16.887306 96.426353 10.646484 104.99219 C 9.3004247 106.82772 7.7698074 108.97059 6.0566406 111.41797 C 4.3434738 113.86535 2.8760343 116.12871 1.6523438 118.20898 C 0.55102223 120.16689 0 121.45065 0 122.0625 L 0.18359375 123.34766 C 0.42833187 124.20424 0.79568002 124.63281 1.2851562 124.63281 L 15.417969 124.63281 C 18.966671 124.63281 22.576975 124.57159 26.248047 124.44922 L 37.261719 124.44922 L 49.742188 124.44922 C 54.147474 124.57159 58.614923 124.63281 63.142578 124.63281 C 67.792602 124.75518 72.564222 124.81641 77.458984 124.81641 C 82.353747 124.93878 87.433443 125 92.695312 125 C 93.674265 125 94.345783 124.69388 94.712891 124.08203 C 95.202367 123.34782 95.63094 122.61312 95.998047 121.87891 C 96.487523 120.77758 97.09977 118.88157 97.833984 116.18945 C 98.690568 113.49733 99.486489 110.62173 100.2207 107.5625 C 100.95492 104.50327 101.56716 101.81134 102.05664 99.486328 C 102.54612 97.038947 102.78906 95.569554 102.78906 95.080078 C 102.78906 93.48928 102.23999 92.695312 101.13867 92.695312 C 100.28209 92.695313 99.424943 93.183157 98.568359 94.162109 C 97.834145 95.018693 97.344347 95.814614 97.099609 96.548828 C 92.449585 109.03047 84.863583 115.70006 74.339844 116.55664 C 70.056927 116.80138 65.711927 117.04628 61.306641 117.29102 C 56.901355 117.41338 52.619532 117.47461 48.458984 117.47461 C 44.420805 117.47461 40.626828 117.41338 37.078125 117.29102 C 33.529422 117.04628 30.408916 116.80138 27.716797 116.55664 C 27.104952 116.43427 26.615154 116.06692 26.248047 115.45508 C 25.88094 114.84323 25.697266 114.16976 25.697266 113.43555 C 25.697266 112.45659 25.88094 111.72385 26.248047 111.23438 C 31.999393 102.4238 37.26081 94.468499 42.033203 87.371094 C 46.927965 80.151319 51.701538 73.300013 56.351562 66.814453 C 61.001587 60.206524 65.895656 53.414489 71.035156 46.439453 C 76.174657 39.464417 81.925871 31.692787 88.289062 23.126953 L 99.486328 8.2597656 C 99.853435 7.7702894 99.730986 7.0968178 99.119141 6.2402344 C 98.629664 5.383651 98.078642 4.9550781 97.466797 4.9550781 L 87.1875 5.3222656 C 83.761166 5.3222656 80.273312 5.3834903 76.724609 5.5058594 L 66.080078 5.5058594 L 55.066406 5.5058594 L 42.583984 5.5058594 L 31.9375 5.5058594 C 28.878274 5.5058594 25.757767 5.1404643 22.576172 4.40625 C 19.516945 3.6720357 17.376034 3.0597887 16.152344 2.5703125 L 12.849609 0.91796875 C 11.748288 0.30612346 10.952367 0 10.462891 0 z M 154.91797 47.724609 C 154.55086 47.724609 154.00179 48.030733 153.26758 48.642578 C 152.53336 49.254423 152.16602 50.048391 152.16602 51.027344 C 152.16602 52.495772 151.92112 54.393738 151.43164 56.71875 C 151.06453 59.043762 150.57474 61.307123 149.96289 63.509766 C 149.47341 65.59004 149.04484 67.179928 148.67773 68.28125 C 148.31063 69.260202 148.67798 69.994899 149.7793 70.484375 C 151.00299 70.973851 151.98258 70.851402 152.7168 70.117188 L 154.55078 67.546875 C 155.285 66.567923 155.95847 65.590281 156.57031 64.611328 C 157.30453 63.632376 157.978 62.714005 158.58984 61.857422 C 159.32406 61.000838 160.05875 60.204917 160.79297 59.470703 C 161.52718 58.736489 162.62727 57.942521 164.0957 57.085938 C 165.56413 56.229354 167.15597 55.862006 168.86914 55.984375 L 187.04102 56.535156 C 188.38708 56.535156 189.06055 56.780055 189.06055 57.269531 C 189.06055 57.636638 188.9381 58.002033 188.69336 58.369141 C 185.38939 63.63101 182.26889 68.588257 179.33203 73.238281 C 176.39517 77.765936 173.51957 82.108983 170.70508 86.269531 C 168.01296 90.30771 165.2598 94.407811 162.44531 98.568359 C 159.63082 102.60654 156.69399 106.82909 153.63477 111.23438 C 152.77818 112.3357 151.79859 113.68069 150.69727 115.27148 C 149.71831 116.86228 148.79994 118.27045 147.94336 119.49414 C 147.20915 120.71783 146.8418 121.5118 146.8418 121.87891 C 146.8418 122.36838 147.14792 123.04185 147.75977 123.89844 C 148.37161 124.63265 148.92263 125 149.41211 125 C 151.00291 125 153.20504 124.81633 156.01953 124.44922 C 158.83402 124.20448 161.52595 124.08203 164.0957 124.08203 C 174.12997 124.08203 182.33017 124.20448 188.69336 124.44922 C 195.17892 124.81633 199.76687 125 202.45898 125 C 204.04978 125 205.02938 124.14285 205.39648 122.42969 C 205.64122 121.69547 206.00857 120.28926 206.49805 118.20898 C 207.10989 116.12871 207.72019 113.92657 208.33203 111.60156 C 209.06625 109.15418 209.67849 107.01132 210.16797 105.17578 C 210.65744 103.21788 210.90234 102.05656 210.90234 101.68945 C 210.90234 100.7105 210.35132 100.03703 209.25 99.669922 C 208.27105 99.302815 207.47708 99.547713 206.86523 100.4043 C 205.0297 103.09642 203.25418 105.6659 201.54102 108.11328 C 199.82785 110.43829 198.23796 112.33431 196.76953 113.80273 C 195.42347 115.14879 194.0153 116.18961 192.54688 116.92383 C 191.20082 117.65804 189.85583 118.02539 188.50977 118.02539 L 166.84961 118.02539 C 165.99303 118.02539 165.38078 117.78049 165.01367 117.29102 C 164.64656 116.80154 164.70779 116.12807 165.19727 115.27148 L 200.99023 61.123047 C 202.21392 59.287511 203.37719 57.697622 204.47852 56.351562 C 205.57984 55.005503 206.74115 53.53611 207.96484 51.945312 C 208.20958 51.700574 208.27081 51.394451 208.14844 51.027344 C 208.02607 50.660237 207.84435 50.354113 207.59961 50.109375 C 207.35487 49.864637 207.04875 49.742188 206.68164 49.742188 C 201.05266 49.864557 195.54439 49.987006 190.16016 50.109375 C 184.77592 50.231744 178.90225 50.292969 172.53906 50.292969 C 171.68248 50.292969 170.64361 50.354193 169.41992 50.476562 L 165.56445 50.476562 C 163.97366 50.476563 162.38377 50.415338 160.79297 50.292969 C 159.32454 50.1706 158.28372 49.864476 157.67188 49.375 C 156.32582 48.273678 155.40744 47.724609 154.91797 47.724609 z "
       transform="matrix(0.26458333,0,0,0.26458333,75.55185,119.56891)"
       id="text12" />
  </g>
</svg>
