<?xml version="1.0" encoding="UTF-8" standalone="no"?>
<!-- Created with Inkscape (http://www.inkscape.org/) -->

<svg
   xmlns:dc="http://purl.org/dc/elements/1.1/"
   xmlns:cc="http://creativecommons.org/ns#"
   xmlns:rdf="http://www.w3.org/1999/02/22-rdf-syntax-ns#"
   xmlns:svg="http://www.w3.org/2000/svg"
   xmlns="http://www.w3.org/2000/svg"
   xmlns:sodipodi="http://sodipodi.sourceforge.net/DTD/sodipodi-0.dtd"
   xmlns:inkscape="http://www.inkscape.org/namespaces/inkscape"
   viewBox="0 0 74.707466 42.309121"
   version="1.1"
   id="letraNN"
   inkscape:version="0.92.5 (2060ec1f9f, 2020-04-08)"
   sodipodi:docname="Ñ.svg">
  <defs
     id="defs2" />
  <sodipodi:namedview
     id="base"
     pagecolor="#ffffff"
     bordercolor="#666666"
     borderopacity="1.0"
     inkscape:pageopacity="0.0"
     inkscape:pageshadow="2"
     inkscape:zoom="3.3857611"
     inkscape:cx="141.17948"
     inkscape:cy="79.954254"
     inkscape:document-units="mm"
     inkscape:current-layer="layer1"
     showgrid="false"
     fit-margin-top="0"
     fit-margin-left="0"
     fit-margin-right="0"
     fit-margin-bottom="0"
     inkscape:window-width="1440"
     inkscape:window-height="828"
     inkscape:window-x="0"
     inkscape:window-y="0"
     inkscape:window-maximized="1"
     showguides="true"
     inkscape:guide-bbox="true"
     inkscape:snap-grids="true"
     inkscape:snap-bbox="true"
     inkscape:bbox-paths="true"
     inkscape:snap-bbox-edge-midpoints="true">
    <inkscape:grid
       type="xygrid"
       id="grid150"
       originx="-18.870217"
       originy="-19.240048" />
  </sodipodi:namedview>
  <metadata
     id="metadata5">
    <rdf:RDF>
      <cc:Work
         rdf:about="">
        <dc:format>image/svg+xml</dc:format>
        <dc:type
           rdf:resource="http://purl.org/dc/dcmitype/StillImage" />
        <dc:title></dc:title>
      </cc:Work>
    </rdf:RDF>
  </metadata>
  <g
     inkscape:label="Capa 1"
     inkscape:groupmode="layer"
     id="layer1"
     transform="translate(-66.098769,-110.93641)">
    <path
       style="font-style:normal;font-variant:normal;font-weight:normal;font-stretch:normal;font-size:50.30810928px;line-height:1.25;font-family:'EB Garamond';-inkscape-font-specification:'EB Garamond';letter-spacing:0px;word-spacing:0px;fill-opacity:1;stroke:none;stroke-width:0.99999994"
       d="M 102.48633 0 C 102.10605 0 101.59865 0.44275399 100.96484 1.3300781 C 100.33104 2.0906417 99.570918 2.9154102 98.683594 3.8027344 C 97.79627 4.6900585 96.654132 5.5148271 95.259766 6.2753906 C 93.99216 7.0359542 92.661945 7.4160156 91.267578 7.4160156 C 89.61969 7.4160156 87.71743 7.35137 85.5625 7.2246094 C 83.40757 6.9710882 81.252586 6.7810575 79.097656 6.6542969 C 77.323008 6.4007757 75.23267 6.2753906 72.824219 6.2753906 C 70.542528 6.14863 68.324852 6.0839844 66.169922 6.0839844 C 65.029077 6.0839844 63.56957 6.8441073 61.794922 8.3652344 C 60.020274 9.7596009 58.247305 11.471831 56.472656 13.5 C 54.824769 15.401409 53.429908 17.176331 52.289062 18.824219 C 51.148217 20.472106 50.578125 21.549598 50.578125 22.056641 C 50.578125 22.690444 50.893541 23.387874 51.527344 24.148438 C 52.287907 24.78224 52.985338 25.097656 53.619141 25.097656 C 53.872662 25.097656 54.317369 24.59221 54.951172 23.578125 C 55.711735 22.56404 56.661889 21.611934 57.802734 20.724609 C 58.563298 20.090806 59.578097 19.58536 60.845703 19.205078 C 62.113309 18.698036 63.190801 18.443359 64.078125 18.443359 C 65.599252 18.443359 67.564205 18.508005 69.972656 18.634766 C 72.381107 18.761526 74.916153 18.951557 77.578125 19.205078 C 80.240097 19.458599 82.585112 19.64863 84.613281 19.775391 C 86.768211 19.902151 88.225765 19.964844 88.986328 19.964844 C 89.36661 19.964844 90.189425 19.774813 91.457031 19.394531 C 92.724637 18.887489 93.739436 18.190059 94.5 17.302734 C 95.767606 15.781607 97.162467 14.006685 98.683594 11.978516 C 100.33148 9.9503462 101.91637 8.175424 103.4375 6.6542969 C 104.0713 6.0204939 104.6414 5.3877092 105.14844 4.7539062 C 105.78224 4.1201033 106.09766 3.6127036 106.09766 3.2324219 C 106.09766 2.2183372 105.71759 1.4582142 104.95703 0.95117188 C 104.32323 0.31736892 103.50041 0 102.48633 0 z M 4.3730469 31.5625 C 3.7392439 31.5625 2.8517828 31.754484 1.7109375 32.134766 C 0.57009219 32.388287 0 33.083764 0 34.224609 C 0 35.365455 0.82476858 36.380254 2.4726562 37.267578 C 4.2473045 38.028142 5.3874889 38.535541 5.8945312 38.789062 C 11.471997 40.563711 15.971995 42.908725 19.394531 45.824219 C 22.943828 48.739712 24.71875 53.557079 24.71875 60.275391 C 24.71875 70.669759 24.528719 80.80994 24.148438 90.697266 C 23.768156 100.45783 23.323449 109.33049 22.816406 117.31641 C 22.309364 125.17556 21.801964 131.51318 21.294922 136.33008 C 20.91464 140.25966 19.901794 143.61947 18.253906 146.4082 C 16.606019 149.07018 13.943635 150.90779 10.267578 151.92188 C 8.1126481 152.42892 6.5277566 152.93632 5.5136719 153.44336 C 4.4995872 153.9504 3.9921875 154.64783 3.9921875 155.53516 C 3.9921875 156.29572 4.4995872 156.80312 5.5136719 157.05664 C 6.5277566 157.43692 7.8599248 157.62695 9.5078125 157.62695 C 12.930348 157.62695 15.465394 157.49961 17.113281 157.24609 C 18.761169 157.11933 20.218722 156.99395 21.486328 156.86719 C 22.753934 156.74043 24.528856 156.67578 26.810547 156.67578 C 29.218998 156.67578 31.056613 156.74043 32.324219 156.86719 C 33.718585 156.99395 35.238831 157.11933 36.886719 157.24609 C 38.661367 157.49961 41.261058 157.62695 44.683594 157.62695 C 46.331481 157.62695 47.661697 157.43692 48.675781 157.05664 C 49.689866 156.80312 50.197266 156.29572 50.197266 155.53516 C 50.197266 154.64783 49.689866 153.9504 48.675781 153.44336 C 47.661697 152.93632 46.076805 152.49356 43.921875 152.11328 C 39.231733 151.22596 35.999258 149.3237 34.224609 146.4082 C 32.576722 143.49271 31.753906 140.32488 31.753906 136.90234 C 31.753906 129.04319 31.816599 120.80331 31.943359 112.18359 C 32.07012 103.56387 32.197458 95.196662 32.324219 87.083984 C 32.450979 78.971307 32.578318 71.808925 32.705078 65.597656 C 32.705078 64.837093 32.830463 64.014277 33.083984 63.126953 C 33.337506 62.112868 33.782213 61.605469 34.416016 61.605469 C 34.923058 61.605469 35.49315 61.858192 36.126953 62.365234 C 36.760756 62.745516 37.520879 63.507592 38.408203 64.648438 C 39.042006 65.409001 40.68959 67.436647 43.351562 70.732422 C 46.140295 73.901437 49.562802 77.894035 53.619141 82.710938 C 57.67548 87.401079 62.050093 92.535815 66.740234 98.113281 L 80.810547 114.8457 C 85.500689 120.42317 89.810656 125.6206 93.740234 130.4375 C 97.796573 135.12764 101.09174 139.05559 103.62695 142.22461 C 106.28893 145.39362 107.87382 147.29588 108.38086 147.92969 C 111.42311 152.11279 114.59094 155.15523 117.88672 157.05664 C 121.30925 158.95805 123.59158 159.9082 124.73242 159.9082 C 125.74651 159.9082 126.63397 159.59083 127.39453 158.95703 C 128.28186 158.44999 128.72461 157.18247 128.72461 155.1543 C 128.72461 154.26697 128.66192 152.99945 128.53516 151.35156 C 128.4084 149.57691 128.21836 147.48658 127.96484 145.07812 C 127.83808 142.54291 127.77539 139.75319 127.77539 136.71094 L 127.77539 116.55664 L 127.77539 93.740234 C 127.90215 86.134599 127.96484 79.03491 127.96484 72.443359 L 127.96484 56.091797 C 128.0916 51.781937 128.1543 49.309584 128.1543 48.675781 C 128.40782 45.506766 129.29528 43.224445 130.81641 41.830078 C 132.33753 40.435712 135.44462 39.295527 140.13477 38.408203 C 144.31787 37.64764 146.4082 36.380117 146.4082 34.605469 C 146.4082 33.844905 145.9008 33.337506 144.88672 33.083984 C 143.87263 32.703703 142.54242 32.513672 140.89453 32.513672 C 137.09171 32.513672 134.11196 32.578318 131.95703 32.705078 C 129.92886 32.831839 128.02855 32.957224 126.25391 33.083984 L 119.02734 33.083984 L 115.41602 33.083984 L 111.80273 33.083984 L 108.18945 33.083984 C 106.54157 33.083984 104.83129 33.274015 103.05664 33.654297 C 101.28199 33.907818 100.39453 34.415218 100.39453 35.175781 C 100.39453 36.063105 101.28199 36.823228 103.05664 37.457031 C 104.83129 38.090834 106.79624 38.598234 108.95117 38.978516 C 111.1061 39.358797 113.45112 40.563627 115.98633 42.591797 C 118.52154 44.619966 119.85176 46.902288 119.97852 49.4375 L 119.97852 75.105469 C 119.97852 83.471668 119.91582 91.266834 119.78906 98.492188 C 119.78906 105.59078 119.72442 111.67567 119.59766 116.74609 L 119.59766 126.82422 C 119.4709 129.48619 118.83811 130.81641 117.69727 130.81641 C 116.9367 130.81641 116.04924 130.30901 115.03516 129.29492 C 114.14783 128.28084 113.4504 127.52071 112.94336 127.01367 C 112.43632 126.37987 110.72604 124.35222 107.81055 120.92969 C 105.02181 117.50715 101.47197 113.19718 97.162109 108 C 92.852249 102.67606 88.16222 96.971227 83.091797 90.886719 C 78.021373 84.67545 72.951283 78.527868 67.880859 72.443359 C 62.810436 66.23209 58.120407 60.527262 53.810547 55.330078 C 49.627447 50.006133 46.077603 45.633473 43.162109 42.210938 C 40.373376 38.661641 38.725792 36.506657 38.21875 35.746094 C 37.584947 34.85877 36.950209 34.098647 36.316406 33.464844 C 35.682603 32.831041 34.795142 32.513672 33.654297 32.513672 L 25.289062 32.513672 C 23.134132 32.386911 21.16918 32.261526 19.394531 32.134766 C 17.619883 32.008005 15.592238 31.943359 13.310547 31.943359 C 11.028856 31.816599 8.049104 31.689261 4.3730469 31.5625 z M 261.25391 41.640625 C 260.87362 41.640625 260.23889 42.210717 259.35156 43.351562 C 258.46424 44.365647 257.32405 45.570477 255.92969 46.964844 C 255.04236 47.852168 253.90218 48.676936 252.50781 49.4375 C 251.24021 50.198064 249.90804 50.578125 248.51367 50.578125 C 246.86578 50.578125 245.2182 50.513479 243.57031 50.386719 C 241.92242 50.133198 240.02016 49.943167 237.86523 49.816406 C 236.09059 49.562885 234.57034 49.372854 233.30273 49.246094 C 232.03513 48.992573 230.3229 48.865234 228.16797 48.865234 C 227.02712 48.865234 225.44419 49.690003 223.41602 51.337891 C 221.38785 52.985778 219.35825 54.950731 217.33008 57.232422 C 215.42867 59.387352 213.78109 61.414997 212.38672 63.316406 C 210.99235 65.091055 210.29492 66.233192 210.29492 66.740234 C 210.29492 67.627559 210.5496 68.323036 211.05664 68.830078 C 211.69044 69.33712 212.45057 69.591797 213.33789 69.591797 C 213.71817 69.591797 214.28826 69.14709 215.04883 68.259766 C 215.93615 67.372441 216.82361 66.549626 217.71094 65.789062 C 218.72502 64.774978 219.86521 63.824824 221.13281 62.9375 C 222.52718 62.050176 223.85935 61.605469 225.12695 61.605469 C 226.9016 61.605469 228.80191 61.668161 230.83008 61.794922 C 232.98501 61.921682 235.0773 62.111713 237.10547 62.365234 C 239.13364 62.618756 240.97125 62.810739 242.61914 62.9375 C 244.26703 63.064261 245.47186 63.126953 246.23242 63.126953 C 246.6127 63.126953 247.43552 62.936922 248.70312 62.556641 C 249.97073 62.049598 250.98553 61.352168 251.74609 60.464844 C 253.0137 58.943717 254.40856 57.168794 255.92969 55.140625 C 257.57758 52.985695 259.16247 51.210773 260.68359 49.816406 C 262.07796 48.42204 263.09081 47.344548 263.72461 46.583984 C 264.48517 45.823421 264.86523 45.253329 264.86523 44.873047 C 264.86523 43.858962 264.48517 43.098839 263.72461 42.591797 C 263.09081 41.957994 262.26799 41.640625 261.25391 41.640625 z M 217.33008 74.916016 C 216.9498 74.916016 216.56973 75.041401 216.18945 75.294922 C 215.93593 75.421682 215.61856 75.611713 215.23828 75.865234 C 212.57631 77.893404 209.85123 79.732972 207.0625 81.380859 C 204.27377 83.028747 200.66123 84.421655 196.22461 85.5625 C 195.08376 85.689261 194.51367 86.451337 194.51367 87.845703 C 194.51367 88.606267 194.7037 89.176359 195.08398 89.556641 C 195.46427 89.810162 195.90897 90.062885 196.41602 90.316406 C 199.71179 91.20373 201.67674 92.851314 202.31055 95.259766 C 203.07111 97.668217 203.45117 100.58528 203.45117 104.00781 L 203.45117 144.88672 C 203.45117 147.42193 202.56371 149.13416 200.78906 150.02148 C 199.01441 150.90881 197.1768 151.60624 195.27539 152.11328 C 193.88102 152.49356 192.80353 152.87362 192.04297 153.25391 C 191.28241 153.50743 190.90039 154.14021 190.90039 155.1543 C 190.90039 155.91486 191.21776 156.42226 191.85156 156.67578 C 192.61213 157.05606 193.56228 157.24609 194.70312 157.24609 C 197.23834 157.24609 199.20329 157.12071 200.59766 156.86719 C 202.11878 156.74043 203.51364 156.61309 204.78125 156.48633 C 206.17562 156.35957 207.95054 156.29492 210.10547 156.29492 C 212.38716 156.29492 214.16208 156.35957 215.42969 156.48633 C 216.69729 156.61309 218.02751 156.74043 219.42188 156.86719 C 220.943 157.12071 222.9726 157.24609 225.50781 157.24609 C 226.77542 157.24609 227.72557 157.05606 228.35938 156.67578 C 228.99318 156.42226 229.31055 155.91486 229.31055 155.1543 C 229.31055 153.88669 227.85104 152.87384 224.93555 152.11328 C 223.03414 151.60624 221.19652 150.90881 219.42188 150.02148 C 217.64723 149.13416 216.75977 147.42193 216.75977 144.88672 L 216.75977 99.0625 C 216.75977 98.301936 216.8871 97.541814 217.14062 96.78125 C 217.39415 95.893926 217.77421 95.196495 218.28125 94.689453 C 220.94322 92.534523 223.98567 90.759601 227.4082 89.365234 C 230.83074 87.844107 234.82334 87.083984 239.38672 87.083984 C 244.5839 87.210745 248.70384 88.858329 251.74609 92.027344 C 254.91511 95.069598 256.5 99.379565 256.5 104.95703 L 256.5 144.88672 C 256.5 147.42193 255.61254 149.13416 253.83789 150.02148 C 252.06324 150.78205 250.22563 151.47948 248.32422 152.11328 C 247.31013 152.49356 246.29533 152.93632 245.28125 153.44336 C 244.39393 153.82364 243.95117 154.52107 243.95117 155.53516 C 243.95117 156.29572 244.39393 156.74043 245.28125 156.86719 C 246.29533 157.12071 247.1201 157.24609 247.75391 157.24609 C 250.28912 157.24609 252.25407 157.12071 253.64844 156.86719 C 255.16956 156.74043 256.62712 156.61309 258.02148 156.48633 C 259.41585 156.35957 261.19077 156.29492 263.3457 156.29492 C 265.62739 156.29492 267.40036 156.35957 268.66797 156.48633 C 269.93557 156.61309 271.26774 156.74043 272.66211 156.86719 C 274.05648 157.12071 276.02143 157.24609 278.55664 157.24609 C 279.3172 157.24609 280.14002 157.12071 281.02734 156.86719 C 281.91467 156.74043 282.35938 156.29572 282.35938 155.53516 C 282.35938 154.52107 281.85198 153.82364 280.83789 153.44336 C 279.95057 152.93632 279.00041 152.49356 277.98633 152.11328 C 276.08492 151.47948 274.24535 150.78205 272.4707 150.02148 C 270.69605 149.13416 269.81055 147.42193 269.81055 144.88672 L 269.81055 104.38672 C 269.81055 96.907844 267.78095 90.632924 263.72461 85.5625 C 259.66827 80.492076 254.53549 77.957031 248.32422 77.957031 C 242.36647 77.957031 236.85167 79.034523 231.78125 81.189453 C 226.83759 83.344383 222.14756 86.514166 217.71094 90.697266 C 217.58418 90.570505 217.45684 90.317782 217.33008 89.9375 L 217.33008 88.416016 C 217.33008 86.641367 217.45742 84.421738 217.71094 81.759766 C 218.09122 78.971033 218.28125 77.133418 218.28125 76.246094 C 218.28125 75.865812 218.15391 75.548443 217.90039 75.294922 C 217.77363 75.041401 217.5836 74.916016 217.33008 74.916016 z "
       transform="matrix(0.26458333,0,0,0.26458333,66.098769,110.93641)"
       id="text12" />
  </g>
</svg>
