<?xml version="1.0" encoding="UTF-8" standalone="no"?>
<!-- Created with Inkscape (http://www.inkscape.org/) -->

<svg
   xmlns:dc="http://purl.org/dc/elements/1.1/"
   xmlns:cc="http://creativecommons.org/ns#"
   xmlns:rdf="http://www.w3.org/1999/02/22-rdf-syntax-ns#"
   xmlns:svg="http://www.w3.org/2000/svg"
   xmlns="http://www.w3.org/2000/svg"
   xmlns:sodipodi="http://sodipodi.sourceforge.net/DTD/sodipodi-0.dtd"
   xmlns:inkscape="http://www.inkscape.org/namespaces/inkscape"
   viewBox="0 0 21.124807 33.181954"
   version="1.1"
   id="numero0"
   inkscape:version="0.92.5 (2060ec1f9f, 2020-04-08)"
   sodipodi:docname="0.svg">
  <defs
     id="defs2" />
  <sodipodi:namedview
     id="base"
     pagecolor="#ffffff"
     bordercolor="#666666"
     borderopacity="1.0"
     inkscape:pageopacity="0.0"
     inkscape:pageshadow="2"
     inkscape:zoom="1.1541526"
     inkscape:cx="61.26137"
     inkscape:cy="24.306165"
     inkscape:document-units="mm"
     inkscape:current-layer="layer1"
     showgrid="false"
     fit-margin-top="0"
     fit-margin-left="0"
     fit-margin-right="0"
     fit-margin-bottom="0"
     inkscape:window-width="1440"
     inkscape:window-height="828"
     inkscape:window-x="0"
     inkscape:window-y="0"
     inkscape:window-maximized="1"
     showguides="false"
     inkscape:guide-bbox="true"
     inkscape:snap-grids="true"
     inkscape:snap-bbox="true"
     inkscape:bbox-paths="true"
     inkscape:snap-bbox-edge-midpoints="true">
    <inkscape:grid
       type="xygrid"
       id="grid150"
       originx="-33.6305"
       originy="-19.374007" />
    <sodipodi:guide
       position="-30.984668,30.896825"
       orientation="1,0"
       id="guide3855"
       inkscape:locked="false" />
    <sodipodi:guide
       position="-20.401335,49.417658"
       orientation="0,1"
       id="guide3857"
       inkscape:locked="false" />
    <sodipodi:guide
       position="-20.401335,-15.405257"
       orientation="0,1"
       id="guide3863"
       inkscape:locked="false" />
    <sodipodi:guide
       position="76.171567,30.896829"
       orientation="1,0"
       id="guide3865"
       inkscape:locked="false" />
    <sodipodi:guide
       position="-9.8180041,36.188496"
       orientation="0,1"
       id="guide3869"
       inkscape:locked="false" />
    <sodipodi:guide
       position="-1.8805051,-2.1760896"
       orientation="0,1"
       id="guide3871"
       inkscape:locked="false" />
    <sodipodi:guide
       position="-19.07842,0.4697444"
       orientation="0,1"
       id="guide3934"
       inkscape:locked="false" />
    <sodipodi:guide
       position="-17.755503,33.542662"
       orientation="0,1"
       id="guide3936"
       inkscape:locked="false" />
  </sodipodi:namedview>
  <metadata
     id="metadata5">
    <rdf:RDF>
      <cc:Work
         rdf:about="">
        <dc:format>image/svg+xml</dc:format>
        <dc:type
           rdf:resource="http://purl.org/dc/dcmitype/StillImage" />
        <dc:title></dc:title>
      </cc:Work>
    </rdf:RDF>
  </metadata>
  <g
     inkscape:label="Capa 1"
     inkscape:groupmode="layer"
     id="layer1"
     transform="translate(-80.859052,-119.92961)">
    <path
       style="font-style:normal;font-variant:normal;font-weight:normal;font-stretch:normal;font-size:51.52467346px;line-height:1.25;font-family:'EB Garamond';-inkscape-font-specification:'EB Garamond';letter-spacing:0px;word-spacing:0px;fill:#000000;fill-opacity:1;stroke:none;stroke-width:1.00000012"
       d="m 168.00195,71.363281 c -7.14042,0 -13.30696,1.947019 -18.5,5.841797 -5.19303,3.764953 -9.47804,8.764448 -12.85351,14.996094 -3.24565,6.231645 -5.64717,13.110718 -7.20508,20.640628 -1.55791,7.5299 -2.33594,14.9964 -2.33594,22.39648 0,7.14043 0.77803,14.34498 2.33594,21.61524 1.55791,7.27025 3.95943,13.95677 7.20508,20.05859 3.24565,5.97199 7.27066,10.77503 12.07422,14.41016 4.93338,3.63512 10.7109,5.45312 17.33203,5.45312 7.27025,0 13.43679,-1.94702 18.5,-5.8418 5.19304,-3.89477 9.41255,-9.02329 12.6582,-15.38476 3.37548,-6.36147 5.84248,-13.30799 7.40039,-20.83789 1.55791,-7.52991 2.33594,-14.92897 2.33594,-22.19922 0,-7.0106 -0.77803,-14.08614 -2.33594,-21.22656 -1.55791,-7.27026 -3.95943,-13.891291 -7.20508,-19.863285 -3.24565,-6.10182 -7.33614,-10.970342 -12.26953,-14.605469 -4.80356,-3.635126 -10.51559,-5.453125 -17.13672,-5.453125 z m -3.69922,5.453125 c 4.41409,0 8.24264,1.687026 11.48829,5.0625 3.37547,3.375475 6.16795,7.920471 8.375,13.632813 2.33686,5.712341 4.02389,12.073381 5.0625,19.083981 1.16843,7.0106 1.75195,14.14967 1.75195,21.41992 0,9.73695 -0.71254,18.82499 -2.14063,27.26368 -1.42808,8.43868 -3.76607,15.31971 -7.01172,20.64258 -3.11582,5.19303 -7.26985,7.78906 -12.46289,7.78906 -4.41408,0 -8.24458,-1.68703 -11.49023,-5.0625 -3.24565,-3.5053 -5.97069,-8.11383 -8.17773,-13.82617 -2.07722,-5.84217 -3.70071,-12.33419 -4.86915,-19.47461 -1.0386,-7.14043 -1.55859,-14.34498 -1.55859,-21.61524 0,-9.73694 0.64901,-18.7595 1.94727,-27.06836 1.42808,-8.438684 3.63705,-15.190692 6.62304,-20.253904 3.11583,-5.063212 7.26986,-7.59375 12.46289,-7.59375 z"
       transform="matrix(0.26458333,0,0,0.26458333,47.228548,101.04808)"
       id="text12"
       inkscape:connector-curvature="0" />
  </g>
</svg>
