<?xml version="1.0" encoding="UTF-8" standalone="no"?>
<svg
   xmlns:dc="http://purl.org/dc/elements/1.1/"
   xmlns:cc="http://creativecommons.org/ns#"
   xmlns:rdf="http://www.w3.org/1999/02/22-rdf-syntax-ns#"
   xmlns:svg="http://www.w3.org/2000/svg"
   xmlns="http://www.w3.org/2000/svg"
   id="numero0"
   version="1.1"
   viewBox="0 0 21.124807 33.181954">
  <defs
     id="defs2" />
  <metadata
     id="metadata5">
    <rdf:RDF>
      <cc:Work
         rdf:about="">
        <dc:format>image/svg+xml</dc:format>
        <dc:type
           rdf:resource="http://purl.org/dc/dcmitype/StillImage" />
        <dc:title></dc:title>
      </cc:Work>
    </rdf:RDF>
  </metadata>
  <g
     transform="translate(-80.859052,-119.92961)"
     id="layer1">
    <path
       id="text12"
       transform="matrix(0.26458333,0,0,0.26458333,47.228548,101.04808)"
       d="m 168.00195,71.363281 c -7.14042,0 -13.30696,1.947019 -18.5,5.841797 -5.19303,3.764953 -9.47804,8.764448 -12.85351,14.996094 -3.24565,6.231645 -5.64717,13.110718 -7.20508,20.640628 -1.55791,7.5299 -2.33594,14.9964 -2.33594,22.39648 0,7.14043 0.77803,14.34498 2.33594,21.61524 1.55791,7.27025 3.95943,13.95677 7.20508,20.05859 3.24565,5.97199 7.27066,10.77503 12.07422,14.41016 4.93338,3.63512 10.7109,5.45312 17.33203,5.45312 7.27025,0 13.43679,-1.94702 18.5,-5.8418 5.19304,-3.89477 9.41255,-9.02329 12.6582,-15.38476 3.37548,-6.36147 5.84248,-13.30799 7.40039,-20.83789 1.55791,-7.52991 2.33594,-14.92897 2.33594,-22.19922 0,-7.0106 -0.77803,-14.08614 -2.33594,-21.22656 -1.55791,-7.27026 -3.95943,-13.891291 -7.20508,-19.863285 -3.24565,-6.10182 -7.33614,-10.970342 -12.26953,-14.605469 -4.80356,-3.635126 -10.51559,-5.453125 -17.13672,-5.453125 z m -3.69922,5.453125 c 4.41409,0 8.24264,1.687026 11.48829,5.0625 3.37547,3.375475 6.16795,7.920471 8.375,13.632813 2.33686,5.712341 4.02389,12.073381 5.0625,19.083981 1.16843,7.0106 1.75195,14.14967 1.75195,21.41992 0,9.73695 -0.71254,18.82499 -2.14063,27.26368 -1.42808,8.43868 -3.76607,15.31971 -7.01172,20.64258 -3.11582,5.19303 -7.26985,7.78906 -12.46289,7.78906 -4.41408,0 -8.24458,-1.68703 -11.49023,-5.0625 -3.24565,-3.5053 -5.97069,-8.11383 -8.17773,-13.82617 -2.07722,-5.84217 -3.70071,-12.33419 -4.86915,-19.47461 -1.0386,-7.14043 -1.55859,-14.34498 -1.55859,-21.61524 0,-9.73694 0.64901,-18.7595 1.94727,-27.06836 1.42808,-8.438684 3.63705,-15.190692 6.62304,-20.253904 3.11583,-5.063212 7.26986,-7.59375 12.46289,-7.59375 z"
       style="font-style:normal;font-variant:normal;font-weight:normal;font-stretch:normal;font-size:51.52467346px;line-height:1.25;font-family:'EB Garamond';-inkscape-font-specification:'EB Garamond';letter-spacing:0px;word-spacing:0px;fill-opacity:1;stroke:none;stroke-width:1.00000012;" />
  </g>
</svg>
