<?xml version="1.0" encoding="UTF-8" standalone="no"?>
<svg
   xmlns:dc="http://purl.org/dc/elements/1.1/"
   xmlns:cc="http://creativecommons.org/ns#"
   xmlns:rdf="http://www.w3.org/1999/02/22-rdf-syntax-ns#"
   xmlns:svg="http://www.w3.org/2000/svg"
   xmlns="http://www.w3.org/2000/svg"
   id="numero10"
   version="1.1"
   viewBox="0 0 43.435271 33.542561">
  <defs
     id="defs2" />
  <metadata
     id="metadata5">
    <rdf:RDF>
      <cc:Work
         rdf:about="">
        <dc:format>image/svg+xml</dc:format>
        <dc:type
           rdf:resource="http://purl.org/dc/dcmitype/StillImage" />
        <dc:title></dc:title>
      </cc:Work>
    </rdf:RDF>
  </metadata>
  <g
     transform="translate(-81.734868,-119.56892)"
     id="layer1">
    <path
       id="text12"
       transform="matrix(0.26458333,0,0,0.26458333,81.734868,119.56892)"
       d="M 37.390625 0 C 37.260799 0 37.129826 0.065486551 37 0.1953125 C 32.585918 4.6093948 28.042875 7.5289458 23.369141 8.9570312 C 18.825232 10.255291 13.63123 11.358796 7.7890625 12.267578 C 6.490803 12.397404 5.3237638 12.78837 4.2851562 13.4375 C 3.3763746 14.08663 2.921875 14.864656 2.921875 15.773438 C 2.921875 16.812045 3.439908 17.592024 4.4785156 18.111328 C 5.5171232 18.630632 6.6861155 18.954158 7.984375 19.083984 C 10.840546 19.21381 13.502057 19.53929 15.96875 20.058594 C 18.435443 20.577898 20.447948 21.486897 22.005859 22.785156 C 23.563771 24.083416 24.341797 25.964948 24.341797 28.431641 L 24.341797 102.82227 C 24.341797 106.58722 23.563771 109.50872 22.005859 111.58594 C 20.577774 113.53333 18.239789 115.09133 14.994141 116.25977 C 11.878318 117.29837 7.8552611 118.46541 2.921875 119.76367 C 0.97448577 120.28298 0 121.12844 0 122.29688 C 0 122.81618 0.25999308 123.33421 0.77929688 123.85352 C 1.2986007 124.37282 2.0130934 124.63281 2.921875 124.63281 C 6.4271756 124.63281 9.7376929 124.50379 12.853516 124.24414 L 22.201172 123.85352 C 25.316995 123.72369 28.627512 123.66016 32.132812 123.66016 C 35.638113 123.66016 38.817657 123.72369 41.673828 123.85352 L 50.632812 124.24414 C 53.748635 124.50379 57.122686 124.63281 60.757812 124.63281 C 62.575376 124.63281 63.484375 123.91832 63.484375 122.49023 C 63.484375 121.8411 63.095362 121.32307 62.316406 120.93359 C 61.667277 120.41429 60.952784 120.08881 60.173828 119.95898 C 54.850964 118.66072 50.696934 117.55722 47.710938 116.64844 C 44.724941 115.60983 42.583416 114.24633 41.285156 112.55859 C 40.116723 110.87086 39.53125 108.40385 39.53125 105.1582 L 39.53125 15.580078 C 39.53125 12.853733 39.596737 10.386729 39.726562 8.1796875 C 39.856388 5.8428204 40.050895 3.6993424 40.310547 1.7519531 C 40.440373 1.2326493 40.245866 0.84363627 39.726562 0.58398438 C 39.207259 0.19450653 38.623739 0 37.974609 0 L 37.390625 0 z M 125.2168 1.3632812 C 118.07637 1.3632812 111.90983 3.3102997 106.7168 7.2050781 C 101.52376 10.970031 97.238756 15.969526 93.863281 22.201172 C 90.617633 28.432817 88.216115 35.311892 86.658203 42.841797 C 85.100292 50.371702 84.322266 57.838202 84.322266 65.238281 C 84.322266 72.378708 85.100292 79.583262 86.658203 86.853516 C 88.216115 94.123769 90.617633 100.81029 93.863281 106.91211 C 97.10893 112.8841 101.13394 117.68714 105.9375 121.32227 C 110.87089 124.95739 116.64841 126.77539 123.26953 126.77539 C 130.53978 126.77539 136.70632 124.82837 141.76953 120.93359 C 146.96257 117.03882 151.18209 111.9103 154.42773 105.54883 C 157.80321 99.187357 160.27021 92.240843 161.82812 84.710938 C 163.38604 77.181032 164.16406 69.781972 164.16406 62.511719 C 164.16406 55.501118 163.38604 48.425583 161.82812 41.285156 C 160.27021 34.014903 157.8687 27.393869 154.62305 21.421875 C 151.3774 15.320055 147.2869 10.451533 142.35352 6.8164062 C 137.54996 3.1812797 131.83792 1.3632812 125.2168 1.3632812 z M 121.51758 6.8164062 C 125.93166 6.8164063 129.76021 8.5034316 133.00586 11.878906 C 136.38133 15.254381 139.17382 19.799377 141.38086 25.511719 C 143.71773 31.224061 145.40475 37.585102 146.44336 44.595703 C 147.61179 51.606304 148.19531 58.745372 148.19531 66.015625 C 148.19531 75.752571 147.48277 84.84061 146.05469 93.279297 C 144.6266 101.71798 142.28862 108.59901 139.04297 113.92188 C 135.92715 119.11491 131.77312 121.71094 126.58008 121.71094 C 122.166 121.71094 118.33549 120.02391 115.08984 116.64844 C 111.8442 113.14314 109.11915 108.53461 106.91211 102.82227 C 104.83489 96.980098 103.2114 90.488083 102.04297 83.347656 C 101.00436 76.207229 100.48438 69.002675 100.48438 61.732422 C 100.48437 51.995476 101.13338 42.972923 102.43164 34.664062 C 103.85973 26.225376 106.06674 19.473368 109.05273 14.410156 C 112.16856 9.3469442 116.32454 6.8164062 121.51758 6.8164062 z "
       style="font-style:normal;font-variant:normal;font-weight:normal;font-stretch:normal;font-size:51.52467346px;line-height:1.25;font-family:'EB Garamond';-inkscape-font-specification:'EB Garamond';letter-spacing:0px;word-spacing:0px;fill-opacity:1;stroke:none;stroke-width:1.00000012" />
  </g>
</svg>
