<?xml version="1.0" encoding="UTF-8" standalone="no"?>
<svg
   xmlns:dc="http://purl.org/dc/elements/1.1/"
   xmlns:cc="http://creativecommons.org/ns#"
   xmlns:rdf="http://www.w3.org/1999/02/22-rdf-syntax-ns#"
   xmlns:svg="http://www.w3.org/2000/svg"
   xmlns="http://www.w3.org/2000/svg"
   id="numero4"
   version="1.1"
   viewBox="0 0 23.855922 33.233414">
  <defs
     id="defs2" />
  <metadata
     id="metadata5">
    <rdf:RDF>
      <cc:Work
         rdf:about="">
        <dc:format>image/svg+xml</dc:format>
        <dc:type
           rdf:resource="http://purl.org/dc/dcmitype/StillImage" />
        <dc:title></dc:title>
      </cc:Work>
    </rdf:RDF>
  </metadata>
  <g
     transform="translate(-91.524547,-119.3113)"
     id="layer1">
    <path
       id="text12"
       transform="matrix(0.26458333,0,0,0.26458333,91.524547,119.3113)"
       d="M 65.042969 0 C 64.134187 0 63.096168 0.64900614 61.927734 1.9472656 C 60.889127 3.1156992 59.980128 4.2846915 59.201172 5.453125 L 7.7890625 79.257812 C 7.0101068 80.426246 6.3611007 81.335245 5.8417969 81.984375 C 5.3224931 82.503679 4.6734869 83.218171 3.8945312 84.126953 C 3.1155756 84.905909 1.8830498 86.334894 0.1953125 88.412109 C 0.065486551 88.541935 0 88.736442 0 88.996094 C 0 89.385572 0.19450653 89.840071 0.58398438 90.359375 C 0.97346222 90.748853 1.4279618 90.943359 1.9472656 90.943359 C 8.8280409 90.813533 14.800069 90.68256 19.863281 90.552734 C 24.926493 90.293082 29.729529 90.098576 34.273438 89.96875 C 38.947172 89.709098 43.946667 89.580078 49.269531 89.580078 C 49.399357 89.580078 49.91739 89.709098 50.826172 89.96875 C 51.734954 90.228402 52.189453 90.682902 52.189453 91.332031 L 52.189453 109.44336 C 52.189453 112.55918 51.21692 115.02619 49.269531 116.84375 C 47.322142 118.66131 43.297132 119.95933 37.195312 120.73828 C 36.416357 120.86811 35.636378 121.1281 34.857422 121.51758 C 34.078466 121.90706 33.689453 122.42509 33.689453 123.07422 C 33.689453 123.983 34.078466 124.63201 34.857422 125.02148 C 35.766204 125.41096 36.546183 125.60742 37.195312 125.60742 C 40.700613 125.60742 43.491144 125.47645 45.568359 125.2168 C 47.645575 125.08697 49.65808 124.95795 51.605469 124.82812 C 53.682684 124.6983 56.344195 124.63281 59.589844 124.63281 C 62.705667 124.63281 65.172671 124.6983 66.990234 124.82812 C 68.807798 124.95795 70.754816 125.08697 72.832031 125.2168 C 75.039072 125.47645 77.960577 125.60742 81.595703 125.60742 C 82.374659 125.60742 83.023665 125.41096 83.542969 125.02148 C 84.192098 124.50218 84.517578 123.98415 84.517578 123.46484 C 84.517578 122.81571 84.126612 122.23024 83.347656 121.71094 C 82.568701 121.19163 81.790674 120.86811 81.011719 120.73828 C 75.818681 119.3102 72.313657 117.88121 70.496094 116.45312 C 68.808356 115.02504 67.964844 112.42902 67.964844 108.66406 L 67.964844 90.359375 C 67.964844 90.229549 68.222884 90.035043 68.742188 89.775391 C 69.391317 89.515739 69.97679 89.319279 70.496094 89.189453 C 71.275049 89.059627 72.184049 88.996094 73.222656 88.996094 C 74.261264 88.866268 75.36477 88.800781 76.533203 88.800781 C 78.091115 88.800781 79.712653 88.866268 81.400391 88.996094 L 86.074219 88.996094 C 86.333871 88.996094 86.78837 88.607081 87.4375 87.828125 C 88.08663 87.049169 88.670149 86.074684 89.189453 84.90625 C 89.838583 83.737816 90.164062 82.634311 90.164062 81.595703 C 90.164062 80.557096 89.44957 80.037109 88.021484 80.037109 C 85.944269 80.166935 83.931764 80.297908 81.984375 80.427734 L 76.533203 80.427734 L 72.832031 80.427734 C 71.533772 80.427734 70.170273 80.362248 68.742188 80.232422 C 68.093058 80.232422 67.769531 79.843409 67.769531 79.064453 L 67.769531 53.943359 C 67.769531 49.788929 67.638558 46.672918 67.378906 44.595703 C 67.119254 42.518488 66.275742 41.478516 64.847656 41.478516 C 63.938875 41.478516 62.380869 41.674975 60.173828 42.064453 C 57.966787 42.324105 55.890749 42.973111 53.943359 44.011719 C 53.164404 44.401197 52.644418 44.855696 52.384766 45.375 C 52.25494 45.894304 52.189453 46.866836 52.189453 48.294922 L 52.189453 78.480469 C 52.189453 78.869947 51.92946 79.25896 51.410156 79.648438 C 50.890852 79.908089 50.372819 80.037109 49.853516 80.037109 L 16.164062 80.037109 C 15.774585 80.037109 15.643612 79.842603 15.773438 79.453125 C 15.903263 78.933821 16.034237 78.544808 16.164062 78.285156 L 68.742188 2.7265625 L 69.326172 1.3632812 C 69.845476 0.45449961 69.781942 0 69.132812 0 L 65.042969 0 z "
       style="font-style:normal;font-variant:normal;font-weight:normal;font-stretch:normal;font-size:51.52467346px;line-height:1.25;font-family:'EB Garamond';-inkscape-font-specification:'EB Garamond';letter-spacing:0px;word-spacing:0px;fill-opacity:1;stroke:none;stroke-width:1.00000012" />
  </g>
</svg>
