<?xml version="1.0" encoding="UTF-8" standalone="no"?>
<!-- Created with Inkscape (http://www.inkscape.org/) -->

<svg
   xmlns:dc="http://purl.org/dc/elements/1.1/"
   xmlns:cc="http://creativecommons.org/ns#"
   xmlns:rdf="http://www.w3.org/1999/02/22-rdf-syntax-ns#"
   xmlns:svg="http://www.w3.org/2000/svg"
   xmlns="http://www.w3.org/2000/svg"
   xmlns:sodipodi="http://sodipodi.sourceforge.net/DTD/sodipodi-0.dtd"
   xmlns:inkscape="http://www.inkscape.org/namespaces/inkscape"
   viewBox="0 0 17.930689 34.271347"
   version="1.1"
   id="numero5"
   inkscape:version="0.92.5 (2060ec1f9f, 2020-04-08)"
   sodipodi:docname="5.svg">
  <defs
     id="defs2" />
  <sodipodi:namedview
     id="base"
     pagecolor="#ffffff"
     bordercolor="#666666"
     borderopacity="1.0"
     inkscape:pageopacity="0.0"
     inkscape:pageshadow="2"
     inkscape:zoom="0.80355363"
     inkscape:cx="233.31939"
     inkscape:cy="-27.825761"
     inkscape:document-units="mm"
     inkscape:current-layer="layer1"
     showgrid="false"
     fit-margin-top="0"
     fit-margin-left="0"
     fit-margin-right="0"
     fit-margin-bottom="0"
     inkscape:window-width="1440"
     inkscape:window-height="828"
     inkscape:window-x="0"
     inkscape:window-y="0"
     inkscape:window-maximized="1"
     showguides="true"
     inkscape:guide-bbox="true"
     inkscape:snap-grids="true"
     inkscape:snap-bbox="true"
     inkscape:bbox-paths="true"
     inkscape:snap-bbox-edge-midpoints="true">
    <inkscape:grid
       type="xygrid"
       id="grid150"
       originx="-47.258606"
       originy="-18.137391" />
  </sodipodi:namedview>
  <metadata
     id="metadata5">
    <rdf:RDF>
      <cc:Work
         rdf:about="">
        <dc:format>image/svg+xml</dc:format>
        <dc:type
           rdf:resource="http://purl.org/dc/dcmitype/StillImage" />
        <dc:title></dc:title>
      </cc:Work>
    </rdf:RDF>
  </metadata>
  <g
     inkscape:label="Capa 1"
     inkscape:groupmode="layer"
     id="layer1"
     transform="translate(-94.48716,-120.07684)">
    <path
       style="font-style:normal;font-variant:normal;font-weight:normal;font-stretch:normal;font-size:51.52467346px;line-height:1.25;font-family:'EB Garamond';-inkscape-font-specification:'EB Garamond';letter-spacing:0px;word-spacing:0px;fill:#000000;fill-opacity:1;stroke:none;stroke-width:1.00000012"
       d="m 237.94922,71.935547 c -0.21908,-0.02434 -0.45715,-0.02074 -0.7168,0.01172 -3.76495,0.389477 -7.46643,0.843977 -11.10156,1.363281 -3.5053,0.389478 -6.94484,0.909464 -10.32031,1.558594 -3.37548,0.519303 -6.62051,1.102823 -9.73633,1.751953 -3.11582,0.649129 -6.16635,1.363622 -9.15234,2.142578 -2.07722,0.519304 -3.7662,1.362816 -5.06446,2.53125 -1.29826,1.038607 -2.27079,2.531126 -2.91992,4.478516 -0.64913,2.077215 -1.4946,4.544219 -2.5332,7.40039 -1.03861,2.856171 -2.07663,5.777675 -3.11524,8.763671 -1.03861,2.85617 -1.9476,5.58317 -2.72656,8.17969 -0.64913,2.59652 -0.97266,4.80353 -0.97266,6.62109 0,1.68774 0.32353,3.24379 0.97266,4.67188 0.77896,1.42808 2.01343,2.85707 3.70117,4.28515 11.55451,2.986 20.70608,6.10201 27.45703,9.34766 6.88078,3.24565 11.81479,6.81616 14.80078,10.71094 2.986,3.89477 4.47852,8.37428 4.47852,13.4375 0,5.58251 -1.68703,11.16357 -5.0625,16.74609 -3.24565,5.58252 -8.24514,10.25653 -14.99609,14.02148 -6.62113,3.63513 -15.05821,5.45313 -25.31446,5.45313 -1.16843,0 -2.6629,0.32353 -4.48047,0.97266 -1.68773,0.77895 -2.53125,1.68795 -2.53125,2.72656 0,0.90878 0.84352,1.49425 2.53125,1.7539 1.68774,0.38948 3.24575,0.58399 4.67383,0.58399 4.67374,0 9.15325,-0.38901 13.4375,-1.16797 4.28426,-0.77896 8.3728,-1.88246 12.26758,-3.31055 3.89478,-1.29826 7.59626,-2.92175 11.10156,-4.86914 7.27026,-4.15443 13.04778,-9.34843 17.33203,-15.58008 4.28426,-6.23164 6.42579,-12.91621 6.42579,-20.05664 0,-7.91938 -1.818,-14.41139 -5.45313,-19.47461 -3.5053,-5.19303 -8.89186,-9.67254 -16.16211,-13.4375 -4.41408,-2.33686 -9.60808,-4.54387 -15.58008,-6.62109 -5.97199,-2.20704 -12.59302,-4.34857 -19.86328,-6.42578 -1.16843,-0.25965 -1.94841,-0.71415 -2.33789,-1.36328 -0.25965,-0.64913 -0.32318,-1.42716 -0.19336,-2.33594 0.12983,-1.03861 0.71335,-2.72759 1.75196,-5.06445 1.0386,-2.466695 2.20759,-4.739193 3.50585,-6.816408 1.29826,-2.207041 2.40177,-3.37408 3.31055,-3.503906 1.42809,-0.259652 3.50413,-0.519645 6.23047,-0.779297 2.72634,-0.259652 5.71334,-0.519645 8.95898,-0.779297 3.24565,-0.389478 6.49068,-0.713004 9.73633,-0.972656 3.24565,-0.389478 6.10167,-0.714957 8.56836,-0.974609 1.68774,-0.259652 3.05124,-0.843172 4.08985,-1.751954 1.16843,-1.038607 2.20645,-2.533079 3.11523,-4.480468 l 1.55859,-3.115235 c 0.64913,-1.168433 1.23265,-2.271939 1.75196,-3.310547 0.5193,-0.908781 0.5193,-1.686807 0,-2.335937 -0.29211,-0.584217 -0.76659,-0.913301 -1.42383,-0.986329 z"
       transform="matrix(0.26458333,0,0,0.26458333,47.228548,101.04808)"
       id="text12"
       inkscape:connector-curvature="0" />
  </g>
</svg>
