<?xml version="1.0" encoding="UTF-8" standalone="no"?>
<svg
   xmlns:dc="http://purl.org/dc/elements/1.1/"
   xmlns:cc="http://creativecommons.org/ns#"
   xmlns:rdf="http://www.w3.org/1999/02/22-rdf-syntax-ns#"
   xmlns:svg="http://www.w3.org/2000/svg"
   xmlns="http://www.w3.org/2000/svg"
   id="numero50"
   version="1.1"
   viewBox="0 0 44.465499 34.418572">
  <defs
     id="defs2" />
  <metadata
     id="metadata5">
    <rdf:RDF>
      <cc:Work
         rdf:about="">
        <dc:format>image/svg+xml</dc:format>
        <dc:type
           rdf:resource="http://purl.org/dc/dcmitype/StillImage" />
        <dc:title></dc:title>
      </cc:Work>
    </rdf:RDF>
  </metadata>
  <g
     transform="translate(-81.219754,-119.92961)"
     id="layer1">
    <path
       id="text12"
       transform="matrix(0.26458333,0,0,0.26458333,47.228548,101.04808)"
       d="m 257.58203,71.363281 c -7.14043,0 -13.30696,1.947019 -18.5,5.841797 -5.19304,3.764953 -9.47804,8.764448 -12.85351,14.996094 -3.24565,6.231645 -5.64717,13.110718 -7.20508,20.640628 -1.55791,7.5299 -2.33594,14.9964 -2.33594,22.39648 0,7.14043 0.77803,14.34498 2.33594,21.61524 1.55791,7.27025 3.95943,13.95677 7.20508,20.05859 3.24564,5.97199 7.27065,10.77503 12.07421,14.41016 4.93339,3.63512 10.71091,5.45312 17.33204,5.45312 7.27025,0 13.43678,-1.94702 18.5,-5.8418 5.19303,-3.89477 9.41255,-9.02329 12.6582,-15.38476 3.37547,-6.36147 5.84248,-13.30799 7.40039,-20.83789 1.55791,-7.52991 2.33594,-14.92897 2.33594,-22.19922 0,-7.0106 -0.77803,-14.08614 -2.33594,-21.22656 -1.55791,-7.27026 -3.95943,-13.891291 -7.20508,-19.863285 -3.24565,-6.10182 -7.33614,-10.970342 -12.26953,-14.605469 -4.80356,-3.635126 -10.5156,-5.453125 -17.13672,-5.453125 z m -69.77734,0.572266 c -0.21908,-0.02434 -0.4591,-0.02074 -0.71875,0.01172 -3.76496,0.389477 -7.46449,0.843977 -11.09961,1.363281 -3.5053,0.389478 -6.94484,0.909464 -10.32031,1.558594 -3.37548,0.519303 -6.62246,1.102823 -9.73829,1.751953 -3.11582,0.649129 -6.16634,1.363622 -9.15234,2.142578 -2.07721,0.519304 -3.76424,1.362816 -5.0625,2.53125 -1.29826,1.038607 -2.27274,2.531126 -2.92187,4.478516 -0.64913,2.077215 -1.49265,4.544219 -2.53125,7.40039 -1.03861,2.856171 -2.07663,5.777675 -3.11524,8.763671 -1.03861,2.85617 -1.94761,5.58317 -2.72656,8.17969 -0.64913,2.59652 -0.97461,4.80353 -0.97461,6.62109 0,1.68774 0.32548,3.24379 0.97461,4.67188 0.77895,1.42808 2.01148,2.85707 3.69922,4.28515 11.55451,2.986 20.70803,6.10201 27.45898,9.34766 6.88078,3.24565 11.81479,6.81616 14.80078,10.71094 2.986,3.89477 4.47852,8.37428 4.47852,13.4375 0,5.58251 -1.68898,11.16357 -5.06445,16.74609 -3.24565,5.58252 -8.2432,10.25653 -14.99414,14.02148 -6.62113,3.63513 -15.06016,5.45313 -25.31641,5.45313 -1.16843,0 -2.66095,0.32353 -4.47852,0.97266 -1.68773,0.77895 -2.53125,1.68795 -2.53125,2.72656 0,0.90878 0.84352,1.49425 2.53125,1.7539 1.68774,0.38948 3.24575,0.58399 4.67383,0.58399 4.67374,0 9.15324,-0.38901 13.4375,-1.16797 4.28426,-0.77896 8.3728,-1.88246 12.26758,-3.31055 3.89478,-1.29826 7.59431,-2.92175 11.09961,-4.86914 7.27025,-4.15443 13.04777,-9.34843 17.33203,-15.58008 4.28426,-6.23164 6.42773,-12.91621 6.42773,-20.05664 0,-7.91938 -1.81799,-14.41139 -5.45312,-19.47461 -3.5053,-5.19303 -8.89381,-9.67254 -16.16406,-13.4375 -4.41409,-2.33686 -9.60613,-4.54387 -15.57813,-6.62109 -5.97199,-2.20704 -12.59303,-4.34857 -19.86328,-6.42578 -1.16843,-0.25965 -1.94841,-0.71415 -2.33789,-1.36328 -0.25965,-0.64913 -0.32514,-1.42716 -0.19531,-2.33594 0.12982,-1.03861 0.7153,-2.72759 1.7539,-5.06445 1.03861,-2.466695 2.20565,-4.739193 3.50391,-6.816408 1.29826,-2.207041 2.40177,-3.37408 3.31055,-3.503906 1.42808,-0.259652 3.50607,-0.519645 6.23242,-0.779297 2.72634,-0.259652 5.71333,-0.519645 8.95898,-0.779297 3.24565,-0.389478 6.49068,-0.713004 9.73633,-0.972656 3.24565,-0.389478 6.10167,-0.714957 8.56836,-0.974609 1.68774,-0.259652 3.05124,-0.843172 4.08984,-1.751954 1.16844,-1.038607 2.20646,-2.533079 3.11524,-4.480468 l 1.55859,-3.115235 c 0.64913,-1.168433 1.23265,-2.271939 1.75196,-3.310547 0.5193,-0.908781 0.5193,-1.686807 0,-2.335937 -0.29211,-0.584217 -0.76659,-0.913301 -1.42383,-0.986329 z m 66.07812,4.880859 c 4.41408,0 8.24264,1.687026 11.48828,5.0625 3.37548,3.375475 6.16796,7.920471 8.375,13.632813 2.33687,5.712341 4.0239,12.073381 5.0625,19.083981 1.16844,7.0106 1.75196,14.14967 1.75196,21.41992 0,9.73695 -0.71254,18.82499 -2.14063,27.26368 -1.42808,8.43868 -3.76607,15.31971 -7.01172,20.64258 -3.11582,5.19303 -7.26985,7.78906 -12.46289,7.78906 -4.41408,0 -8.24458,-1.68703 -11.49023,-5.0625 -3.24565,-3.5053 -5.9707,-8.11383 -8.17774,-13.82617 -2.07721,-5.84217 -3.7007,-12.33419 -4.86914,-19.47461 -1.0386,-7.14043 -1.55859,-14.34498 -1.55859,-21.61524 0,-9.73694 0.64901,-18.7595 1.94727,-27.06836 1.42808,-8.438684 3.63509,-15.190692 6.62109,-20.253904 3.11582,-5.063212 7.2718,-7.59375 12.46484,-7.59375 z"
       style="font-style:normal;font-variant:normal;font-weight:normal;font-stretch:normal;font-size:51.52467346px;line-height:1.25;font-family:'EB Garamond';-inkscape-font-specification:'EB Garamond';letter-spacing:0px;word-spacing:0px;fill-opacity:1;stroke:none;stroke-width:1.00000012" />
  </g>
</svg>
