<?xml version="1.0" encoding="UTF-8" standalone="no"?>
<svg
   xmlns:dc="http://purl.org/dc/elements/1.1/"
   xmlns:cc="http://creativecommons.org/ns#"
   xmlns:rdf="http://www.w3.org/1999/02/22-rdf-syntax-ns#"
   xmlns:svg="http://www.w3.org/2000/svg"
   xmlns="http://www.w3.org/2000/svg"
   id="numero6"
   version="1.1"
   viewBox="0 0 21.125324 33.893002">
  <defs
     id="defs2" />
  <metadata
     id="metadata5">
    <rdf:RDF>
      <cc:Work
         rdf:about="">
        <dc:format>image/svg+xml</dc:format>
        <dc:type
           rdf:resource="http://purl.org/dc/dcmitype/StillImage" />
        <dc:title></dc:title>
      </cc:Work>
    </rdf:RDF>
  </metadata>
  <g
     transform="translate(-93.198867,-119.3214)"
     id="layer1">
    <path
       id="text12"
       transform="matrix(0.26458333,0,0,0.26458333,47.228548,101.04808)"
       d="m 250.86328,69.074219 c -0.45439,-0.03246 -0.97242,0.01666 -1.55664,0.146484 -7.91938,2.077215 -15.25491,4.998719 -22.00586,8.763672 -6.62112,3.764953 -12.46413,7.724476 -17.52734,11.878906 -5.06321,4.154431 -9.21724,7.919447 -12.46289,11.294919 -1.81757,1.81757 -4.09006,4.41359 -6.81641,7.78907 -2.59652,3.24564 -5.19254,7.20517 -7.78906,11.8789 -2.59652,4.54391 -4.73805,9.8034 -6.42578,15.77539 -1.68774,5.972 -2.53321,12.59303 -2.53321,19.86328 0,9.08782 1.94898,16.68139 5.84375,22.78321 3.89478,5.97199 8.89232,10.4515 14.99414,13.4375 6.10182,2.98599 12.46287,4.47851 19.08399,4.47851 4.67373,0 9.34775,-0.97253 14.02148,-2.91992 4.80356,-1.81756 9.1521,-4.47907 13.04688,-7.98437 3.89478,-3.5053 7.01079,-7.72482 9.34765,-12.65821 2.33687,-4.93338 3.50586,-10.45091 3.50586,-16.55273 0,-4.67374 -1.23252,-8.76423 -3.69922,-12.26953 -2.33686,-3.63513 -5.45287,-6.49115 -9.34765,-8.56836 -3.76495,-2.07722 -7.91898,-3.11524 -12.46289,-3.11524 -3.63513,0 -7.40015,0.84352 -11.29492,2.53125 -3.76496,1.55791 -6.36293,2.85593 -7.79102,3.89453 -1.03861,0.77896 -1.94761,1.49345 -2.72656,2.14258 l -2.53125,2.53125 c -0.64913,0.77896 -0.90912,1.49345 -0.7793,2.14258 0.25965,0.5193 0.97415,0.5193 2.14258,0 2.20704,-1.16843 4.47954,-1.94841 6.81641,-2.33789 2.46669,-0.38948 5.38819,-0.58398 8.76367,-0.58398 3.5053,0 6.55582,1.1035 9.15234,3.31054 2.72635,2.20704 4.80238,5.06306 6.23047,8.56836 1.55791,3.37548 2.33789,7.07696 2.33789,11.10156 0,8.04921 -2.0125,14.02124 -6.03711,17.91602 -4.0246,3.76495 -8.69862,5.581 -14.02148,5.45117 -4.28426,-0.12982 -8.56731,-1.49137 -12.85157,-4.08789 -4.15443,-2.59652 -7.6614,-6.36153 -10.51757,-11.29492 -2.85617,-5.06321 -4.34869,-11.16621 -4.47852,-18.30664 0,-6.75095 1.03802,-13.43747 3.11524,-20.0586 2.07721,-6.62112 4.54421,-12.59315 7.40039,-17.91601 2.85617,-5.45269 5.32317,-9.73574 7.40039,-12.85156 4.93338,-7.14043 10.5164,-13.112459 16.74804,-17.916019 6.36147,-4.80356 13.89151,-9.088563 22.58985,-12.853515 0.64913,-0.259652 1.49264,-0.648665 2.53125,-1.167969 1.16843,-0.64913 2.01194,-1.558129 2.53125,-2.726563 0.25965,-0.389477 -3.4e-4,-0.778491 -0.7793,-1.167968 -0.32456,-0.194739 -0.71358,-0.309341 -1.16797,-0.341797 z"
       style="font-style:normal;font-variant:normal;font-weight:normal;font-stretch:normal;font-size:51.52467346px;line-height:1.25;font-family:'EB Garamond';-inkscape-font-specification:'EB Garamond';letter-spacing:0px;word-spacing:0px;fill-opacity:1;stroke:none;stroke-width:1.00000012" />
  </g>
</svg>
