<?xml version="1.0" encoding="UTF-8" standalone="no"?>
<svg
   xmlns:dc="http://purl.org/dc/elements/1.1/"
   xmlns:cc="http://creativecommons.org/ns#"
   xmlns:rdf="http://www.w3.org/1999/02/22-rdf-syntax-ns#"
   xmlns:svg="http://www.w3.org/2000/svg"
   xmlns="http://www.w3.org/2000/svg"
   id="numero60"
   version="1.1"
   viewBox="0 0 45.753882 33.892929">
  <defs
     id="defs2" />
  <metadata
     id="metadata5">
    <rdf:RDF>
      <cc:Work
         rdf:about="">
        <dc:format>image/svg+xml</dc:format>
        <dc:type
           rdf:resource="http://purl.org/dc/dcmitype/StillImage" />
        <dc:title></dc:title>
      </cc:Work>
    </rdf:RDF>
  </metadata>
  <g
     transform="translate(-80.575567,-119.3216)"
     id="layer1">
    <path
       id="text12"
       transform="matrix(0.26458333,0,0,0.26458333,80.575567,119.3216)"
       d="M 77.117188 0.009765625 C 76.662797 -0.022690862 76.142811 0.026424051 75.558594 0.15625 C 67.639211 2.2334652 60.303684 5.1549694 53.552734 8.9199219 C 46.931611 12.684874 41.090556 16.644398 36.027344 20.798828 C 30.964132 24.953258 26.808149 28.718275 23.5625 32.09375 C 21.744937 33.911313 19.474392 36.507338 16.748047 39.882812 C 14.151528 43.128461 11.55355 47.087985 8.9570312 51.761719 C 6.3605123 56.305627 4.2189873 61.563163 2.53125 67.535156 C 0.84351266 73.50715 0 80.128184 0 87.398438 C 0 96.486254 1.9470184 104.08177 5.8417969 110.18359 C 9.7365753 116.15559 14.736071 120.6351 20.837891 123.62109 C 26.93971 126.60709 33.300752 128.09961 39.921875 128.09961 C 44.595609 128.09961 49.269625 127.12512 53.943359 125.17773 C 58.746919 123.36017 63.095456 120.69866 66.990234 117.19336 C 70.885013 113.68806 74.001024 109.46854 76.337891 104.53516 C 78.674758 99.60177 79.84375 94.084241 79.84375 87.982422 C 79.84375 83.308688 78.609271 79.220144 76.142578 75.714844 C 73.805711 72.079717 70.6897 69.2237 66.794922 67.146484 C 63.029969 65.069269 58.875939 64.029297 54.332031 64.029297 C 50.696905 64.029297 46.931888 64.874763 43.037109 66.5625 C 39.272157 68.120411 36.676132 69.418424 35.248047 70.457031 C 34.209439 71.235987 33.30044 71.95048 32.521484 72.599609 L 29.990234 75.130859 C 29.341105 75.909815 29.081112 76.622355 29.210938 77.271484 C 29.470589 77.790788 30.185082 77.790788 31.353516 77.271484 C 33.560557 76.103051 35.831102 75.325025 38.167969 74.935547 C 40.634662 74.546069 43.556166 74.351562 46.931641 74.351562 C 50.436941 74.351562 53.487465 75.455068 56.083984 77.662109 C 58.810329 79.869151 60.888321 82.725168 62.316406 86.230469 C 63.874318 89.605943 64.654297 93.305474 64.654297 97.330078 C 64.654297 105.37929 62.641792 111.35132 58.617188 115.24609 C 54.592583 119.01105 49.918567 120.82904 44.595703 120.69922 C 40.311447 120.56939 36.026444 119.20589 31.742188 116.60938 C 27.587757 114.01286 24.082733 110.24784 21.226562 105.31445 C 18.370392 100.25124 16.877873 94.150193 16.748047 87.009766 C 16.748047 80.258816 17.786066 73.572295 19.863281 66.951172 C 21.940496 60.330048 24.407501 54.35802 27.263672 49.035156 C 30.119843 43.582466 32.586847 39.297463 34.664062 36.181641 C 39.597449 29.041213 45.178511 23.069185 51.410156 18.265625 C 57.771628 13.462065 65.301661 9.179015 74 5.4140625 C 74.64913 5.1544106 75.494596 4.7653975 76.533203 4.2460938 C 77.701637 3.596964 78.545149 2.6879648 79.064453 1.5195312 C 79.324105 1.1300534 79.064112 0.73908722 78.285156 0.34960938 C 77.960591 0.15487045 77.571578 0.042222112 77.117188 0.009765625 z M 133.98047 2.2988281 C 126.84004 2.2988281 120.67351 4.2458465 115.48047 8.140625 C 110.28743 11.905578 106.00243 16.90312 102.62695 23.134766 C 99.381304 29.366411 96.979786 36.247439 95.421875 43.777344 C 93.863964 51.307249 93.085938 58.771796 93.085938 66.171875 C 93.085937 73.312302 93.863964 80.518809 95.421875 87.789062 C 96.979786 95.059316 99.381304 101.74388 102.62695 107.8457 C 105.8726 113.8177 109.89761 118.62269 114.70117 122.25781 C 119.63456 125.89294 125.41208 127.70898 132.0332 127.70898 C 139.30346 127.70898 145.46999 125.76197 150.5332 121.86719 C 155.72624 117.97241 159.94576 112.84389 163.19141 106.48242 C 166.56688 100.12095 169.03389 93.176389 170.5918 85.646484 C 172.14971 78.116579 172.92773 70.715566 172.92773 63.445312 C 172.92773 56.434711 172.14971 49.359177 170.5918 42.21875 C 169.03389 34.948497 166.63237 28.327462 163.38672 22.355469 C 160.14107 16.253649 156.05057 11.385127 151.11719 7.75 C 146.31363 4.1148734 140.60159 2.2988281 133.98047 2.2988281 z M 130.2793 7.75 C 134.69338 7.75 138.52388 9.4389785 141.76953 12.814453 C 145.14501 16.189928 147.93749 20.732971 150.14453 26.445312 C 152.4814 32.157654 154.16842 38.518696 155.20703 45.529297 C 156.37546 52.539898 156.95898 59.680919 156.95898 66.951172 C 156.95898 76.688118 156.24449 85.776157 154.81641 94.214844 C 153.38832 102.65353 151.05229 109.53456 147.80664 114.85742 C 144.69082 120.05046 140.53679 122.64648 135.34375 122.64648 C 130.92967 122.64648 127.09916 120.95946 123.85352 117.58398 C 120.60787 114.07868 117.88282 109.47015 115.67578 103.75781 C 113.59857 97.915645 111.97507 91.42363 110.80664 84.283203 C 109.76803 77.142776 109.24805 69.936269 109.24805 62.666016 C 109.24805 52.929069 109.89705 43.906517 111.19531 35.597656 C 112.6234 27.15897 114.83041 20.408915 117.81641 15.345703 C 120.93223 10.282491 125.08626 7.75 130.2793 7.75 z "
       style="font-style:normal;font-variant:normal;font-weight:normal;font-stretch:normal;font-size:51.52467346px;line-height:1.25;font-family:'EB Garamond';-inkscape-font-specification:'EB Garamond';letter-spacing:0px;word-spacing:0px;fill-opacity:1;stroke:none;stroke-width:1.00000012" />
  </g>
</svg>
