<?xml version="1.0" encoding="UTF-8" standalone="no"?>
<!-- Created with Inkscape (http://www.inkscape.org/) -->

<svg
   xmlns:dc="http://purl.org/dc/elements/1.1/"
   xmlns:cc="http://creativecommons.org/ns#"
   xmlns:rdf="http://www.w3.org/1999/02/22-rdf-syntax-ns#"
   xmlns:svg="http://www.w3.org/2000/svg"
   xmlns="http://www.w3.org/2000/svg"
   xmlns:sodipodi="http://sodipodi.sourceforge.net/DTD/sodipodi-0.dtd"
   xmlns:inkscape="http://www.inkscape.org/namespaces/inkscape"
   viewBox="0 0 46.320685 34.109547"
   version="1.1"
   id="numero70"
   inkscape:version="0.92.5 (2060ec1f9f, 2020-04-08)"
   sodipodi:docname="70.svg">
  <defs
     id="defs2" />
  <sodipodi:namedview
     id="base"
     pagecolor="#ffffff"
     bordercolor="#666666"
     borderopacity="1.0"
     inkscape:pageopacity="0.0"
     inkscape:pageshadow="2"
     inkscape:zoom="1.6322183"
     inkscape:cx="64.709495"
     inkscape:cy="30.139354"
     inkscape:document-units="mm"
     inkscape:current-layer="layer1"
     showgrid="false"
     fit-margin-top="0"
     fit-margin-left="0"
     fit-margin-right="0"
     fit-margin-bottom="0"
     inkscape:window-width="1440"
     inkscape:window-height="828"
     inkscape:window-x="0"
     inkscape:window-y="0"
     inkscape:window-maximized="1"
     showguides="true"
     inkscape:guide-bbox="true"
     inkscape:snap-grids="true"
     inkscape:snap-bbox="true"
     inkscape:bbox-paths="true"
     inkscape:snap-bbox-edge-midpoints="true">
    <inkscape:grid
       type="xygrid"
       id="grid150"
       originx="-33.063607"
       originy="-18.446416" />
  </sodipodi:namedview>
  <metadata
     id="metadata5">
    <rdf:RDF>
      <cc:Work
         rdf:about="">
        <dc:format>image/svg+xml</dc:format>
        <dc:type
           rdf:resource="http://purl.org/dc/dcmitype/StillImage" />
        <dc:title></dc:title>
      </cc:Work>
    </rdf:RDF>
  </metadata>
  <g
     inkscape:label="Capa 1"
     inkscape:groupmode="layer"
     id="layer1"
     transform="translate(-80.292162,-119.92961)">
    <path
       style="font-style:normal;font-variant:normal;font-weight:normal;font-stretch:normal;font-size:51.52467346px;line-height:1.25;font-family:'EB Garamond';-inkscape-font-specification:'EB Garamond';letter-spacing:0px;word-spacing:0px;fill-opacity:1;stroke:none;stroke-width:1.00000012"
       d="m 261.08789,71.363281 c -7.14043,0 -13.30696,1.947019 -18.5,5.841797 -5.19304,3.764953 -9.47804,8.764448 -12.85351,14.996094 -3.24565,6.231645 -5.64717,13.110718 -7.20508,20.640628 -1.55791,7.5299 -2.33789,14.9964 -2.33789,22.39648 0,7.14043 0.77998,14.34498 2.33789,21.61524 1.55791,7.27025 3.95943,13.95677 7.20508,20.05859 3.24564,5.97199 7.27065,10.77503 12.07421,14.41016 4.93339,3.63512 10.71091,5.45312 17.33203,5.45312 7.27026,0 13.43679,-1.94702 18.5,-5.8418 5.19304,-3.89477 9.41256,-9.02329 12.65821,-15.38476 3.37547,-6.36147 5.84248,-13.30799 7.40039,-20.83789 1.55791,-7.52991 2.33594,-14.92897 2.33594,-22.19922 0,-7.0106 -0.77803,-14.08614 -2.33594,-21.22656 -1.55791,-7.27026 -3.96138,-13.891291 -7.20703,-19.863285 -3.24565,-6.10182 -7.33419,-10.970342 -12.26758,-14.605469 -4.80356,-3.635126 -10.5156,-5.453125 -17.13672,-5.453125 z m -130.28125,0.779297 c -0.25965,0 -0.64866,0.12902 -1.16797,0.388672 -0.38948,0.259652 -0.64947,0.845125 -0.77929,1.753906 -0.25966,2.466693 -0.71416,5.580751 -1.36329,9.345703 -0.5193,3.764953 -1.10282,7.07547 -1.75195,9.931641 -0.12983,0.519304 -0.32433,1.233796 -0.58398,2.142578 -0.12983,0.778956 -0.19532,1.493449 -0.19532,2.142578 0,0.519304 0.0655,1.102824 0.19532,1.751953 0.25965,0.649131 0.64866,0.974611 1.16796,0.974611 0.64913,0 1.29814,-0.32548 1.94727,-0.974611 0.64913,-0.649129 1.16912,-1.361669 1.55859,-2.140625 l 1.16797,-1.753906 c 2.20704,-3.635126 4.47954,-6.036644 6.81641,-7.205078 2.33687,-1.168434 5.06191,-1.751953 8.17773,-1.751953 h 49.85352 c 1.42808,0.129826 2.14258,0.389819 2.14258,0.779297 0.12982,0.389478 0.0643,0.778491 -0.19531,1.167968 l -55.11133,98.537108 c -0.90878,1.55791 -1.81778,3.18141 -2.72657,4.86914 -0.90878,1.68774 -1.36328,2.72576 -1.36328,3.11524 0,1.42808 0.32548,2.59707 0.97461,3.50586 0.64913,1.0386 1.68715,1.55859 3.11524,1.55859 0.38947,0 0.97495,-0.65096 1.7539,-1.94922 0.77896,-1.16843 1.42796,-2.27194 1.94727,-3.31055 L 205.00195,89.279297 c 0.64913,-1.168434 1.55813,-2.597419 2.72657,-4.285156 1.16843,-1.687738 2.2084,-3.374763 3.11718,-5.0625 1.03861,-1.817564 1.55664,-3.246549 1.55664,-4.285157 0,-0.519303 -0.12902,-1.037336 -0.38867,-1.55664 -0.25965,-0.64913 -0.51964,-0.97461 -0.77929,-0.97461 -1.16844,0.129826 -4.15543,0.324333 -8.95899,0.583985 -4.67373,0.129826 -10.2548,0.260799 -16.74609,0.390625 h -19.08594 -7.78906 c -2.20704,-0.129826 -4.21955,-0.195313 -6.03711,-0.195313 h -5.45117 c -4.02461,0 -7.72609,-0.259993 -11.10157,-0.779297 -3.24565,-0.649129 -4.99816,-0.972656 -5.25781,-0.972656 z m 126.58008,4.673828 c 4.41408,0 8.24458,1.687026 11.49023,5.0625 3.37548,3.375475 6.16601,7.920471 8.37305,13.632813 2.33687,5.712341 4.02585,12.073381 5.06445,19.083981 1.16844,7.0106 1.75196,14.14967 1.75196,21.41992 0,9.73695 -0.7145,18.82499 -2.14258,27.26368 -1.42809,8.43868 -3.76412,15.31971 -7.00977,20.64258 -3.11582,5.19303 -7.26985,7.78906 -12.46289,7.78906 -4.41408,0 -8.24458,-1.68703 -11.49023,-5.0625 -3.24565,-3.5053 -5.97265,-8.11383 -8.17969,-13.82617 -2.07722,-5.84217 -3.69875,-12.33419 -4.86719,-19.47461 -1.03861,-7.14043 -1.55859,-14.34498 -1.55859,-21.61524 0,-9.73694 0.649,-18.7595 1.94726,-27.06836 1.42809,-8.438684 3.6351,-15.190692 6.6211,-20.253904 3.11582,-5.063212 7.26985,-7.59375 12.46289,-7.59375 z"
       transform="matrix(0.26458333,0,0,0.26458333,47.228548,101.04808)"
       id="text12"
       inkscape:connector-curvature="0" />
  </g>
</svg>
