<?xml version="1.0" encoding="UTF-8" standalone="no"?>
<svg
   xmlns:dc="http://purl.org/dc/elements/1.1/"
   xmlns:cc="http://creativecommons.org/ns#"
   xmlns:rdf="http://www.w3.org/1999/02/22-rdf-syntax-ns#"
   xmlns:svg="http://www.w3.org/2000/svg"
   xmlns="http://www.w3.org/2000/svg"
   id="numero80"
   version="1.1"
   viewBox="0 0 44.826202 33.181954">
  <defs
     id="defs2" />
  <metadata
     id="metadata5">
    <rdf:RDF>
      <cc:Work
         rdf:about="">
        <dc:format>image/svg+xml</dc:format>
        <dc:type
           rdf:resource="http://purl.org/dc/dcmitype/StillImage" />
        <dc:title></dc:title>
      </cc:Work>
    </rdf:RDF>
  </metadata>
  <g
     transform="translate(-81.039403,-119.92961)"
     id="layer1">
    <path
       id="text12"
       transform="matrix(0.26458333,0,0,0.26458333,47.228548,101.04808)"
       d="m 166.15234,71.363281 c -5.71234,0 -11.29535,1.232526 -16.74804,3.699219 -5.45269,2.466693 -9.9322,5.77721 -13.4375,9.931641 -3.5053,4.15443 -5.25782,8.764913 -5.25782,13.828125 0,5.452694 1.03998,10.124754 3.11719,14.019534 2.20704,3.76495 4.99757,7.20644 8.37305,10.32226 3.5053,2.986 7.20483,6.16554 11.09961,9.54102 0.77895,0.64913 1.29894,1.10363 1.55859,1.36328 0.25965,0.25965 -0.0658,0.65062 -0.97461,1.16992 -3.24565,1.81756 -6.94518,4.08811 -11.09961,6.81445 -4.0246,2.59652 -7.52963,5.90704 -10.51562,9.93165 -2.986,4.0246 -4.47852,8.89312 -4.47852,14.60546 0,5.972 1.62154,11.23149 4.86719,15.77539 3.24565,4.54391 7.46517,8.11247 12.6582,10.70899 5.32287,2.46669 10.97137,3.70117 16.94336,3.70117 6.36147,0 12.46252,-1.49252 18.30469,-4.47851 5.84217,-2.986 10.6452,-7.0765 14.41016,-12.26954 3.76495,-5.19303 5.64843,-11.16506 5.64843,-17.91601 0,-5.06321 -1.1035,-9.47724 -3.31054,-13.24219 -2.07722,-3.76495 -4.99872,-7.26998 -8.76367,-10.51562 -3.76496,-3.24565 -8.11349,-6.55617 -13.04688,-9.93164 -1.03861,-0.64913 -1.55859,-1.16912 -1.55859,-1.5586 0,-0.5193 0.84351,-1.36282 2.53125,-2.53125 2.20704,-1.68774 4.02504,-3.05123 5.45312,-4.08984 1.42809,-1.16844 3.05158,-2.53193 4.86914,-4.08985 2.20704,-1.94739 4.47954,-4.3489 6.81641,-7.20507 2.33687,-2.986 3.5039,-6.81455 3.5039,-11.488286 0,-5.322864 -1.49251,-9.933346 -4.47851,-13.828125 -2.986,-3.894778 -6.88003,-6.879816 -11.6836,-8.957031 -4.67373,-2.207041 -9.60774,-3.310547 -14.80078,-3.310547 z m 92.11133,0 c -7.14043,0 -13.30696,1.947019 -18.5,5.841797 -5.19304,3.764953 -9.47804,8.764448 -12.85351,14.996094 -3.24565,6.231645 -5.64717,13.110718 -7.20508,20.640628 -1.55791,7.5299 -2.33594,14.9964 -2.33594,22.39648 0,7.14043 0.77803,14.34498 2.33594,21.61524 1.55791,7.27025 3.95943,13.95677 7.20508,20.05859 3.24564,5.97199 7.27065,10.77503 12.07422,14.41016 4.93338,3.63512 10.7109,5.45312 17.33203,5.45312 7.27025,0 13.43678,-1.94702 18.5,-5.8418 5.19303,-3.89477 9.41255,-9.02329 12.6582,-15.38476 3.37547,-6.36147 5.84248,-13.30799 7.40039,-20.83789 1.55791,-7.52991 2.33594,-14.92897 2.33594,-22.19922 0,-7.0106 -0.77803,-14.08614 -2.33594,-21.22656 -1.55791,-7.27026 -3.95943,-13.891291 -7.20508,-19.863285 -3.24565,-6.10182 -7.33614,-10.970342 -12.26953,-14.605469 -4.80356,-3.635126 -10.51559,-5.453125 -17.13672,-5.453125 z m -93.08594,4.673828 c 5.71235,0 9.93186,2.012505 12.65821,6.03711 2.85617,3.894778 4.28515,8.568794 4.28515,14.021484 0,5.971997 -0.71449,11.229527 -2.14257,15.773437 -1.29826,4.54391 -4.21977,8.69794 -8.76368,12.46289 -0.38947,0.25965 -0.84397,0.32514 -1.36328,0.19531 -0.5193,-0.25965 -0.9738,-0.51964 -1.36328,-0.77929 -4.54391,-3.76496 -8.56696,-6.81548 -12.07226,-9.15235 -3.37548,-2.46669 -6.03699,-5.1282 -7.98438,-7.98437 -1.81756,-2.85617 -2.72656,-6.752163 -2.72656,-11.685549 0,-3.5053 0.97253,-6.684844 2.91992,-9.541015 2.07722,-2.856171 4.60971,-5.128669 7.5957,-6.816407 2.986,-1.687737 5.97104,-2.53125 8.95703,-2.53125 z m 89.38672,0.779297 c 4.41409,0 8.24264,1.687026 11.48828,5.0625 3.37548,3.375475 6.16796,7.920471 8.375,13.632813 2.33687,5.712341 4.0239,12.073381 5.0625,19.083981 1.16844,7.0106 1.75196,14.14967 1.75196,21.41992 0,9.73695 -0.71254,18.82499 -2.14063,27.26368 -1.42808,8.43868 -3.76607,15.31971 -7.01172,20.64258 -3.11582,5.19303 -7.26985,7.78906 -12.46289,7.78906 -4.41408,0 -8.24458,-1.68703 -11.49023,-5.0625 -3.24565,-3.5053 -5.97069,-8.11383 -8.17774,-13.82617 -2.07721,-5.84217 -3.7007,-12.33419 -4.86914,-19.47461 -1.0386,-7.14043 -1.55859,-14.34498 -1.55859,-21.61524 0,-9.73694 0.64901,-18.7595 1.94727,-27.06836 1.42808,-8.438684 3.63509,-15.190692 6.62109,-20.253904 3.11582,-5.063212 7.27181,-7.59375 12.46484,-7.59375 z m -96.39648,60.757814 c 0.64913,0 1.23265,0.19451 1.75195,0.58398 0.64913,0.25966 1.36362,0.71415 2.14258,1.36328 3.76495,2.59652 7.40095,5.51803 10.90625,8.76368 3.5053,3.11582 6.36132,6.49182 8.56836,10.12695 2.33687,3.63513 3.50391,7.46368 3.50391,11.48828 0,5.71234 -1.94702,10.71184 -5.8418,14.99609 -3.76495,4.15443 -8.5025,6.23047 -14.21484,6.23047 -4.54391,0 -8.4399,-1.36154 -11.68555,-4.08789 -3.24565,-2.72634 -5.71266,-6.16783 -7.40039,-10.32226 -1.68774,-4.28426 -2.53125,-8.69828 -2.53125,-13.24219 0,-6.23165 1.03997,-11.03468 3.11719,-14.41016 2.07721,-3.5053 5.19127,-6.94679 9.3457,-10.32226 1.03861,-0.77896 1.81858,-1.16797 2.33789,-1.16797 z"
       style="font-style:normal;font-variant:normal;font-weight:normal;font-stretch:normal;font-size:51.52467346px;line-height:1.25;font-family:'EB Garamond';-inkscape-font-specification:'EB Garamond';letter-spacing:0px;word-spacing:0px;fill-opacity:1;stroke:none;stroke-width:1.00000012" />
  </g>
</svg>
