<?xml version="1.0" encoding="UTF-8" standalone="no"?>
<svg
   xmlns:dc="http://purl.org/dc/elements/1.1/"
   xmlns:cc="http://creativecommons.org/ns#"
   xmlns:rdf="http://www.w3.org/1999/02/22-rdf-syntax-ns#"
   xmlns:svg="http://www.w3.org/2000/svg"
   xmlns="http://www.w3.org/2000/svg"
   id="svg8"
   version="1.1"
   viewBox="0 0 143.00818 143.00818"
   height="143.00818mm"
   width="143.00818mm">
  <defs
     id="defs2" />
  <metadata
     id="metadata5">
    <rdf:RDF>
      <cc:Work
         rdf:about="">
        <dc:format>image/svg+xml</dc:format>
        <dc:type
           rdf:resource="http://purl.org/dc/dcmitype/StillImage" />
        <dc:title></dc:title>
      </cc:Work>
    </rdf:RDF>
  </metadata>
  <g
     transform="translate(-37.019138,-94.665127)"
     id="layer1">
    <path
       id="rect967"
       d="m 108.52344,101.76562 c -35.619144,0 -64.404299,28.78516 -64.404299,64.4043 0,35.61914 28.785155,64.4043 64.404299,64.4043 35.61914,0 64.40429,-28.78516 64.40429,-64.4043 0,-35.61914 -28.78515,-64.40429 -64.40429,-64.4043 z m 0,7.01954 c 31.85095,0 57.38281,25.53381 57.38281,57.38476 0,31.85095 -25.53186,57.38281 -57.38281,57.38281 -31.850954,0 -57.382815,-25.53186 -57.382815,-57.38281 0,-31.85095 25.531861,-57.38476 57.382815,-57.38476 z"
       style="color:#000000;font-style:normal;font-variant:normal;font-weight:normal;font-stretch:normal;font-size:medium;line-height:normal;font-family:sans-serif;font-variant-ligatures:normal;font-variant-position:normal;font-variant-caps:normal;font-variant-numeric:normal;font-variant-alternates:normal;font-feature-settings:normal;text-indent:0;text-align:start;text-decoration:none;text-decoration-line:none;text-decoration-style:solid;text-decoration-color:#000000;letter-spacing:normal;word-spacing:normal;text-transform:none;writing-mode:lr-tb;direction:ltr;text-orientation:mixed;dominant-baseline:auto;baseline-shift:baseline;text-anchor:start;white-space:normal;shape-padding:0;clip-rule:nonzero;display:inline;overflow:visible;visibility:visible;opacity:1;isolation:auto;mix-blend-mode:normal;color-interpolation:sRGB;color-interpolation-filters:linearRGB;solid-color:#000000;solid-opacity:1;vector-effect:none;fill-opacity:1;fill-rule:nonzero;stroke:none;stroke-width:7.02099943;stroke-linecap:round;stroke-linejoin:miter;stroke-miterlimit:4;stroke-dasharray:none;stroke-dashoffset:0;stroke-opacity:1;paint-order:stroke fill markers;color-rendering:auto;image-rendering:auto;shape-rendering:auto;text-rendering:auto;enable-background:accumulate" />
    <path
       style="stroke:none;stroke-width:0.26458332px;stroke-linecap:butt;stroke-linejoin:miter;stroke-opacity:1"
       d="m 104.91737,123.04745 c -6.997427,-0.10471 -12.949442,3.69893 -9.518722,10.38956 -10.390322,-12.16334 -26.554768,28.34613 -18.238442,68.64007 7.113891,-0.69281 11.95846,-6.68835 18.258167,-18.46603 -3.358555,-4.98453 -5.660004,-12.19436 -6.701628,-20.78403 -2.048784,-16.89502 8.329122,-30.19293 20.792855,-29.21069 11.28506,1e-5 20.07384,13.67376 20.07384,29.21069 1e-5,7.24532 -0.5514,15.10931 -3.81919,20.09625 -0.59709,0.91121 -1.27433,1.73549 -2.01406,2.47874 0.91634,5.93331 8.5293,18.90961 31.1483,24.55577 -17.12198,-26.40969 -10.24688,-37.89728 -16.38858,-52.08457 -3.45305,-12.85806 -9.28016,-22.92403 -17.0952,-28.85966 -3.55898,-2.70309 -10.3024,-5.8734 -16.49734,-5.9661 z"
       id="path965" />
  </g>
</svg>
