<?xml version="1.0" encoding="UTF-8" standalone="no"?>
<svg
   xmlns:dc="http://purl.org/dc/elements/1.1/"
   xmlns:cc="http://creativecommons.org/ns#"
   xmlns:rdf="http://www.w3.org/1999/02/22-rdf-syntax-ns#"
   xmlns:svg="http://www.w3.org/2000/svg"
   xmlns="http://www.w3.org/2000/svg"
   id="letraA"
   version="1.1"
   viewBox="0 0 100.2316 54.30521">
  <defs
     id="defs2" />
  <metadata
     id="metadata5">
    <rdf:RDF>
      <cc:Work
         rdf:about="">
        <dc:format>image/svg+xml</dc:format>
        <dc:type
           rdf:resource="http://purl.org/dc/dcmitype/StillImage" />
        <dc:title></dc:title>
      </cc:Work>
    </rdf:RDF>
  </metadata>
  <g
     transform="translate(-53.507753,-110.01194)"
     id="layer1">
    <path
       id="text12"
       transform="matrix(0.26458333,0,0,0.26458333,47.22855,101.84345)"
       d="m 134.27344,30.873047 c -0.19548,0 -0.39242,0.09749 -0.58789,0.292969 -0.58643,0.781897 -1.26889,2.345714 -2.05078,4.691406 -0.58643,2.345692 -1.76027,4.104498 -3.51954,5.277344 -1.75926,1.172845 -3.51807,2.052249 -5.27734,2.638672 l -5.27734,1.759765 c -0.19548,3.127589 -0.6849,6.060235 -1.4668,8.796875 -0.7819,2.73664 -1.6613,5.472344 -2.63867,8.208984 -4.88686,13.487728 -9.57831,25.998266 -14.074221,37.531248 -4.300434,11.33751 -8.502461,22.28423 -12.607421,32.83985 -4.104961,10.55561 -8.50393,21.30734 -13.195313,32.2539 -4.495909,10.94656 -9.479844,22.67519 -14.953125,35.18555 -3.127589,7.23255 -6.842143,12.41147 -11.142578,15.53906 -4.300435,3.12759 -8.991887,5.47332 -14.074219,7.03711 -3.127589,0.97737 -5.570809,2.05372 -7.330078,3.22656 -1.563794,0.97738 -2.345703,2.14926 -2.345703,3.51758 0,1.17285 0.781909,2.05225 2.345703,2.63867 1.563794,0.7819 3.615084,1.17383 6.15625,1.17383 4.886858,0 10.360218,-0.29443 16.419922,-0.88086 6.059703,-0.58642 12.314973,-0.8789 18.765625,-0.8789 5.47328,0 10.654158,0.0975 15.541016,0.29296 4.886857,0.19548 8.601412,0.29297 11.142578,0.29297 2.541166,0 4.592455,-0.19499 6.156254,-0.58593 1.56379,-0.58643 2.3457,-1.46583 2.3457,-2.63868 0,-2.15021 -3.22513,-4.10596 -9.675782,-5.86523 -4.691384,-1.17285 -8.698422,-3.12664 -12.021485,-5.86328 -3.323063,-2.93212 -4.984375,-6.54918 -4.984375,-10.84961 0,-0.97737 0.489425,-3.3231 1.466797,-7.03711 0.977372,-3.71401 2.149258,-7.91604 3.517578,-12.60742 1.36832,-4.69139 2.737149,-9.09035 4.105469,-13.19531 1.36832,-4.30044 2.345218,-7.42807 2.93164,-9.38282 0.781898,-2.15021 1.563806,-3.51709 2.345704,-4.10351 0.977371,-0.7819 1.856774,-1.17383 2.638672,-1.17383 h 55.417972 c 2.73664,0 4.59294,0.19694 5.57031,0.58789 1.17284,0.19547 1.95475,1.07488 2.3457,2.63867 1.5638,4.88686 3.22511,10.55521 4.98438,17.00586 1.75927,6.25518 3.22559,12.21601 4.39843,17.88477 1.36832,5.47328 2.05274,9.67726 2.05274,12.60937 0,3.12759 -1.36883,5.86329 -4.10547,8.20899 -2.73664,2.34569 -7.3306,4.007 -13.78125,4.98437 -2.54117,0.39095 -4.7894,1.07536 -6.74414,2.05274 -1.95474,0.97737 -2.93164,2.15121 -2.93164,3.51953 0,1.17284 0.78191,2.05225 2.3457,2.63867 1.5638,0.58642 3.61704,0.8789 6.1582,0.8789 h 8.50196 c 3.32306,-0.19547 6.94012,-0.29296 10.84961,-0.29296 h 11.43554 c 4.49591,0 9.38235,0.0975 14.66016,0.29296 5.27781,0.39095 10.26174,0.68539 14.95313,0.88086 4.69138,0.39095 8.40593,0.58594 11.14257,0.58594 2.54117,0 4.59441,-0.19499 6.15821,-0.58594 1.56379,-0.39094 2.3457,-1.17285 2.3457,-2.3457 0,-1.36832 -0.78191,-2.63965 -2.3457,-3.8125 -1.5638,-1.36832 -4.00702,-2.34522 -7.33008,-2.93164 -3.90949,-0.7819 -7.62404,-1.95574 -11.14258,-3.51953 -3.32306,-1.5638 -6.54819,-4.2995 -9.67578,-8.20899 -3.12759,-3.90948 -6.06024,-9.77477 -8.79688,-17.59374 -2.34569,-7.03708 -5.57082,-16.22304 -9.67578,-27.56055 -3.90948,-11.53299 -8.30845,-24.43546 -13.19531,-38.70508 -4.69138,-14.4651 -9.57782,-29.418858 -14.66016,-44.861328 -5.08233,-15.44247 -9.96877,-30.591219 -14.66015,-45.447266 l -1.17383,-3.519531 c -0.19547,-1.172846 -0.48796,-2.149743 -0.87891,-2.931641 -0.19547,-0.390948 -0.48795,-0.585937 -0.8789,-0.585937 z m -9.97071,37.238281 c 0.58643,0 1.46778,1.758806 2.64063,5.277344 l 22.86914,71.542968 c 0.19547,0.58642 0.29297,1.17334 0.29297,1.75977 0.19547,0.39094 0.29297,0.78288 0.29297,1.17382 0,0.97738 -1.36688,1.46485 -4.10352,1.46485 H 100.8457 c -1.95474,0 -3.518557,-0.0975 -4.691403,-0.29297 -0.977372,-0.19547 -1.464844,-0.78239 -1.464844,-1.75977 0,-0.39094 0.194989,-1.17285 0.585938,-2.3457 L 121.95703,73.095703 c 1.17285,-3.323063 1.95476,-4.984375 2.3457,-4.984375 z m 228.70508,42.515622 c -3.90948,0 -8.40595,0.87941 -13.48828,2.63867 -5.08233,1.75927 -10.26125,4.20249 -15.53906,7.33008 -5.27781,3.12759 -10.16425,6.74465 -14.66016,10.84961 -3.71401,3.12759 -6.64666,6.54771 -8.79687,10.26172 -1.95475,3.51854 -2.93164,6.84116 -2.93164,9.96875 0,0.7819 0.29248,1.46631 0.8789,2.05274 0.58643,0.39094 1.36833,0.58593 2.34571,0.58593 1.95474,0 4.39796,-0.58496 7.33007,-1.75781 3.12759,-1.36832 5.86525,-2.83464 8.21094,-4.39844 2.54117,-1.75927 3.81055,-3.12809 3.81055,-4.10547 0,-0.78189 -0.0975,-1.6613 -0.29297,-2.63867 v -2.63867 c 0,-1.75927 0.19499,-3.42058 0.58594,-4.98437 0.39095,-1.5638 1.17285,-2.73764 2.3457,-3.51954 1.95474,-1.56379 4.39796,-2.83512 7.33008,-3.8125 2.93211,-0.97737 5.86476,-1.46484 8.79687,-1.46484 5.66876,0 9.97023,1.8563 12.90235,5.57031 3.12759,3.71401 4.59196,8.11298 4.39648,13.19532 l -0.58594,18.76562 c -0.19547,3.90949 -0.68294,6.4502 -1.46484,7.62305 -0.58642,1.17284 -2.83465,2.54167 -6.74414,4.10547 l -29.9082,12.31445 c -7.23255,2.93211 -12.51092,6.15724 -15.83399,9.67578 -3.32306,3.51854 -4.98437,8.40498 -4.98437,14.66016 0,3.51853 1.17384,7.23309 3.51953,11.14258 2.54116,3.90948 5.5713,7.2321 9.08984,9.96874 3.71401,2.73665 7.32912,4.10547 10.84766,4.10547 6.25518,0 12.31546,-1.27133 18.17969,-3.8125 5.86423,-2.34569 12.022,-6.15774 18.47265,-11.43554 h 0.87891 c 5.27781,10.16466 12.41248,15.24804 21.4043,15.24804 3.12758,0 6.45021,-0.97689 9.96875,-2.93164 3.71401,-1.75927 7.13608,-4.20249 10.26367,-7.33007 2.15021,-2.15022 3.22461,-4.30096 3.22461,-6.45118 0,-0.97737 -0.29249,-1.75928 -0.87891,-2.3457 -0.58642,-0.58642 -1.36833,-0.88086 -2.3457,-0.88086 -0.58643,0 -1.36833,0.48943 -2.34571,1.4668 -2.34569,2.15021 -5.96275,3.22461 -10.84961,3.22461 -3.12758,0 -5.76579,-1.26938 -7.91601,-3.81055 -1.95474,-2.54117 -2.83415,-5.86379 -2.63867,-9.96875 l 1.46484,-70.37109 c 0.19548,-7.42803 -2.05276,-13.5858 -6.74414,-18.47266 -4.49591,-5.08233 -10.26175,-7.62305 -17.29883,-7.62305 z m 0,71.83594 c 1.17285,0 1.95476,0.48943 2.34571,1.4668 0.39094,0.97737 0.48844,2.54119 0.29296,4.6914 l -0.58593,14.36719 c -0.19548,3.71401 -0.6849,6.44972 -1.4668,8.20899 -0.58642,1.56379 -1.36833,2.83512 -2.3457,3.8125 -2.15022,2.15021 -4.59344,3.90902 -7.33008,5.27734 -2.73664,1.17285 -6.05927,1.75977 -9.96875,1.75977 -3.51854,-10e-6 -6.84116,-1.27134 -9.96875,-3.8125 -2.93212,-2.73665 -4.39844,-6.64619 -4.39844,-11.72852 0,-3.32306 1.9538,-6.93817 5.86328,-10.84766 4.10496,-4.10496 11.33908,-8.0145 21.69922,-11.72851 1.5638,-0.58643 2.83318,-0.97836 3.81055,-1.17383 0.97737,-0.19547 1.66178,-0.29297 2.05273,-0.29297 z"
       style="font-style:normal;font-variant:normal;font-weight:normal;font-stretch:normal;font-size:77.57886505px;line-height:1.25;font-family:'EB Garamond';-inkscape-font-specification:'EB Garamond';letter-spacing:0px;word-spacing:0px;fill-opacity:1;stroke:none;stroke-width:0.99999994" />
  </g>
</svg>
