<?xml version="1.0" encoding="UTF-8" standalone="no"?>
<!-- Created with Inkscape (http://www.inkscape.org/) -->

<svg
   xmlns:dc="http://purl.org/dc/elements/1.1/"
   xmlns:cc="http://creativecommons.org/ns#"
   xmlns:rdf="http://www.w3.org/1999/02/22-rdf-syntax-ns#"
   xmlns:svg="http://www.w3.org/2000/svg"
   xmlns="http://www.w3.org/2000/svg"
   xmlns:sodipodi="http://sodipodi.sourceforge.net/DTD/sodipodi-0.dtd"
   xmlns:inkscape="http://www.inkscape.org/namespaces/inkscape"
   viewBox="0 0 95.887681 52.598854"
   version="1.1"
   id="letraC"
   inkscape:version="0.92.5 (2060ec1f9f, 2020-04-08)"
   sodipodi:docname="C.svg">
  <defs
     id="defs2" />
  <sodipodi:namedview
     id="base"
     pagecolor="#ffffff"
     bordercolor="#666666"
     borderopacity="1.0"
     inkscape:pageopacity="0.0"
     inkscape:pageshadow="2"
     inkscape:zoom="1.1176863"
     inkscape:cx="174.84939"
     inkscape:cy="64.208523"
     inkscape:document-units="mm"
     inkscape:current-layer="layer1"
     showgrid="false"
     fit-margin-top="0"
     fit-margin-left="0"
     fit-margin-right="0"
     fit-margin-bottom="0"
     inkscape:window-width="1440"
     inkscape:window-height="828"
     inkscape:window-x="0"
     inkscape:window-y="0"
     inkscape:window-maximized="1" />
  <metadata
     id="metadata5">
    <rdf:RDF>
      <cc:Work
         rdf:about="">
        <dc:format>image/svg+xml</dc:format>
        <dc:type
           rdf:resource="http://purl.org/dc/dcmitype/StillImage" />
        <dc:title></dc:title>
      </cc:Work>
    </rdf:RDF>
  </metadata>
  <g
     inkscape:label="Capa 1"
     inkscape:groupmode="layer"
     id="layer1"
     transform="translate(-55.679714,-110.86512)">
    <path
       style="font-style:normal;font-variant:normal;font-weight:normal;font-stretch:normal;font-size:77.57886505px;line-height:1.25;font-family:'EB Garamond';-inkscape-font-specification:'EB Garamond';letter-spacing:0px;word-spacing:0px;fill-opacity:1;stroke:none;stroke-width:0.99999994"
       d="m 145.12109,34.097656 c -15.05152,0 -29.41836,2.542668 -43.10156,7.625 C 88.531804,46.609514 76.510691,53.547244 65.955078,62.539062 55.399466,71.530881 47.090953,82.087624 41.03125,94.207031 c -6.059703,12.119409 -9.089844,25.314359 -9.089844,39.583989 0,14.85604 2.835152,28.44097 8.503906,40.75586 5.86423,12.1194 13.780811,22.5767 23.75,31.37304 9.96919,8.60087 21.305889,15.24807 34.011719,19.93946 12.705829,4.69138 25.900779,7.0371 39.583989,7.0371 9.57824,0 19.35307,-0.68441 29.32226,-2.05273 10.16467,-1.36832 18.86316,-3.51906 26.0957,-6.45117 3.12759,-0.97737 5.08139,-1.85678 5.86329,-2.63867 0.97737,-0.7819 2.15121,-2.54071 3.51953,-5.27735 1.17284,-2.93211 2.34473,-6.25669 3.51758,-9.9707 1.36832,-3.90949 2.44271,-7.52459 3.2246,-10.84766 0.7819,-3.51853 1.17383,-6.05925 1.17383,-7.62304 0,-3.12759 -1.36883,-4.69141 -4.10547,-4.69141 -2.54116,0 -4.49496,1.26938 -5.86328,3.81055 -6.45065,11.53298 -14.26974,20.52591 -23.45703,26.97656 -9.18729,6.45065 -20.81843,9.67578 -34.89258,9.67578 -12.1194,0 -23.16362,-2.73766 -33.13281,-8.21094 -9.773715,-5.66875 -18.277216,-13.09591 -25.509765,-22.2832 -7.037075,-9.38277 -12.510436,-19.84202 -16.419922,-31.375 -3.714012,-11.53298 -5.570312,-23.25966 -5.570312,-35.18359 0,-10.75109 1.953795,-21.11285 5.863281,-31.082035 3.909486,-9.96919 9.285352,-18.862668 16.126953,-26.681641 7.037075,-8.014446 15.345587,-14.269716 24.923825,-18.765625 9.77372,-4.691383 20.32851,-7.037109 31.66602,-7.037109 8.01445,0 15.44355,0.879403 22.28516,2.638672 7.03707,1.563794 12.9979,4.007015 17.88476,7.330078 5.08233,3.518538 8.89438,8.015001 11.43555,13.488281 2.54116,5.277807 4.7894,11.63057 6.74414,19.058594 0.58642,2.150217 1.66081,3.421551 3.22461,3.8125 1.75927,0.390949 3.32308,0.19596 4.6914,-0.585937 1.5638,-0.977372 2.24821,-2.151212 2.05274,-3.519532 -0.19548,-7.623498 -0.58545,-13.976262 -1.17188,-19.058594 -0.58642,-5.277806 -1.07585,-10.164247 -1.46679,-14.660156 -0.19548,-2.73664 -0.97739,-4.887377 -2.34571,-6.451172 -1.17284,-1.563794 -3.22609,-2.735681 -6.1582,-3.517578 -6.64613,-1.759269 -12.50946,-3.128097 -17.5918,-4.105468 -4.88685,-1.172846 -9.97024,-2.052249 -15.24804,-2.638672 -5.27781,-0.586423 -11.72807,-0.88086 -19.35157,-0.88086 z m 212.28516,73.009764 c -11.33751,0 -21.69731,3.12764 -31.08008,9.38281 -9.38276,6.05971 -16.90937,14.27073 -22.57812,24.63086 -5.47328,10.36014 -8.20899,21.89183 -8.20899,34.59766 0,10.75109 2.24823,20.52592 6.74414,29.32227 4.69139,8.60087 10.94666,15.4411 18.76563,20.52343 8.01444,4.88686 16.90792,7.33203 26.68164,7.33203 6.0597,0 11.63056,-0.68441 16.71289,-2.05273 5.27781,-1.36832 10.06675,-3.42156 14.36719,-6.1582 4.30043,-2.93212 8.01499,-6.35224 11.14257,-10.26172 1.5638,-1.95474 2.63819,-3.61606 3.22461,-4.98438 0.7819,-1.56379 1.17383,-2.93262 1.17383,-4.10547 0,-2.73664 -1.07634,-4.10546 -3.22656,-4.10546 -0.39095,0 -0.87842,0.19498 -1.46484,0.58593 -0.58643,0.19548 -1.07585,0.48991 -1.4668,0.88086 -4.69138,4.69139 -9.09035,8.01401 -13.19531,9.96875 -4.10496,1.75927 -8.9914,2.63867 -14.66016,2.63867 -8.20992,0 -15.73457,-2.15073 -22.57617,-6.45117 -6.64613,-4.30043 -12.02199,-10.16377 -16.12695,-17.59179 -3.90949,-7.42803 -5.86524,-15.73654 -5.86524,-24.92383 0,-14.4651 2.93265,-26.09428 8.79688,-34.89063 6.0597,-8.99182 13.87879,-13.48828 23.45703,-13.48828 3.51854,0 7.9175,1.46632 13.19531,4.39844 5.27781,2.93211 10.06675,6.05975 14.36719,9.38281 1.17284,0.7819 2.24724,1.56381 3.22461,2.3457 0.97737,0.58643 1.95427,0.87891 2.93164,0.87891 1.75927,0 3.61752,-0.58692 5.57226,-1.75977 1.95475,-1.36832 3.61606,-3.02963 4.98438,-4.98437 1.36832,-1.95474 2.05273,-3.71355 2.05273,-5.27734 0,-1.95475 -1.17384,-3.81105 -3.51953,-5.57032 -9.57824,-6.8416 -20.71995,-10.26367 -33.42578,-10.26367 z"
       transform="matrix(0.26458333,0,0,0.26458333,47.22855,101.84345)"
       id="text12"
       inkscape:connector-curvature="0" />
  </g>
</svg>
