<?xml version="1.0" encoding="UTF-8" standalone="no"?>
<!-- Created with Inkscape (http://www.inkscape.org/) -->

<svg
   xmlns:dc="http://purl.org/dc/elements/1.1/"
   xmlns:cc="http://creativecommons.org/ns#"
   xmlns:rdf="http://www.w3.org/1999/02/22-rdf-syntax-ns#"
   xmlns:svg="http://www.w3.org/2000/svg"
   xmlns="http://www.w3.org/2000/svg"
   xmlns:sodipodi="http://sodipodi.sourceforge.net/DTD/sodipodi-0.dtd"
   xmlns:inkscape="http://www.inkscape.org/namespaces/inkscape"
   viewBox="0 0 84.716265 51.822678"
   version="1.1"
   id="letraE"
   inkscape:version="0.92.5 (2060ec1f9f, 2020-04-08)"
   sodipodi:docname="E.svg">
  <defs
     id="defs2" />
  <sodipodi:namedview
     id="base"
     pagecolor="#ffffff"
     bordercolor="#666666"
     borderopacity="1.0"
     inkscape:pageopacity="0.0"
     inkscape:pageshadow="2"
     inkscape:zoom="1.1176863"
     inkscape:cx="149.80727"
     inkscape:cy="154.79424"
     inkscape:document-units="mm"
     inkscape:current-layer="layer1"
     showgrid="false"
     fit-margin-top="0"
     fit-margin-left="0"
     fit-margin-right="0"
     fit-margin-bottom="0"
     inkscape:window-width="1440"
     inkscape:window-height="828"
     inkscape:window-x="0"
     inkscape:window-y="0"
     inkscape:window-maximized="1" />
  <metadata
     id="metadata5">
    <rdf:RDF>
      <cc:Work
         rdf:about="">
        <dc:format>image/svg+xml</dc:format>
        <dc:type
           rdf:resource="http://purl.org/dc/dcmitype/StillImage" />
        <dc:title></dc:title>
      </cc:Work>
    </rdf:RDF>
  </metadata>
  <g
     inkscape:label="Capa 1"
     inkscape:groupmode="layer"
     id="layer1"
     transform="translate(-61.265419,-111.25321)">
    <path
       style="font-style:normal;font-variant:normal;font-weight:normal;font-stretch:normal;font-size:77.57886505px;line-height:1.25;font-family:'EB Garamond';-inkscape-font-specification:'EB Garamond';letter-spacing:0px;word-spacing:0px;fill:#000000;fill-opacity:1;"
       d="m 63.609375,35.564453 c -2.541166,0 -4.594409,0.292483 -6.158203,0.878906 -1.563795,0.390949 -2.345703,1.172858 -2.345703,2.345703 0,1.368321 0.781908,2.54216 2.345703,3.519532 1.563794,0.977371 4.007015,1.75928 7.330078,2.345703 7.428024,1.36832 12.511407,3.519057 15.248047,6.451172 2.932114,2.932114 4.398437,7.91605 4.398437,14.953125 V 198.00391 c 0,7.03707 -1.760759,12.1185 -5.279296,15.24609 -3.518538,3.12759 -8.991899,5.37582 -16.419922,6.74414 -6.450652,1.17285 -9.675782,2.93165 -9.675782,5.27734 0,1.17285 0.781909,1.95476 2.345704,2.34571 1.563794,0.58642 3.617037,0.88086 6.158203,0.88086 5.277806,0 9.577327,-0.19695 12.90039,-0.58789 3.323063,-0.19548 6.548193,-0.48796 9.675781,-0.87891 3.127589,-0.19547 6.842144,-0.29297 11.142579,-0.29297 7.428019,0 14.562699,0.0975 21.404299,0.29297 7.03707,0.19547 14.17175,0.39046 21.40429,0.58594 7.23255,0.19547 14.85665,0.39241 22.8711,0.58789 8.01444,0.19547 16.71293,0.29297 26.0957,0.29297 1.17285,0 1.95476,-0.48943 2.3457,-1.4668 0.58643,-0.97737 1.17335,-2.14926 1.75977,-3.51758 1.17285,-2.73664 2.44223,-6.45119 3.81055,-11.14258 1.56379,-4.69138 2.83513,-9.18784 3.8125,-13.48828 0.97737,-4.49591 1.46679,-7.62354 1.46679,-9.38281 0,-1.17285 -0.29443,-2.05225 -0.88086,-2.63867 -0.58642,-0.7819 -1.36833,-1.27132 -2.3457,-1.4668 -0.97737,-0.19547 -1.85677,0.099 -2.63867,0.88086 -0.7819,0.7819 -1.46631,1.7588 -2.05274,2.93164 -3.12758,5.86423 -5.96078,10.55568 -8.50195,14.07422 -2.34569,3.51854 -5.08335,6.35369 -8.21094,8.50391 -3.12758,1.95474 -6.84214,3.32161 -11.14257,4.10351 -4.10496,0.58642 -9.28389,0.88086 -15.53907,0.88086 h -21.69726 c -6.64613,0 -11.53452,-1.36883 -14.66211,-4.10547 -3.12759,-2.93211 -4.69141,-8.11299 -4.69141,-15.54101 v -56.29493 c 0,-3.32306 0.78191,-5.3763 2.34571,-6.1582 1.75926,-0.97737 4.30193,-1.4668 7.625,-1.4668 h 27.26757 c 3.90949,0 6.84214,1.07635 8.79688,3.22657 1.95474,2.15021 3.51856,5.47284 4.69141,9.96875 1.56379,6.25518 3.81202,9.38281 6.74414,9.38281 1.17284,0 1.85726,-0.48943 2.05273,-1.4668 0.39095,-0.97737 0.58594,-2.14925 0.58594,-3.51757 0,-0.7819 -0.0975,-2.64016 -0.29297,-5.57227 0,-2.93212 -0.0975,-5.9603 -0.29297,-9.08789 v -7.91797 c 0,-1.56379 0.0975,-3.81203 0.29297,-6.74414 0.19547,-2.93212 0.29297,-5.76531 0.29297,-8.50195 0.19547,-2.73664 0.29297,-4.4974 0.29297,-5.2793 0,-1.5638 -0.48943,-2.73568 -1.4668,-3.51758 -0.7819,-0.7819 -1.56381,-1.17187 -2.3457,-1.17187 -2.3457,0 -4.1045,2.14878 -5.27735,6.44921 -1.36832,5.47329 -3.12712,9.28533 -5.27734,11.43555 -2.15022,1.95474 -6.05976,2.93164 -11.72852,2.93164 h -29.02734 c -1.36832,0 -2.63965,-0.58496 -3.8125,-1.75781 -0.97737,-1.36832 -1.4668,-2.93214 -1.4668,-4.69141 V 55.208984 c 0,-2.73664 1.36883,-4.984871 4.10547,-6.74414 2.73664,-1.759269 4.88738,-2.638672 6.45117,-2.638672 h 38.41016 c 3.71401,0 7.23358,0.58692 10.55664,1.759766 3.32306,0.977371 6.3532,3.030614 9.08984,6.158203 1.36832,1.36832 2.54021,3.614598 3.51758,6.742187 0.97737,2.932115 1.95427,6.059749 2.93164,9.382813 0.39095,0.977371 0.78288,1.75928 1.17383,2.345703 0.39095,0.390948 1.07536,0.58789 2.05274,0.58789 0.97737,0 1.85677,-0.294436 2.63867,-0.880859 0.97737,-0.586423 1.46484,-1.758309 1.46484,-3.517578 0,-3.909486 -0.48747,-8.503444 -1.46484,-13.78125 l -2.93164,-16.419922 c -0.19548,-0.977372 -0.87989,-1.661786 -2.05274,-2.052734 -1.17284,-0.390949 -2.24919,-0.585938 -3.22656,-0.585938 -0.7819,0 -3.5176,0.0975 -8.20899,0.292969 -4.4959,0 -10.06676,0.09749 -16.71289,0.292969 -6.0597,0 -12.7069,0.09749 -19.93945,0.292968 H 115.50781 97.621094 C 92.734236,36.247885 87.652806,36.052896 82.375,35.857422 77.292668,35.661948 71.037399,35.564453 63.609375,35.564453 Z M 331.60352,105.64258 c -10.16467,0 -19.54757,2.8332 -28.14844,8.50195 -8.60087,5.66876 -15.54055,13.19536 -20.81836,22.57813 -5.08233,9.18729 -7.62305,19.4496 -7.62305,30.78711 0,12.70583 2.24823,23.94503 6.74414,33.71875 4.49591,9.57824 10.75118,17.00735 18.76563,22.28515 8.01444,5.27781 17.39735,7.91602 28.14844,7.91602 5.2778,0 10.35923,-0.78191 15.24609,-2.34571 4.88686,-1.36832 9.38332,-3.42156 13.48828,-6.1582 4.10496,-2.73664 7.62257,-5.96177 10.55469,-9.67578 3.51854,-4.49591 5.27929,-8.60044 5.27929,-12.31445 0,-1.95475 -0.7819,-2.93164 -2.3457,-2.93164 -0.58642,0 -1.07585,0.19499 -1.4668,0.58593 -0.39094,0.19548 -0.97786,0.7824 -1.75976,1.75977 -3.71401,4.30043 -8.01353,7.62306 -12.90039,9.96875 -4.69139,2.15022 -9.96976,3.22461 -15.83399,3.22461 -8.20992,0 -15.73457,-2.24823 -22.57617,-6.74414 -6.8416,-4.69139 -12.31496,-10.84721 -16.41992,-18.47071 -4.10496,-7.81897 -6.1582,-16.41996 -6.1582,-25.80273 0,-4.30043 0.48942,-7.13559 1.46679,-8.50391 1.17285,-1.56379 3.12664,-2.3457 5.86329,-2.3457 h 61.86718 c 5.86423,0 8.79688,-3.03014 8.79688,-9.08984 0,-7.23255 -1.75881,-13.58532 -5.27735,-19.0586 -3.32306,-5.66875 -8.01451,-10.06577 -14.07421,-13.19336 -6.05971,-3.12758 -12.99939,-4.6914 -20.81836,-4.6914 z m -4.39844,8.50195 c 6.8416,0 12.70689,2.05324 17.59375,6.1582 5.08233,3.90949 7.62305,8.69844 7.62305,14.36719 0,1.95474 -0.19499,3.51856 -0.58594,4.69141 -0.19548,0.97737 -0.7824,1.56429 -1.75977,1.75976 -3.12759,0.58643 -6.35272,0.9764 -9.67578,1.17188 -3.32306,0.19547 -7.3301,0.29297 -12.02148,0.29297 h -26.6836 c -2.34569,0 -3.51758,-0.9769 -3.51758,-2.93164 0,-3.90949 1.46633,-7.81903 4.39844,-11.72852 2.93212,-3.90948 6.64472,-7.13461 11.14063,-9.67578 4.49591,-2.73664 8.99237,-4.10547 13.48828,-4.10547 z"
       transform="matrix(0.26458333,0,0,0.26458333,47.22855,101.84345)"
       id="text12"
       inkscape:connector-curvature="0" />
  </g>
</svg>
