<?xml version="1.0" encoding="UTF-8" standalone="no"?>
<!-- Created with Inkscape (http://www.inkscape.org/) -->

<svg
   xmlns:dc="http://purl.org/dc/elements/1.1/"
   xmlns:cc="http://creativecommons.org/ns#"
   xmlns:rdf="http://www.w3.org/1999/02/22-rdf-syntax-ns#"
   xmlns:svg="http://www.w3.org/2000/svg"
   xmlns="http://www.w3.org/2000/svg"
   xmlns:sodipodi="http://sodipodi.sourceforge.net/DTD/sodipodi-0.dtd"
   xmlns:inkscape="http://www.inkscape.org/namespaces/inkscape"
   viewBox="0 0 69.725937 50.150166"
   version="1.1"
   id="letraG"
   inkscape:version="0.92.5 (2060ec1f9f, 2020-04-08)"
   sodipodi:docname="G.svg">
  <defs
     id="defs2" />
  <sodipodi:namedview
     id="base"
     pagecolor="#ffffff"
     bordercolor="#666666"
     borderopacity="1.0"
     inkscape:pageopacity="0.0"
     inkscape:pageshadow="2"
     inkscape:zoom="3.9637766"
     inkscape:cx="74.491375"
     inkscape:cy="91.210329"
     inkscape:document-units="mm"
     inkscape:current-layer="layer1"
     showgrid="false"
     fit-margin-top="0"
     fit-margin-left="0"
     fit-margin-right="0"
     fit-margin-bottom="0"
     inkscape:window-width="1440"
     inkscape:window-height="828"
     inkscape:window-x="0"
     inkscape:window-y="0"
     inkscape:window-maximized="1"
     showguides="true"
     inkscape:guide-bbox="true"
     inkscape:snap-grids="true"
     inkscape:snap-bbox="true"
     inkscape:bbox-paths="true"
     inkscape:snap-bbox-edge-midpoints="true">
    <inkscape:grid
       type="xygrid"
       id="grid150"
       originx="-21.360985"
       originy="-4.0894083" />
  </sodipodi:namedview>
  <metadata
     id="metadata5">
    <rdf:RDF>
      <cc:Work
         rdf:about="">
        <dc:format>image/svg+xml</dc:format>
        <dc:type
           rdf:resource="http://purl.org/dc/dcmitype/StillImage" />
        <dc:title />
      </cc:Work>
    </rdf:RDF>
  </metadata>
  <g
     inkscape:label="Capa 1"
     inkscape:groupmode="layer"
     id="layer1"
     transform="translate(-68.589537,-118.246)">
    <path
       style="font-style:normal;font-variant:normal;font-weight:normal;font-stretch:normal;font-size:52.62347031px;line-height:1.25;font-family:'EB Garamond';-inkscape-font-specification:'EB Garamond';letter-spacing:0px;word-spacing:0px;fill-opacity:1;stroke:none;stroke-width:0.99999994"
       d="M 73.191406 0 C 63.246813 0 53.833055 1.7890872 44.949219 5.3691406 C 36.197977 8.949194 28.442011 13.92257 21.679688 20.287109 C 14.917364 26.651649 9.6128207 34.076447 5.7675781 42.5625 C 1.9223356 51.048553 0 60.197767 0 70.009766 C 0 79.158791 1.8557114 87.710341 5.5683594 95.666016 C 9.2810074 103.4891 14.321007 110.31818 20.685547 116.15234 C 27.182681 121.9865 34.540855 126.56209 42.761719 129.87695 C 51.115177 133.05922 59.8666 134.65039 69.015625 134.65039 C 75.380164 134.65039 81.213795 133.9861 86.517578 132.66016 C 91.821361 131.46681 96.52824 130.00889 100.63867 128.28516 C 104.7491 126.56143 108.13131 125.03688 110.7832 123.71094 C 113.56769 122.2524 115.4234 121.45681 116.35156 121.32422 C 117.8101 121.05903 118.60569 120.52799 118.73828 119.73242 C 119.00347 118.80426 119.13672 118.0753 119.13672 117.54492 C 119.13672 117.01454 118.80555 116.4835 118.14258 115.95312 C 117.47961 115.42275 116.94856 114.82704 116.55078 114.16406 C 116.28559 113.50109 116.02105 112.97005 115.75586 112.57227 C 115.49067 112.17448 115.35742 111.64539 115.35742 110.98242 L 115.35742 105.61133 C 115.35742 103.09203 115.42405 100.70528 115.55664 98.451172 C 115.68924 96.197064 115.95378 93.612393 116.35156 90.695312 C 116.74935 88.043421 117.47831 85.987837 118.53906 84.529297 C 119.73241 82.938162 121.788 81.744786 124.70508 80.949219 C 125.23546 80.816624 126.03104 80.418832 127.0918 79.755859 C 128.28515 79.092887 128.88281 78.297303 128.88281 77.369141 C 128.88281 76.043195 128.28515 75.180987 127.0918 74.783203 C 126.03104 74.385419 125.23546 74.1875 124.70508 74.1875 C 121.12502 74.1875 118.14256 74.318795 115.75586 74.583984 C 113.36916 74.849174 110.45137 74.982422 107.00391 74.982422 C 103.42385 74.982422 100.37477 74.915798 97.855469 74.783203 C 95.336172 74.650609 92.882796 74.51736 90.496094 74.384766 C 88.109391 74.252171 85.258224 74.1875 81.943359 74.1875 C 81.412981 74.1875 80.617397 74.518668 79.556641 75.181641 C 78.495884 75.712019 77.964844 76.507603 77.964844 77.568359 C 77.964844 78.496521 78.495884 79.292105 79.556641 79.955078 C 80.617397 80.618051 81.412981 80.949219 81.943359 80.949219 C 83.269305 80.949219 85.258265 81.147138 87.910156 81.544922 C 90.562048 81.942706 93.213343 82.606994 95.865234 83.535156 C 98.517126 84.463318 100.37479 85.656694 101.43555 87.115234 C 101.83333 87.645613 102.09787 88.441197 102.23047 89.501953 C 102.36306 90.430115 102.42969 91.623491 102.42969 93.082031 C 102.42969 94.275382 102.36306 95.533429 102.23047 96.859375 C 102.23047 98.185321 102.16384 99.511945 102.03125 100.83789 L 102.03125 104.61719 C 102.03125 108.06465 101.36891 111.11373 100.04297 113.76562 C 98.849618 116.41752 97.522993 118.4731 96.064453 119.93164 C 94.871102 121.12499 92.417726 122.64954 88.705078 124.50586 C 85.125025 126.36218 79.491266 127.29102 71.800781 127.29102 C 65.171053 127.29102 58.739757 125.96439 52.507812 123.3125 C 46.275868 120.66061 40.70678 116.74931 35.800781 111.57812 C 30.894782 106.40694 26.983487 100.10889 24.066406 92.683594 C 21.149326 85.258298 19.689453 76.838043 19.689453 67.423828 C 19.689453 59.600748 20.882829 52.109326 23.269531 44.949219 C 25.788828 37.789112 29.304285 31.424441 33.8125 25.855469 C 38.45331 20.153902 43.955773 15.711567 50.320312 12.529297 C 56.684852 9.2144326 63.711859 7.5585938 71.402344 7.5585938 C 77.766883 7.5585938 83.136098 8.2209293 87.511719 9.546875 C 91.88734 10.872821 95.336172 12.397364 97.855469 14.121094 C 100.50736 15.712229 102.22982 17.038853 103.02539 18.099609 C 104.61653 19.955933 105.8099 21.678396 106.60547 23.269531 C 107.53363 24.728072 108.39584 26.519112 109.19141 28.640625 C 109.58919 29.833976 110.12023 31.027352 110.7832 32.220703 C 111.44618 33.414054 112.43968 34.009766 113.76562 34.009766 C 114.56119 34.009766 115.22548 33.611974 115.75586 32.816406 C 116.41883 31.888244 116.75 30.961365 116.75 30.033203 C 116.75 27.381312 116.55013 24.198976 116.15234 20.486328 C 115.75456 16.641086 115.29014 12.794461 114.75977 8.9492188 C 114.62717 8.2862459 114.42925 7.8237829 114.16406 7.5585938 C 114.03147 7.16081 113.63368 6.8276891 112.9707 6.5625 C 111.64476 5.8995271 109.25801 5.2371916 105.81055 4.5742188 C 102.49568 3.7786513 98.717636 3.0496916 94.474609 2.3867188 C 90.364178 1.7237459 86.319634 1.1927056 82.341797 0.79492188 C 78.496554 0.26454359 75.445514 0 73.191406 0 z M 218.18359 49.126953 C 212.21684 49.126953 206.58113 50.451624 201.27734 53.103516 C 195.97356 55.755407 191.66447 59.468783 188.34961 64.242188 C 185.16734 68.882997 183.57617 74.318836 183.57617 80.550781 C 183.57617 85.987159 185.10072 91.025206 188.15039 95.666016 C 191.16289 99.933721 194.95841 103.41959 199.51562 106.14258 C 199.12684 106.68413 198.7219 107.17263 198.29492 107.59961 C 197.63195 108.39518 196.57182 109.39063 195.11328 110.58398 C 193.65474 111.64474 191.39928 113.36916 188.34961 115.75586 C 186.75847 117.08181 185.5651 118.33985 184.76953 119.5332 C 184.10656 120.59396 183.77539 121.78734 183.77539 123.11328 C 183.77539 128.15187 186.16214 131.86525 190.93555 134.25195 C 193.42274 135.46194 196.89059 136.48324 201.32031 137.31836 C 198.12998 139.86508 194.99685 142.29338 191.92969 144.59375 C 188.88001 147.11305 186.42664 149.16863 184.57031 150.75977 C 182.3162 152.4835 180.66037 154.53908 179.59961 156.92578 C 178.53885 159.31248 178.00781 162.23028 178.00781 165.67773 C 178.00781 172.97044 181.25677 178.73744 187.75391 182.98047 C 194.38363 187.35609 203.33298 189.54297 214.60352 189.54297 C 220.03989 189.54297 225.34444 188.28492 230.51562 185.76562 C 235.81941 183.37892 240.59291 180.12996 244.83594 176.01953 C 249.07896 171.9091 252.45922 167.33352 254.97852 162.29492 C 257.63041 157.38892 258.95703 152.35088 258.95703 147.17969 C 258.95703 141.08034 255.97262 136.37346 250.00586 133.05859 C 244.0391 129.74373 234.95651 127.75477 222.75781 127.0918 C 217.18884 126.69401 212.48196 126.0983 208.63672 125.30273 C 204.79148 124.50717 201.87368 123.44509 199.88477 122.11914 C 197.89585 120.6606 196.90234 119.00281 196.90234 117.14648 C 196.90234 115.68794 197.89585 114.09678 199.88477 112.37305 C 201.37918 110.97826 203.13784 109.81088 205.15625 108.86523 C 208.58335 110.13328 212.12824 110.7832 215.79688 110.7832 C 221.49844 110.7832 226.73636 109.05879 231.50977 105.61133 C 236.28317 102.16387 240.12784 97.590238 243.04492 91.888672 C 245.962 86.187105 247.41992 79.953729 247.41992 73.191406 C 247.41992 71.998055 247.48655 70.804679 247.61914 69.611328 C 247.75174 68.417977 247.88498 67.357849 248.01758 66.429688 L 248.61328 64.042969 C 249.01106 62.982212 251.00002 62.451172 254.58008 62.451172 L 259.95117 62.451172 C 260.34896 62.451172 260.88 62.120004 261.54297 61.457031 C 262.86891 60.131086 263.53125 58.871086 263.53125 57.677734 C 263.53125 55.688816 262.66904 54.695312 260.94531 54.695312 C 260.01715 54.695312 258.35936 54.828561 255.97266 55.09375 C 253.58595 55.226345 251.59699 55.291016 250.00586 55.291016 C 248.01694 55.291016 246.09461 55.226345 244.23828 55.09375 C 242.38196 54.828561 239.86391 54.230896 236.68164 53.302734 C 233.89715 52.507167 231.04599 51.644959 228.12891 50.716797 C 225.34442 49.65604 222.02884 49.126953 218.18359 49.126953 z M 215.59766 55.09375 C 218.91252 55.09375 221.96356 56.153877 224.74805 58.275391 C 227.66513 60.264309 229.98525 62.982229 231.70898 66.429688 C 233.56531 69.744552 234.49219 73.324679 234.49219 77.169922 C 234.49219 84.727812 232.83635 91.092484 229.52148 96.263672 C 226.20662 101.30227 222.02883 103.82227 216.99023 103.82227 C 213.54278 103.82227 210.36044 102.69356 207.44336 100.43945 C 204.52628 98.052751 202.20615 94.937039 200.48242 91.091797 C 198.75869 87.11396 197.89648 82.804872 197.89648 78.164062 C 197.89648 74.053631 198.69207 70.275584 200.2832 66.828125 C 202.00693 63.380666 204.19576 60.596123 206.84766 58.474609 C 209.63214 56.220502 212.54798 55.09375 215.59766 55.09375 z M 208.56055 138.41406 C 211.14906 138.72686 213.95289 138.99842 216.99023 139.22461 C 224.01775 139.62239 229.72008 140.41798 234.0957 141.61133 C 238.47132 142.80468 241.65366 144.32922 243.64258 146.18555 C 245.76409 148.17447 246.82422 150.62784 246.82422 153.54492 C 246.82422 158.05314 245.89539 162.2956 244.03906 166.27344 C 242.18274 170.38387 239.59807 173.69945 236.2832 176.21875 C 231.5098 179.7988 225.21175 181.58789 217.38867 181.58789 C 210.49375 181.58789 204.65817 179.73218 199.88477 176.01953 C 195.24396 172.43948 192.92383 167.99714 192.92383 162.69336 C 192.92383 157.38958 194.18383 152.88062 196.70312 149.16797 C 199.02105 145.75209 202.98754 142.16668 208.56055 138.41406 z "
       transform="matrix(0.26458333,0,0,0.26458333,68.589537,118.246)"
       id="text12" />
  </g>
</svg>
