<?xml version="1.0" encoding="UTF-8" standalone="no"?>
<!-- Created with Inkscape (http://www.inkscape.org/) -->

<svg
   xmlns:dc="http://purl.org/dc/elements/1.1/"
   xmlns:cc="http://creativecommons.org/ns#"
   xmlns:rdf="http://www.w3.org/1999/02/22-rdf-syntax-ns#"
   xmlns:svg="http://www.w3.org/2000/svg"
   xmlns="http://www.w3.org/2000/svg"
   xmlns:sodipodi="http://sodipodi.sourceforge.net/DTD/sodipodi-0.dtd"
   xmlns:inkscape="http://www.inkscape.org/namespaces/inkscape"
   viewBox="0 0 73.70092 35.71875"
   version="1.1"
   id="letraH"
   inkscape:version="0.92.5 (2060ec1f9f, 2020-04-08)"
   sodipodi:docname="H.svg">
  <defs
     id="defs2" />
  <sodipodi:namedview
     id="base"
     pagecolor="#ffffff"
     bordercolor="#666666"
     borderopacity="1.0"
     inkscape:pageopacity="0.0"
     inkscape:pageshadow="2"
     inkscape:zoom="2.8028133"
     inkscape:cx="140.21113"
     inkscape:cy="29.334821"
     inkscape:document-units="mm"
     inkscape:current-layer="layer1"
     showgrid="false"
     fit-margin-top="0"
     fit-margin-left="0"
     fit-margin-right="0"
     fit-margin-bottom="0"
     inkscape:window-width="1440"
     inkscape:window-height="828"
     inkscape:window-x="0"
     inkscape:window-y="0"
     inkscape:window-maximized="1"
     showguides="true"
     inkscape:guide-bbox="true"
     inkscape:snap-grids="true"
     inkscape:snap-bbox="true"
     inkscape:bbox-paths="true"
     inkscape:snap-bbox-edge-midpoints="true">
    <inkscape:grid
       type="xygrid"
       id="grid150"
       originx="-19.373488"
       originy="-19.843747" />
  </sodipodi:namedview>
  <metadata
     id="metadata5">
    <rdf:RDF>
      <cc:Work
         rdf:about="">
        <dc:format>image/svg+xml</dc:format>
        <dc:type
           rdf:resource="http://purl.org/dc/dcmitype/StillImage" />
        <dc:title></dc:title>
      </cc:Work>
    </rdf:RDF>
  </metadata>
  <g
     inkscape:label="Capa 1"
     inkscape:groupmode="layer"
     id="layer1"
     transform="translate(-66.602042,-116.92308)">
    <path
       style="font-style:normal;font-variant:normal;font-weight:normal;font-stretch:normal;font-size:50.30809021px;line-height:1.25;font-family:'EB Garamond';-inkscape-font-specification:'EB Garamond';letter-spacing:0px;word-spacing:0px;fill-opacity:1;stroke:none;stroke-width:0.99999994"
       d="m 288.08008,60 c -0.25352,0 -0.63358,0.127338 -1.14063,0.380859 -2.02817,0.887324 -4.37318,1.837479 -7.03515,2.851563 -2.66197,0.887324 -5.25971,1.712093 -7.79492,2.472656 -2.40846,0.760563 -4.50075,1.456041 -6.2754,2.089844 -1.01408,0.380282 -1.52148,1.142358 -1.52148,2.283203 0,1.521127 0.57205,2.408588 1.71289,2.662109 3.29577,0.507043 5.51345,2.089982 6.6543,4.751954 1.14084,2.53521 1.71093,5.514965 1.71093,8.9375 v 95.259762 c -0.12676,2.53521 -1.07691,4.31014 -2.85156,5.32422 -1.64788,1.01409 -3.42281,1.83886 -5.32422,2.47266 -2.91549,0.88732 -4.37304,1.90017 -4.37304,3.04101 0,1.39437 1.26752,2.0918 3.80273,2.0918 2.53521,0 4.50017,-0.12538 5.89453,-0.37891 1.52113,-0.12676 2.91599,-0.25409 4.1836,-0.38085 1.39436,-0.12677 3.16733,-0.18946 5.32226,-0.18946 2.28169,0 3.99392,0.0627 5.13477,0.18946 1.14084,0.12676 2.34567,0.25409 3.61328,0.38085 1.2676,0.25353 3.16791,0.37891 5.70312,0.37891 2.53521,0 3.80274,-0.69743 3.80274,-2.0918 0,-0.76056 -0.38006,-1.33065 -1.14063,-1.71093 -0.6338,-0.50705 -1.6486,-0.9498 -3.04297,-1.33008 -1.9014,-0.6338 -3.61168,-1.45857 -5.13281,-2.47266 -1.39436,-1.01408 -2.15449,-2.78901 -2.28125,-5.32422 V 143.0918 c 0,-3.92958 0.31542,-6.782 0.94922,-8.55664 0.76056,-1.77465 2.15543,-3.48493 4.18359,-5.13282 1.77465,-1.39436 4.24701,-2.40916 7.41602,-3.04296 3.16901,-0.76057 5.95678,-1.14063 8.36523,-1.14063 2.78874,0 5.51577,0.76012 8.17774,2.28125 2.66197,1.52113 4.87965,3.61342 6.6543,6.27539 1.9014,2.53521 2.85156,5.38567 2.85156,8.55469 v 38.78906 c 0,2.53521 -0.76013,4.43747 -2.28125,5.70508 -1.52113,1.14084 -3.23336,2.02831 -5.13477,2.66211 -1.39436,0.50704 -2.47186,0.94979 -3.23242,1.33008 -0.76056,0.25352 -1.14062,0.82361 -1.14062,1.71093 0,1.39437 1.26752,2.0918 3.80273,2.0918 2.53521,0 4.43747,-0.12538 5.70508,-0.37891 1.39436,-0.12676 2.72458,-0.25409 3.99219,-0.38085 1.2676,-0.12677 2.97983,-0.18946 5.13476,-0.18946 2.28169,0 3.99197,0.0627 5.13281,0.18946 l 3.80274,0.38085 c 1.39436,0.25353 3.35932,0.37891 5.89453,0.37891 2.53521,0 3.80273,-0.69743 3.80273,-2.0918 0,-0.76056 -0.38006,-1.33065 -1.14062,-1.71093 -0.76056,-0.50705 -1.83806,-0.9498 -3.23242,-1.33008 -1.90141,-0.6338 -3.67633,-1.52127 -5.32422,-2.66211 -1.64789,-1.26761 -2.4707,-3.16987 -2.4707,-5.70508 v -39.92969 c -10e-6,-7.47887 -2.0923,-13.62646 -6.2754,-18.44336 -4.05633,-4.94366 -9.18912,-7.41601 -15.40039,-7.41601 -3.92957,0 -7.73214,0.69743 -11.4082,2.0918 -3.67606,1.39436 -7.03587,3.04195 -10.07812,4.94335 -2.9155,1.77465 -5.38785,3.42419 -7.41602,4.94532 -0.50704,-0.88733 -0.8871,-1.77479 -1.14063,-2.66211 -0.12676,-0.88733 -0.18945,-2.34488 -0.18945,-4.37305 V 87.189453 c 0,-6.845069 0.12539,-11.977856 0.37891,-15.400391 0.25352,-3.422534 0.5082,-5.832196 0.76172,-7.226562 0.38028,-1.394366 0.57031,-2.471859 0.57031,-3.232422 0,-0.380282 -0.12734,-0.695698 -0.38086,-0.949219 C 288.77773,60.127338 288.46036,60 288.08008,60 Z M 80.066406,69.886719 c -1.901408,0 -3.294317,0.254676 -4.18164,0.761719 -0.887324,0.380281 -1.332032,0.950374 -1.332032,1.710937 0,1.521127 2.092293,2.661312 6.275391,3.421875 4.816901,0.887324 7.669317,2.282186 8.556641,4.183594 1.014084,1.774647 1.519531,4.879787 1.519531,9.316406 v 85.94336 c 0,4.56338 -0.760124,7.8605 -2.28125,9.88867 -1.394366,2.02817 -4.499506,3.48572 -9.316406,4.37305 -4.056338,0.76056 -6.083985,1.77341 -6.083985,3.04101 0,0.76057 0.505447,1.33261 1.519532,1.71289 1.014084,0.50705 2.346253,0.75977 3.99414,0.75977 3.422535,0 6.147613,-0.12734 8.175781,-0.38086 2.15493,-0.12676 4.119884,-0.25215 5.894532,-0.37891 1.901408,-0.12676 4.183731,-0.1914 6.845703,-0.1914 2.915496,0 5.385896,0.0646 7.414066,0.1914 2.02816,0.12676 4.12046,0.25215 6.27539,0.37891 2.28169,0.25352 5.1341,0.38086 8.55664,0.38086 1.64788,0 2.9781,-0.25272 3.99218,-0.75977 1.01409,-0.38028 1.52149,-0.95232 1.52149,-1.71289 0,-0.88732 -0.5074,-1.52011 -1.52149,-1.90039 -0.88732,-0.38028 -2.40757,-0.76034 -4.5625,-1.14062 -4.30985,-0.76057 -7.92239,-2.53549 -10.83789,-5.32422 -2.91549,-2.91549 -4.37304,-6.338 -4.37304,-10.26758 v -36.12695 c 0,-1.39437 0.31541,-2.0918 0.94922,-2.0918 h 72.63476 c 0.6338,0 0.95117,0.31737 0.95117,0.95117 v 1.90039 37.07813 c 0,4.05634 -1.20483,7.22612 -3.61328,9.50781 -2.28169,2.15493 -5.45147,3.61248 -9.50781,4.37305 -2.15493,0.38028 -3.73787,0.76034 -4.75195,1.14062 -0.88733,0.38028 -1.33203,1.01307 -1.33203,1.90039 0,0.76057 0.5074,1.33261 1.52148,1.71289 1.01408,0.50705 2.3443,0.75977 3.99219,0.75977 3.42253,0 6.14761,-0.12734 8.17578,-0.38086 2.02817,-0.12676 3.86774,-0.25215 5.51562,-0.37891 1.77465,-0.12676 3.99233,-0.1914 6.6543,-0.1914 2.66197,0 4.81696,0.0646 6.46484,0.1914 1.64789,0.12676 3.42281,0.25215 5.32422,0.37891 1.90141,0.25352 4.5638,0.38086 7.98633,0.38086 1.64789,0 2.9781,-0.25272 3.99219,-0.75977 1.01408,-0.38028 1.52148,-0.95232 1.52148,-1.71289 0,-1.2676 -2.02764,-2.28045 -6.08398,-3.04101 -4.69014,-0.88733 -7.6699,-2.34488 -8.9375,-4.37305 -1.14085,-2.02817 -1.71094,-5.38798 -1.71094,-10.07812 V 89.091797 c 0,-3.676056 0.5074,-6.591165 1.52149,-8.746094 1.01408,-2.154929 3.86454,-3.677129 8.55468,-4.564453 4.1831,-0.760563 6.27539,-1.900748 6.27539,-3.421875 0,-0.760563 -0.5074,-1.330656 -1.52148,-1.710937 -0.88732,-0.507043 -2.21754,-0.761719 -3.99219,-0.761719 -3.42253,0 -5.95758,0.06464 -7.60547,0.191406 -1.64788,0.126761 -3.10544,0.252146 -4.37304,0.378906 h -5.32422 -7.22656 c -2.02817,-0.12676 -4.18316,-0.252145 -6.46485,-0.378906 -2.15493,-0.126761 -4.9427,-0.191406 -8.36523,-0.191406 -3.67606,0 -5.51368,0.824769 -5.51368,2.472656 0,0.887324 0.50741,1.584755 1.52149,2.091797 1.01408,0.507042 2.59702,0.949796 4.75195,1.330078 4.8169,0.887324 8.11403,2.472216 9.88867,4.753906 1.77465,2.28169 2.66211,5.134106 2.66211,8.556641 v 37.078123 c 0,1.52113 -0.4447,2.28125 -1.33203,2.28125 H 108.7793 c -0.50705,0 -1.07909,-0.0646 -1.71289,-0.1914 -0.63381,-0.25353 -0.94922,-0.75897 -0.94922,-1.51954 V 89.28125 c 0,-3.676056 0.95015,-6.591165 2.85156,-8.746094 2.02817,-2.28169 5.38798,-3.866582 10.07813,-4.753906 2.15492,-0.380282 3.73786,-0.823036 4.75195,-1.330078 1.01408,-0.507042 1.52148,-1.204473 1.52148,-2.091797 0,-1.647887 -1.83761,-2.472656 -5.51367,-2.472656 -3.42253,0 -6.14761,0.06464 -8.17578,0.191406 -1.90141,0.126761 -3.73902,0.252146 -5.51367,0.378906 h -6.464846 -6.275391 c -1.647887,-0.12676 -3.42281,-0.252145 -5.324219,-0.378906 -1.901408,-0.126761 -4.563793,-0.191406 -7.986328,-0.191406 z"
       transform="matrix(0.26458333,0,0,0.26458333,47.228548,101.04808)"
       id="text12"
       inkscape:connector-curvature="0" />
  </g>
</svg>
