<?xml version="1.0" encoding="UTF-8" standalone="no"?>
<!-- Created with Inkscape (http://www.inkscape.org/) -->

<svg
   xmlns:dc="http://purl.org/dc/elements/1.1/"
   xmlns:cc="http://creativecommons.org/ns#"
   xmlns:rdf="http://www.w3.org/1999/02/22-rdf-syntax-ns#"
   xmlns:svg="http://www.w3.org/2000/svg"
   xmlns="http://www.w3.org/2000/svg"
   xmlns:sodipodi="http://sodipodi.sourceforge.net/DTD/sodipodi-0.dtd"
   xmlns:inkscape="http://www.inkscape.org/namespaces/inkscape"
   viewBox="0 0 29.879883 26.32"
   version="1.1"
   id="letraX"
   inkscape:version="0.92.5 (2060ec1f9f, 2020-04-08)"
   sodipodi:docname="I.svg"
   width="29.879883"
   height="26.32">
  <defs
     id="defs2" />
  <sodipodi:namedview
     id="base"
     pagecolor="#ffffff"
     bordercolor="#666666"
     borderopacity="1.0"
     inkscape:pageopacity="0.0"
     inkscape:pageshadow="2"
     inkscape:zoom="6.6748815"
     inkscape:cx="15.065159"
     inkscape:cy="-2.0710372"
     inkscape:document-units="mm"
     inkscape:current-layer="layer1"
     showgrid="false"
     fit-margin-top="0"
     fit-margin-left="0"
     fit-margin-right="0"
     fit-margin-bottom="0"
     inkscape:window-width="1440"
     inkscape:window-height="828"
     inkscape:window-x="0"
     inkscape:window-y="0"
     inkscape:window-maximized="1"
     showguides="true"
     inkscape:guide-bbox="true"
     inkscape:snap-grids="true"
     inkscape:snap-bbox="true"
     inkscape:bbox-paths="true"
     inkscape:snap-bbox-edge-midpoints="true">
    <inkscape:grid
       type="xygrid"
       id="grid150"
       originx="-41.364372"
       originy="-22.190606" />
  </sodipodi:namedview>
  <metadata
     id="metadata5">
    <rdf:RDF>
      <cc:Work
         rdf:about="">
        <dc:format>image/svg+xml</dc:format>
        <dc:type
           rdf:resource="http://purl.org/dc/dcmitype/StillImage" />
        <dc:title></dc:title>
      </cc:Work>
    </rdf:RDF>
  </metadata>
  <g
     inkscape:label="Capa 1"
     inkscape:groupmode="layer"
     id="layer1"
     transform="translate(-88.592924,-123.97497)">
    <path
       style="font-style:normal;font-variant:normal;font-weight:normal;font-stretch:normal;font-size:40px;line-height:1.25;font-family:'EB Garamond';-inkscape-font-specification:'EB Garamond';letter-spacing:0px;word-spacing:0px;fill-opacity:1;stroke:none"
       d="M 1.5996094 0 C 1.2529427 0 0.97309896 0.039140626 0.75976562 0.11914062 C 0.54643229 0.17247396 0.43945312 0.27945313 0.43945312 0.43945312 C 0.43945312 0.81278645 0.87976563 1.0802344 1.7597656 1.2402344 C 2.7730989 1.426901 3.4665104 1.7191406 3.8398438 2.1191406 C 4.2398437 2.5191406 4.4394531 3.1858073 4.4394531 4.1191406 L 4.4394531 22.199219 C 4.4394531 23.132552 4.1739583 23.813568 3.640625 24.240234 C 3.1072917 24.666901 2.3336458 24.97349 1.3203125 25.160156 C 0.44031251 25.320156 0 25.560859 0 25.880859 C 0 26.040859 0.10697917 26.145885 0.3203125 26.199219 C 0.53364583 26.279219 0.81348959 26.320312 1.1601562 26.320312 C 1.8801562 26.320313 2.4933333 26.293568 3 26.240234 C 3.5333333 26.213568 4.0395313 26.186823 4.5195312 26.160156 C 5.0261979 26.13349 5.6126302 26.119141 6.2792969 26.119141 C 6.8926302 26.119141 7.4131771 26.13349 7.8398438 26.160156 C 8.2665104 26.186823 8.7068229 26.213568 9.1601562 26.240234 C 9.6401562 26.293568 10.240938 26.320312 10.960938 26.320312 C 11.307604 26.320312 11.587448 26.279219 11.800781 26.199219 C 12.014115 26.145885 12.119141 26.040859 12.119141 25.880859 C 12.119141 25.694193 12.014115 25.54612 11.800781 25.439453 C 11.587448 25.332786 11.254115 25.240156 10.800781 25.160156 C 9.8141146 24.97349 9.0404687 24.666901 8.4804688 24.240234 C 7.9204688 23.813568 7.640625 23.132552 7.640625 22.199219 L 7.640625 4.1191406 C 7.640625 3.1858073 7.8669792 2.5191406 8.3203125 2.1191406 C 8.7736458 1.7191406 9.4938021 1.426901 10.480469 1.2402344 C 10.933802 1.1602344 11.267135 1.0532552 11.480469 0.91992188 C 11.693802 0.78658854 11.800781 0.62611979 11.800781 0.43945312 C 11.800781 0.27945313 11.693802 0.17247396 11.480469 0.11914062 C 11.267135 0.039140626 10.987292 0 10.640625 0 C 9.920625 0 9.3465885 0.012395834 8.9199219 0.0390625 C 8.4932552 0.065729166 8.0940365 0.092473959 7.7207031 0.11914062 L 6.2792969 0.11914062 L 4.7207031 0.11914062 C 4.2940365 0.092473959 3.839375 0.065729166 3.359375 0.0390625 C 2.9060417 0.012395834 2.3196094 0 1.5996094 0 z M 25.800781 1.4394531 C 25.240781 1.4394531 24.759375 1.6390625 24.359375 2.0390625 C 23.986042 2.4123958 23.800781 2.8938021 23.800781 3.4804688 C 23.800781 4.0404687 23.986042 4.5199219 24.359375 4.9199219 C 24.759375 5.2932552 25.240781 5.4804688 25.800781 5.4804688 C 26.387448 5.4804688 26.866901 5.2932552 27.240234 4.9199219 C 27.640234 4.5199219 27.839844 4.0404687 27.839844 3.4804688 C 27.839844 2.8938021 27.640234 2.4123958 27.240234 2.0390625 C 26.866901 1.6390625 26.387448 1.4394531 25.800781 1.4394531 z M 27.359375 8.7597656 C 27.226042 8.7597656 27.040781 8.8523958 26.800781 9.0390625 C 26.454115 9.3057292 25.933568 9.6534115 25.240234 10.080078 C 24.546901 10.480078 23.666276 10.799063 22.599609 11.039062 C 22.359609 11.065729 22.240234 11.226198 22.240234 11.519531 C 22.240234 11.679531 22.266979 11.800859 22.320312 11.880859 C 22.400312 11.960859 22.507292 12.012396 22.640625 12.039062 C 23.333958 12.145729 23.799063 12.479063 24.039062 13.039062 C 24.305729 13.599062 24.439453 14.240938 24.439453 14.960938 L 24.439453 23.640625 C 24.439453 24.120625 24.293333 24.466354 24 24.679688 C 23.706667 24.866354 23.280703 25.026823 22.720703 25.160156 C 22.50737 25.21349 22.293411 25.279375 22.080078 25.359375 C 21.893411 25.439375 21.800781 25.587448 21.800781 25.800781 C 21.800781 25.960781 21.866667 26.065807 22 26.119141 C 22.16 26.199141 22.359609 26.240234 22.599609 26.240234 C 23.132943 26.240234 23.54651 26.21349 23.839844 26.160156 L 24.720703 26.080078 C 25.014036 26.053411 25.38651 26.039062 25.839844 26.039062 C 26.319844 26.039062 26.692318 26.053411 26.958984 26.080078 L 27.839844 26.160156 C 28.159844 26.21349 28.573411 26.240234 29.080078 26.240234 C 29.613411 26.240234 29.880859 26.094115 29.880859 25.800781 C 29.880859 25.587448 29.77388 25.439375 29.560547 25.359375 C 29.37388 25.279375 29.172318 25.21349 28.958984 25.160156 C 28.425651 25.026823 27.999687 24.853958 27.679688 24.640625 C 27.386354 24.427292 27.240234 24.093958 27.240234 23.640625 L 27.240234 14.359375 C 27.240234 13.746042 27.266979 13.066979 27.320312 12.320312 C 27.373646 11.546979 27.427135 10.853568 27.480469 10.240234 C 27.560469 9.6002344 27.599609 9.1742708 27.599609 8.9609375 C 27.599609 8.8276042 27.519375 8.7597656 27.359375 8.7597656 z "
       transform="translate(88.592924,123.97497)"
       id="text816" />
  </g>
</svg>
