<?xml version="1.0" encoding="UTF-8" standalone="no"?>
<!-- Created with Inkscape (http://www.inkscape.org/) -->

<svg
   xmlns:dc="http://purl.org/dc/elements/1.1/"
   xmlns:cc="http://creativecommons.org/ns#"
   xmlns:rdf="http://www.w3.org/1999/02/22-rdf-syntax-ns#"
   xmlns:svg="http://www.w3.org/2000/svg"
   xmlns="http://www.w3.org/2000/svg"
   xmlns:sodipodi="http://sodipodi.sourceforge.net/DTD/sodipodi-0.dtd"
   xmlns:inkscape="http://www.inkscape.org/namespaces/inkscape"
   viewBox="0 0 49.201129 35.71875"
   version="1.1"
   id="letraL"
   inkscape:version="0.92.5 (2060ec1f9f, 2020-04-08)"
   sodipodi:docname="L.svg">
  <defs
     id="defs2" />
  <sodipodi:namedview
     id="base"
     pagecolor="#ffffff"
     bordercolor="#666666"
     borderopacity="1.0"
     inkscape:pageopacity="0.0"
     inkscape:pageshadow="2"
     inkscape:zoom="1.5806471"
     inkscape:cx="118.32715"
     inkscape:cy="18.169465"
     inkscape:document-units="mm"
     inkscape:current-layer="layer1"
     showgrid="false"
     fit-margin-top="0"
     fit-margin-left="0"
     fit-margin-right="0"
     fit-margin-bottom="0"
     inkscape:window-width="1440"
     inkscape:window-height="828"
     inkscape:window-x="0"
     inkscape:window-y="0"
     inkscape:window-maximized="1"
     showguides="true"
     inkscape:guide-bbox="true"
     inkscape:snap-grids="true"
     inkscape:snap-bbox="true"
     inkscape:bbox-paths="true"
     inkscape:snap-bbox-edge-midpoints="true">
    <inkscape:grid
       type="xygrid"
       id="grid150"
       originx="-31.623385"
       originy="-19.843746" />
  </sodipodi:namedview>
  <metadata
     id="metadata5">
    <rdf:RDF>
      <cc:Work
         rdf:about="">
        <dc:format>image/svg+xml</dc:format>
        <dc:type
           rdf:resource="http://purl.org/dc/dcmitype/StillImage" />
        <dc:title></dc:title>
      </cc:Work>
    </rdf:RDF>
  </metadata>
  <g
     inkscape:label="Capa 1"
     inkscape:groupmode="layer"
     id="layer1"
     transform="translate(-78.851939,-116.92308)">
    <path
       style="font-style:normal;font-variant:normal;font-weight:normal;font-stretch:normal;font-size:50.30810928px;line-height:1.25;font-family:'EB Garamond';-inkscape-font-specification:'EB Garamond';letter-spacing:0px;word-spacing:0px;fill-opacity:1;stroke:none;stroke-width:0.99999994"
       d="m 293.31055,60 c -0.25352,0 -0.63554,0.127338 -1.14258,0.380859 -2.02817,0.760564 -4.11851,1.583379 -6.27344,2.470703 -2.02817,0.887325 -4.24584,1.774786 -6.6543,2.66211 -2.40845,0.760563 -5.26086,1.520686 -8.55664,2.28125 -0.88732,0.253521 -1.33203,1.015597 -1.33203,2.283203 0,1.394366 0.5074,2.217182 1.52149,2.470703 3.16901,0.633803 5.38669,2.218695 6.65429,4.753906 1.39437,2.408452 2.0918,5.450896 2.0918,9.126954 v 95.830082 c 0,2.53521 -0.88746,4.24744 -2.66211,5.13476 -1.77465,0.76056 -3.61226,1.458 -5.51367,2.0918 -1.01409,0.38028 -2.02888,0.82303 -3.04297,1.33008 -0.88732,0.38028 -1.33008,1.07771 -1.33008,2.09179 0,0.76057 0.44276,1.20527 1.33008,1.33203 1.01409,0.25353 1.83885,0.37891 2.47266,0.37891 2.53521,0 4.50016,-0.12538 5.89453,-0.37891 l 4.18359,-0.38085 c 1.39437,-0.12677 3.16929,-0.18946 5.32422,-0.18946 2.28169,0 4.05466,0.0627 5.32227,0.18946 l 4.18359,0.38085 c 1.52113,0.25353 3.48608,0.37891 5.89453,0.37891 0.6338,0 1.39393,-0.12538 2.28125,-0.37891 1.01409,-0.12676 1.52149,-0.57146 1.52149,-1.33203 0,-1.01408 -0.5074,-1.71151 -1.52149,-2.09179 -0.88732,-0.50705 -1.83748,-0.9498 -2.85156,-1.33008 -1.90141,-0.6338 -3.73902,-1.33124 -5.51367,-2.0918 -1.77465,-0.88732 -2.66211,-2.59955 -2.66211,-5.13476 V 87.189453 c 0,-8.61972 0.19003,-14.767302 0.57031,-18.443359 0.50704,-3.802818 0.75977,-6.275171 0.75977,-7.416016 0,-0.253521 -0.12539,-0.506244 -0.37891,-0.759766 C 293.7541,60.190031 293.56407,60 293.31055,60 Z m -166.56446,9.886719 c -1.64788,0 -2.9781,0.19003 -3.99218,0.570312 -1.01409,0.253521 -1.52149,0.760921 -1.52149,1.521485 0,1.774648 2.09229,3.04217 6.27539,3.802734 3.16902,0.507042 5.57672,1.14178 7.22461,1.902344 1.64789,0.633803 2.78807,1.711295 3.42188,3.232422 0.6338,1.394366 0.95117,3.612042 0.95117,6.654296 v 88.224608 c 0,4.1831 -1.33022,7.29019 -3.99219,9.31836 -2.66197,1.90141 -6.46454,3.35896 -11.4082,4.37305 -0.38028,0.12676 -1.20505,0.44413 -2.47266,0.95117 -1.14084,0.38028 -1.71094,1.1404 -1.71094,2.28125 0,0.6338 0.44276,1.1412 1.33008,1.52148 1.01409,0.50705 2.34626,0.75977 3.99414,0.75977 l 4.37305,-0.38086 c 3.04225,-0.12676 6.52745,-0.25215 10.45703,-0.37891 4.05634,-0.12676 7.66888,-0.1914 10.83789,-0.1914 4.8169,0 9.69696,0.0646 14.64063,0.1914 4.94366,0.12676 10.0784,0.18946 15.40234,0.18946 5.45071,0.12676 11.09089,0.2541 16.92188,0.38086 5.83098,0.12676 11.91587,0.18945 18.2539,0.18945 1.01409,0 1.64882,-0.31737 1.90235,-0.95117 0.38028,-0.6338 0.633,-1.39393 0.75976,-2.28125 0.25352,-2.66197 0.57089,-5.19702 0.95117,-7.60547 0.50705,-2.40845 1.07714,-4.9435 1.71094,-7.60547 0.76056,-2.66197 1.58338,-5.64172 2.4707,-8.9375 v -0.37891 c 0.12676,-0.25352 0.19141,-0.44355 0.19141,-0.57031 0,-0.76056 -0.19003,-1.52264 -0.57031,-2.2832 -0.38028,-0.76056 -0.95038,-1.14063 -1.71094,-1.14063 -0.88732,0 -1.77479,0.76013 -2.66211,2.28125 -0.76056,1.52113 -1.26796,2.66327 -1.52148,3.42383 -1.64789,3.42254 -3.10544,6.02028 -4.37305,7.79492 -1.14085,1.64789 -2.97846,3.55015 -5.51367,5.70508 -1.26761,1.14085 -3.23256,2.28103 -5.89453,3.42188 -2.53522,1.01408 -5.51497,1.52148 -8.9375,1.52148 h -23.57813 c -6.21127,0 -10.20387,-0.95015 -11.97851,-2.85156 -1.77465,-1.90141 -2.66211,-4.81847 -2.66211,-8.74805 V 86.240234 c 0,-3.676057 1.64758,-6.085717 4.94336,-7.226562 3.29577,-1.267606 7.29032,-2.345098 11.98046,-3.232422 2.15493,-0.380282 3.73787,-0.887681 4.75196,-1.521484 1.01408,-0.633803 1.52148,-1.393926 1.52148,-2.28125 0,-0.760564 -0.5074,-1.267964 -1.52148,-1.521485 -1.01409,-0.380282 -2.3443,-0.570312 -3.99219,-0.570312 -3.42254,0 -6.33764,0.06464 -8.74609,0.191406 -2.40845,0.126761 -4.75347,0.252146 -7.03516,0.378906 h -8.17578 -7.03516 c -1.90141,-0.12676 -3.931,-0.252145 -6.08593,-0.378906 -2.02817,-0.126761 -4.75325,-0.191406 -8.17579,-0.191406 z"
       transform="matrix(0.26458333,0,0,0.26458333,47.228548,101.04808)"
       id="text12"
       inkscape:connector-curvature="0" />
  </g>
</svg>
