<?xml version="1.0" encoding="UTF-8" standalone="no"?>
<!-- Created with Inkscape (http://www.inkscape.org/) -->

<svg
   xmlns:dc="http://purl.org/dc/elements/1.1/"
   xmlns:cc="http://creativecommons.org/ns#"
   xmlns:rdf="http://www.w3.org/1999/02/22-rdf-syntax-ns#"
   xmlns:svg="http://www.w3.org/2000/svg"
   xmlns="http://www.w3.org/2000/svg"
   xmlns:sodipodi="http://sodipodi.sourceforge.net/DTD/sodipodi-0.dtd"
   xmlns:inkscape="http://www.inkscape.org/namespaces/inkscape"
   viewBox="0 0 92.415884 33.51149"
   version="1.1"
   id="letraM"
   inkscape:version="0.92.5 (2060ec1f9f, 2020-04-08)"
   sodipodi:docname="M.svg">
  <defs
     id="defs2" />
  <sodipodi:namedview
     id="base"
     pagecolor="#ffffff"
     bordercolor="#666666"
     borderopacity="1.0"
     inkscape:pageopacity="0.0"
     inkscape:pageshadow="2"
     inkscape:zoom="1.1176863"
     inkscape:cx="165.9414"
     inkscape:cy="35.653339"
     inkscape:document-units="mm"
     inkscape:current-layer="layer1"
     showgrid="false"
     fit-margin-top="0"
     fit-margin-left="0"
     fit-margin-right="0"
     fit-margin-bottom="0"
     inkscape:window-width="1440"
     inkscape:window-height="828"
     inkscape:window-x="0"
     inkscape:window-y="0"
     inkscape:window-maximized="1"
     showguides="true"
     inkscape:guide-bbox="true"
     inkscape:snap-grids="true"
     inkscape:snap-bbox="true"
     inkscape:bbox-paths="true"
     inkscape:snap-bbox-edge-midpoints="true">
    <inkscape:grid
       type="xygrid"
       id="grid150"
       originx="-10.01601"
       originy="-19.585917" />
  </sodipodi:namedview>
  <metadata
     id="metadata5">
    <rdf:RDF>
      <cc:Work
         rdf:about="">
        <dc:format>image/svg+xml</dc:format>
        <dc:type
           rdf:resource="http://purl.org/dc/dcmitype/StillImage" />
        <dc:title></dc:title>
      </cc:Work>
    </rdf:RDF>
  </metadata>
  <g
     inkscape:label="Capa 1"
     inkscape:groupmode="layer"
     id="layer1"
     transform="translate(-57.244562,-119.38817)">
    <path
       style="font-style:normal;font-variant:normal;font-weight:normal;font-stretch:normal;font-size:50.30810928px;line-height:1.25;font-family:'EB Garamond';-inkscape-font-specification:'EB Garamond';letter-spacing:0px;word-spacing:0px;fill-opacity:1;stroke:none;stroke-width:0.99999994"
       d="M 152.87305 0 C 150.71812 0 147.48564 0.25272326 143.17578 0.75976562 C 138.99268 1.266808 135.00008 1.5214844 131.19727 1.5214844 L 124.35156 1.5214844 C 123.46424 1.5214844 122.83145 2.3442998 122.45117 3.9921875 C 122.07089 6.0203569 121.56349 8.3653714 120.92969 11.027344 C 120.29588 13.689316 119.66115 16.098976 119.02734 18.253906 L 81.570312 96.210938 C 81.06327 97.098262 80.303147 97.478323 79.289062 97.351562 C 78.274978 97.098041 77.577547 96.527949 77.197266 95.640625 L 47.154297 19.394531 C 46.266973 16.98608 45.50685 14.513727 44.873047 11.978516 C 44.239244 9.4433038 43.606459 7.0355969 42.972656 4.7539062 C 42.719135 3.7398215 42.274428 2.9796986 41.640625 2.4726562 C 41.006822 1.9656139 40.246699 1.7109375 39.359375 1.7109375 C 38.091769 1.7109375 36.126816 1.648245 33.464844 1.5214844 C 30.929632 1.3947238 28.13991 1.2046931 25.097656 0.95117188 C 22.055402 0.69765069 19.204941 0.50761997 16.542969 0.38085938 C 14.007757 0.25409878 12.105497 0.18945312 10.837891 0.18945312 C 8.9364818 0.18945312 7.3515903 0.31679132 6.0839844 0.5703125 C 4.9431391 0.69707309 4.3730469 1.2671653 4.3730469 2.28125 C 4.3730469 3.1685741 4.7531083 3.9933427 5.5136719 4.7539062 C 6.2742354 5.3877092 7.2890347 5.8304632 8.5566406 6.0839844 C 11.472134 6.5910267 14.007179 7.2257646 16.162109 7.9863281 C 18.317039 8.6201311 20.534716 9.8876536 22.816406 11.789062 C 24.084012 12.803147 24.844135 13.880639 25.097656 15.021484 C 25.351177 16.035569 25.543161 17.048415 25.669922 18.0625 C 25.796682 18.949824 25.859375 19.964623 25.859375 21.105469 L 25.859375 24.337891 C 25.859375 29.661835 25.479314 36.506848 24.71875 44.873047 C 24.084947 53.112485 23.197486 62.42985 22.056641 72.824219 C 20.915795 83.091827 19.583627 93.929437 18.0625 105.33789 C 17.428697 109.77451 16.098482 113.19702 14.070312 115.60547 C 12.042143 118.01392 9.4444054 119.53612 6.2753906 120.16992 C 4.1204606 120.5502 2.5355691 120.99296 1.5214844 121.5 C 0.50739965 122.00704 0 122.70447 0 123.5918 C 0 124.35236 0.50739965 124.85976 1.5214844 125.11328 C 2.5355691 125.49356 3.8657842 125.68359 5.5136719 125.68359 C 8.9362078 125.68359 11.471253 125.55626 13.119141 125.30273 C 14.767028 125.17597 16.224582 125.04864 17.492188 124.92188 C 18.759793 124.79511 20.534716 124.73242 22.816406 124.73242 C 25.224857 124.73242 27.062472 124.79511 28.330078 124.92188 C 29.724445 125.04864 31.246644 125.17597 32.894531 125.30273 C 34.66918 125.55626 37.266917 125.68359 40.689453 125.68359 C 42.337341 125.68359 43.669509 125.49356 44.683594 125.11328 C 45.697678 124.85976 46.205078 124.35236 46.205078 123.5918 C 46.205078 122.70447 45.697678 122.00704 44.683594 121.5 C 43.669509 120.99296 42.084618 120.5502 39.929688 120.16992 C 36.000109 119.40936 32.957664 117.63444 30.802734 114.8457 C 28.647804 111.93021 27.570312 108.76043 27.570312 105.33789 C 27.570313 96.71817 27.823036 88.795666 28.330078 81.570312 C 28.83712 74.344959 29.534551 67.057192 30.421875 59.705078 C 31.43596 52.226203 32.513452 44.049023 33.654297 35.175781 C 33.781057 34.541978 34.161119 34.224609 34.794922 34.224609 C 35.428725 34.224609 35.873432 34.541978 36.126953 35.175781 C 43.225546 51.781419 49.563159 67.309058 55.140625 81.759766 C 60.844852 96.083712 66.169618 110.6612 71.113281 125.49219 C 71.366802 126.37951 71.936895 126.76153 72.824219 126.63477 C 73.711543 126.63477 74.281635 126.3174 74.535156 125.68359 L 118.26758 36.507812 C 118.90138 35.240207 119.53612 34.605469 120.16992 34.605469 C 120.80372 34.478708 121.18379 35.113446 121.31055 36.507812 C 121.69083 45.000772 122.07089 52.858631 122.45117 60.083984 C 122.83145 67.182577 123.08418 74.407651 123.21094 81.759766 C 123.46446 89.11188 123.5918 97.351753 123.5918 106.47852 C 123.5918 110.91514 122.89437 114.21226 121.5 116.36719 C 120.10563 118.39536 117.57059 119.66288 113.89453 120.16992 C 111.7396 120.42344 110.15471 120.8662 109.14062 121.5 C 108.12654 122.00704 107.61914 122.70447 107.61914 123.5918 C 107.61914 124.35236 108.12654 124.85976 109.14062 125.11328 C 110.15471 125.49356 111.48688 125.68359 113.13477 125.68359 C 116.5573 125.68359 119.21773 125.55626 121.11914 125.30273 C 123.14731 125.17597 124.98688 125.04864 126.63477 124.92188 C 128.40941 124.79511 130.56244 124.73242 133.09766 124.73242 C 136.01315 124.73242 138.4855 124.79511 140.51367 124.92188 C 142.54184 125.04864 144.63413 125.17597 146.78906 125.30273 C 149.07075 125.55626 151.92317 125.68359 155.3457 125.68359 C 156.99359 125.68359 158.32381 125.49356 159.33789 125.11328 C 160.35198 124.85976 160.85938 124.35236 160.85938 123.5918 C 160.85938 122.70447 160.35198 122.00704 159.33789 121.5 C 158.32381 120.99296 156.73891 120.5502 154.58398 120.16992 C 149.89384 119.2826 146.40864 117.82309 144.12695 115.79492 C 141.84526 113.63999 140.57774 110.5995 140.32422 106.66992 C 139.94394 99.444568 139.49923 92.344879 138.99219 85.373047 C 138.48515 78.401214 138.04239 71.366171 137.66211 64.267578 C 137.28183 57.042224 136.90177 49.562474 136.52148 41.830078 C 136.26796 33.970922 136.14062 25.605663 136.14062 16.732422 C 136.14062 15.338055 136.58533 14.070533 137.47266 12.929688 C 138.35998 11.662082 139.43747 10.77462 140.70508 10.267578 C 142.47973 9.5070146 144.38003 8.7468917 146.4082 7.9863281 C 148.43637 7.2257646 150.27399 6.5283342 151.92188 5.8945312 C 153.82328 5.1339677 155.09081 4.4992299 155.72461 3.9921875 C 156.48517 3.4851451 156.86719 2.7896679 156.86719 1.9023438 C 156.86719 1.0150196 156.35979 0.50761997 155.3457 0.38085938 C 154.33162 0.12733819 153.50685 0 152.87305 0 z M 236.53516 42.972656 C 236.15487 42.972656 235.83751 43.098041 235.58398 43.351562 L 234.82422 43.732422 C 232.54253 45.126788 230.57758 46.457003 228.92969 47.724609 C 227.40856 48.865455 225.63364 49.942947 223.60547 50.957031 C 221.5773 51.844355 218.85222 52.731816 215.42969 53.619141 C 214.4156 53.872662 213.9082 54.634738 213.9082 55.902344 C 213.9082 56.662907 214.03554 57.232999 214.28906 57.613281 C 214.66934 57.993563 215.1121 58.246286 215.61914 58.373047 C 218.91492 58.880089 220.94256 60.464981 221.70312 63.126953 C 222.46369 65.662165 222.8457 68.639964 222.8457 72.0625 L 222.8457 112.94336 C 222.8457 115.47857 221.8936 117.1908 219.99219 118.07812 C 218.21754 118.83869 216.44262 119.53612 214.66797 120.16992 C 213.40036 120.5502 212.32287 120.93027 211.43555 121.31055 C 210.67498 121.69083 210.29492 122.32361 210.29492 123.21094 C 210.29492 124.09826 210.67498 124.66835 211.43555 124.92188 C 212.19611 125.1754 213.08357 125.30273 214.09766 125.30273 C 216.63287 125.30273 218.59782 125.1754 219.99219 124.92188 C 221.51331 124.79511 222.90818 124.66973 224.17578 124.54297 C 225.57015 124.41621 227.34507 124.35156 229.5 124.35156 C 231.78169 124.35156 233.55661 124.41621 234.82422 124.54297 C 236.09182 124.66973 237.42204 124.79511 238.81641 124.92188 C 240.33753 125.1754 242.36518 125.30273 244.90039 125.30273 C 246.04124 125.30273 246.9287 125.1127 247.5625 124.73242 C 248.32306 124.4789 248.70313 123.9715 248.70312 123.21094 C 248.70313 122.19685 248.19768 121.56407 247.18359 121.31055 C 246.29627 120.93027 245.34416 120.5502 244.33008 120.16992 C 242.42867 119.53612 240.59105 118.83869 238.81641 118.07812 C 237.04176 117.1908 236.1543 115.47857 236.1543 112.94336 L 236.1543 73.775391 C 236.1543 67.18384 237.86653 62.619196 241.28906 60.083984 C 243.69751 58.182576 246.23256 56.85236 248.89453 56.091797 C 251.68326 55.331233 254.66106 54.951172 257.83008 54.951172 C 260.61881 54.951172 263.15386 55.838633 265.43555 57.613281 C 267.71724 59.38793 269.55681 61.668298 270.95117 64.457031 C 272.34554 67.119004 273.04102 69.971418 273.04102 73.013672 L 273.04102 112.94336 C 273.04102 115.47857 272.09086 117.1908 270.18945 118.07812 C 268.4148 118.83869 266.57719 119.53612 264.67578 120.16992 L 261.63281 121.31055 C 260.74549 121.56407 260.30273 122.19685 260.30273 123.21094 C 260.30273 123.9715 260.6828 124.4789 261.44336 124.73242 C 262.20392 125.1127 263.09138 125.30273 264.10547 125.30273 C 266.64068 125.30273 268.66833 125.1754 270.18945 124.92188 C 271.71058 124.79511 273.16813 124.66973 274.5625 124.54297 C 275.95687 124.41621 277.73179 124.35156 279.88672 124.35156 C 282.16841 124.35156 283.94333 124.41621 285.21094 124.54297 L 289.39453 124.92188 C 290.91566 125.1754 292.9433 125.30273 295.47852 125.30273 C 296.74612 125.30273 297.69628 125.1127 298.33008 124.73242 C 298.96388 124.4789 299.28125 123.9715 299.28125 123.21094 C 299.28125 122.32361 298.8385 121.69083 297.95117 121.31055 C 297.19061 120.8035 296.17581 120.42344 294.9082 120.16992 C 293.00679 119.66288 291.10453 118.96545 289.20312 118.07812 C 287.30172 117.1908 286.35156 115.47857 286.35156 112.94336 L 286.35156 73.775391 C 286.35156 67.437361 288.12648 62.872717 291.67578 60.083984 C 294.08423 58.182576 296.61928 56.85236 299.28125 56.091797 C 302.06998 55.331233 305.04974 54.951172 308.21875 54.951172 C 311.00748 54.951172 313.54253 55.838633 315.82422 57.613281 C 318.10591 59.38793 319.94352 61.668298 321.33789 64.457031 C 322.73226 67.119004 323.42969 69.971418 323.42969 73.013672 L 323.42969 112.94336 C 323.42969 115.47857 322.54223 117.1908 320.76758 118.07812 C 319.11969 118.96545 317.28208 119.66288 315.25391 120.16992 C 313.9863 120.42344 312.90881 120.73886 312.02148 121.11914 C 311.26092 121.49942 310.88086 122.19685 310.88086 123.21094 C 310.88086 123.9715 311.19628 124.4789 311.83008 124.73242 C 312.59064 125.1127 313.54275 125.30273 314.68359 125.30273 C 317.21881 125.30273 319.24645 125.1754 320.76758 124.92188 C 322.28871 124.79511 323.74626 124.66973 325.14062 124.54297 C 326.53499 124.41621 328.30991 124.35156 330.46484 124.35156 C 332.74653 124.35156 334.45681 124.41621 335.59766 124.54297 C 336.86526 124.66973 338.19743 124.79511 339.5918 124.92188 C 340.98616 125.1754 342.95112 125.30273 345.48633 125.30273 C 346.88069 125.30273 347.83085 125.1127 348.33789 124.73242 C 348.97169 124.4789 349.28906 123.9715 349.28906 123.21094 C 349.28906 122.32361 348.84436 121.69083 347.95703 121.31055 C 347.19647 120.93027 346.18362 120.5502 344.91602 120.16992 C 343.01461 119.53612 341.17504 118.83869 339.40039 118.07812 C 337.62574 117.1908 336.73828 115.47857 336.73828 112.94336 L 336.73828 72.443359 C 336.73828 68.006739 335.97816 63.761417 334.45703 59.705078 C 333.06266 55.648739 330.97233 52.351618 328.18359 49.816406 C 325.39486 47.281194 321.90771 46.013672 317.72461 46.013672 C 311.51334 46.013672 305.81047 47.281194 300.61328 49.816406 C 295.4161 52.351618 290.78876 55.458709 286.73242 59.134766 L 286.16211 59.134766 C 284.13394 54.317863 281.59889 50.958049 278.55664 49.056641 C 275.51439 47.028471 271.71182 46.013672 267.14844 46.013672 C 259.79632 46.013672 253.71143 47.471225 248.89453 50.386719 C 244.20439 53.175452 240.40182 55.965173 237.48633 58.753906 L 237.10547 58.753906 C 236.85195 58.500385 236.72461 57.740262 236.72461 56.472656 C 236.72461 54.698008 236.85195 52.478379 237.10547 49.816406 C 237.48575 47.027673 237.67578 45.190059 237.67578 44.302734 C 237.67578 43.41541 237.29572 42.972656 236.53516 42.972656 z "
       transform="matrix(0.26458333,0,0,0.26458333,57.244562,119.38817)"
       id="text12" />
  </g>
</svg>
