<?xml version="1.0" encoding="UTF-8" standalone="no"?>
<!-- Created with Inkscape (http://www.inkscape.org/) -->

<svg
   xmlns:dc="http://purl.org/dc/elements/1.1/"
   xmlns:cc="http://creativecommons.org/ns#"
   xmlns:rdf="http://www.w3.org/1999/02/22-rdf-syntax-ns#"
   xmlns:svg="http://www.w3.org/2000/svg"
   xmlns="http://www.w3.org/2000/svg"
   xmlns:sodipodi="http://sodipodi.sourceforge.net/DTD/sodipodi-0.dtd"
   xmlns:inkscape="http://www.inkscape.org/namespaces/inkscape"
   viewBox="0 0 74.707466 33.957974"
   version="1.1"
   id="letraN"
   inkscape:version="0.92.5 (2060ec1f9f, 2020-04-08)"
   sodipodi:docname="N.svg">
  <defs
     id="defs2" />
  <sodipodi:namedview
     id="base"
     pagecolor="#ffffff"
     bordercolor="#666666"
     borderopacity="1.0"
     inkscape:pageopacity="0.0"
     inkscape:pageshadow="2"
     inkscape:zoom="1.5806471"
     inkscape:cx="109.60231"
     inkscape:cy="29.564888"
     inkscape:document-units="mm"
     inkscape:current-layer="layer1"
     showgrid="false"
     fit-margin-top="0"
     fit-margin-left="0"
     fit-margin-right="0"
     fit-margin-bottom="0"
     inkscape:window-width="1440"
     inkscape:window-height="828"
     inkscape:window-x="0"
     inkscape:window-y="0"
     inkscape:window-maximized="1"
     showguides="true"
     inkscape:guide-bbox="true"
     inkscape:snap-grids="true"
     inkscape:snap-bbox="true"
     inkscape:bbox-paths="true"
     inkscape:snap-bbox-edge-midpoints="true">
    <inkscape:grid
       type="xygrid"
       id="grid150"
       originx="-18.870217"
       originy="-19.240049" />
  </sodipodi:namedview>
  <metadata
     id="metadata5">
    <rdf:RDF>
      <cc:Work
         rdf:about="">
        <dc:format>image/svg+xml</dc:format>
        <dc:type
           rdf:resource="http://purl.org/dc/dcmitype/StillImage" />
        <dc:title></dc:title>
      </cc:Work>
    </rdf:RDF>
  </metadata>
  <g
     inkscape:label="Capa 1"
     inkscape:groupmode="layer"
     id="layer1"
     transform="translate(-66.098769,-119.28755)">
    <path
       style="font-style:normal;font-variant:normal;font-weight:normal;font-stretch:normal;font-size:50.30810928px;line-height:1.25;font-family:'EB Garamond';-inkscape-font-specification:'EB Garamond';letter-spacing:0px;word-spacing:0px;fill-opacity:1;stroke:none;stroke-width:0.99999994"
       d="M 4.3730469 0 C 3.7392439 0 2.8517828 0.19003073 1.7109375 0.5703125 C 0.57009219 0.82383368 0 1.5212641 0 2.6621094 C 0 3.8029547 0.82476858 4.817754 2.4726562 5.7050781 C 4.2473045 6.4656417 5.3874889 6.9710882 5.8945312 7.2246094 C 11.471997 8.9992576 15.971995 11.344272 19.394531 14.259766 C 22.943828 17.175259 24.71875 21.992626 24.71875 28.710938 C 24.71875 39.105306 24.528719 49.24744 24.148438 59.134766 C 23.768156 68.895331 23.323449 77.767989 22.816406 85.753906 C 22.309364 93.613063 21.801964 99.950676 21.294922 104.76758 C 20.91464 108.69716 19.901794 112.05697 18.253906 114.8457 C 16.606019 117.50768 13.943635 119.34529 10.267578 120.35938 C 8.1126481 120.86642 6.5277566 121.37382 5.5136719 121.88086 C 4.4995872 122.3879 3.9921875 123.08533 3.9921875 123.97266 C 3.9921875 124.73322 4.4995872 125.23867 5.5136719 125.49219 C 6.5277566 125.87247 7.8599248 126.0625 9.5078125 126.0625 C 12.930348 126.0625 15.465394 125.93711 17.113281 125.68359 C 18.761169 125.55683 20.218722 125.42949 21.486328 125.30273 C 22.753934 125.17597 24.528856 125.11328 26.810547 125.11328 C 29.218998 125.11328 31.056613 125.17597 32.324219 125.30273 C 33.718585 125.42949 35.238831 125.55683 36.886719 125.68359 C 38.661367 125.93711 41.261058 126.0625 44.683594 126.0625 C 46.331481 126.0625 47.661697 125.87247 48.675781 125.49219 C 49.689866 125.23867 50.197266 124.73322 50.197266 123.97266 C 50.197266 123.08533 49.689866 122.3879 48.675781 121.88086 C 47.661697 121.37382 46.076805 120.92911 43.921875 120.54883 C 39.231733 119.6615 35.999258 117.7612 34.224609 114.8457 C 32.576722 111.93021 31.753906 108.76043 31.753906 105.33789 C 31.753906 97.478734 31.816599 89.238861 31.943359 80.619141 C 32.07012 71.99942 32.197458 63.634162 32.324219 55.521484 C 32.450979 47.408807 32.578318 40.246425 32.705078 34.035156 C 32.705078 33.274593 32.830463 32.449824 33.083984 31.5625 C 33.337506 30.548415 33.782213 30.042969 34.416016 30.042969 C 34.923058 30.042969 35.49315 30.295692 36.126953 30.802734 C 36.760756 31.183016 37.520879 31.943139 38.408203 33.083984 C 39.042006 33.844548 40.68959 35.874147 43.351562 39.169922 C 46.140295 42.338937 49.562802 46.331535 53.619141 51.148438 C 57.67548 55.838579 62.050093 60.971362 66.740234 66.548828 L 80.810547 83.28125 C 85.500689 88.858716 89.810656 94.056144 93.740234 98.873047 C 97.796573 103.56319 101.09174 107.49309 103.62695 110.66211 C 106.28893 113.83112 107.87382 115.73338 108.38086 116.36719 C 111.42311 120.55029 114.59094 123.59078 117.88672 125.49219 C 121.30925 127.3936 123.59158 128.3457 124.73242 128.3457 C 125.74651 128.3457 126.63397 128.02833 127.39453 127.39453 C 128.28186 126.88749 128.72461 125.61997 128.72461 123.5918 C 128.72461 122.70447 128.66192 121.43695 128.53516 119.78906 C 128.4084 118.01441 128.21836 115.92212 127.96484 113.51367 C 127.83808 110.97846 127.77539 108.19069 127.77539 105.14844 L 127.77539 84.992188 L 127.77539 62.175781 C 127.90215 54.570146 127.96484 47.47241 127.96484 40.880859 L 127.96484 24.527344 C 128.0916 20.217484 128.1543 17.747084 128.1543 17.113281 C 128.40782 13.944266 129.29528 11.661945 130.81641 10.267578 C 132.33753 8.8732116 135.44462 7.7330273 140.13477 6.8457031 C 144.31787 6.0851396 146.4082 4.817617 146.4082 3.0429688 C 146.4082 2.2824052 145.9008 1.7750056 144.88672 1.5214844 C 143.87263 1.1412026 142.54242 0.95117188 140.89453 0.95117188 C 137.09171 0.95117188 134.11196 1.0138644 131.95703 1.140625 C 129.92886 1.2673856 128.02855 1.3947238 126.25391 1.5214844 L 119.02734 1.5214844 L 115.41602 1.5214844 L 111.80273 1.5214844 L 108.18945 1.5214844 C 106.54157 1.5214844 104.83129 1.7115151 103.05664 2.0917969 C 101.28199 2.3453181 100.39453 2.8527177 100.39453 3.6132812 C 100.39453 4.5006054 101.28199 5.2607283 103.05664 5.8945312 C 104.83129 6.5283342 106.79624 7.0357339 108.95117 7.4160156 C 111.1061 7.7962974 113.45112 8.9991743 115.98633 11.027344 C 118.52154 13.055513 119.85176 15.337835 119.97852 17.873047 L 119.97852 43.542969 C 119.97852 51.909168 119.91582 59.704334 119.78906 66.929688 C 119.78906 74.028281 119.72442 80.11317 119.59766 85.183594 L 119.59766 95.259766 C 119.4709 97.921738 118.83811 99.253906 117.69727 99.253906 C 116.9367 99.253906 116.04924 98.746507 115.03516 97.732422 C 114.14783 96.718337 113.4504 95.958214 112.94336 95.451172 C 112.43632 94.817369 110.72604 92.789723 107.81055 89.367188 C 105.02181 85.944652 101.47197 81.634684 97.162109 76.4375 C 92.852249 71.113555 88.16222 65.408727 83.091797 59.324219 C 78.021373 53.11295 72.951283 46.965368 67.880859 40.880859 C 62.810436 34.66959 58.120407 28.964762 53.810547 23.767578 C 49.627447 18.443633 46.077603 14.070973 43.162109 10.648438 C 40.373376 7.099141 38.725792 4.9441573 38.21875 4.1835938 C 37.584947 3.2962696 36.950209 2.5361467 36.316406 1.9023438 C 35.682603 1.2685408 34.795142 0.95117188 33.654297 0.95117188 L 25.289062 0.95117188 C 23.134132 0.82441128 21.16918 0.69707309 19.394531 0.5703125 C 17.619883 0.44355191 15.592238 0.38085938 13.310547 0.38085938 C 11.028856 0.25409878 8.049104 0.12676059 4.3730469 0 z M 217.33008 43.351562 C 216.9498 43.351562 216.56973 43.478901 216.18945 43.732422 C 215.93593 43.859182 215.61856 44.049213 215.23828 44.302734 C 212.57631 46.330904 209.85123 48.168519 207.0625 49.816406 C 204.27377 51.464294 200.66123 52.859155 196.22461 54 C 195.08376 54.126761 194.51367 54.886884 194.51367 56.28125 C 194.51367 57.041814 194.7037 57.611906 195.08398 57.992188 C 195.46427 58.245709 195.90897 58.500385 196.41602 58.753906 C 199.71179 59.64123 201.67674 61.288814 202.31055 63.697266 C 203.07111 66.105717 203.45117 69.020823 203.45117 72.443359 L 203.45117 113.32422 C 203.45117 115.85943 202.56371 117.56971 200.78906 118.45703 C 199.01441 119.34436 197.1768 120.04179 195.27539 120.54883 C 193.88102 120.92911 192.80353 121.30917 192.04297 121.68945 C 191.28241 121.94297 190.90039 122.57771 190.90039 123.5918 C 190.90039 124.35236 191.21776 124.85976 191.85156 125.11328 C 192.61213 125.49356 193.56228 125.68359 194.70312 125.68359 C 197.23834 125.68359 199.20329 125.55626 200.59766 125.30273 C 202.11878 125.17597 203.51364 125.04864 204.78125 124.92188 C 206.17562 124.79511 207.95054 124.73242 210.10547 124.73242 C 212.38716 124.73242 214.16208 124.79511 215.42969 124.92188 C 216.69729 125.04864 218.02751 125.17597 219.42188 125.30273 C 220.943 125.55626 222.9726 125.68359 225.50781 125.68359 C 226.77542 125.68359 227.72557 125.49356 228.35938 125.11328 C 228.99318 124.85976 229.31055 124.35236 229.31055 123.5918 C 229.31055 122.32419 227.85104 121.30939 224.93555 120.54883 C 223.03414 120.04179 221.19652 119.34436 219.42188 118.45703 C 217.64723 117.56971 216.75977 115.85943 216.75977 113.32422 L 216.75977 67.5 C 216.75977 66.739436 216.8871 65.979314 217.14062 65.21875 C 217.39415 64.331426 217.77421 63.633995 218.28125 63.126953 C 220.94322 60.972023 223.98567 59.197101 227.4082 57.802734 C 230.83074 56.281607 234.82334 55.521484 239.38672 55.521484 C 244.5839 55.648245 248.70384 57.295829 251.74609 60.464844 C 254.91511 63.507098 256.5 67.817065 256.5 73.394531 L 256.5 113.32422 C 256.5 115.85943 255.61254 117.56971 253.83789 118.45703 C 252.06324 119.21759 250.22563 119.91503 248.32422 120.54883 C 247.31013 120.92911 246.29533 121.37382 245.28125 121.88086 C 244.39393 122.26114 243.95117 122.95857 243.95117 123.97266 C 243.95117 124.73322 244.39393 125.17597 245.28125 125.30273 C 246.29533 125.55626 247.1201 125.68359 247.75391 125.68359 C 250.28912 125.68359 252.25407 125.55626 253.64844 125.30273 C 255.16956 125.17597 256.62712 125.04864 258.02148 124.92188 C 259.41585 124.79511 261.19077 124.73242 263.3457 124.73242 C 265.62739 124.73242 267.40036 124.79511 268.66797 124.92188 C 269.93557 125.04864 271.26774 125.17597 272.66211 125.30273 C 274.05648 125.55626 276.02143 125.68359 278.55664 125.68359 C 279.3172 125.68359 280.14002 125.55626 281.02734 125.30273 C 281.91467 125.17597 282.35938 124.73322 282.35938 123.97266 C 282.35938 122.95857 281.85198 122.26114 280.83789 121.88086 C 279.95057 121.37382 279.00041 120.92911 277.98633 120.54883 C 276.08492 119.91503 274.24535 119.21759 272.4707 118.45703 C 270.69605 117.56971 269.81055 115.85943 269.81055 113.32422 L 269.81055 72.824219 C 269.81055 65.345344 267.78095 59.070424 263.72461 54 C 259.66827 48.929576 254.53549 46.394531 248.32422 46.394531 C 242.36647 46.394531 236.85167 47.472023 231.78125 49.626953 C 226.83759 51.781883 222.14756 54.951666 217.71094 59.134766 C 217.58418 59.008005 217.45684 58.753329 217.33008 58.373047 L 217.33008 56.851562 C 217.33008 55.076914 217.45742 52.859238 217.71094 50.197266 C 218.09122 47.408533 218.28125 45.570918 218.28125 44.683594 C 218.28125 44.303312 218.15391 43.985943 217.90039 43.732422 C 217.77363 43.478901 217.5836 43.351562 217.33008 43.351562 z "
       transform="matrix(0.26458333,0,0,0.26458333,66.098769,119.28755)"
       id="text12" />
  </g>
</svg>
