<?xml version="1.0" encoding="UTF-8" standalone="no"?>
<!-- Created with Inkscape (http://www.inkscape.org/) -->

<svg
   xmlns:dc="http://purl.org/dc/elements/1.1/"
   xmlns:cc="http://creativecommons.org/ns#"
   xmlns:rdf="http://www.w3.org/1999/02/22-rdf-syntax-ns#"
   xmlns:svg="http://www.w3.org/2000/svg"
   xmlns="http://www.w3.org/2000/svg"
   xmlns:sodipodi="http://sodipodi.sourceforge.net/DTD/sodipodi-0.dtd"
   xmlns:inkscape="http://www.inkscape.org/namespaces/inkscape"
   viewBox="0 0 60.973272 47.440548"
   version="1.1"
   id="letraP"
   inkscape:version="0.92.5 (2060ec1f9f, 2020-04-08)"
   sodipodi:docname="P.svg">
  <defs
     id="defs2" />
  <sodipodi:namedview
     id="base"
     pagecolor="#ffffff"
     bordercolor="#666666"
     borderopacity="1.0"
     inkscape:pageopacity="0.0"
     inkscape:pageshadow="2"
     inkscape:zoom="2.2494117"
     inkscape:cx="115.22509"
     inkscape:cy="115.73946"
     inkscape:document-units="mm"
     inkscape:current-layer="layer1"
     showgrid="false"
     fit-margin-top="0"
     fit-margin-left="0"
     fit-margin-right="0"
     fit-margin-bottom="0"
     inkscape:window-width="1440"
     inkscape:window-height="828"
     inkscape:window-x="0"
     inkscape:window-y="0"
     inkscape:window-maximized="1"
     showguides="true"
     inkscape:guide-bbox="true"
     inkscape:snap-grids="true"
     inkscape:snap-bbox="true"
     inkscape:bbox-paths="true"
     inkscape:snap-bbox-edge-midpoints="true">
    <inkscape:grid
       type="xygrid"
       id="grid150"
       originx="-25.737319"
       originy="-5.757475" />
  </sodipodi:namedview>
  <metadata
     id="metadata5">
    <rdf:RDF>
      <cc:Work
         rdf:about="">
        <dc:format>image/svg+xml</dc:format>
        <dc:type
           rdf:resource="http://purl.org/dc/dcmitype/StillImage" />
        <dc:title></dc:title>
      </cc:Work>
    </rdf:RDF>
  </metadata>
  <g
     inkscape:label="Capa 1"
     inkscape:groupmode="layer"
     id="layer1"
     transform="translate(-72.965871,-119.28755)">
    <path
       style="font-style:normal;font-variant:normal;font-weight:normal;font-stretch:normal;font-size:50.30810928px;line-height:1.25;font-family:'EB Garamond';-inkscape-font-specification:'EB Garamond';letter-spacing:0px;word-spacing:0px;fill-opacity:1;stroke:none;stroke-width:0.99999994"
       d="M 47.535156 0 C 45.760508 0 43.732863 0.12733819 41.451172 0.38085938 C 39.169481 0.50761997 36.697129 0.69765069 34.035156 0.95117188 C 31.499944 1.0779325 28.964899 1.140625 26.429688 1.140625 L 20.345703 1.140625 C 18.824576 1.0138644 17.176992 0.95117188 15.402344 0.95117188 L 7.7949219 0.95117188 C 6.1470342 0.95117188 4.8168191 1.1412026 3.8027344 1.5214844 C 2.7886497 1.7750056 2.28125 2.2824052 2.28125 3.0429688 C 2.28125 3.9302929 2.7886497 4.6904158 3.8027344 5.3242188 C 4.8168191 5.9580217 6.4017106 6.4654214 8.5566406 6.8457031 C 13.373543 7.7330273 16.47868 9.6979802 17.873047 12.740234 C 19.394174 15.782489 20.154297 20.155148 20.154297 25.859375 L 20.154297 106.09766 C 20.154297 110.7878 19.014113 114.14761 16.732422 116.17578 C 14.577492 118.20395 11.092293 119.6615 6.2753906 120.54883 C 2.0922911 121.30939 0 122.45153 0 123.97266 C 0 124.73322 0.50739965 125.23867 1.5214844 125.49219 C 2.5355691 125.87247 3.8657842 126.0625 5.5136719 126.0625 C 8.9362078 126.0625 11.851314 125.93711 14.259766 125.68359 C 16.794977 125.43007 19.26733 125.24004 21.675781 125.11328 C 24.210993 124.85976 27.063407 124.73242 30.232422 124.73242 C 32.640873 124.73242 34.543134 124.85976 35.9375 125.11328 C 37.458627 125.24004 39.106211 125.43007 40.880859 125.68359 C 42.782268 125.93711 45.442698 126.0625 48.865234 126.0625 C 50.513122 126.0625 51.84529 125.87247 52.859375 125.49219 C 53.87346 125.23867 54.380859 124.73322 54.380859 123.97266 C 54.380859 123.08533 53.87346 122.3879 52.859375 121.88086 C 51.84529 121.37382 50.260399 120.92911 48.105469 120.54883 C 43.415327 119.6615 40.120159 117.82389 38.21875 115.03516 C 36.317341 112.24642 35.365234 108.57119 35.365234 104.00781 L 35.365234 13.310547 C 35.365234 10.395053 36.507372 8.3654547 38.789062 7.2246094 C 41.070753 5.9570035 43.98586 5.3242188 47.535156 5.3242188 C 56.788679 5.3242188 64.393815 7.7965714 70.351562 12.740234 C 76.30931 17.557137 79.289062 25.034934 79.289062 35.175781 C 79.289062 46.330713 77.32411 55.077986 73.394531 61.416016 C 69.591714 67.754045 63.886885 70.921875 56.28125 70.921875 C 53.746038 70.921875 51.781085 70.859182 50.386719 70.732422 C 49.119113 70.605661 48.168959 70.542969 47.535156 70.542969 C 46.901353 70.542969 46.203923 70.858385 45.443359 71.492188 C 44.809556 72.12599 44.492188 72.698036 44.492188 73.205078 C 44.492188 73.965642 45.189618 74.788457 46.583984 75.675781 C 48.105111 76.436345 50.260095 76.816406 53.048828 76.816406 C 62.809394 76.816406 70.796544 74.851453 77.007812 70.921875 C 83.345842 66.992297 88.035871 61.794868 91.078125 55.330078 C 94.120379 48.738527 95.640625 41.578099 95.640625 33.845703 C 95.640625 23.197814 91.203319 14.895248 82.330078 8.9375 C 73.583597 2.9797523 61.985864 0 47.535156 0 z M 168.08398 44.113281 C 167.95722 44.113281 167.89453 44.175974 167.89453 44.302734 L 167.70312 44.302734 C 164.66087 45.57034 161.4284 46.900555 158.00586 48.294922 C 154.58332 49.562528 150.46339 50.767358 145.64648 51.908203 C 145.2662 52.034964 144.95079 52.28964 144.69727 52.669922 C 144.44374 53.050204 144.31641 53.55565 144.31641 54.189453 C 144.31641 54.696495 144.44374 55.203895 144.69727 55.710938 C 144.95079 56.21798 145.33085 56.535349 145.83789 56.662109 C 147.99282 57.042391 149.7031 58.182576 150.9707 60.083984 C 152.23831 61.985393 153.12577 63.950346 153.63281 65.978516 C 154.26662 68.006685 154.58398 69.528884 154.58398 70.542969 L 154.58398 166.94336 C 154.58398 169.47857 153.69652 171.12616 151.92188 171.88672 C 150.14723 172.77404 148.30961 173.53612 146.4082 174.16992 L 143.36523 175.31055 C 142.47791 175.81759 142.03516 176.57771 142.03516 177.5918 C 142.03516 178.35236 142.54256 178.79511 143.55664 178.92188 C 144.57073 179.1754 145.39354 179.30273 146.02734 179.30273 C 148.56256 179.30273 150.52751 179.1754 151.92188 178.92188 C 153.31624 178.79511 154.64646 178.66973 155.91406 178.54297 C 157.30843 178.41621 159.08335 178.35156 161.23828 178.35156 C 164.53406 178.35156 167.38647 178.4789 169.79492 178.73242 C 172.33013 179.1127 175.43527 179.30273 179.11133 179.30273 C 179.87189 179.30273 180.75935 179.1754 181.77344 178.92188 C 182.78752 178.79511 183.29492 178.35236 183.29492 177.5918 C 183.29492 176.57771 182.78752 175.81759 181.77344 175.31055 C 180.88611 174.93027 179.93596 174.5502 178.92188 174.16992 C 177.65427 173.78964 176.13402 173.34493 174.35938 172.83789 C 172.71149 172.45761 171.18929 171.76018 169.79492 170.74609 C 168.52732 169.85877 167.89453 168.59125 167.89453 166.94336 L 167.89453 131.38672 L 167.89453 128.3457 C 168.02129 126.82458 168.14668 125.36702 168.27344 123.97266 C 168.4002 122.45153 168.52754 121.68945 168.6543 121.68945 C 169.9219 122.8303 171.69682 123.8451 173.97852 124.73242 C 176.38697 125.61975 178.79467 126.31718 181.20312 126.82422 C 183.73834 127.45802 185.89332 127.77539 187.66797 127.77539 C 193.62572 127.77539 199.20321 126.50787 204.40039 123.97266 C 209.59757 121.31068 214.16222 117.82353 218.0918 113.51367 C 222.02138 109.20381 225.06382 104.38644 227.21875 99.0625 C 229.37368 93.611795 230.44922 88.034305 230.44922 82.330078 C 230.44922 76.37233 229.1817 70.669455 226.64648 65.21875 C 224.23803 59.641284 220.69014 55.141286 216 51.71875 C 211.43662 48.169453 205.85913 46.394531 199.26758 46.394531 C 195.338 46.394531 191.21806 47.2193 186.9082 48.867188 C 182.59834 50.388315 178.73113 52.161284 175.30859 54.189453 C 172.01282 56.090862 169.73245 57.675753 168.46484 58.943359 C 168.33808 58.816599 168.27344 58.246507 168.27344 57.232422 C 168.27344 55.711295 168.40078 53.746342 168.6543 51.337891 C 169.03458 48.802679 169.22461 46.965064 169.22461 45.824219 C 169.22461 45.443937 169.09727 45.063876 168.84375 44.683594 C 168.59023 44.303312 168.33751 44.113281 168.08398 44.113281 z M 189.37891 54.951172 C 191.40708 54.951172 193.87943 55.331233 196.79492 56.091797 C 199.71042 56.85236 202.56283 58.372606 205.35156 60.654297 C 208.1403 62.935988 210.48531 66.295801 212.38672 70.732422 C 214.28813 75.169043 215.23828 81.063901 215.23828 88.416016 C 215.23828 94.754045 214.28813 100.07686 212.38672 104.38672 C 210.61207 108.69658 208.32975 112.11909 205.54102 114.6543 C 202.87904 117.18951 200.15397 119.02908 197.36523 120.16992 C 194.70326 121.31077 192.42289 121.88086 190.52148 121.88086 C 187.09895 121.88086 183.6118 120.61334 180.0625 118.07812 C 176.63996 115.41615 173.72486 111.929 171.31641 107.61914 C 169.03472 103.30928 167.89453 98.619252 167.89453 93.548828 L 167.89453 88.794922 C 168.02129 86.639992 168.08398 84.232285 168.08398 81.570312 C 168.21074 78.90834 168.27344 76.183264 168.27344 73.394531 C 168.4002 70.479038 168.46484 67.626624 168.46484 64.837891 C 168.46484 63.950566 169.54234 62.745736 171.69727 61.224609 C 173.97896 59.576722 176.70403 58.119168 179.87305 56.851562 C 183.16882 55.583957 186.33665 54.951172 189.37891 54.951172 z "
       transform="matrix(0.26458333,0,0,0.26458333,72.965871,119.28755)"
       id="text12" />
  </g>
</svg>
