<?xml version="1.0" encoding="UTF-8" standalone="no"?>
<!-- Created with Inkscape (http://www.inkscape.org/) -->

<svg
   xmlns:dc="http://purl.org/dc/elements/1.1/"
   xmlns:cc="http://creativecommons.org/ns#"
   xmlns:rdf="http://www.w3.org/1999/02/22-rdf-syntax-ns#"
   xmlns:svg="http://www.w3.org/2000/svg"
   xmlns="http://www.w3.org/2000/svg"
   xmlns:sodipodi="http://sodipodi.sourceforge.net/DTD/sodipodi-0.dtd"
   xmlns:inkscape="http://www.inkscape.org/namespaces/inkscape"
   viewBox="0 0 54.239569 33.421864"
   version="1.1"
   id="letraT"
   inkscape:version="0.92.5 (2060ec1f9f, 2020-04-08)"
   sodipodi:docname="T.svg">
  <defs
     id="defs2" />
  <sodipodi:namedview
     id="base"
     pagecolor="#ffffff"
     bordercolor="#666666"
     borderopacity="1.0"
     inkscape:pageopacity="0.0"
     inkscape:pageshadow="2"
     inkscape:zoom="2.2494117"
     inkscape:cx="102.49998"
     inkscape:cy="64.211267"
     inkscape:document-units="mm"
     inkscape:current-layer="layer1"
     showgrid="false"
     fit-margin-top="0"
     fit-margin-left="0"
     fit-margin-right="0"
     fit-margin-bottom="0"
     inkscape:window-width="1440"
     inkscape:window-height="828"
     inkscape:window-x="0"
     inkscape:window-y="0"
     inkscape:window-maximized="1"
     showguides="true"
     inkscape:guide-bbox="true"
     inkscape:snap-grids="true"
     inkscape:snap-bbox="true"
     inkscape:bbox-paths="true"
     inkscape:snap-bbox-edge-midpoints="true">
    <inkscape:grid
       type="xygrid"
       id="grid150"
       originx="-29.104168"
       originy="-19.390975" />
  </sodipodi:namedview>
  <metadata
     id="metadata5">
    <rdf:RDF>
      <cc:Work
         rdf:about="">
        <dc:format>image/svg+xml</dc:format>
        <dc:type
           rdf:resource="http://purl.org/dc/dcmitype/StillImage" />
        <dc:title></dc:title>
      </cc:Work>
    </rdf:RDF>
  </metadata>
  <g
     inkscape:label="Capa 1"
     inkscape:groupmode="layer"
     id="layer1"
     transform="translate(-76.332721,-119.67274)">
    <path
       style="font-style:normal;font-variant:normal;font-weight:normal;font-stretch:normal;font-size:47.20602036px;line-height:1.25;font-family:'EB Garamond';-inkscape-font-specification:'EB Garamond';letter-spacing:0px;word-spacing:0px;fill-opacity:1;stroke:none;stroke-width:0.99999994"
       d="M 9.4570312 0 C 8.981254 0 8.3855408 0.17832334 7.671875 0.53515625 C 7.0771535 0.89198916 6.6617167 2.0814625 6.4238281 4.1035156 C 5.9480509 7.790789 5.2935476 11.002562 4.4609375 13.738281 C 3.7472717 16.355056 2.5577984 19.388506 0.89257812 22.837891 C 0.29785661 24.027334 0 25.216807 0 26.40625 C 0 27.000972 0.058790072 27.535942 0.17773438 28.011719 C 0.41562298 28.487496 0.77226966 28.724609 1.2480469 28.724609 C 2.1996013 28.724609 3.1519612 28.309173 4.1035156 27.476562 C 5.0550701 26.643952 5.9466868 25.691592 6.7792969 24.621094 C 7.611907 23.431651 8.2076202 22.540034 8.5644531 21.945312 C 9.8728405 19.566426 11.89514 17.841983 14.630859 16.771484 C 17.485523 15.582041 20.338696 14.986328 23.193359 14.986328 L 31.580078 14.986328 C 34.67263 14.986328 37.110367 15.047071 38.894531 15.166016 C 40.79764 15.166016 42.582827 15.344339 44.248047 15.701172 C 45.199601 15.820116 45.912895 16.474619 46.388672 17.664062 C 46.983393 18.853506 47.39883 20.934596 47.636719 23.908203 C 47.874607 26.762866 47.994141 30.925046 47.994141 36.396484 L 47.994141 105.62305 C 47.994141 109.90504 46.804667 113.11682 44.425781 115.25781 C 42.046895 117.27987 38.598009 118.70645 34.078125 119.53906 C 32.056072 119.8959 30.568742 120.31133 29.617188 120.78711 C 28.665633 121.26289 28.189453 121.91739 28.189453 122.75 C 28.189453 123.46367 28.665633 123.93985 29.617188 124.17773 C 30.568742 124.53457 31.817005 124.71289 33.363281 124.71289 C 36.574777 124.71289 39.310371 124.59336 41.570312 124.35547 C 43.949199 124.23652 46.210565 124.11894 48.351562 124 C 50.611504 123.88106 53.227564 123.82031 56.201172 123.82031 C 58.936891 123.82031 61.257047 123.88106 63.160156 124 C 65.063265 124.11894 67.024822 124.23652 69.046875 124.35547 C 71.187872 124.59336 73.864676 124.71289 77.076172 124.71289 C 78.622448 124.71289 79.870711 124.53457 80.822266 124.17773 C 81.77382 123.93985 82.25 123.46367 82.25 122.75 C 82.25 121.91739 81.77382 121.26289 80.822266 120.78711 C 79.870711 120.31133 78.383381 119.8959 76.361328 119.53906 C 71.960389 118.70645 68.511502 117.27987 66.013672 115.25781 C 63.515842 113.11682 62.267578 109.90504 62.267578 105.62305 L 62.267578 35.503906 C 62.267578 28.96197 62.445901 24.26482 62.802734 21.410156 C 63.159567 18.555493 63.992394 16.770306 65.300781 16.056641 C 66.609169 15.342975 68.570725 14.986328 71.1875 14.986328 L 89.208984 14.986328 C 94.918311 14.986328 98.960958 15.760365 101.33984 17.306641 C 103.71873 18.733972 105.14727 20.695529 105.62305 23.193359 C 106.09882 25.453301 106.575 27.238488 107.05078 28.546875 C 107.52656 29.855262 108.17911 30.509766 109.01172 30.509766 C 109.96327 30.509766 110.67852 29.855262 111.1543 28.546875 C 111.63007 27.119543 111.86719 25.87128 111.86719 24.800781 L 111.86719 22.658203 C 111.86719 21.111927 111.92598 19.983197 112.04492 19.269531 C 112.16387 18.555865 112.34219 17.723039 112.58008 16.771484 C 112.93691 15.81993 113.29356 14.27381 113.65039 12.132812 C 113.76933 11.538091 113.88887 10.705264 114.00781 9.6347656 C 114.2457 8.5642669 114.36523 7.7314403 114.36523 7.1367188 C 114.36523 6.1851643 114.2457 5.2935476 114.00781 4.4609375 C 113.76992 3.5093831 113.47207 3.0332031 113.11523 3.0332031 C 111.6879 3.0332031 110.49843 3.4486399 109.54688 4.28125 C 108.71426 5.1138601 107.58553 5.8878967 106.1582 6.6015625 C 104.25509 7.4341726 101.99568 8.0886759 99.378906 8.5644531 C 96.762132 9.0402303 93.372035 9.2773438 89.208984 9.2773438 L 26.40625 9.2773438 C 23.90842 9.2773438 21.35115 8.9794871 18.734375 8.3847656 C 16.236545 7.7900441 14.629681 6.8984274 13.916016 5.7089844 C 13.440238 4.7574299 12.668155 3.5679566 11.597656 2.140625 C 10.646102 0.71329336 9.9328085 0 9.4570312 0 z M 176.81055 39.072266 C 176.21583 39.072266 175.68086 39.311332 175.20508 39.787109 L 173.77734 41.214844 C 172.70685 42.523231 171.33905 44.008608 169.67383 45.673828 C 168.12755 47.220104 166.34237 48.826967 164.32031 50.492188 C 162.4172 52.157408 160.27732 53.823061 157.89844 55.488281 C 157.77949 55.607226 157.54043 55.903129 157.18359 56.378906 C 156.82676 56.854683 156.64844 57.21133 156.64844 57.449219 C 156.64844 58.281829 156.82676 59.114656 157.18359 59.947266 C 157.65937 60.660931 158.19629 61.017578 158.79102 61.017578 L 159.86133 61.017578 C 162.24021 61.017578 163.78633 61.256645 164.5 61.732422 C 165.21367 62.089255 165.57031 62.743758 165.57031 63.695312 L 165.57031 105.08789 C 165.57031 112.1056 167.17522 117.39847 170.38672 120.9668 C 173.71716 124.53513 178.29673 126.31836 184.125 126.31836 C 187.81227 126.31836 191.20237 125.54628 194.29492 124 C 197.50642 122.45372 200.06369 120.78807 201.9668 119.00391 C 203.98885 117.21974 205 116.03027 205 115.43555 C 205 114.84083 204.88047 114.30586 204.64258 113.83008 C 204.52363 113.23536 204.22773 112.9375 203.75195 112.9375 C 203.51406 112.9375 203.275 113.05703 203.03711 113.29492 C 201.49083 114.36542 199.76639 115.19825 197.86328 115.79297 C 195.96017 116.26875 193.28337 116.50586 189.83398 116.50586 C 186.02777 116.50586 183.11385 115.13806 181.0918 112.40234 C 179.06974 109.66662 178.05859 105.91988 178.05859 101.16211 L 178.05859 66.013672 C 178.05859 63.634786 178.47598 62.208199 179.30859 61.732422 C 180.26015 61.256645 182.2217 61.017578 185.19531 61.017578 L 202.85938 61.017578 C 203.33515 61.017578 203.75059 60.543351 204.10742 59.591797 C 204.46425 58.521298 204.64258 57.449405 204.64258 56.378906 C 204.64258 55.308408 204.46425 54.416791 204.10742 53.703125 C 203.75059 52.870515 203.33515 52.455078 202.85938 52.455078 L 182.51953 52.455078 C 180.97326 52.455078 179.84257 52.216012 179.12891 51.740234 C 178.41524 51.264457 178.11934 50.37284 178.23828 49.064453 L 179.12891 41.035156 C 179.24785 40.202546 179.01074 39.667576 178.41602 39.429688 C 177.94024 39.191799 177.40527 39.072266 176.81055 39.072266 z "
       transform="matrix(0.26458333,0,0,0.26458333,76.332721,119.67274)"
       id="text12" />
  </g>
</svg>
