<?xml version="1.0" encoding="UTF-8" standalone="no"?>
<!-- Created with Inkscape (http://www.inkscape.org/) -->

<svg
   xmlns:dc="http://purl.org/dc/elements/1.1/"
   xmlns:cc="http://creativecommons.org/ns#"
   xmlns:rdf="http://www.w3.org/1999/02/22-rdf-syntax-ns#"
   xmlns:svg="http://www.w3.org/2000/svg"
   xmlns="http://www.w3.org/2000/svg"
   xmlns:sodipodi="http://sodipodi.sourceforge.net/DTD/sodipodi-0.dtd"
   xmlns:inkscape="http://www.inkscape.org/namespaces/inkscape"
   viewBox="0 0 70.42746 33.072907"
   version="1.1"
   id="letraU"
   inkscape:version="0.92.5 (2060ec1f9f, 2020-04-08)"
   sodipodi:docname="U.svg">
  <defs
     id="defs2" />
  <sodipodi:namedview
     id="base"
     pagecolor="#ffffff"
     bordercolor="#666666"
     borderopacity="1.0"
     inkscape:pageopacity="0.0"
     inkscape:pageshadow="2"
     inkscape:zoom="3.5915201"
     inkscape:cx="133.09128"
     inkscape:cy="62.499981"
     inkscape:document-units="mm"
     inkscape:current-layer="layer1"
     showgrid="false"
     fit-margin-top="0"
     fit-margin-left="0"
     fit-margin-right="0"
     fit-margin-bottom="0"
     inkscape:window-width="1440"
     inkscape:window-height="828"
     inkscape:window-x="0"
     inkscape:window-y="0"
     inkscape:window-maximized="1"
     showguides="false"
     inkscape:guide-bbox="true"
     inkscape:snap-grids="true"
     inkscape:snap-bbox="true"
     inkscape:bbox-paths="true"
     inkscape:snap-bbox-edge-midpoints="true">
    <inkscape:grid
       type="xygrid"
       id="grid150"
       originx="-21.010225"
       originy="-19.843751" />
  </sodipodi:namedview>
  <metadata
     id="metadata5">
    <rdf:RDF>
      <cc:Work
         rdf:about="">
        <dc:format>image/svg+xml</dc:format>
        <dc:type
           rdf:resource="http://purl.org/dc/dcmitype/StillImage" />
        <dc:title></dc:title>
      </cc:Work>
    </rdf:RDF>
  </metadata>
  <g
     inkscape:label="Capa 1"
     inkscape:groupmode="layer"
     id="layer1"
     transform="translate(-68.238777,-119.56892)">
    <path
       style="font-style:normal;font-variant:normal;font-weight:normal;font-stretch:normal;font-size:49.21563339px;line-height:1.25;font-family:'EB Garamond';-inkscape-font-specification:'EB Garamond';letter-spacing:0px;word-spacing:0px;fill-opacity:1;stroke:none;stroke-width:1.00000012"
       d="M 5.3945312 0 C 3.7824286 0 2.4803444 0.18657006 1.4882812 0.55859375 C 0.49621809 0.80660954 0 1.3028276 0 2.046875 C 0 3.6589776 2.0464113 5.0226008 6.1386719 6.1386719 C 8.2468061 6.6347035 10.168186 7.9367877 11.904297 10.044922 C 13.764415 12.029048 14.695312 15.252513 14.695312 19.716797 L 14.695312 76.822266 C 14.695312 86.246866 16.555154 94.555589 20.275391 101.74805 C 23.995627 108.8165 29.575151 114.33448 37.015625 118.30273 C 44.456099 122.14698 53.695719 124.07031 64.732422 124.07031 C 73.909006 124.07031 82.092698 122.0239 89.285156 117.93164 C 96.601622 113.71537 102.43121 107.88774 106.77148 100.44727 C 111.11176 93.006792 113.40433 84.511499 113.65234 74.962891 C 113.90036 66.406346 114.08693 57.726436 114.21094 48.921875 C 114.45895 40.117314 114.89363 30.381476 115.51367 19.716797 C 115.76169 15.99656 116.56755 12.896174 117.93164 10.416016 C 119.29573 7.9358577 121.59025 6.3856645 124.81445 5.765625 C 128.90671 4.8975697 130.95312 3.6589776 130.95312 2.046875 C 130.95312 1.3028276 130.45691 0.80660954 129.46484 0.55859375 C 128.47278 0.18657006 127.1707 0 125.55859 0 C 124.19451 0 122.70585 0.06153898 121.09375 0.18554688 C 119.48165 0.30955477 117.80838 0.43458585 116.07227 0.55859375 L 110.49023 0.55859375 L 103.60938 0.55859375 C 101.74926 0.43458585 99.393197 0.37109375 96.541016 0.37109375 C 94.928913 0.37109375 93.626829 0.55766381 92.634766 0.9296875 C 91.642702 1.1777033 91.146484 1.6739214 91.146484 2.4179688 C 91.146484 3.286024 91.827319 4.0303511 93.191406 4.6503906 C 94.679501 5.2704301 96.045077 5.7666482 97.285156 6.1386719 C 99.021267 6.6347035 100.44643 7.9367877 101.5625 10.044922 C 102.67857 12.029048 103.48444 14.446647 103.98047 17.298828 C 104.60051 20.15101 104.91016 23.189857 104.91016 26.414062 C 105.03416 31.126363 105.1592 36.08659 105.2832 41.294922 C 105.40721 46.379246 105.46875 51.152903 105.46875 55.617188 C 105.59276 60.081472 105.6543 63.678076 105.6543 66.40625 C 105.6543 80.915174 102.67894 92.633932 96.726562 101.5625 C 90.774184 110.36706 81.411485 114.76953 68.638672 114.76953 C 61.07419 114.76953 54.31566 113.28088 48.363281 110.30469 C 42.53491 107.20449 37.945869 102.49237 34.597656 96.167969 C 31.249443 89.719558 29.576172 81.535866 29.576172 71.615234 L 29.576172 19.345703 C 29.576172 15.625466 30.505116 12.586619 32.365234 10.230469 C 34.225353 7.8743187 35.900577 6.4491566 37.388672 5.953125 C 39.496806 5.3330855 41.046999 4.7733753 42.039062 4.2773438 C 43.031126 3.7813122 43.527344 3.1004771 43.527344 2.2324219 C 43.527344 1.4883745 43.031126 0.99215642 42.039062 0.74414062 C 41.046999 0.37211694 39.744915 0.18554688 38.132812 0.18554688 C 36.148686 0.18554688 33.854166 0.24708585 31.25 0.37109375 C 28.769842 0.49510165 26.104135 0.55859375 23.251953 0.55859375 C 19.779732 0.55859375 16.617807 0.49510165 13.765625 0.37109375 C 11.037451 0.12307796 8.2467128 0 5.3945312 0 z M 250.74414 44.271484 C 250.49612 44.271484 250.18648 44.333023 249.81445 44.457031 C 249.44243 44.457031 249.13083 44.51857 248.88281 44.642578 C 246.65067 45.262618 244.48118 45.820375 242.37305 46.316406 C 240.38892 46.68843 238.0944 46.998078 235.49023 47.246094 C 233.01008 47.370102 229.84815 47.495133 226.00391 47.619141 C 225.01184 47.619141 224.08095 47.805711 223.21289 48.177734 C 222.46884 48.549758 222.09766 49.294085 222.09766 50.410156 C 222.09766 51.650235 222.46884 52.51764 223.21289 53.013672 C 223.95694 53.385696 224.88784 53.572266 226.00391 53.572266 C 227.24399 53.572266 228.85572 53.820375 230.83984 54.316406 C 232.82397 54.812438 234.56073 55.741382 236.04883 57.105469 C 237.66093 58.345548 238.4668 60.266928 238.4668 62.871094 L 238.4668 96.912109 C 238.4668 100.75635 237.41282 103.7952 235.30469 106.02734 C 233.19655 108.25949 231.45979 109.87122 230.0957 110.86328 C 227.73955 112.59939 225.32195 113.65337 222.8418 114.02539 C 220.48565 114.39741 217.69491 114.58398 214.4707 114.58398 C 211.86654 114.58398 209.32586 113.77812 206.8457 112.16602 C 204.48955 110.55391 202.56622 108.5075 201.07812 106.02734 C 199.59003 103.42318 198.8457 100.63244 198.8457 97.65625 L 198.8457 61.384766 C 198.8457 58.532584 198.9092 56.176525 199.0332 54.316406 C 199.28122 52.33228 199.59087 49.912728 199.96289 47.060547 C 200.0869 45.324436 199.46565 44.457031 198.10156 44.457031 L 197.35742 44.457031 C 197.23341 44.457031 196.9853 44.51857 196.61328 44.642578 C 193.14106 45.510633 190.22724 46.193422 187.87109 46.689453 C 185.63895 47.061477 182.41549 47.371125 178.19922 47.619141 C 177.45517 47.743149 176.77238 47.991258 176.15234 48.363281 C 175.65631 48.735305 175.4082 49.479632 175.4082 50.595703 C 175.4082 51.587766 175.65631 52.268601 176.15234 52.640625 C 176.64838 53.012649 177.20613 53.32425 177.82617 53.572266 C 180.67835 54.688337 182.72476 56.05196 183.96484 57.664062 C 185.20492 59.276165 185.82617 61.445654 185.82617 64.173828 L 185.82617 101.93359 C 185.82617 106.7699 186.75512 110.86272 188.61523 114.21094 C 190.47535 117.43514 193.01798 119.85274 196.24219 121.46484 C 199.46639 123.20095 203.063 124.07031 207.03125 124.07031 C 212.85962 124.07031 218.19104 123.07788 223.02734 121.09375 C 227.98766 118.98562 232.88635 115.57558 237.72266 110.86328 L 237.72266 111.42188 L 237.72266 111.97852 C 237.72266 113.59062 237.53609 115.63703 237.16406 118.11719 C 236.91605 120.47334 236.79297 122.27164 236.79297 123.51172 C 236.79297 124.50378 237.22765 125 238.0957 125 C 238.71574 125 239.39658 124.81343 240.14062 124.44141 L 241.81445 123.88477 C 244.54263 122.76869 247.64301 121.58969 251.11523 120.34961 C 254.58746 119.10953 258.74182 118.17863 263.57812 117.55859 C 264.32217 117.43459 264.94342 117.24997 265.43945 117.00195 C 265.93548 116.62993 266.18164 115.94714 266.18164 114.95508 C 266.18164 113.83901 265.87199 113.15622 265.25195 112.9082 C 264.63191 112.66019 264.01262 112.53711 263.39258 112.53711 C 262.52452 112.53711 261.09741 112.66019 259.11328 112.9082 C 257.25316 113.03221 255.828 113.0957 254.83594 113.0957 C 253.96788 113.0957 253.16202 112.41291 252.41797 111.04883 C 251.79793 109.56073 251.48828 107.14314 251.48828 103.79492 L 251.48828 60.826172 C 251.48828 59.834109 251.54982 58.406993 251.67383 56.546875 C 251.92184 54.686757 252.10841 52.888454 252.23242 51.152344 C 252.48044 49.416233 252.66505 48.362258 252.78906 47.990234 C 252.91307 47.618211 252.97656 47.308563 252.97656 47.060547 C 253.10057 46.688523 253.16211 46.440414 253.16211 46.316406 C 253.16211 44.952319 252.35624 44.271484 250.74414 44.271484 z "
       transform="matrix(0.26458333,0,0,0.26458333,68.238777,119.56892)"
       id="text12" />
  </g>
</svg>
