<?xml version="1.0" encoding="UTF-8" standalone="no"?>
<svg
   xmlns:dc="http://purl.org/dc/elements/1.1/"
   xmlns:cc="http://creativecommons.org/ns#"
   xmlns:rdf="http://www.w3.org/1999/02/22-rdf-syntax-ns#"
   xmlns:svg="http://www.w3.org/2000/svg"
   xmlns="http://www.w3.org/2000/svg"
   height="27.039999"
   width="72.239891"
   id="letraV"
   version="1.1"
   viewBox="0 0 72.239892 27.039999">
  <defs
     id="defs2" />
  <metadata
     id="metadata5">
    <rdf:RDF>
      <cc:Work
         rdf:about="">
        <dc:format>image/svg+xml</dc:format>
        <dc:type
           rdf:resource="http://purl.org/dc/dcmitype/StillImage" />
        <dc:title></dc:title>
      </cc:Work>
    </rdf:RDF>
  </metadata>
  <g
     transform="translate(-65.948303,-124.31855)"
     id="layer1">
    <path
       id="text816"
       transform="translate(65.948303,124.31855)"
       d="M 1.1601562 0 C 0.81348959 0 0.53364583 0.039140626 0.3203125 0.11914062 C 0.10697917 0.17247396 0 0.27945313 0 0.43945312 C 0 0.62611979 0.10697917 0.78658854 0.3203125 0.91992188 C 0.5603125 1.0532552 0.89364584 1.1869792 1.3203125 1.3203125 C 2.0136458 1.5069792 2.5857292 1.8259635 3.0390625 2.2792969 C 3.4923958 2.7059635 3.8792188 3.2676042 4.1992188 3.9609375 L 12.839844 25.640625 C 12.94651 25.907292 13.05349 26.160391 13.160156 26.400391 C 13.266823 26.640391 13.347057 26.759766 13.400391 26.759766 C 13.560391 26.759766 13.720859 26.613646 13.880859 26.320312 C 14.040859 26.053646 14.17263 25.786198 14.279297 25.519531 C 14.839297 23.946198 15.347448 22.559375 15.800781 21.359375 C 16.254115 20.132708 16.706823 18.933099 17.160156 17.759766 C 17.640156 16.586432 18.199844 15.240703 18.839844 13.720703 C 18.94651 13.454036 19.026745 13.305964 19.080078 13.279297 C 19.133411 13.225964 19.199297 13.293802 19.279297 13.480469 C 19.919297 15.027135 20.466589 16.440703 20.919922 17.720703 C 21.399922 19.000703 21.893724 20.280547 22.400391 21.560547 C 22.907057 22.81388 23.505885 24.239844 24.199219 25.839844 C 24.279219 26.02651 24.386198 26.199375 24.519531 26.359375 C 24.652865 26.519375 24.774193 26.599609 24.880859 26.599609 C 25.014193 26.599609 25.145964 26.465885 25.279297 26.199219 C 25.41263 25.959219 25.492865 25.786354 25.519531 25.679688 L 32.599609 4.7597656 C 32.759609 4.3597656 32.959219 3.9194531 33.199219 3.4394531 C 33.465885 2.9327865 33.813568 2.4800781 34.240234 2.0800781 C 34.693568 1.6534115 35.240859 1.3735677 35.880859 1.2402344 C 36.334193 1.1335677 36.667526 1.0265885 36.880859 0.91992188 C 37.094193 0.78658854 37.199219 0.62611979 37.199219 0.43945312 C 37.199219 0.27945313 37.094193 0.17247396 36.880859 0.11914062 C 36.667526 0.039140626 36.385729 0 36.039062 0 C 35.532396 0 34.972708 0.026744792 34.359375 0.080078125 C 33.746042 0.10674479 33.10612 0.11914062 32.439453 0.11914062 L 31 0.11914062 C 30.573333 0.092473959 30.09388 0.080078125 29.560547 0.080078125 C 29.21388 0.080078125 28.934036 0.11921875 28.720703 0.19921875 C 28.50737 0.25255208 28.400391 0.35953125 28.400391 0.51953125 C 28.400391 0.70619792 28.54651 0.86666667 28.839844 1 C 29.159844 1.1333333 29.454036 1.2403125 29.720703 1.3203125 C 30.174036 1.4269792 30.480625 1.6409375 30.640625 1.9609375 C 30.827292 2.2809375 30.919922 2.6390625 30.919922 3.0390625 C 30.919922 3.2523958 30.893177 3.493099 30.839844 3.7597656 C 30.813177 3.9997656 30.759687 4.2404688 30.679688 4.4804688 C 29.773021 7.5471354 28.892396 10.452552 28.039062 13.199219 C 27.212396 15.945885 26.467448 18.200938 25.800781 19.960938 C 25.720781 20.147604 25.640547 20.266979 25.560547 20.320312 C 25.480547 20.373646 25.412708 20.332552 25.359375 20.199219 L 21.240234 9.5996094 C 21.186901 9.466276 21.186901 9.227526 21.240234 8.8808594 C 21.320234 8.5341927 21.400469 8.2667448 21.480469 8.0800781 C 21.693802 7.4934115 21.932552 6.8658854 22.199219 6.1992188 C 22.492552 5.5325521 22.76 4.919375 23 4.359375 C 23.266667 3.799375 23.466276 3.4001562 23.599609 3.1601562 C 23.946276 2.6001563 24.267214 2.1865885 24.560547 1.9199219 C 24.880547 1.6532552 25.466979 1.426901 26.320312 1.2402344 C 26.773646 1.1335677 27.106979 1.0265885 27.320312 0.91992188 C 27.533646 0.78658854 27.640625 0.62611979 27.640625 0.43945312 C 27.640625 0.27945313 27.533646 0.17247396 27.320312 0.11914062 C 27.106979 0.039140626 26.827135 0 26.480469 0 C 26.000469 0 25.599297 0.026744792 25.279297 0.080078125 C 24.959297 0.10674479 24.572474 0.11914062 24.119141 0.11914062 C 23.745807 0.11914062 23.453568 0.10674479 23.240234 0.080078125 C 23.026901 0.053411459 22.625729 0.0390625 22.039062 0.0390625 C 21.692396 0.0390625 21.412552 0.080156251 21.199219 0.16015625 C 20.985885 0.21348958 20.880859 0.32046875 20.880859 0.48046875 C 20.880859 0.69380208 21.000234 0.8790625 21.240234 1.0390625 C 21.506901 1.1723958 21.76 1.3204688 22 1.4804688 C 22.24 1.6404687 22.359375 1.8792188 22.359375 2.1992188 C 22.359375 2.3058854 22.346979 2.4004688 22.320312 2.4804688 C 22.266979 2.6938021 22.147604 3.080625 21.960938 3.640625 C 21.800938 4.1739583 21.599375 4.7460417 21.359375 5.359375 C 21.146042 5.9727083 20.934036 6.52 20.720703 7 C 20.560703 7.3466667 20.426979 7.5195312 20.320312 7.5195312 C 20.240313 7.4928646 20.133333 7.32 20 7 C 19.92 6.8133333 19.786276 6.5067448 19.599609 6.0800781 C 19.412943 5.6267448 19.213333 5.1472917 19 4.640625 C 18.813333 4.1339583 18.640469 3.6792969 18.480469 3.2792969 C 18.347135 2.8526302 18.252552 2.5871354 18.199219 2.4804688 L 18.119141 2.3203125 L 18.119141 2.1601562 C 18.119141 1.8401563 18.252865 1.5994531 18.519531 1.4394531 C 18.812865 1.2794531 19.092708 1.1333333 19.359375 1 C 19.626042 0.86666667 19.759766 0.69380208 19.759766 0.48046875 C 19.759766 0.32046875 19.652786 0.21348958 19.439453 0.16015625 C 19.22612 0.080156251 18.946276 0.0390625 18.599609 0.0390625 C 18.199609 0.0390625 17.732552 0.053411459 17.199219 0.080078125 C 16.692552 0.10674479 16.132865 0.11914062 15.519531 0.11914062 L 14.160156 0.11914062 L 12.960938 0.0390625 C 12.587604 0.012395834 12.186432 0 11.759766 0 C 11.413099 0 11.133255 0.039140626 10.919922 0.11914062 C 10.706589 0.17247396 10.599609 0.27945313 10.599609 0.43945312 C 10.599609 0.62611979 10.706589 0.78658854 10.919922 0.91992188 C 11.159922 1.0532552 11.493255 1.1869792 11.919922 1.3203125 C 12.613255 1.5069792 13.333411 1.8938021 14.080078 2.4804688 C 14.826745 3.0404687 15.374036 3.746276 15.720703 4.5996094 L 18 10.279297 C 18.106667 10.545964 18.186901 10.774271 18.240234 10.960938 C 18.293568 11.120937 18.320312 11.279453 18.320312 11.439453 C 18.320312 11.54612 18.293568 11.679844 18.240234 11.839844 C 18.213568 11.973177 18.160078 12.146042 18.080078 12.359375 L 14.960938 20.080078 C 14.880938 20.293411 14.786354 20.412786 14.679688 20.439453 C 14.599688 20.46612 14.492708 20.332396 14.359375 20.039062 C 13.692708 18.519063 13.079531 17.146589 12.519531 15.919922 C 11.986198 14.666589 11.467604 13.45263 10.960938 12.279297 C 10.480938 11.079297 9.9871354 9.8405469 9.4804688 8.5605469 C 8.9738021 7.2805469 8.4141146 5.8669792 7.8007812 4.3203125 L 7.640625 3.8007812 C 7.5339583 3.4274479 7.4804688 3.026276 7.4804688 2.5996094 C 7.4804688 2.306276 7.5339583 2.0407812 7.640625 1.8007812 C 7.7472917 1.5341146 7.9592969 1.3592969 8.2792969 1.2792969 C 8.7326302 1.1459635 9.0659635 1.0265885 9.2792969 0.91992188 C 9.4926302 0.81325521 9.5996094 0.66713542 9.5996094 0.48046875 C 9.5996094 0.32046875 9.4926302 0.21348958 9.2792969 0.16015625 C 9.0659635 0.080156251 8.7861198 0.0390625 8.4394531 0.0390625 C 8.0394531 0.0390625 7.5065104 0.053411459 6.8398438 0.080078125 C 6.1731771 0.10674479 5.4673698 0.11914062 4.7207031 0.11914062 C 4.0540365 0.11914062 3.4408594 0.10674479 2.8808594 0.080078125 C 2.347526 0.026744792 1.7734896 0 1.1601562 0 z M 45.640625 9.9199219 C 45.507292 9.9199219 45.332474 9.9466667 45.119141 10 C 44.932474 10.026667 44.839844 10.119297 44.839844 10.279297 C 44.839844 10.465964 44.932474 10.614036 45.119141 10.720703 C 45.332474 10.82737 45.546432 10.92 45.759766 11 C 46.159766 11.106667 46.558984 11.333021 46.958984 11.679688 C 47.358984 11.999687 47.653177 12.427604 47.839844 12.960938 L 53.400391 26.759766 C 53.427057 26.839766 53.466198 26.907604 53.519531 26.960938 C 53.572865 27.014271 53.626354 27.039062 53.679688 27.039062 C 53.813021 27.039062 53.92 26.946432 54 26.759766 L 58.359375 16.480469 C 58.466042 16.213802 58.560625 16.080078 58.640625 16.080078 C 58.720625 16.106745 58.800859 16.22612 58.880859 16.439453 L 63.039062 26.759766 C 63.145729 26.946432 63.252708 27.039062 63.359375 27.039062 C 63.519375 27.039062 63.640703 26.946432 63.720703 26.759766 L 69.199219 13.640625 C 69.465885 13.027292 69.786823 12.467604 70.160156 11.960938 C 70.53349 11.427604 70.920313 11.106667 71.320312 11 C 71.533646 10.92 71.733255 10.82737 71.919922 10.720703 C 72.133255 10.614036 72.240234 10.465964 72.240234 10.279297 C 72.240234 10.119297 72.145651 10.026667 71.958984 10 C 71.772318 9.9466667 71.599453 9.9199219 71.439453 9.9199219 C 71.14612 9.9199219 70.919766 9.9342708 70.759766 9.9609375 C 70.599766 9.9876042 70.412552 10.026745 70.199219 10.080078 C 69.985885 10.106745 69.625807 10.119141 69.119141 10.119141 C 68.399141 10.119141 67.866198 10.092396 67.519531 10.039062 C 67.172865 9.9590625 66.705807 9.9199219 66.119141 9.9199219 C 65.985807 9.9199219 65.812943 9.9466667 65.599609 10 C 65.412943 10.026667 65.320312 10.119297 65.320312 10.279297 C 65.320312 10.465964 65.412943 10.614036 65.599609 10.720703 C 65.812943 10.82737 66.026901 10.92 66.240234 11 C 66.533568 11.106667 66.840156 11.306276 67.160156 11.599609 C 67.480156 11.892943 67.640625 12.279766 67.640625 12.759766 C 67.640625 12.946432 67.61388 13.199531 67.560547 13.519531 C 67.53388 13.839531 67.466042 14.106979 67.359375 14.320312 L 64.320312 21.400391 C 64.213646 21.667057 64.106667 21.800781 64 21.800781 C 63.92 21.800781 63.813021 21.652708 63.679688 21.359375 L 60.679688 13.640625 C 60.573021 13.400625 60.492786 13.186667 60.439453 13 C 60.412786 12.786667 60.400391 12.599453 60.400391 12.439453 C 60.400391 11.959453 60.54651 11.62612 60.839844 11.439453 C 61.159844 11.252786 61.466432 11.106667 61.759766 11 C 61.973099 10.92 62.172708 10.82737 62.359375 10.720703 C 62.572708 10.614036 62.679687 10.465964 62.679688 10.279297 C 62.679687 10.119297 62.572708 10.026667 62.359375 10 C 62.172708 9.9466667 62.014193 9.9199219 61.880859 9.9199219 C 61.454193 9.9199219 60.972786 9.9590625 60.439453 10.039062 C 59.90612 10.092396 59.266198 10.119141 58.519531 10.119141 C 57.772865 10.119141 57.174036 10.092396 56.720703 10.039062 C 56.294036 9.9590625 55.892865 9.9199219 55.519531 9.9199219 C 55.359531 9.9199219 55.186667 9.9466667 55 10 C 54.813333 10.026667 54.720703 10.119297 54.720703 10.279297 C 54.720703 10.465964 54.813333 10.614036 55 10.720703 C 55.213333 10.82737 55.427292 10.92 55.640625 11 C 56.093958 11.186667 56.546667 11.46651 57 11.839844 C 57.453333 12.213177 57.679688 12.69263 57.679688 13.279297 C 57.679688 13.57263 57.652943 13.879219 57.599609 14.199219 C 57.572943 14.519219 57.492708 14.852552 57.359375 15.199219 L 54.640625 21.679688 C 54.613958 21.786354 54.54612 21.839844 54.439453 21.839844 C 54.332786 21.839844 54.266901 21.786354 54.240234 21.679688 L 51.119141 13.640625 C 50.985807 13.293958 50.919922 12.946276 50.919922 12.599609 C 50.919922 12.226276 50.985807 11.892943 51.119141 11.599609 C 51.279141 11.279609 51.493099 11.08 51.759766 11 C 51.973099 10.92 52.172708 10.82737 52.359375 10.720703 C 52.572708 10.614036 52.679688 10.465964 52.679688 10.279297 C 52.679688 10.119297 52.572708 10.026667 52.359375 10 C 52.146042 9.9466667 51.987526 9.9199219 51.880859 9.9199219 C 51.507526 9.9199219 51.133099 9.9342708 50.759766 9.9609375 C 50.413099 9.9876042 50.053021 10.026745 49.679688 10.080078 C 49.306354 10.106745 48.93388 10.119141 48.560547 10.119141 C 48.21388 10.119141 47.880547 10.106745 47.560547 10.080078 C 47.240547 10.026745 46.919609 9.9876042 46.599609 9.9609375 C 46.306276 9.9342708 45.987292 9.9199219 45.640625 9.9199219 z "
       style="font-style:normal;font-variant:normal;font-weight:normal;font-stretch:normal;font-size:40px;line-height:1.25;font-family:'EB Garamond';-inkscape-font-specification:'EB Garamond';letter-spacing:0px;word-spacing:0px;fill-opacity:1;stroke:none;" />
  </g>
</svg>
