<?xml version="1.0" encoding="UTF-8" standalone="no"?>
<!-- Created with Inkscape (http://www.inkscape.org/) -->

<svg
   xmlns:dc="http://purl.org/dc/elements/1.1/"
   xmlns:cc="http://creativecommons.org/ns#"
   xmlns:rdf="http://www.w3.org/1999/02/22-rdf-syntax-ns#"
   xmlns:svg="http://www.w3.org/2000/svg"
   xmlns="http://www.w3.org/2000/svg"
   xmlns:sodipodi="http://sodipodi.sourceforge.net/DTD/sodipodi-0.dtd"
   xmlns:inkscape="http://www.inkscape.org/namespaces/inkscape"
   viewBox="0 0 67.194855 33.220555"
   version="1.1"
   id="letraX"
   inkscape:version="0.92.5 (2060ec1f9f, 2020-04-08)"
   sodipodi:docname="X.svg">
  <defs
     id="defs2" />
  <sodipodi:namedview
     id="base"
     pagecolor="#ffffff"
     bordercolor="#666666"
     borderopacity="1.0"
     inkscape:pageopacity="0.0"
     inkscape:pageshadow="2"
     inkscape:zoom="3.7643007"
     inkscape:cx="126.98242"
     inkscape:cy="62.499982"
     inkscape:document-units="mm"
     inkscape:current-layer="layer1"
     showgrid="false"
     fit-margin-top="0"
     fit-margin-left="0"
     fit-margin-right="0"
     fit-margin-bottom="0"
     inkscape:window-width="1440"
     inkscape:window-height="828"
     inkscape:window-x="0"
     inkscape:window-y="0"
     inkscape:window-maximized="1"
     showguides="true"
     inkscape:guide-bbox="true"
     inkscape:snap-grids="true"
     inkscape:snap-bbox="true"
     inkscape:bbox-paths="true"
     inkscape:snap-bbox-edge-midpoints="true">
    <inkscape:grid
       type="xygrid"
       id="grid150"
       originx="-22.626527"
       originy="-19.843752" />
  </sodipodi:namedview>
  <metadata
     id="metadata5">
    <rdf:RDF>
      <cc:Work
         rdf:about="">
        <dc:format>image/svg+xml</dc:format>
        <dc:type
           rdf:resource="http://purl.org/dc/dcmitype/StillImage" />
        <dc:title></dc:title>
      </cc:Work>
    </rdf:RDF>
  </metadata>
  <g
     inkscape:label="Capa 1"
     inkscape:groupmode="layer"
     id="layer1"
     transform="translate(-69.855079,-119.42127)">
    <path
       style="font-style:normal;font-variant:normal;font-weight:normal;font-stretch:normal;font-size:50.25802612px;line-height:1.25;font-family:'EB Garamond';-inkscape-font-specification:'EB Garamond';letter-spacing:0px;word-spacing:0px;fill-opacity:1;stroke:none;stroke-width:1.00000012"
       d="M 127.64844 0 C 125.11575 0 121.75901 0.19040931 117.58008 0.5703125 C 113.52778 0.95021569 109.66458 1.140625 105.99219 1.140625 L 100.48438 1.140625 C 98.711493 1.0139906 97.001716 0.94921875 95.355469 0.94921875 L 90.607422 0.94921875 C 88.961175 0.94921875 87.630263 1.1396281 86.617188 1.5195312 C 85.604112 1.7728 85.097656 2.2792561 85.097656 3.0390625 C 85.097656 3.9255033 85.794522 4.7480061 87.1875 5.5078125 C 88.707113 6.1409845 90.100844 6.5846218 91.367188 6.8378906 C 94.406413 7.3444282 96.557875 8.1041123 97.824219 9.1171875 C 99.217197 10.130263 99.914062 11.333584 99.914062 12.726562 C 99.914063 13.992906 99.470425 15.449456 98.583984 17.095703 C 97.697544 18.74195 96.496175 20.514547 94.976562 22.414062 L 74.650391 49.197266 C 73.637315 50.590244 72.751994 51.349928 71.992188 51.476562 C 71.359016 51.603197 70.346103 50.653103 68.953125 48.626953 L 51.666016 24.314453 C 47.487081 18.489271 45.398438 14.56326 45.398438 12.537109 C 45.398438 11.017497 46.22094 9.8769939 47.867188 9.1171875 C 49.513435 8.3573811 51.920078 7.5348783 55.085938 6.6484375 C 57.238722 6.0152655 58.820909 5.4459907 59.833984 4.9394531 C 60.84706 4.4329155 61.353516 3.7360502 61.353516 2.8496094 C 61.353516 2.089803 60.84706 1.5833469 59.833984 1.3300781 C 58.820909 0.95017494 57.49195 0.75976562 55.845703 0.75976562 C 54.199456 0.75976562 51.604357 0.82258435 48.058594 0.94921875 C 44.512831 1.0758531 40.840048 1.140625 37.041016 1.140625 C 32.355543 1.140625 27.41662 1.0130344 22.224609 0.75976562 C 17.159234 0.37986244 13.042813 0.18945312 9.8769531 0.18945312 C 8.230706 0.18945312 6.901747 0.37986244 5.8886719 0.75976562 C 4.8755967 1.0130344 4.3691406 1.5194905 4.3691406 2.2792969 C 4.3691406 3.1657377 4.8755967 3.9254218 5.8886719 4.5585938 C 7.0283814 5.1917657 8.6105684 5.8258124 10.636719 6.4589844 C 12.789503 7.0921564 14.942918 7.9146592 17.095703 8.9277344 C 19.248488 9.9408095 21.590359 11.650587 24.123047 14.056641 C 26.655735 16.33606 29.506015 19.690843 32.671875 24.123047 L 58.125 59.833984 C 59.897882 62.366672 60.531928 64.520087 60.025391 66.292969 C 59.518853 67.939216 58.56876 69.648993 57.175781 71.421875 L 33.431641 101.05469 C 30.772318 104.34718 27.733582 107.26028 24.314453 109.79297 C 20.895324 112.32566 17.538588 114.4143 14.246094 116.06055 C 11.080234 117.58016 8.4203629 118.65589 6.2675781 119.28906 C 4.2414278 119.92223 2.6592408 120.55628 1.5195312 121.18945 C 0.50645608 121.82263 0 122.58231 0 123.46875 C 0 124.22856 0.50645608 124.73501 1.5195312 124.98828 C 2.5326064 125.36818 3.8615653 125.55859 5.5078125 125.55859 C 8.6736724 125.55859 12.346456 125.36818 16.525391 124.98828 C 20.83096 124.60838 25.13779 124.41797 29.443359 124.41797 C 32.862488 124.41797 36.091634 124.48079 39.130859 124.60742 C 42.296719 124.73406 44.701409 124.79883 46.347656 124.79883 C 47.993903 124.79883 49.324815 124.67124 50.337891 124.41797 C 51.350966 124.03807 51.857422 123.46879 51.857422 122.70898 C 51.857422 121.82254 51.350966 121.12568 50.337891 120.61914 C 49.324815 119.98597 47.740675 119.41669 45.587891 118.91016 C 43.055203 118.27698 40.96656 117.32689 39.320312 116.06055 C 37.8007 114.66757 37.041016 113.08538 37.041016 111.3125 C 37.041016 110.67933 37.166653 109.98246 37.419922 109.22266 C 37.799825 108.46285 38.243462 107.70317 38.75 106.94336 L 64.394531 73.890625 C 65.027703 73.004184 65.659797 72.625319 66.292969 72.751953 C 66.926141 72.751953 67.685825 73.448819 68.572266 74.841797 L 88.328125 103.52344 C 89.214566 104.66315 89.783841 105.73888 90.037109 106.75195 C 90.417013 107.76503 90.607422 108.77989 90.607422 109.79297 C 90.607422 112.19902 89.657328 114.16007 87.757812 115.67969 C 85.984931 117.07267 84.149516 118.08753 82.25 118.7207 C 80.983656 119.10061 79.589925 119.60706 78.070312 120.24023 C 76.677334 120.87341 75.980469 121.63309 75.980469 122.51953 C 75.980469 123.27934 76.486925 123.84861 77.5 124.22852 C 78.513075 124.48178 79.842034 124.60742 81.488281 124.60742 L 90.037109 124.60742 C 93.456238 124.48079 97.129021 124.41797 101.05469 124.41797 C 104.09391 124.41797 107.32306 124.48079 110.74219 124.60742 C 114.28795 124.86069 117.64273 125.0511 120.80859 125.17773 C 123.97445 125.431 126.44392 125.55859 128.2168 125.55859 C 129.86304 125.55859 131.19396 125.36818 132.20703 124.98828 C 133.22011 124.73501 133.72656 124.22856 133.72656 123.46875 C 133.72656 122.58231 133.22011 121.88544 132.20703 121.37891 C 131.19396 120.74573 129.60982 120.17646 127.45703 119.66992 C 123.91127 118.65685 120.36608 116.75666 116.82031 113.9707 C 113.27455 111.18475 110.0454 107.70237 107.13281 103.52344 L 77.689453 61.164062 C 77.056281 59.771084 76.930644 58.695353 77.310547 57.935547 C 77.69045 57.049106 78.703362 55.592557 80.349609 53.566406 L 102.19336 27.732422 C 106.37229 22.79368 110.61435 18.172757 114.91992 13.867188 C 119.35213 9.4349836 123.34096 6.7751127 126.88672 5.8886719 C 129.0395 5.2554999 130.62364 4.6862251 131.63672 4.1796875 C 132.64979 3.6731499 133.15625 2.9762845 133.15625 2.0898438 C 133.15625 1.3300374 132.64979 0.82358129 131.63672 0.5703125 C 130.62364 0.19040931 129.29468 0 127.64844 0 z M 247.69727 47.677734 C 246.05102 47.677734 244.5297 47.868144 243.13672 48.248047 C 241.74374 48.501316 239.27428 48.626953 235.72852 48.626953 C 234.2089 48.626953 232.50108 48.564134 230.60156 48.4375 C 228.70205 48.184231 227.2455 48.058594 226.23242 48.058594 C 225.72588 48.058594 224.83861 48.121412 223.57227 48.248047 C 222.43256 48.248047 221.86328 48.754503 221.86328 49.767578 C 221.86328 50.654019 222.30692 51.350884 223.19336 51.857422 C 224.20643 52.363959 225.21935 52.805644 226.23242 53.185547 C 227.87867 53.692084 228.70117 54.70695 228.70117 56.226562 C 228.70117 56.859734 228.57553 57.554647 228.32227 58.314453 C 228.069 59.07426 227.68818 59.771125 227.18164 60.404297 L 217.49414 75.03125 C 216.86097 75.917691 216.29169 75.917691 215.78516 75.03125 L 207.04688 61.923828 C 206.28707 60.657484 205.65302 59.518935 205.14648 58.505859 C 204.76658 57.36615 204.57812 56.478875 204.57812 55.845703 C 204.57812 54.832628 205.01981 54.135763 205.90625 53.755859 C 206.79269 53.249322 207.67997 52.870456 208.56641 52.617188 C 209.45285 52.363919 210.21253 52.045919 210.8457 51.666016 C 211.60551 51.286112 211.98633 50.716838 211.98633 49.957031 C 211.98633 48.943956 211.35228 48.4375 210.08594 48.4375 C 208.94623 48.310866 208.12373 48.248047 207.61719 48.248047 C 205.4644 48.248047 203.88026 48.310866 202.86719 48.4375 C 201.85411 48.564134 200.20911 48.626953 197.92969 48.626953 C 194.89046 48.626953 192.73705 48.564134 191.4707 48.4375 C 190.20436 48.310866 189.06386 48.185228 188.05078 48.058594 C 187.16434 47.931959 185.45652 47.867188 182.92383 47.867188 C 182.41729 47.867188 181.53002 47.931959 180.26367 48.058594 C 179.12396 48.058594 178.55469 48.56505 178.55469 49.578125 C 178.55469 50.5912 178.99637 51.350884 179.88281 51.857422 C 180.89589 52.363959 181.91075 52.742825 182.92383 52.996094 C 184.82334 53.502631 186.34271 54.327087 187.48242 55.466797 C 188.74877 56.606506 190.14054 58.441921 191.66016 60.974609 L 207.23633 84.71875 C 207.74287 85.478556 207.99609 86.175422 207.99609 86.808594 C 208.12273 87.315131 207.74386 88.074815 206.85742 89.087891 L 192.23047 109.41211 C 189.57115 113.08451 187.22928 115.67961 185.20312 117.19922 C 183.30361 118.5922 181.40342 119.60706 179.50391 120.24023 C 178.49083 120.4935 177.47792 120.87237 176.46484 121.37891 C 175.5784 121.88544 175.13477 122.64513 175.13477 123.6582 C 175.13477 124.41801 175.5784 124.86165 176.46484 124.98828 C 177.35128 125.24155 178.17379 125.36719 178.93359 125.36719 C 180.70648 125.36719 182.35343 125.17873 183.87305 124.79883 C 185.51929 124.54556 188.11439 124.41797 191.66016 124.41797 C 193.17977 124.41797 194.95237 124.48079 196.97852 124.60742 C 199.1313 124.73406 200.71544 124.79883 201.72852 124.79883 C 202.23505 124.79883 203.05756 124.73406 204.19727 124.60742 C 205.46361 124.48079 206.09766 123.97433 206.09766 123.08789 C 206.09766 122.07482 205.5912 121.3799 204.57812 121 C 203.69168 120.49346 202.74159 120.04983 201.72852 119.66992 C 200.84207 119.41665 200.14521 118.9102 199.63867 118.15039 C 199.25877 117.26395 199.06836 116.37668 199.06836 115.49023 C 199.06836 114.73043 199.19595 114.03356 199.44922 113.40039 C 199.70249 112.64058 199.8929 112.13413 200.01953 111.88086 L 212.55469 93.076172 C 212.93459 92.696269 213.31541 92.696269 213.69531 93.076172 L 224.90234 111.3125 C 225.28225 111.94567 225.53547 112.57777 225.66211 113.21094 C 225.91538 113.71748 226.04102 114.22393 226.04102 114.73047 C 226.04102 115.99681 225.47174 117.00972 224.33203 117.76953 C 223.31896 118.4027 222.11563 118.90916 220.72266 119.28906 C 219.20304 119.66897 217.99972 120.1126 217.11328 120.61914 C 216.35347 121.12568 215.97461 121.94818 215.97461 123.08789 C 215.97461 124.35423 217.43116 124.98828 220.34375 124.98828 C 222.49653 124.98828 224.77559 124.92546 227.18164 124.79883 C 229.58769 124.67219 231.92957 124.60742 234.20898 124.60742 C 237.37484 124.60742 239.59108 124.67219 240.85742 124.79883 C 242.2504 124.92546 243.51654 125.0511 244.65625 125.17773 C 245.79596 125.30437 247.63333 125.36719 250.16602 125.36719 C 250.92582 125.36719 251.74832 125.24155 252.63477 124.98828 C 253.52121 124.86165 253.96484 124.41801 253.96484 123.6582 C 253.96484 122.64513 253.45839 121.88544 252.44531 121.37891 C 251.55887 120.87237 250.60878 120.4935 249.5957 120.24023 C 247.69619 119.60706 246.04923 118.71979 244.65625 117.58008 C 243.26327 116.44037 241.80868 114.66777 240.28906 112.26172 L 221.86328 82.25 C 221.48338 81.743462 221.29297 81.299825 221.29297 80.919922 C 221.4196 80.413384 221.54719 80.032566 221.67383 79.779297 L 233.64062 61.734375 C 235.41351 59.201687 237.62974 57.238681 240.28906 55.845703 C 242.94838 54.32609 245.22744 53.313178 247.12695 52.806641 C 248.14003 52.426737 249.09012 51.9831 249.97656 51.476562 C 250.98964 50.970025 251.49609 50.27316 251.49609 49.386719 C 251.49609 48.626912 251.05246 48.185228 250.16602 48.058594 C 249.27957 47.805325 248.45707 47.677734 247.69727 47.677734 z "
       transform="matrix(0.26458333,0,0,0.26458333,69.855079,119.42127)"
       id="text12" />
  </g>
</svg>
